<?xml version="1.0" standalone="no"?><!DOCTYPE svg PUBLIC "-//W3C//DTD SVG 1.1//EN" "http://www.w3.org/Graphics/SVG/1.1/DTD/svg11.dtd"><svg height="126" node-id="1" sillyvg="true" template-height="126" template-width="126" version="1.1" viewBox="0 0 126 126" width="126" xmlns="http://www.w3.org/2000/svg" xmlns:xlink="http://www.w3.org/1999/xlink"><defs node-id="306"></defs><g node-id="1092"><g node-id="1093"><g node-id="1096"><path d="M 106.75 65.29 C 105.34 65.49 91.93 61.10 90.50 55.09 C 89.08 49.07 78.35 42.80 73.78 44.35 C 69.21 45.90 63.22 44.24 63.22 44.24 L 59.44 42.42 L 58.58 42.01 L 58.58 42.01 L 1.00 75.25 L 65.03 112.47 L 120.98 80.17 C 122.55 79.26 123.85 77.92 124.53 76.25 C 128.31 67.02 108.05 65.11 106.75 65.29 Z" fill="#f3f6fd" fill-rule="nonzero" group-id="1,2,5" node-id="316" stroke="none" target-height="70.462906" target-width="127.30611" target-x="1" target-y="42.0074"></path><path d="M 61.50 93.98 L 61.97 93.21 L 61.86 92.71 L 61.16 92.89 L 61.70 92.02 L 61.22 88.65 L 63.70 87.21 L 63.47 86.48 L 46.27 92.29 L 46.41 92.94 L 48.30 94.37 L 48.94 95.04 L 49.64 94.86 L 49.11 95.72 L 49.21 96.23 L 49.83 96.07 L 49.36 96.84 L 49.46 97.34 L 51.37 96.86 L 52.20 95.51 L 52.74 97.92 L 53.43 97.75 L 52.90 98.60 L 53.00 99.11 L 53.62 98.95 L 53.15 99.71 L 53.25 100.22 L 55.16 99.73 L 56.61 97.39 L 56.50 96.89 L 55.89 97.05 L 56.36 96.28 L 56.33 96.14 L 57.45 95.85 L 58.28 94.51 L 58.35 94.84 L 59.05 94.66 L 58.51 95.53 L 58.62 96.03 L 59.23 95.88 L 58.76 96.64 L 58.87 97.14 L 60.78 96.65 L 62.22 94.33 L 62.11 93.83 Z" fill="#e1e9f4" fill-rule="nonzero" group-id="1,2,5" node-id="318" stroke="none" target-height="13.7421875" target-width="17.438698" target-x="46.2652" target-y="86.47541"></path><g node-id="1102"><path d="M 74.27 89.78 C 72.52 90.55 69.92 90.55 68.46 89.78 C 67.74 89.41 67.43 88.91 67.52 88.41 L 67.67 87.60 C 67.71 87.43 67.79 87.26 67.92 87.09 C 67.86 86.94 67.83 86.78 67.85 86.63 C 67.72 86.71 67.57 86.77 67.42 86.81 L 66.51 87.08 C 66.50 87.09 66.50 87.09 66.49 87.09 C 65.87 87.28 65.16 87.16 64.51 86.65 C 63.27 85.68 62.74 83.67 63.33 82.18 C 63.68 81.32 64.32 80.82 65.04 80.74 C 64.94 80.75 64.84 80.76 64.75 80.79 L 65.73 80.51 C 66.33 80.33 67.02 80.47 67.65 80.96 C 68.07 81.30 68.41 81.75 68.66 82.26 L 68.69 82.08 C 68.78 81.58 69.27 81.08 70.15 80.70 C 71.90 79.94 74.50 79.94 75.95 80.70 C 77.45 81.47 76.74 82.40 76.75 82.88 C 76.72 83.05 76.64 83.22 76.51 83.40 C 76.67 83.78 76.47 84.84 76.17 85.23 C 76.32 85.60 76.15 86.66 75.83 87.08 C 75.90 87.24 75.92 87.41 75.89 87.59 C 75.70 88.05 76.08 88.99 74.27 89.78 Z" fill="#e1e9f4" fill-rule="nonzero" group-id="1,2,5,11" node-id="322" stroke="none" target-height="10.609299" target-width="14.7153015" target-x="62.7369" target-y="79.9359"></path></g><path d="M 114.38 83.98 L 77.93 63.08 L 69.21 68.12 L 105.66 89.01 L 105.13 89.32 L 68.69 68.42 L 41.49 84.12 L 77.93 105.02 L 77.41 105.32 L 40.96 84.42 L 32.25 89.46 L 68.69 110.36 L 68.17 110.66 L 3.89 73.58 L 4.41 73.28 L 31.83 89.22 L 40.55 84.19 L 13.13 68.25 L 13.65 67.95 L 41.07 83.88 L 49.87 78.80 L 22.45 62.87 L 22.82 62.65 L 50.24 78.59 L 59.12 73.47 L 31.69 57.53 L 32.06 57.32 L 59.48 73.25 L 68.28 68.18 L 40.85 52.24 L 41.38 51.94 L 68.80 67.88 L 77.52 62.84 L 50.10 46.90 L 50.62 46.60 L 114.90 83.68 Z" fill="#fdfeff" fill-rule="nonzero" group-id="1,2,5" node-id="325" stroke="none" target-height="64.05879" target-width="111.012405" target-x="3.8887002" target-y="46.6005"></path></g><g node-id="1097"><path d="M 47.13 87.36 L 50.31 85.82 C 50.57 85.69 50.79 85.52 50.88 85.38 L 53.54 81.10 C 53.59 81.02 53.59 80.96 53.53 80.93 L 53.17 80.75 C 53.12 80.73 53.03 80.73 52.89 80.77 C 52.73 80.82 52.55 80.92 52.41 81.02 C 50.60 82.46 49.62 83.08 48.36 83.81 C 48.37 83.67 48.39 83.54 48.40 83.41 C 48.39 83.40 48.39 83.40 48.38 83.39 C 48.40 83.16 48.43 82.92 48.42 82.70 C 48.27 82.41 47.95 82.17 47.54 81.99 C 48.85 80.48 49.42 78.91 49.08 77.53 C 50.96 77.39 52.87 77.05 54.59 76.52 C 56.99 75.78 58.56 74.81 59.17 73.84 L 60.14 72.27 C 60.74 71.31 60.39 70.36 58.94 69.63 C 56.04 68.16 49.81 68.16 45.03 69.63 C 42.63 70.37 41.06 71.34 40.45 72.31 L 39.49 73.86 C 38.88 74.83 39.23 75.79 40.68 76.52 C 41.69 77.03 43.10 77.36 44.72 77.51 C 42.64 78.90 41.23 80.47 40.65 81.98 C 39.52 82.31 38.70 82.68 37.73 83.65 C 36.96 81.97 37.48 80.96 37.07 80.77 C 36.86 80.68 36.74 80.80 36.23 80.93 C 35.96 81.03 36.10 81.05 33.32 85.38 C 33.23 85.52 33.24 85.69 33.33 85.82 L 34.44 87.19 C 33.02 89.09 32.03 91.11 31.57 93.02 L 38.13 96.83 C 42.25 94.03 45.47 90.54 47.13 87.36 Z" fill="#e1e9f4" fill-rule="nonzero" group-id="1,2,6" node-id="330" stroke="none" target-height="28.672401" target-width="29.169895" target-x="31.5741" target-y="68.157"></path></g><g node-id="1098"><path d="M 94.42 77.03 C 94.36 78.52 93.44 79.33 93.89 80.84 C 94.17 81.78 94.01 82.39 93.84 82.64 C 94.05 83.26 93.37 83.59 93.59 86.48 C 93.73 88.32 92.06 86.70 91.64 86.28 L 91.45 86.33 C 91.59 86.71 91.43 87.05 91.44 87.52 C 91.45 88.24 90.55 87.55 89.98 87.01 C 89.57 86.63 87.07 84.22 87.63 84.20 C 87.74 84.20 87.84 84.22 87.94 84.23 C 88.05 83.87 88.39 83.54 88.39 83.54 C 88.55 83.22 88.85 83.57 89.60 84.04 L 89.70 83.95 C 88.63 82.30 88.51 82.13 88.43 81.94 C 87.80 81.03 88.61 79.76 88.24 79.30 C 87.27 78.10 86.03 77.30 85.38 76.68 C 85.28 76.64 85.17 76.61 85.13 76.61 C 85.04 76.63 84.99 76.63 84.89 76.58 C 84.80 76.55 84.67 76.52 84.63 76.53 C 84.58 76.53 84.58 76.58 84.54 76.55 C 84.35 76.40 84.48 76.30 84.52 76.30 C 84.57 76.29 84.63 76.32 84.66 76.30 C 84.71 76.27 83.41 75.58 83.53 75.52 L 78.26 72.38 L 77.76 74.58 L 74.20 72.45 L 74.18 72.51 L 73.09 71.86 L 74.05 73.15 L 73.76 74.34 L 70.58 72.45 L 70.42 73.13 C 70.43 73.12 70.42 73.10 70.42 73.10 C 70.38 73.37 70.03 73.35 69.36 72.95 L 68.42 71.68 C 67.36 70.84 64.03 67.58 64.26 66.63 L 64.29 66.47 L 61.55 62.74 L 61.83 61.55 L 62.92 62.19 L 61.98 60.91 L 62.06 60.55 L 59.17 56.63 L 59.22 56.41 L 68.44 61.91 L 68.94 59.71 L 75.83 63.83 L 76.34 61.62 L 83.23 65.74 L 83.73 63.53 L 90.82 67.77 L 100.57 70.10 L 100.52 70.32 L 94.42 77.03 Z M 89.35 77.84 C 88.28 76.82 87.15 75.59 86.40 74.73 L 85.66 74.29 L 85.24 76.13 C 86.37 76.67 88.30 78.44 88.93 79.03 C 89.11 78.52 89.25 78.14 89.35 77.84 Z" fill="#e1e9f4" fill-rule="nonzero" group-id="1,2,7" node-id="335" stroke="none" target-height="31.906906" target-width="41.4012" target-x="59.1709" target-y="56.4106"></path></g><g node-id="1099"><g node-id="1103"><g node-id="1106"><g node-id="1121"><g node-id="1164"><path d="M 68.88 54.66 L 79.55 48.46 L 79.57 43.94 L 68.90 50.14 Z" fill="#9eb5df" fill-rule="nonzero" group-id="1,2,8,12,15,30,73" node-id="348" stroke="none" target-height="10.717003" target-width="10.682205" target-x="68.8847" target-y="43.938896"></path></g><g node-id="1165"><path d="M 68.90 50.14 L 79.57 43.94 L 69.69 38.24 L 59.02 44.44 Z" fill="#dee7f8" fill-rule="nonzero" group-id="1,2,8,12,15,30,74" node-id="353" stroke="none" target-height="11.900501" target-width="20.542305" target-x="59.024597" target-y="38.2388"></path></g><g node-id="1166"><path d="M 75.95 63.26 L 86.62 57.06 L 86.63 52.54 L 75.97 58.74 Z" fill="#9eb5df" fill-rule="nonzero" group-id="1,2,8,12,15,30,75" node-id="358" stroke="none" target-height="10.7207985" target-width="10.682205" target-x="75.9526" target-y="52.543602"></path></g><g node-id="1167"><path d="M 75.97 58.74 L 86.63 52.54 L 79.55 48.46 L 68.88 54.66 Z" fill="#dee7f8" fill-rule="nonzero" group-id="1,2,8,12,15,30,76" node-id="363" stroke="none" target-height="10.288391" target-width="17.750107" target-x="68.8847" target-y="48.455605"></path></g><g node-id="1168"><path d="M 83.04 67.35 L 93.71 61.15 L 86.62 57.06 L 75.95 63.26 Z" fill="#dee7f8" fill-rule="nonzero" group-id="1,2,8,12,15,30,77" node-id="368" stroke="none" target-height="10.290501" target-width="17.7537" target-x="75.9526" target-y="57.0641"></path></g><g node-id="1169"><path d="M 83.02 71.87 L 93.69 65.67 L 93.71 61.15 L 83.04 67.35 Z" fill="#9eb5df" fill-rule="nonzero" group-id="1,2,8,12,15,30,78" node-id="373" stroke="none" target-height="10.716999" target-width="10.682198" target-x="83.0241" target-y="61.1542"></path></g><g node-id="1170"><path d="M 89.90 76.30 L 100.57 70.10 L 100.57 69.64 L 89.90 75.84 Z" fill="#9eb5df" fill-rule="nonzero" group-id="1,2,8,12,15,30,79" node-id="378" stroke="none" target-height="6.6570053" target-width="10.670692" target-x="89.903" target-y="69.6431"></path></g><g node-id="1171"><path d="M 59.02 44.44 L 59.02 44.90 L 68.50 50.37 L 68.49 54.88 L 75.57 58.97 L 75.55 63.49 L 82.64 67.58 L 82.63 72.10 L 89.90 76.30 L 89.90 75.84 L 83.02 71.87 L 83.04 67.35 L 75.95 63.26 L 75.97 58.74 L 68.88 54.66 L 68.90 50.14 Z" fill="#83a1cc" fill-rule="nonzero" group-id="1,2,8,12,15,30,80" node-id="383" stroke="none" target-height="31.860897" target-width="30.88099" target-x="59.0233" target-y="44.439205"></path></g><path d="M 89.90 75.84 L 100.57 69.64 L 93.69 65.67 L 83.02 71.87 Z" fill="#dee7f8" fill-rule="nonzero" group-id="1,2,8,12,15,30,81" node-id="388" stroke="none" target-height="10.172699" target-width="17.549591" target-x="83.0241" target-y="65.6708"></path></g></g><g node-id="1107"><g node-id="1122"><g node-id="1173"><g node-id="1205"><path d="M 62.45 41.71 L 62.45 44.17 L 69.16 48.06 L 69.16 45.61 Z" fill="#1e72c6" fill-rule="nonzero" group-id="1,2,8,12,16,31,82,114" node-id="401" stroke="none" target-height="6.356102" target-width="6.7112007" target-x="62.4503" target-y="41.7076"></path></g><g node-id="1206"><path d="M 69.16 45.61 L 69.16 48.06 L 75.91 44.17 L 75.91 41.71 Z" fill="#3887e5" fill-rule="nonzero" group-id="1,2,8,12,16,31,82,115" node-id="406" stroke="none" target-height="6.3551025" target-width="6.753502" target-x="69.1575" target-y="41.7086"></path></g><path d="M 62.45 41.71 L 69.16 45.61 L 75.91 41.71 L 69.20 37.81 Z" fill="#6b9ef9" fill-rule="nonzero" group-id="1,2,8,12,16,31,82,116" node-id="411" stroke="none" target-height="7.7946014" target-width="13.456699" target-x="62.4503" target-y="37.8108"></path></g></g><g node-id="1123"><g node-id="1174"><g node-id="1208"><path d="M 62.45 37.95 L 62.45 40.41 L 69.16 44.30 L 69.16 41.84 Z" fill="#1e72c6" fill-rule="nonzero" group-id="1,2,8,12,16,32,83,117" node-id="422" stroke="none" target-height="6.356102" target-width="6.7112007" target-x="62.4503" target-y="37.947"></path></g><g node-id="1209"><path d="M 69.16 41.84 L 69.16 44.30 L 75.91 40.41 L 75.91 37.95 Z" fill="#3887e5" fill-rule="nonzero" group-id="1,2,8,12,16,32,83,118" node-id="427" stroke="none" target-height="6.3552017" target-width="6.753502" target-x="69.1575" target-y="37.9479"></path></g><path d="M 62.45 37.95 L 69.16 41.84 L 75.91 37.95 L 69.20 34.05 Z" fill="#6b9ef9" fill-rule="nonzero" group-id="1,2,8,12,16,32,83,119" node-id="432" stroke="none" target-height="7.7947006" target-width="13.456699" target-x="62.4503" target-y="34.0501"></path></g></g><g node-id="1124"><g node-id="1175"><path d="M 65.72 35.74 L 69.18 35.74 L 69.18 37.51 L 65.72 37.51 Z" fill="#d390a1" fill-rule="nonzero" group-id="1,2,8,12,16,33,84" node-id="441" stroke="none" target-height="1.7776985" target-width="3.4661026" target-x="65.7154" target-y="35.736"></path></g><g node-id="1176"><path d="M 66.74 34.32 C 66.06 34.71 65.72 35.22 65.71 35.74 L 69.18 35.74 L 71.64 34.32 C 70.29 33.53 68.10 33.53 66.74 34.32 Z" fill="#ecb4bf" fill-rule="nonzero" group-id="1,2,8,12,16,33,85" node-id="446" stroke="none" target-height="2.204399" target-width="5.9261017" target-x="65.7144" target-y="33.5317"></path></g><g node-id="1177"><path d="M 72.65 37.96 L 72.64 34.65 C 72.65 34.88 72.58 35.10 72.46 35.31 L 72.46 38.62 C 72.59 38.41 72.65 38.18 72.65 37.96 Z" fill="#3887e5" fill-rule="nonzero" group-id="1,2,8,12,16,33,86" node-id="451" stroke="none" target-height="3.9637985" target-width="0.18920135" target-x="72.4583" target-y="34.6543"></path></g><g node-id="1178"><path d="M 69.18 34.67 L 69.18 37.98 L 72.46 38.62 L 72.46 35.31 Z" fill="#1e72c6" fill-rule="nonzero" group-id="1,2,8,12,16,33,87" node-id="456" stroke="none" target-height="3.9505997" target-width="3.2798004" target-x="69.1805" target-y="34.6675"></path></g><g node-id="1179"><path d="M 69.18 34.67 L 72.46 35.31 C 72.87 34.61 72.60 33.81 71.64 33.25 L 69.18 34.67 Z" fill="#a6c2ff" fill-rule="nonzero" group-id="1,2,8,12,16,33,88" node-id="461" stroke="none" target-height="2.0629005" target-width="3.6900024" target-x="69.1805" target-y="33.2473"></path></g><g node-id="1180"><g node-id="1211"><path d="M 65.71 36.81 L 65.72 37.98 C 65.71 38.49 66.05 39.00 66.72 39.40 C 68.07 40.18 70.27 40.18 71.63 39.40 C 72.02 39.17 72.29 38.90 72.46 38.62 L 72.46 37.45 C 72.29 37.73 72.02 38.00 71.62 38.23 C 70.27 39.01 68.07 39.01 66.72 38.23 C 66.05 37.83 65.71 37.32 65.71 36.81 Z" fill="#dee7f8" fill-rule="nonzero" group-id="1,2,8,12,16,33,89,120" node-id="468" stroke="none" target-height="3.3731003" target-width="6.747299" target-x="65.7129" target-y="36.8068"></path></g><path d="M 65.71 36.81 C 65.71 37.32 66.05 37.83 66.72 38.23 C 68.07 39.01 70.27 39.01 71.62 38.23 C 72.02 38.00 72.29 37.73 72.46 37.45 L 69.18 36.81 L 65.71 36.81 Z" fill="#ffffff" fill-rule="nonzero" group-id="1,2,8,12,16,33,89,121" node-id="473" stroke="none" target-height="2.2044983" target-width="6.7453003" target-x="65.7129" target-y="36.8067"></path></g></g></g><g node-id="1108"><g node-id="1125"><g node-id="1181"><path d="M 56.67 70.13 C 53.51 71.96 48.38 71.96 45.21 70.12 C 42.04 68.29 42.02 65.32 45.17 63.49 C 48.33 61.65 53.45 61.65 56.63 63.49 C 59.81 65.32 59.82 68.29 56.67 70.13 Z" fill="#dee7f8" fill-rule="nonzero" group-id="1,2,8,12,17,34,90" node-id="485" stroke="none" target-height="10.308292" target-width="17.803997" target-x="42.0185" target-y="61.648304"></path></g><g node-id="1182"><path d="M 52.65 68.18 C 52.36 68.52 51.89 68.73 51.23 68.78 C 50.77 68.82 50.38 68.70 50.01 68.56 C 49.78 68.47 49.58 68.37 49.36 68.27 L 48.46 68.79 L 47.91 68.47 L 48.80 67.96 L 48.37 67.71 L 47.49 68.23 L 46.94 67.91 L 47.86 67.38 L 46.77 66.75 C 47.02 66.64 47.25 66.54 47.50 66.44 C 47.61 66.51 47.71 66.56 47.82 66.63 C 48.04 66.75 48.16 66.75 48.38 66.62 C 49.12 66.19 49.86 65.76 50.61 65.33 C 50.87 65.18 50.87 65.07 50.61 64.92 C 50.57 64.89 50.53 64.87 50.50 64.85 C 50.42 64.81 50.34 64.76 50.26 64.72 L 50.84 64.38 L 51.93 65.01 L 52.82 64.50 L 53.37 64.81 L 52.51 65.31 L 52.93 65.56 L 53.79 65.06 L 54.34 65.37 L 53.45 65.89 C 53.85 66.12 54.05 66.41 54.09 66.55 C 54.27 67.02 53.56 67.49 52.93 67.49 C 52.79 67.49 52.65 67.47 52.51 67.46 L 52.51 67.48 L 52.55 67.52 C 52.73 67.73 52.85 67.96 52.65 68.18 Z M 50.34 67.93 C 50.70 68.02 50.95 67.99 51.18 67.85 C 51.40 67.72 51.43 67.55 51.28 67.36 C 51.13 67.16 50.89 67.01 50.64 66.86 C 50.58 66.83 50.53 66.80 50.47 66.77 C 50.42 66.74 50.37 66.71 50.32 66.68 C 50.29 66.67 50.27 66.65 50.25 66.64 L 49.05 67.34 C 49.15 67.39 49.25 67.45 49.35 67.51 C 49.64 67.68 49.95 67.84 50.34 67.93 L 50.34 67.93 Z M 51.87 65.70 L 50.79 66.32 C 50.87 66.37 50.95 66.42 51.03 66.47 C 51.26 66.60 51.49 66.72 51.77 66.80 C 52.08 66.89 52.38 66.87 52.60 66.75 C 52.81 66.63 52.86 66.46 52.71 66.28 C 52.58 66.12 52.40 65.99 52.20 65.88 C 52.09 65.81 51.98 65.76 51.87 65.70 L 51.87 65.70 Z" fill="#83a1cc" fill-rule="nonzero" group-id="1,2,8,12,17,34,91" node-id="490" stroke="none" target-height="4.436699" target-width="7.571602" target-x="46.7651" target-y="64.3816"></path></g><g node-id="1183"><path d="M 60.76 66.83 L 60.75 69.21 C 60.74 70.66 59.79 72.10 57.89 73.21 C 54.06 75.43 47.83 75.44 43.98 73.21 C 42.04 72.09 41.07 70.62 41.08 69.16 L 41.08 66.78 C 41.08 68.24 42.05 69.71 43.99 70.83 C 47.84 73.06 54.07 73.06 57.90 70.83 C 59.80 69.73 60.75 68.28 60.76 66.83 Z" fill="#83a1cc" fill-rule="nonzero" group-id="1,2,8,12,17,34,92" node-id="495" stroke="none" target-height="8.6605" target-width="19.685303" target-x="41.0715" target-y="66.7764"></path></g><path d="M 57.85 62.77 C 61.71 65.00 61.73 68.61 57.90 70.83 C 54.07 73.06 47.84 73.06 43.99 70.83 C 40.13 68.61 40.12 65.00 43.94 62.78 C 47.77 60.55 54.00 60.55 57.85 62.77 Z M 45.21 70.12 C 48.38 71.95 53.52 71.96 56.67 70.12 C 59.82 68.29 59.80 65.32 56.63 63.48 C 53.45 61.65 48.33 61.65 45.17 63.48 C 42.02 65.32 42.03 68.29 45.21 70.12" fill="#b6cbea" fill-rule="nonzero" group-id="1,2,8,12,17,34,93" node-id="500" stroke="none" target-height="12.510197" target-width="21.6106" target-x="40.1151" target-y="60.548"></path></g><g node-id="1126"><g node-id="1185"><g node-id="1213"><g node-id="1228"><g node-id="1266"><g node-id="1268"><path d="M 54.15 54.01 L 47.42 54.01 C 46.69 57.50 47.81 61.26 50.79 63.96 C 53.76 61.26 54.88 57.50 54.15 54.01 Z" fill="#83a1cc" fill-rule="nonzero" group-id="1,2,8,12,17,35,94,122,137,175,177" node-id="516" stroke="none" target-height="9.9533" target-width="8.187099" target-x="46.6933" target-y="54.0078"></path><path d="M 53.00 54.57 L 48.58 54.57 C 48.10 56.86 48.83 59.33 50.79 61.10 C 52.74 59.33 53.47 56.86 53.00 54.57 Z" fill="#dee7f8" fill-rule="nonzero" group-id="1,2,8,12,17,35,94,122,137,175,177" node-id="518" stroke="none" target-height="6.5331" target-width="5.373802" target-x="48.1" target-y="54.5693"></path><g node-id="1270"><g node-id="1271"><path d="M 55.99 52.35 C 58.68 44.99 57.10 34.03 51.22 28.10 C 50.98 27.85 50.59 27.85 50.35 28.10 C 44.48 34.03 42.89 44.99 45.59 52.35 C 49.32 55.09 52.80 55.19 55.99 52.35 Z" fill="#dee7f8" fill-rule="nonzero" group-id="1,2,8,12,17,35,94,122,137,175,177,179,180" node-id="524" stroke="none" target-height="27.335203" target-width="15.785702" target-x="42.8938" target-y="27.852999"></path><g node-id="1272"><path d="M 55.56 53.41 C 55.85 52.77 56.09 52.10 56.31 51.40 C 53.80 53.94 47.77 53.94 45.27 51.40 C 45.48 52.10 45.73 52.77 46.01 53.41 C 47.92 55.91 53.66 55.91 55.56 53.41 Z" fill="#4c4a8b" fill-rule="nonzero" group-id="1,2,8,12,17,35,94,122,137,175,177,179,180,181" node-id="528" stroke="none" target-height="4.511196" target-width="11.037701" target-x="45.2681" target-y="51.400204"></path></g><path d="M 51.21 28.08 C 50.98 27.85 50.59 27.85 50.36 28.08 C 49.24 29.21 48.28 30.53 47.47 31.97 C 49.10 33.34 52.47 33.34 54.10 31.97 C 53.29 30.53 52.33 29.21 51.21 28.08 Z" fill="#3887e5" fill-rule="nonzero" group-id="1,2,8,12,17,35,94,122,137,175,177,179,180" node-id="531" stroke="none" target-height="5.4870014" target-width="6.6348953" target-x="47.4684" target-y="27.8501"></path></g></g></g></g></g></g></g><g node-id="1186"><path d="M 52.75 38.24 C 52.75 39.33 51.87 40.20 50.79 40.20 C 49.70 40.20 48.82 39.33 48.82 38.24 C 48.82 37.16 49.70 36.28 50.79 36.28 C 51.87 36.28 52.75 37.16 52.75 38.24 Z" fill="#4c4a8b" fill-rule="nonzero" group-id="1,2,8,12,17,35,95" node-id="542" stroke="none" target-height="3.9283981" target-width="3.9283981" target-x="48.8227" target-y="36.2762"></path><path d="M 52.43 38.24 C 52.43 39.15 51.69 39.88 50.79 39.88 C 49.88 39.88 49.15 39.15 49.15 38.24 C 49.15 37.34 49.88 36.60 50.79 36.60 C 51.69 36.60 52.43 37.34 52.43 38.24 Z" fill="#6b9ef9" fill-rule="nonzero" group-id="1,2,8,12,17,35,95" node-id="544" stroke="none" target-height="3.2783966" target-width="3.2784004" target-x="49.147697" target-y="36.6012"></path><path d="M 52.42 42.67 C 52.42 43.11 52.25 43.52 51.94 43.83 C 51.63 44.13 51.22 44.30 50.79 44.30 C 50.35 44.30 49.94 44.13 49.63 43.83 C 49.33 43.52 49.16 43.11 49.16 42.67 C 49.16 42.24 49.33 41.83 49.63 41.52 C 49.94 41.21 50.35 41.04 50.79 41.04 C 51.22 41.04 51.63 41.21 51.94 41.52 C 52.25 41.83 52.42 42.24 52.42 42.67 Z" fill="#4c4a8b" fill-rule="nonzero" group-id="1,2,8,12,17,35,95" node-id="546" stroke="none" target-height="3.2608032" target-width="3.2607994" target-x="49.1565" target-y="41.0426"></path><path d="M 52.09 42.67 C 52.09 43.02 51.95 43.35 51.71 43.60 C 51.47 43.84 51.13 43.98 50.79 43.98 C 50.44 43.98 50.11 43.84 49.86 43.60 C 49.62 43.35 49.48 43.02 49.48 42.67 C 49.48 42.33 49.62 41.99 49.86 41.75 C 50.11 41.51 50.44 41.37 50.79 41.37 C 51.13 41.37 51.47 41.51 51.71 41.75 C 51.95 41.99 52.09 42.33 52.09 42.67 Z" fill="#6b9ef9" fill-rule="nonzero" group-id="1,2,8,12,17,35,95" node-id="548" stroke="none" target-height="2.610798" target-width="2.610798" target-x="49.4815" target-y="41.3676"></path></g></g></g><g node-id="1109"><g node-id="1127"><g node-id="1187"><path d="M 59.41 48.70 L 55.79 44.87 L 55.32 45.14 L 58.94 48.97 C 59.11 49.15 59.23 49.42 59.23 49.64 L 59.21 56.11 C 59.21 56.23 59.16 56.32 59.10 56.36 L 59.56 56.09 C 59.63 56.05 59.68 55.96 59.68 55.84 L 59.70 49.36 C 59.70 49.14 59.58 48.88 59.41 48.70 Z" fill="#a6c2ff" fill-rule="nonzero" group-id="1,2,8,12,18,36,96" node-id="559" stroke="none" target-height="11.491997" target-width="4.378002" target-x="55.318096" target-y="44.8669"></path><path d="M 55.32 45.14 L 58.94 48.97 C 59.11 49.15 59.23 49.42 59.23 49.64 L 59.21 56.11 C 59.21 56.36 59.03 56.45 58.82 56.33 C 58.70 56.26 58.58 56.11 58.51 55.95 C 57.28 53.06 56.63 52.34 55.30 50.53 C 55.48 48.87 55.42 47.01 55.32 45.14 Z" fill="#3887e5" fill-rule="nonzero" group-id="1,2,8,12,18,36,96" node-id="561" stroke="none" target-height="11.315002" target-width="3.922802" target-x="55.3047" target-y="45.1391"></path></g></g><g node-id="1128"><g node-id="1188"><path d="M 42.43 48.70 L 46.05 44.87 L 46.51 45.14 L 42.89 48.97 C 42.72 49.15 42.60 49.42 42.61 49.64 L 42.63 56.11 C 42.63 56.23 42.67 56.32 42.74 56.36 L 42.27 56.09 C 42.20 56.05 42.16 55.96 42.16 55.84 L 42.14 49.36 C 42.14 49.14 42.25 48.88 42.43 48.70 Z" fill="#a6c2ff" fill-rule="nonzero" group-id="1,2,8,12,18,37,97" node-id="569" stroke="none" target-height="11.491997" target-width="4.377899" target-x="42.1363" target-y="44.8669"></path><path d="M 46.51 45.14 L 42.89 48.97 C 42.72 49.15 42.60 49.42 42.61 49.64 L 42.63 56.11 C 42.63 56.36 42.80 56.45 43.01 56.33 C 43.14 56.26 43.26 56.11 43.33 55.95 C 44.55 53.06 45.20 52.34 46.53 50.53 C 46.35 48.87 46.41 47.01 46.51 45.14 Z" fill="#3887e5" fill-rule="nonzero" group-id="1,2,8,12,18,37,97" node-id="571" stroke="none" target-height="11.315002" target-width="3.9227982" target-x="42.6049" target-y="45.1391"></path></g></g></g><g node-id="1110"><path d="M 94.82 68.35 C 94.67 68.52 94.06 68.78 93.34 68.29 C 93.34 68.29 91.77 68.42 90.89 68.32 C 90.70 68.30 90.55 68.30 90.44 68.31 C 90.14 68.35 90.19 68.73 90.54 68.95 C 91.16 69.32 92.13 69.81 93.49 69.59 L 93.49 69.63 C 93.50 69.73 93.65 69.85 93.76 69.84 L 94.87 69.72 C 94.92 69.72 94.95 69.69 94.94 69.64 L 94.82 68.35 Z" fill="#2a2a5e" fill-rule="nonzero" group-id="1,2,8,12,19" node-id="578" stroke="none" target-height="1.5559998" target-width="4.8032" target-x="90.1438" target-y="68.2916"></path><g node-id="1129"><path d="M 95.43 59.19 C 96.03 57.68 95.80 55.90 95.65 55.64 L 92.53 56.56 C 92.53 56.56 92.32 59.41 93.15 62.63 C 93.26 63.05 93.32 63.48 93.34 63.92 C 93.41 65.21 93.29 67.66 93.23 68.30 C 93.47 68.76 94.19 68.98 94.77 68.85 C 94.77 68.85 95.38 65.80 95.14 63.71 C 95.06 62.99 95.01 62.27 95.07 61.56 C 95.14 60.73 95.10 60.00 95.43 59.19 Z" fill="#3a3a77" fill-rule="nonzero" group-id="1,2,8,12,19,38" node-id="582" stroke="none" target-height="13.341801" target-width="3.7144012" target-x="92.3152" target-y="55.6405"></path></g><path d="M 87.33 63.15 C 87.18 63.31 86.58 63.58 85.86 63.09 C 85.86 63.09 84.29 63.22 83.40 63.12 C 83.21 63.10 83.07 63.10 82.96 63.11 C 82.66 63.15 82.71 63.53 83.06 63.74 C 83.67 64.12 84.65 64.61 86.01 64.39 L 86.01 64.43 C 86.01 64.53 86.17 64.65 86.28 64.64 L 87.38 64.52 C 87.44 64.52 87.46 64.49 87.46 64.44 L 87.33 63.15 Z" fill="#2a2a5e" fill-rule="nonzero" group-id="1,2,8,12,19" node-id="585" stroke="none" target-height="1.5560036" target-width="4.803192" target-x="82.66" target-y="63.091"></path><path d="M 93.52 56.77 C 92.41 56.57 91.58 56.98 90.71 56.99 C 88.98 57.01 87.05 57.58 86.50 57.76 C 85.94 57.96 85.85 58.43 85.88 58.70 L 85.68 63.44 C 86.06 63.84 87.27 63.43 87.37 63.33 L 87.28 60.15 C 87.27 59.97 87.41 59.85 87.63 59.84 C 87.65 59.84 87.68 59.84 87.70 59.85 C 88.64 59.94 89.85 60.35 90.48 60.41 C 94.83 60.80 93.63 56.87 93.52 56.77 Z" fill="#4c4a8b" fill-rule="nonzero" group-id="1,2,8,12,19" node-id="587" stroke="none" target-height="7.2653008" target-width="9.153191" target-x="85.6797" target-y="56.571404"></path><g node-id="1130"><g node-id="1189"><g node-id="1214"><g node-id="1229"><g node-id="1267"><g node-id="1269"><path d="M 94.84 47.28 C 94.35 46.71 94.38 45.95 94.38 45.95 L 93.83 44.48 C 93.83 44.48 91.40 42.97 90.96 43.21 C 90.49 43.48 91.03 45.85 91.03 45.85 C 91.08 46.35 91.30 46.52 91.30 46.52 L 92.39 47.02 L 92.69 47.85 C 92.69 47.85 95.34 47.85 94.84 47.28 Z" fill="#ecb4bf" fill-rule="nonzero" group-id="1,2,8,12,19,39,98,123,138,176,178" node-id="601" stroke="none" target-height="4.889496" target-width="4.8431168" target-x="90.49449" target-y="42.965004"></path><path d="M 93.20 42.55 C 92.97 42.55 92.00 42.31 90.51 43.10 C 90.37 43.17 90.42 43.39 90.48 43.52 C 90.96 44.40 91.50 44.70 91.50 44.70 C 91.50 44.70 91.60 45.22 91.66 45.72 L 92.00 45.62 C 92.00 45.57 92.00 45.52 92.00 45.48 C 91.97 45.04 92.06 44.88 92.43 44.81 C 92.80 44.74 92.65 45.82 92.65 45.82 C 92.65 45.82 92.70 46.06 93.71 46.33 C 94.72 46.59 94.46 45.23 94.62 44.04 C 94.78 42.84 93.83 42.55 93.20 42.55 Z" fill="#4c4a8b" fill-rule="nonzero" group-id="1,2,8,12,19,39,98,123,138,176,178" node-id="603" stroke="none" target-height="4.2789" target-width="4.4071884" target-x="90.373604" target-y="42.3126"></path></g></g></g><path d="M 95.86 54.67 C 95.86 55.26 95.86 54.97 95.88 55.55 C 95.95 57.85 90.70 56.99 90.70 56.99 C 90.62 56.13 90.57 53.05 90.41 51.50 C 90.34 50.80 90.34 50.09 90.47 49.40 C 90.53 49.08 90.62 48.78 90.73 48.61 C 90.80 48.49 90.90 48.40 91.02 48.31 L 92.31 47.27 L 92.24 46.95 C 92.24 46.95 94.01 47.11 94.38 46.06 L 94.54 46.46 C 95.01 46.40 96.85 46.35 96.34 49.22 C 95.86 51.90 95.88 53.47 95.86 54.67 Z" fill="#6b9ef9" fill-rule="nonzero" group-id="1,2,8,12,19,39,98,123" node-id="608" stroke="none" target-height="11.794205" target-width="6.518402" target-x="90.3363" target-y="46.060097"></path></g><g node-id="1215"><path d="M 86.63 52.30 C 86.56 52.14 86.51 52.06 86.42 51.97 C 86.32 51.88 86.20 51.73 86.17 51.65 C 86.13 51.57 86.14 51.48 86.09 51.47 C 85.89 51.42 85.99 51.79 86.03 51.87 C 86.07 51.95 86.13 52.01 86.15 52.08 C 86.17 52.15 86.01 52.09 85.88 51.99 C 85.74 51.90 85.23 51.59 85.09 51.54 C 84.96 51.48 84.90 51.51 84.97 51.62 C 85.04 51.73 85.54 52.05 85.64 52.12 C 85.74 52.19 85.68 52.20 85.66 52.20 C 85.44 52.07 84.95 51.84 84.77 51.78 C 84.59 51.72 84.63 51.85 84.66 51.87 C 84.85 52.00 85.38 52.29 85.50 52.38 C 85.63 52.47 85.56 52.45 85.55 52.45 C 85.37 52.40 85.01 52.22 84.87 52.17 C 84.73 52.12 84.70 52.07 84.67 52.23 C 84.65 52.38 85.43 52.64 85.52 52.68 C 85.60 52.71 85.64 52.76 85.55 52.76 C 85.47 52.76 85.06 52.60 84.97 52.60 C 84.88 52.59 84.79 52.59 84.88 52.69 C 84.98 52.80 85.40 52.91 85.59 52.98 C 85.78 53.05 86.06 53.16 86.26 53.17 C 86.47 53.17 86.65 53.24 86.81 53.34 C 86.91 53.16 87.01 52.98 87.11 52.80 C 86.95 52.70 86.70 52.45 86.63 52.30 Z" fill="#ecb4bf" fill-rule="nonzero" group-id="1,2,8,12,19,39,98,124" node-id="613" stroke="none" target-height="1.9154015" target-width="2.5276947" target-x="84.5855" target-y="51.425"></path><path d="M 91.92 49.10 C 91.76 48.91 91.56 48.13 90.76 48.58 C 89.96 49.04 90.44 52.57 90.00 52.75 C 89.11 53.12 88.03 52.79 86.92 52.58 C 86.60 52.67 86.63 53.03 86.55 53.23 C 87.87 54.38 90.81 54.31 90.81 54.31 C 91.70 54.13 91.92 51.67 92.01 50.62 C 92.02 50.54 92.21 49.44 91.92 49.10 Z" fill="#3887e5" fill-rule="nonzero" group-id="1,2,8,12,19,39,98,124" node-id="615" stroke="none" target-height="6.2516975" target-width="5.660698" target-x="86.5455" target-y="48.128304"></path></g></g></g></g></g><g node-id="1104"><g node-id="1111"><g node-id="1131"><g node-id="1190"><path d="M 49.80 93.61 L 46.31 91.58 L 46.32 92.34 L 49.81 94.37 Z" fill="#83a1cc" fill-rule="nonzero" group-id="1,2,8,13,20,40,99" node-id="630" stroke="none" target-height="2.7843094" target-width="3.4925003" target-x="46.3134" target-y="91.581"></path></g><g node-id="1191"><path d="M 63.47 85.72 L 59.98 83.69 L 46.31 91.58 L 49.80 93.61 Z" fill="#dee7f8" fill-rule="nonzero" group-id="1,2,8,13,20,40,100" node-id="635" stroke="none" target-height="9.916603" target-width="17.153198" target-x="46.3134" target-y="83.6911"></path></g><path d="M 49.80 93.61 L 49.81 94.37 L 63.47 86.48 L 63.47 85.72 Z" fill="#9eb5df" fill-rule="nonzero" group-id="1,2,8,13,20,40,101" node-id="640" stroke="none" target-height="8.647514" target-width="13.670799" target-x="49.8008" target-y="85.7178"></path></g></g><g node-id="1112"><g node-id="1132"><g node-id="1193"><g node-id="1216"><g node-id="1230"><path d="M 59.28 80.78 L 57.39 79.68 L 57.40 86.27 L 59.29 87.37 Z" fill="#9eb5df" fill-rule="nonzero" group-id="1,2,8,13,21,41,102,125,139" node-id="655" stroke="none" target-height="7.6903076" target-width="1.8944016" target-x="57.3932" target-y="79.6775"></path></g><g node-id="1231"><path d="M 61.22 79.66 L 59.33 78.56 L 57.39 79.68 L 59.28 80.78 Z" fill="#dee7f8" fill-rule="nonzero" group-id="1,2,8,13,21,41,102,125,140" node-id="660" stroke="none" target-height="2.2188034" target-width="3.8305016" target-x="57.3932" target-y="78.5581"></path></g><path d="M 59.28 80.78 L 59.29 87.37 L 61.23 86.25 L 61.22 79.66 Z" fill="#b6cbea" fill-rule="nonzero" group-id="1,2,8,13,21,41,102,125,141" node-id="665" stroke="none" target-height="7.7103043" target-width="1.9414978" target-x="59.2849" target-y="79.6575"></path></g></g></g><g node-id="1133"><g node-id="1194"><g node-id="1217"><g node-id="1233"><path d="M 59.28 79.37 L 57.39 78.27 L 57.40 78.86 L 59.29 79.96 Z" fill="#9eb5df" fill-rule="nonzero" group-id="1,2,8,13,21,42,103,126,142" node-id="679" stroke="none" target-height="1.6865005" target-width="1.8944016" target-x="57.3932" target-y="78.2746"></path></g><g node-id="1234"><path d="M 61.22 78.25 L 59.33 77.16 L 57.39 78.27 L 59.28 79.37 Z" fill="#dee7f8" fill-rule="nonzero" group-id="1,2,8,13,21,42,103,126,143" node-id="684" stroke="none" target-height="2.2187042" target-width="3.8305016" target-x="57.3932" target-y="77.1552"></path></g><path d="M 59.28 79.37 L 59.29 79.96 L 61.23 78.84 L 61.22 78.25 Z" fill="#b6cbea" fill-rule="nonzero" group-id="1,2,8,13,21,42,103,126,144" node-id="689" stroke="none" target-height="1.7065964" target-width="1.9414978" target-x="59.2849" target-y="78.2545"></path></g></g></g><g node-id="1134"><g node-id="1195"><g node-id="1218"><g node-id="1236"><path d="M 59.28 78.07 L 57.39 76.97 L 57.40 77.55 L 59.29 78.65 Z" fill="#9eb5df" fill-rule="nonzero" group-id="1,2,8,13,21,43,104,127,145" node-id="703" stroke="none" target-height="1.6865005" target-width="1.8944016" target-x="57.3932" target-y="76.9658"></path></g><g node-id="1237"><path d="M 61.22 76.95 L 59.33 75.85 L 57.39 76.97 L 59.28 78.07 Z" fill="#dee7f8" fill-rule="nonzero" group-id="1,2,8,13,21,43,104,127,146" node-id="708" stroke="none" target-height="2.2187042" target-width="3.8305016" target-x="57.3932" target-y="75.8464"></path></g><path d="M 59.28 78.07 L 59.29 78.65 L 61.23 77.53 L 61.22 76.95 Z" fill="#b6cbea" fill-rule="nonzero" group-id="1,2,8,13,21,43,104,127,147" node-id="713" stroke="none" target-height="1.7064972" target-width="1.9414978" target-x="59.2849" target-y="76.9458"></path></g></g></g></g><g node-id="1113"><g node-id="1135"><g node-id="1196"><g node-id="1219"><g node-id="1239"><path d="M 56.25 84.36 L 54.36 83.26 L 54.36 88.02 L 56.26 89.12 Z" fill="#c97f94" fill-rule="nonzero" group-id="1,2,8,13,22,44,105,128,148" node-id="730" stroke="none" target-height="5.854904" target-width="1.8945007" target-x="54.3613" target-y="83.2634"></path></g><g node-id="1240"><path d="M 58.19 83.24 L 56.30 82.14 L 54.36 83.26 L 56.25 84.36 Z" fill="#ecb4bf" fill-rule="nonzero" group-id="1,2,8,13,22,44,105,128,149" node-id="735" stroke="none" target-height="2.2187042" target-width="3.830597" target-x="54.3613" target-y="82.144"></path></g><path d="M 56.25 84.36 L 56.26 89.12 L 58.19 88.00 L 58.19 83.24 Z" fill="#d390a1" fill-rule="nonzero" group-id="1,2,8,13,22,44,105,128,150" node-id="740" stroke="none" target-height="5.875" target-width="1.9416008" target-x="56.253" target-y="83.2433"></path></g></g></g><g node-id="1136"><g node-id="1197"><g node-id="1220"><g node-id="1242"><path d="M 56.25 82.96 L 54.36 81.86 L 54.36 82.45 L 56.26 83.55 Z" fill="#c97f94" fill-rule="nonzero" group-id="1,2,8,13,22,45,106,129,151" node-id="754" stroke="none" target-height="1.6865005" target-width="1.8945007" target-x="54.3613" target-y="81.8604"></path></g><g node-id="1243"><path d="M 58.19 81.84 L 56.30 80.74 L 54.36 81.86 L 56.25 82.96 Z" fill="#ecb4bf" fill-rule="nonzero" group-id="1,2,8,13,22,45,106,129,152" node-id="759" stroke="none" target-height="2.2187042" target-width="3.830597" target-x="54.3613" target-y="80.7411"></path></g><path d="M 56.25 82.96 L 56.26 83.55 L 58.19 82.43 L 58.19 81.84 Z" fill="#d390a1" fill-rule="nonzero" group-id="1,2,8,13,22,45,106,129,153" node-id="764" stroke="none" target-height="1.7064972" target-width="1.9416008" target-x="56.253" target-y="81.8404"></path></g></g></g><g node-id="1137"><g node-id="1198"><g node-id="1221"><g node-id="1245"><path d="M 56.25 81.65 L 54.36 80.55 L 54.36 81.14 L 56.26 82.24 Z" fill="#c97f94" fill-rule="nonzero" group-id="1,2,8,13,22,46,107,130,154" node-id="778" stroke="none" target-height="1.6865005" target-width="1.8945007" target-x="54.3613" target-y="80.5517"></path></g><g node-id="1246"><path d="M 58.19 80.53 L 56.30 79.43 L 54.36 80.55 L 56.25 81.65 Z" fill="#ecb4bf" fill-rule="nonzero" group-id="1,2,8,13,22,46,107,130,155" node-id="783" stroke="none" target-height="2.2187042" target-width="3.830597" target-x="54.3613" target-y="79.4323"></path></g><path d="M 56.25 81.65 L 56.26 82.24 L 58.19 81.12 L 58.19 80.53 Z" fill="#d390a1" fill-rule="nonzero" group-id="1,2,8,13,22,46,107,130,156" node-id="788" stroke="none" target-height="1.7065964" target-width="1.9416008" target-x="56.253" target-y="80.5316"></path></g></g></g></g><g node-id="1114"><g node-id="1138"><g node-id="1199"><g node-id="1222"><g node-id="1248"><path d="M 53.22 82.44 L 51.33 81.34 L 51.33 89.77 L 53.22 90.87 Z" fill="#3a3a77" fill-rule="nonzero" group-id="1,2,8,13,23,47,108,131,157" node-id="805" stroke="none" target-height="9.525696" target-width="1.8944016" target-x="51.3295" target-y="81.343"></path></g><g node-id="1249"><path d="M 55.16 81.32 L 53.27 80.22 L 51.33 81.34 L 53.22 82.44 Z" fill="#6262aa" fill-rule="nonzero" group-id="1,2,8,13,23,47,108,131,158" node-id="810" stroke="none" target-height="2.2186966" target-width="3.8304977" target-x="51.3295" target-y="80.2236"></path></g><path d="M 53.22 82.44 L 53.22 90.87 L 55.16 89.75 L 55.16 81.32 Z" fill="#4c4a8b" fill-rule="nonzero" group-id="1,2,8,13,23,47,108,131,159" node-id="815" stroke="none" target-height="9.545799" target-width="1.9415054" target-x="53.221195" target-y="81.3229"></path></g></g></g><g node-id="1139"><g node-id="1200"><g node-id="1223"><g node-id="1251"><path d="M 53.22 81.04 L 51.33 79.94 L 51.33 80.53 L 53.22 81.63 Z" fill="#3a3a77" fill-rule="nonzero" group-id="1,2,8,13,23,48,109,132,160" node-id="829" stroke="none" target-height="1.6865005" target-width="1.8944016" target-x="51.3295" target-y="79.94"></path></g><g node-id="1252"><path d="M 55.16 79.92 L 53.27 78.82 L 51.33 79.94 L 53.22 81.04 Z" fill="#6262aa" fill-rule="nonzero" group-id="1,2,8,13,23,48,109,132,161" node-id="834" stroke="none" target-height="2.2186966" target-width="3.8304977" target-x="51.3295" target-y="78.8207"></path></g><path d="M 53.22 81.04 L 53.22 81.63 L 55.16 80.51 L 55.16 79.92 Z" fill="#4c4a8b" fill-rule="nonzero" group-id="1,2,8,13,23,48,109,132,162" node-id="839" stroke="none" target-height="1.7065048" target-width="1.9415054" target-x="53.221195" target-y="79.92"></path></g></g></g><g node-id="1140"><g node-id="1201"><g node-id="1224"><g node-id="1254"><path d="M 53.22 79.73 L 51.33 78.63 L 51.33 79.22 L 53.22 80.32 Z" fill="#3a3a77" fill-rule="nonzero" group-id="1,2,8,13,23,49,110,133,163" node-id="853" stroke="none" target-height="1.6865005" target-width="1.8944016" target-x="51.3295" target-y="78.6313"></path></g><g node-id="1255"><path d="M 55.16 78.61 L 53.27 77.51 L 51.33 78.63 L 53.22 79.73 Z" fill="#6262aa" fill-rule="nonzero" group-id="1,2,8,13,23,49,110,133,164" node-id="858" stroke="none" target-height="2.2186966" target-width="3.8304977" target-x="51.3295" target-y="77.5119"></path></g><path d="M 53.22 79.73 L 53.22 80.32 L 55.16 79.20 L 55.16 78.61 Z" fill="#4c4a8b" fill-rule="nonzero" group-id="1,2,8,13,23,49,110,133,165" node-id="863" stroke="none" target-height="1.706604" target-width="1.9415054" target-x="53.221195" target-y="78.6112"></path></g></g></g></g><g node-id="1115"><g node-id="1141"><g node-id="1202"><g node-id="1225"><g node-id="1257"><path d="M 50.19 88.48 L 48.30 87.38 L 48.30 91.52 L 50.19 92.62 Z" fill="#1e72c6" fill-rule="nonzero" group-id="1,2,8,13,24,50,111,134,166" node-id="880" stroke="none" target-height="5.24321" target-width="1.8945007" target-x="48.2976" target-y="87.37599"></path></g><g node-id="1258"><path d="M 52.13 87.36 L 50.24 86.26 L 48.30 87.38 L 50.19 88.48 Z" fill="#a6c2ff" fill-rule="nonzero" group-id="1,2,8,13,24,50,111,134,167" node-id="885" stroke="none" target-height="2.2187042" target-width="3.8306007" target-x="48.2976" target-y="86.2567"></path></g><path d="M 50.19 88.48 L 50.19 92.62 L 52.13 91.50 L 52.13 87.36 Z" fill="#3887e5" fill-rule="nonzero" group-id="1,2,8,13,24,50,111,134,168" node-id="890" stroke="none" target-height="5.263199" target-width="1.9415016" target-x="50.1894" target-y="87.356"></path></g></g></g><g node-id="1142"><g node-id="1203"><g node-id="1226"><g node-id="1260"><path d="M 50.19 87.07 L 48.30 85.97 L 48.30 86.56 L 50.19 87.66 Z" fill="#1e72c6" fill-rule="nonzero" group-id="1,2,8,13,24,51,112,135,169" node-id="904" stroke="none" target-height="1.6865082" target-width="1.8945007" target-x="48.2976" target-y="85.97309"></path></g><g node-id="1261"><path d="M 52.13 85.95 L 50.24 84.85 L 48.30 85.97 L 50.19 87.07 Z" fill="#a6c2ff" fill-rule="nonzero" group-id="1,2,8,13,24,51,112,135,170" node-id="909" stroke="none" target-height="2.2188034" target-width="3.8306007" target-x="48.2976" target-y="84.8537"></path></g><path d="M 50.19 87.07 L 50.19 87.66 L 52.13 86.54 L 52.13 85.95 Z" fill="#3887e5" fill-rule="nonzero" group-id="1,2,8,13,24,51,112,135,171" node-id="914" stroke="none" target-height="1.7064972" target-width="1.9415016" target-x="50.1894" target-y="85.9531"></path></g></g></g><g node-id="1143"><g node-id="1204"><g node-id="1227"><g node-id="1263"><path d="M 50.19 85.76 L 48.30 84.66 L 48.30 85.25 L 50.19 86.35 Z" fill="#1e72c6" fill-rule="nonzero" group-id="1,2,8,13,24,52,113,136,172" node-id="928" stroke="none" target-height="1.6865005" target-width="1.8945007" target-x="48.2976" target-y="84.6643"></path></g><g node-id="1264"><path d="M 52.13 84.64 L 50.24 83.55 L 48.30 84.66 L 50.19 85.76 Z" fill="#a6c2ff" fill-rule="nonzero" group-id="1,2,8,13,24,52,113,136,173" node-id="933" stroke="none" target-height="2.2187042" target-width="3.8306007" target-x="48.2976" target-y="83.545"></path></g><path d="M 50.19 85.76 L 50.19 86.35 L 52.13 85.23 L 52.13 84.64 Z" fill="#3887e5" fill-rule="nonzero" group-id="1,2,8,13,24,52,113,136,174" node-id="938" stroke="none" target-height="1.7064972" target-width="1.9415016" target-x="50.1894" target-y="84.6443"></path></g></g></g></g></g><g node-id="1105"><g node-id="1116"><g node-id="1144"><path d="M 75.41 80.39 C 74.09 81.15 71.95 81.15 70.63 80.38 C 69.30 79.62 69.30 78.38 70.61 77.61 C 71.93 76.85 74.07 76.85 75.39 77.61 C 76.72 78.38 76.72 79.62 75.41 80.39 Z" fill="#dee7f8" fill-rule="nonzero" group-id="1,2,8,14,25,53" node-id="952" stroke="none" target-height="4.3010025" target-width="7.428398" target-x="69.2954" target-y="76.8484"></path></g><g node-id="1145"><path d="M 73.73 79.57 C 73.61 79.71 73.41 79.80 73.14 79.83 C 72.95 79.84 72.78 79.79 72.63 79.73 C 72.54 79.69 72.45 79.65 72.36 79.61 L 71.98 79.83 L 71.76 79.69 L 72.12 79.48 L 71.95 79.38 L 71.58 79.59 L 71.35 79.46 L 71.73 79.24 L 71.28 78.98 C 71.38 78.93 71.48 78.89 71.58 78.85 C 71.63 78.88 71.67 78.90 71.72 78.93 C 71.81 78.98 71.86 78.98 71.95 78.92 C 72.26 78.74 72.57 78.56 72.88 78.38 C 72.99 78.32 72.99 78.28 72.88 78.21 C 72.86 78.20 72.85 78.19 72.83 78.18 C 72.80 78.17 72.77 78.15 72.74 78.13 L 72.98 77.99 L 73.43 78.25 L 73.80 78.04 L 74.03 78.17 L 73.67 78.38 L 73.85 78.48 L 74.21 78.27 L 74.43 78.40 L 74.06 78.62 C 74.23 78.71 74.31 78.83 74.33 78.89 C 74.41 79.09 74.11 79.28 73.85 79.28 C 73.79 79.28 73.73 79.28 73.67 79.28 L 73.67 79.28 L 73.69 79.30 C 73.77 79.39 73.81 79.48 73.73 79.57 Z M 72.77 79.47 C 72.92 79.51 73.02 79.50 73.12 79.44 C 73.21 79.38 73.22 79.31 73.16 79.23 C 73.10 79.15 73.00 79.09 72.89 79.02 C 72.87 79.01 72.84 79.00 72.82 78.98 C 72.80 78.97 72.78 78.96 72.76 78.95 C 72.75 78.94 72.74 78.94 72.73 78.93 L 72.23 79.22 C 72.27 79.25 72.31 79.27 72.35 79.29 C 72.48 79.37 72.60 79.43 72.77 79.47 L 72.77 79.47 Z M 73.40 78.54 L 72.95 78.80 C 72.99 78.82 73.02 78.84 73.06 78.86 C 73.15 78.91 73.25 78.96 73.37 79.00 C 73.49 79.03 73.62 79.03 73.71 78.98 C 73.80 78.93 73.82 78.85 73.76 78.78 C 73.70 78.71 73.63 78.66 73.54 78.61 C 73.50 78.59 73.45 78.56 73.40 78.54 L 73.40 78.54 Z" fill="#b6cbea" fill-rule="nonzero" group-id="1,2,8,14,25,54" node-id="957" stroke="none" target-height="1.8510971" target-width="3.1588974" target-x="71.276" target-y="77.9889"></path></g><g node-id="1146"><path d="M 77.11 79.01 L 77.11 80.00 C 77.11 80.61 76.71 81.21 75.92 81.67 C 74.32 82.60 71.72 82.60 70.11 81.67 C 69.30 81.21 68.90 80.59 68.90 79.98 L 68.91 78.99 C 68.90 79.60 69.31 80.21 70.12 80.68 C 71.73 81.61 74.32 81.61 75.92 80.68 C 76.71 80.22 77.11 79.61 77.11 79.01 Z" fill="#83a1cc" fill-rule="nonzero" group-id="1,2,8,14,25,55" node-id="962" stroke="none" target-height="3.6134033" target-width="8.213402" target-x="68.9002" target-y="78.9879"></path></g><path d="M 75.90 77.32 C 77.51 78.25 77.52 79.75 75.92 80.68 C 74.32 81.61 71.73 81.61 70.12 80.68 C 68.51 79.75 68.50 78.25 70.10 77.32 C 71.70 76.39 74.29 76.39 75.90 77.32 Z M 70.63 80.38 C 71.95 81.15 74.09 81.15 75.41 80.38 C 76.72 79.62 76.72 78.38 75.39 77.61 C 74.07 76.85 71.93 76.85 70.61 77.61 C 69.29 78.38 69.30 79.62 70.63 80.38" fill="#b6cbea" fill-rule="nonzero" group-id="1,2,8,14,25,56" node-id="967" stroke="none" target-height="5.2197037" target-width="9.016701" target-x="68.5012" target-y="76.3893"></path></g><g node-id="1117"><g node-id="1148"><path d="M 75.41 78.14 C 74.09 78.91 71.95 78.91 70.63 78.14 C 69.30 77.38 69.30 76.14 70.61 75.37 C 71.93 74.61 74.07 74.61 75.39 75.37 C 76.72 76.14 76.72 77.38 75.41 78.14 Z" fill="#dee7f8" fill-rule="nonzero" group-id="1,2,8,14,26,57" node-id="975" stroke="none" target-height="4.3010025" target-width="7.428398" target-x="69.2954" target-y="74.6055"></path></g><g node-id="1149"><path d="M 73.73 77.33 C 73.61 77.47 73.41 77.56 73.14 77.58 C 72.95 77.60 72.78 77.55 72.63 77.49 C 72.54 77.45 72.45 77.41 72.36 77.37 L 71.98 77.58 L 71.76 77.45 L 72.12 77.24 L 71.95 77.14 L 71.58 77.35 L 71.35 77.22 L 71.73 77.00 L 71.28 76.73 C 71.38 76.69 71.48 76.65 71.58 76.61 C 71.63 76.63 71.67 76.66 71.72 76.68 C 71.81 76.73 71.86 76.73 71.95 76.68 C 72.26 76.50 72.57 76.32 72.88 76.14 C 72.99 76.08 72.99 76.03 72.88 75.97 C 72.86 75.96 72.85 75.95 72.83 75.94 C 72.80 75.92 72.77 75.90 72.74 75.89 L 72.98 75.75 L 73.43 76.01 L 73.80 75.79 L 74.03 75.93 L 73.67 76.13 L 73.85 76.24 L 74.21 76.03 L 74.44 76.16 L 74.06 76.38 C 74.23 76.47 74.31 76.59 74.33 76.65 C 74.41 76.85 74.11 77.04 73.85 77.04 C 73.79 77.04 73.73 77.03 73.67 77.03 L 73.67 77.04 L 73.69 77.06 C 73.77 77.14 73.81 77.24 73.73 77.33 Z M 72.77 77.23 C 72.92 77.26 73.02 77.25 73.12 77.19 C 73.21 77.14 73.22 77.07 73.16 76.99 C 73.10 76.91 73.00 76.84 72.89 76.78 C 72.87 76.77 72.84 76.75 72.82 76.74 C 72.80 76.73 72.78 76.72 72.76 76.71 C 72.75 76.70 72.74 76.69 72.73 76.69 L 72.23 76.98 C 72.27 77.00 72.31 77.03 72.35 77.05 C 72.48 77.12 72.60 77.19 72.77 77.23 L 72.77 77.23 Z M 73.40 76.30 L 72.95 76.56 C 72.99 76.58 73.02 76.60 73.06 76.62 C 73.15 76.67 73.25 76.72 73.37 76.75 C 73.49 76.79 73.62 76.78 73.71 76.73 C 73.80 76.68 73.82 76.61 73.76 76.54 C 73.70 76.47 73.63 76.42 73.54 76.37 C 73.50 76.34 73.45 76.32 73.40 76.30 L 73.40 76.30 Z" fill="#b6cbea" fill-rule="nonzero" group-id="1,2,8,14,26,58" node-id="980" stroke="none" target-height="1.8510971" target-width="3.1589966" target-x="71.276" target-y="75.746"></path></g><g node-id="1150"><path d="M 77.11 76.77 L 77.11 77.76 C 77.11 78.36 76.71 78.97 75.92 79.43 C 74.32 80.36 71.72 80.36 70.11 79.43 C 69.30 78.96 68.90 78.35 68.90 77.74 L 68.91 76.75 C 68.90 77.36 69.31 77.97 70.12 78.44 C 71.73 79.37 74.32 79.37 75.92 78.44 C 76.71 77.98 77.11 77.37 77.11 76.77 Z" fill="#83a1cc" fill-rule="nonzero" group-id="1,2,8,14,26,59" node-id="985" stroke="none" target-height="3.6133957" target-width="8.213402" target-x="68.9002" target-y="76.7451"></path></g><path d="M 75.90 75.08 C 77.51 76.00 77.52 77.51 75.92 78.44 C 74.32 79.37 71.73 79.37 70.12 78.44 C 68.51 77.51 68.50 76.00 70.10 75.08 C 71.70 74.15 74.29 74.15 75.90 75.08 Z M 70.63 78.14 C 71.95 78.91 74.09 78.91 75.41 78.14 C 76.72 77.38 76.72 76.14 75.39 75.37 C 74.07 74.61 71.93 74.61 70.61 75.37 C 69.29 76.14 69.30 77.38 70.63 78.14" fill="#b6cbea" fill-rule="nonzero" group-id="1,2,8,14,26,60" node-id="990" stroke="none" target-height="5.219696" target-width="9.016701" target-x="68.5012" target-y="74.1464"></path></g><g node-id="1118"><g node-id="1152"><path d="M 75.41 75.90 C 74.09 76.66 71.95 76.66 70.63 75.90 C 69.30 75.13 69.30 73.89 70.61 73.13 C 71.93 72.36 74.07 72.36 75.39 73.13 C 76.72 73.89 76.72 75.13 75.41 75.90 Z" fill="#dee7f8" fill-rule="nonzero" group-id="1,2,8,14,27,61" node-id="998" stroke="none" target-height="4.300995" target-width="7.428398" target-x="69.2954" target-y="72.3626"></path></g><g node-id="1153"><path d="M 73.73 75.09 C 73.61 75.23 73.41 75.32 73.14 75.34 C 72.95 75.35 72.78 75.30 72.63 75.24 C 72.54 75.21 72.45 75.17 72.36 75.12 L 71.98 75.34 L 71.76 75.21 L 72.12 75.00 L 71.95 74.89 L 71.58 75.11 L 71.35 74.97 L 71.73 74.75 L 71.28 74.49 C 71.38 74.45 71.48 74.41 71.58 74.36 C 71.63 74.39 71.67 74.41 71.72 74.44 C 71.81 74.49 71.86 74.49 71.95 74.44 C 72.26 74.26 72.57 74.08 72.88 73.90 C 72.99 73.84 72.99 73.79 72.88 73.73 C 72.86 73.72 72.85 73.71 72.83 73.70 C 72.80 73.68 72.77 73.66 72.74 73.64 L 72.98 73.50 L 73.43 73.77 L 73.80 73.55 L 74.03 73.68 L 73.67 73.89 L 73.85 73.99 L 74.21 73.78 L 74.43 73.92 L 74.06 74.13 C 74.23 74.23 74.31 74.35 74.33 74.41 C 74.41 74.60 74.11 74.80 73.85 74.80 C 73.79 74.80 73.73 74.79 73.67 74.79 L 73.67 74.79 L 73.69 74.81 C 73.77 74.90 73.81 74.99 73.73 75.09 Z M 72.77 74.99 C 72.92 75.02 73.02 75.01 73.12 74.95 C 73.21 74.90 73.22 74.83 73.16 74.75 C 73.10 74.66 73.00 74.60 72.89 74.54 C 72.87 74.53 72.84 74.51 72.82 74.50 C 72.80 74.49 72.78 74.48 72.76 74.46 C 72.75 74.46 72.74 74.45 72.73 74.44 L 72.23 74.74 C 72.27 74.76 72.31 74.78 72.35 74.81 C 72.48 74.88 72.60 74.94 72.77 74.99 L 72.77 74.99 Z M 73.40 74.05 L 72.95 74.31 C 72.99 74.33 73.02 74.35 73.06 74.37 C 73.15 74.43 73.25 74.48 73.37 74.51 C 73.49 74.55 73.62 74.54 73.71 74.49 C 73.80 74.44 73.82 74.37 73.76 74.29 C 73.70 74.23 73.63 74.18 73.54 74.13 C 73.50 74.10 73.45 74.08 73.40 74.05 L 73.40 74.05 Z" fill="#b6cbea" fill-rule="nonzero" group-id="1,2,8,14,27,62" node-id="1003" stroke="none" target-height="1.8512039" target-width="3.1588974" target-x="71.2759" target-y="73.503"></path></g><g node-id="1154"><path d="M 77.11 74.52 L 77.11 75.52 C 77.11 76.12 76.71 76.73 75.92 77.19 C 74.32 78.11 71.72 78.12 70.11 77.19 C 69.30 76.72 68.90 76.11 68.90 75.49 L 68.91 74.50 C 68.90 75.11 69.31 75.73 70.12 76.19 C 71.73 77.12 74.32 77.12 75.92 76.19 C 76.71 75.73 77.11 75.13 77.11 74.52 Z" fill="#83a1cc" fill-rule="nonzero" group-id="1,2,8,14,27,63" node-id="1008" stroke="none" target-height="3.6134033" target-width="8.213402" target-x="68.9002" target-y="74.5022"></path></g><path d="M 75.90 72.83 C 77.51 73.76 77.52 75.27 75.92 76.19 C 74.32 77.12 71.73 77.12 70.12 76.19 C 68.51 75.27 68.50 73.76 70.10 72.83 C 71.70 71.90 74.29 71.90 75.90 72.83 Z M 70.63 75.90 C 71.95 76.66 74.09 76.66 75.41 75.90 C 76.72 75.13 76.72 73.89 75.39 73.13 C 74.07 72.36 71.93 72.36 70.61 73.13 C 69.29 73.89 69.30 75.13 70.63 75.90" fill="#b6cbea" fill-rule="nonzero" group-id="1,2,8,14,27,64" node-id="1013" stroke="none" target-height="5.219597" target-width="9.016701" target-x="68.5012" target-y="71.9036"></path></g><g node-id="1119"><g node-id="1156"><path d="M 75.41 73.66 C 74.09 74.42 71.95 74.42 70.63 73.65 C 69.30 72.89 69.30 71.65 70.61 70.89 C 71.93 70.12 74.07 70.12 75.39 70.89 C 76.72 71.65 76.72 72.89 75.41 73.66 Z" fill="#dee7f8" fill-rule="nonzero" group-id="1,2,8,14,28,65" node-id="1021" stroke="none" target-height="4.3010025" target-width="7.428398" target-x="69.2954" target-y="70.1197"></path></g><g node-id="1157"><path d="M 73.73 72.84 C 73.61 72.99 73.41 73.08 73.14 73.10 C 72.95 73.11 72.78 73.06 72.63 73.00 C 72.54 72.97 72.45 72.92 72.36 72.88 L 71.98 73.10 L 71.76 72.97 L 72.12 72.75 L 71.95 72.65 L 71.58 72.86 L 71.35 72.73 L 71.73 72.51 L 71.28 72.25 C 71.38 72.20 71.48 72.16 71.58 72.12 C 71.63 72.15 71.67 72.17 71.72 72.20 C 71.81 72.25 71.86 72.25 71.95 72.20 C 72.26 72.02 72.57 71.84 72.88 71.66 C 72.99 71.59 72.99 71.55 72.88 71.48 C 72.86 71.47 72.85 71.46 72.83 71.46 C 72.80 71.44 72.77 71.42 72.74 71.40 L 72.98 71.26 L 73.43 71.52 L 73.80 71.31 L 74.03 71.44 L 73.67 71.65 L 73.85 71.75 L 74.21 71.54 L 74.43 71.67 L 74.06 71.89 C 74.23 71.99 74.31 72.11 74.33 72.16 C 74.41 72.36 74.11 72.56 73.85 72.56 C 73.79 72.56 73.73 72.55 73.67 72.55 L 73.67 72.55 L 73.69 72.57 C 73.77 72.66 73.81 72.75 73.73 72.84 Z M 72.77 72.74 C 72.92 72.78 73.02 72.77 73.12 72.71 C 73.21 72.65 73.22 72.58 73.16 72.50 C 73.10 72.42 73.00 72.36 72.89 72.30 C 72.87 72.28 72.84 72.27 72.82 72.26 C 72.80 72.24 72.78 72.23 72.76 72.22 C 72.75 72.21 72.74 72.21 72.73 72.20 L 72.23 72.49 C 72.27 72.52 72.31 72.54 72.35 72.57 C 72.48 72.64 72.60 72.70 72.77 72.74 L 72.77 72.74 Z M 73.40 71.81 L 72.95 72.07 C 72.99 72.09 73.02 72.11 73.06 72.13 C 73.15 72.19 73.25 72.23 73.37 72.27 C 73.49 72.31 73.62 72.30 73.71 72.25 C 73.80 72.20 73.82 72.13 73.76 72.05 C 73.70 71.99 73.63 71.93 73.54 71.88 C 73.50 71.86 73.45 71.83 73.40 71.81 L 73.40 71.81 Z" fill="#83a1cc" fill-rule="nonzero" group-id="1,2,8,14,28,66" node-id="1026" stroke="none" target-height="1.8510971" target-width="3.1588974" target-x="71.276" target-y="71.2602"></path></g><g node-id="1158"><path d="M 77.11 72.28 L 77.11 73.27 C 77.11 73.88 76.71 74.48 75.92 74.94 C 74.32 75.87 71.72 75.87 70.11 74.94 C 69.30 74.48 68.90 73.86 68.90 73.25 L 68.91 72.26 C 68.90 72.87 69.31 73.48 70.12 73.95 C 71.73 74.88 74.32 74.88 75.92 73.95 C 76.71 73.49 77.11 72.89 77.11 72.28 Z" fill="#83a1cc" fill-rule="nonzero" group-id="1,2,8,14,28,67" node-id="1031" stroke="none" target-height="3.6134033" target-width="8.213402" target-x="68.9002" target-y="72.2593"></path></g><path d="M 75.90 70.59 C 77.51 71.52 77.52 73.02 75.92 73.95 C 74.32 74.88 71.73 74.88 70.12 73.95 C 68.51 73.02 68.50 71.52 70.10 70.59 C 71.70 69.66 74.29 69.66 75.90 70.59 Z M 70.63 73.66 C 71.95 74.42 74.09 74.42 75.41 73.66 C 76.72 72.89 76.72 71.65 75.39 70.89 C 74.07 70.12 71.93 70.12 70.61 70.89 C 69.29 71.65 69.30 72.89 70.63 73.66" fill="#b6cbea" fill-rule="nonzero" group-id="1,2,8,14,28,68" node-id="1036" stroke="none" target-height="5.2196045" target-width="9.016701" target-x="68.5012" target-y="69.6607"></path></g><g node-id="1120"><g node-id="1160"><path d="M 68.28 75.94 C 68.54 77.44 67.80 79.45 66.62 80.42 C 65.45 81.40 64.28 80.98 64.02 79.48 C 63.76 77.98 64.49 75.98 65.67 75.00 C 66.85 74.02 68.01 74.44 68.28 75.94 Z" fill="#dee7f8" fill-rule="nonzero" group-id="1,2,8,14,29,69" node-id="1044" stroke="none" target-height="7.3863983" target-width="4.783905" target-x="63.7558" target-y="74.0169"></path></g><g node-id="1161"><path d="M 66.94 77.23 C 67.03 77.39 67.04 77.61 66.97 77.87 C 66.92 78.06 66.81 78.20 66.70 78.32 C 66.64 78.39 66.57 78.46 66.50 78.53 L 66.57 78.96 L 66.37 79.13 L 66.29 78.71 L 66.14 78.84 L 66.21 79.26 L 66.01 79.43 L 65.93 78.99 L 65.53 79.33 C 65.52 79.21 65.52 79.11 65.51 79.00 C 65.55 78.96 65.59 78.93 65.63 78.90 C 65.71 78.83 65.73 78.78 65.71 78.68 C 65.65 78.33 65.59 77.97 65.53 77.62 C 65.50 77.50 65.46 77.48 65.36 77.56 C 65.35 77.57 65.34 77.58 65.32 77.60 C 65.29 77.62 65.26 77.64 65.24 77.67 L 65.19 77.39 L 65.59 77.06 L 65.52 76.64 L 65.72 76.47 L 65.79 76.87 L 65.95 76.74 L 65.88 76.34 L 66.08 76.17 L 66.15 76.59 C 66.30 76.47 66.44 76.43 66.50 76.43 C 66.71 76.43 66.80 76.77 66.71 77.02 C 66.69 77.08 66.66 77.13 66.64 77.18 L 66.64 77.19 L 66.66 77.18 C 66.77 77.13 66.88 77.12 66.94 77.23 Z M 66.51 78.10 C 66.59 77.97 66.62 77.87 66.60 77.76 C 66.58 77.65 66.52 77.62 66.42 77.65 C 66.32 77.68 66.23 77.75 66.13 77.83 C 66.11 77.85 66.09 77.86 66.07 77.88 C 66.05 77.90 66.03 77.91 66.01 77.93 C 66.00 77.94 66.00 77.94 65.99 77.95 L 66.09 78.52 C 66.12 78.49 66.16 78.46 66.20 78.43 C 66.31 78.34 66.41 78.24 66.51 78.10 L 66.51 78.10 Z M 65.85 77.18 L 65.94 77.69 C 65.97 77.67 66.00 77.64 66.03 77.62 C 66.12 77.55 66.20 77.47 66.27 77.38 C 66.35 77.27 66.38 77.15 66.37 77.05 C 66.35 76.94 66.29 76.90 66.20 76.93 C 66.12 76.96 66.04 77.01 65.97 77.08 C 65.93 77.11 65.89 77.14 65.85 77.18 L 65.85 77.18 Z" fill="#83a1cc" fill-rule="nonzero" group-id="1,2,8,14,29,70" node-id="1049" stroke="none" target-height="3.2603073" target-width="1.854599" target-x="65.1885" target-y="76.1665"></path></g><g node-id="1162"><path d="M 67.58 73.86 L 68.51 74.21 C 69.07 74.42 69.50 75.00 69.66 75.91 C 69.98 77.72 69.08 80.16 67.66 81.35 C 66.94 81.95 66.22 82.12 65.65 81.90 L 64.72 81.56 C 65.29 81.77 66.01 81.60 66.73 81.01 C 68.15 79.82 69.05 77.38 68.73 75.56 C 68.57 74.65 68.14 74.07 67.58 73.86 Z" fill="#83a1cc" fill-rule="nonzero" group-id="1,2,8,14,29,71" node-id="1054" stroke="none" target-height="8.2547" target-width="5.260002" target-x="64.7205" target-y="73.8623"></path></g><path d="M 65.57 74.41 C 67.00 73.23 68.41 73.74 68.73 75.56 C 69.05 77.38 68.15 79.82 66.73 81.01 C 65.30 82.19 63.89 81.68 63.57 79.86 C 63.25 78.04 64.14 75.60 65.57 74.41 Z M 66.62 80.42 C 67.80 79.45 68.54 77.44 68.28 75.94 C 68.01 74.44 66.85 74.02 65.67 75.00 C 64.50 75.98 63.76 77.98 64.02 79.48 C 64.28 80.98 65.45 81.40 66.62 80.42" fill="#b6cbea" fill-rule="nonzero" group-id="1,2,8,14,29,72" node-id="1059" stroke="none" target-height="8.968803" target-width="5.804302" target-x="63.2458" target-y="73.2258"></path></g></g></g></g><g node-id="1094"><path d="M 36.52 30.41 C 36.11 30.41 35.72 30.51 35.37 30.68 C 35.20 28.64 33.49 27.03 31.40 27.03 C 29.58 27.03 28.03 28.26 27.56 29.92 C 27.11 29.65 26.58 29.50 26.02 29.50 C 24.29 29.50 22.89 30.90 22.89 32.61 C 22.89 34.34 24.29 35.74 26.02 35.74 L 36.52 35.74 C 37.99 35.74 39.18 34.55 39.18 33.07 C 39.18 31.61 37.99 30.41 36.52 30.41 Z" fill="#dee7f8" fill-rule="nonzero" group-id="1,3" node-id="1068" stroke="none" target-height="8.7027" target-width="16.2867" target-x="22.8948" target-y="27.0334"></path><path d="M 31.40 27.57 C 29.60 27.57 28.14 29.03 28.14 30.82 C 28.14 32.62 29.60 34.08 31.40 34.08 C 33.19 34.08 34.66 32.62 34.66 30.82 C 34.66 29.03 33.19 27.57 31.40 27.57 Z" fill="#e8eff9" fill-rule="nonzero" group-id="1,3" node-id="1070" stroke="none" target-height="6.5135994" target-width="6.5135994" target-x="28.1419" target-y="27.5671"></path><g node-id="1100"><path d="M 27.00 30.23 C 26.70 30.08 26.37 29.99 26.01 29.99 C 24.76 29.99 23.73 31.02 23.73 32.27 C 23.73 33.53 24.76 34.55 26.01 34.55 C 26.80 34.55 27.49 34.15 27.90 33.55 C 27.31 32.80 26.96 31.85 26.96 30.82 C 26.96 30.62 26.98 30.42 27.00 30.23 Z" fill="#e8eff9" fill-rule="nonzero" group-id="1,3,9" node-id="1074" stroke="none" target-height="4.5613003" target-width="4.168598" target-x="23.7338" target-y="29.9919"></path><path d="M 36.52 30.64 C 36.28 30.64 36.05 30.69 35.84 30.77 C 35.84 30.79 35.84 30.81 35.84 30.82 C 35.84 31.93 35.43 32.94 34.76 33.71 C 35.12 34.32 35.77 34.73 36.52 34.73 C 37.65 34.73 38.57 33.82 38.57 32.69 C 38.57 31.56 37.65 30.64 36.52 30.64 Z" fill="#e8eff9" fill-rule="nonzero" group-id="1,3,9" node-id="1076" stroke="none" target-height="4.0909004" target-width="3.8049011" target-x="34.7618" target-y="30.6432"></path></g></g><g node-id="1095"><path d="M 67.94 16.91 C 67.52 16.91 67.13 17.01 66.79 17.18 C 66.61 15.14 64.90 13.53 62.81 13.53 C 60.99 13.53 59.45 14.75 58.97 16.41 C 58.52 16.15 57.99 16.00 57.43 16.00 C 55.70 16.00 54.31 17.39 54.31 19.11 C 54.31 20.84 55.70 22.23 57.43 22.23 L 67.94 22.23 C 69.40 22.23 70.59 21.04 70.59 19.57 C 70.59 18.10 69.40 16.91 67.94 16.91 Z" fill="#dee7f8" fill-rule="nonzero" group-id="1,4" node-id="1082" stroke="none" target-height="8.7027025" target-width="16.286598" target-x="54.307" target-y="13.5297"></path><path d="M 62.81 14.06 C 61.02 14.06 59.55 15.52 59.55 17.32 C 59.55 19.12 61.02 20.58 62.81 20.58 C 64.61 20.58 66.07 19.12 66.07 17.32 C 66.07 15.52 64.61 14.06 62.81 14.06 Z" fill="#e8eff9" fill-rule="nonzero" group-id="1,4" node-id="1084" stroke="none" target-height="6.5136003" target-width="6.513603" target-x="59.5541" target-y="14.0633"></path><g node-id="1101"><path d="M 58.42 16.72 C 58.12 16.58 57.78 16.49 57.43 16.49 C 56.17 16.49 55.15 17.51 55.15 18.77 C 55.15 20.03 56.17 21.05 57.43 21.05 C 58.21 21.05 58.90 20.65 59.31 20.05 C 58.73 19.29 58.37 18.35 58.37 17.32 C 58.37 17.12 58.39 16.92 58.42 16.72 Z" fill="#e8eff9" fill-rule="nonzero" group-id="1,4,10" node-id="1088" stroke="none" target-height="4.5613003" target-width="4.168602" target-x="55.146" target-y="16.4881"></path><path d="M 67.93 17.14 C 67.69 17.14 67.46 17.19 67.25 17.27 C 67.25 17.28 67.25 17.30 67.25 17.32 C 67.25 18.42 66.84 19.43 66.17 20.21 C 66.53 20.82 67.18 21.23 67.93 21.23 C 69.06 21.23 69.98 20.31 69.98 19.18 C 69.98 18.06 69.06 17.14 67.93 17.14 Z" fill="#e8eff9" fill-rule="nonzero" group-id="1,4,10" node-id="1090" stroke="none" target-height="4.0909004" target-width="3.8049927" target-x="66.174" target-y="17.1394"></path></g></g></g></svg>