<?xml version="1.0" standalone="no"?><!DOCTYPE svg PUBLIC "-//W3C//DTD SVG 1.1//EN" "http://www.w3.org/Graphics/SVG/1.1/DTD/svg11.dtd"><svg height="126" node-id="1" sillyvg="true" template-height="126" template-width="126" version="1.1" viewBox="0 0 126 126" width="126" xmlns="http://www.w3.org/2000/svg" xmlns:xlink="http://www.w3.org/1999/xlink"><defs node-id="146"></defs><path d="M 20.22 85.47 C 21.71 85.26 35.83 89.89 37.33 96.22 C 38.83 102.55 50.13 109.15 54.94 107.52 C 59.76 105.89 66.07 107.64 66.07 107.64 L 70.04 109.56 L 70.95 109.99 L 70.96 109.99 L 125.00 78.79 L 57.56 39.59 L 5.23 69.80 C 3.58 70.75 2.21 72.17 1.49 73.93 C -2.48 83.65 18.85 85.66 20.22 85.47 Z" fill="#f3f6fd" fill-rule="nonzero" node-id="150" stroke="none" target-height="70.4026" target-width="127.4819" target-x="-2.4819" target-y="39.5873"></path><g node-id="501"><path d="M 70.95 109.99 L 70.96 109.99 L 81.69 103.79 C 81.94 103.36 82.23 102.73 82.37 101.96 C 82.53 101.04 82.89 100.10 83.56 99.14 L 87.02 93.59 C 87.02 93.59 86.98 93.57 86.92 93.56 C 87.04 93.42 87.13 93.33 87.13 93.33 C 88.31 93.26 88.43 92.28 88.31 92.09 C 88.19 91.90 88.63 91.35 88.63 91.35 L 88.25 91.35 C 88.25 91.35 88.01 91.84 87.90 91.97 C 87.80 92.10 87.33 92.30 87.54 91.71 C 87.74 91.11 87.66 91.20 86.75 90.93 C 86.07 90.74 85.61 90.93 85.43 91.04 C 85.37 91.07 85.36 91.11 85.38 91.13 C 85.53 91.25 85.80 91.64 85.80 91.64 C 85.99 91.91 85.80 92.45 85.64 93.04 C 85.59 93.23 85.53 93.36 85.43 93.51 C 85.33 93.53 85.24 93.56 85.14 93.59 C 85.14 93.59 83.20 95.52 81.25 97.63 L 82.87 95.03 C 82.87 95.03 82.82 95.01 82.73 94.99 C 82.85 94.87 82.93 94.80 82.93 94.80 C 84.10 94.72 84.22 93.74 84.11 93.55 C 83.99 93.36 84.42 92.81 84.42 92.81 L 84.04 92.81 C 84.04 92.81 83.81 93.30 83.69 93.43 C 83.59 93.56 83.12 93.76 83.33 93.17 C 83.53 92.57 83.45 92.66 82.54 92.39 C 81.86 92.20 81.41 92.38 81.22 92.50 C 81.16 92.53 81.15 92.57 81.18 92.59 C 81.33 92.71 81.60 93.10 81.60 93.10 C 81.79 93.37 81.60 93.91 81.44 94.50 C 81.39 94.68 81.33 94.83 81.23 94.97 C 81.15 94.99 81.07 95.00 80.99 95.03 C 80.99 95.03 75.50 99.69 72.93 105.05 C 72.91 105.09 72.88 105.14 72.86 105.18 C 72.82 105.24 72.83 105.26 72.83 105.26 L 71.69 107.06 L 71.40 107.14 L 70.48 108.26 C 70.38 108.03 69.98 107.92 69.45 108.02 C 68.94 108.12 68.35 108.27 67.75 108.45 L 70.04 109.56 L 70.95 109.99 Z" fill="#e1e9f4" fill-rule="nonzero" group-id="1" node-id="154" stroke="none" target-height="19.253998" target-width="20.886604" target-x="67.7483" target-y="90.7359"></path></g><path d="M 66.66 93.44 C 69.37 90.22 72.63 83.05 72.73 82.69 C 72.75 82.65 72.75 82.61 72.72 82.58 L 73.56 81.56 C 73.60 81.51 73.59 81.47 73.57 81.44 C 73.57 81.44 73.17 81.03 72.76 80.97 C 72.67 80.95 72.30 81.13 72.30 81.13 C 71.78 80.42 71.55 80.27 70.74 80.23 C 70.40 80.21 68.52 80.50 68.70 80.67 C 68.75 80.74 68.85 80.80 69.00 80.86 C 69.45 81.07 70.08 81.98 70.42 82.53 C 70.38 82.54 70.34 82.56 70.33 82.57 C 70.18 82.97 67.46 86.02 65.58 88.09 C 66.79 85.93 67.75 84.06 67.79 83.88 C 67.79 83.83 67.75 83.78 67.65 83.76 L 67.64 83.76 L 68.66 82.61 C 68.69 82.56 68.68 82.51 68.64 82.50 L 67.34 82.19 C 67.23 82.14 66.97 82.21 66.90 82.32 L 66.86 82.40 C 65.52 81.69 64.40 81.66 63.45 81.87 C 62.91 81.99 62.53 82.14 62.85 82.28 C 62.95 82.33 63.39 82.38 63.58 82.45 C 64.35 82.69 64.72 83.29 64.90 83.73 C 64.80 83.74 64.73 83.75 64.73 83.75 C 64.75 84.09 61.56 88.41 60.49 89.58 C 59.83 90.29 58.51 92.14 57.78 93.18 L 48.20 95.84 C 47.78 95.96 47.26 96.20 47.02 96.38 L 46.75 96.59 C 46.72 96.59 46.68 96.58 46.65 96.58 C 46.51 96.58 45.36 97.36 45.23 97.52 L 45.22 97.52 C 45.19 97.57 45.08 97.70 45.24 97.75 L 43.70 98.94 C 43.61 99.02 43.58 99.07 43.60 99.10 L 43.61 99.11 L 43.83 99.33 C 43.87 99.36 44.02 99.35 44.26 99.28 L 49.03 97.96 L 50.93 97.98 C 51.51 98.09 51.97 98.26 51.92 98.65 C 51.78 99.64 50.74 101.82 51.42 102.67 C 51.43 102.66 51.43 102.66 51.43 102.66 C 51.69 103.21 52.69 103.28 53.24 103.28 C 53.23 103.28 53.21 103.30 53.20 103.30 L 53.19 103.31 C 53.02 103.41 52.84 103.50 52.64 103.58 C 52.46 103.66 52.30 103.82 52.29 104.13 C 52.30 104.21 52.24 104.30 52.13 104.37 C 51.91 104.53 51.60 104.81 51.39 105.03 C 50.41 105.18 50.44 105.92 51.21 106.49 C 52.32 107.31 53.93 106.57 53.93 106.57 C 55.79 106.37 56.63 104.76 56.63 104.76 C 56.93 104.31 56.71 104.07 56.44 104.11 C 56.43 103.99 56.37 103.81 56.27 103.52 C 56.27 103.51 56.25 103.49 56.22 103.46 C 56.25 103.45 56.27 103.43 56.30 103.41 C 57.49 103.04 59.70 102.49 60.35 102.21 C 60.41 102.18 60.46 102.16 60.50 102.13 C 60.55 102.12 60.59 102.10 60.64 102.08 C 60.73 102.03 60.81 101.99 60.90 101.94 C 60.94 101.92 60.98 101.90 61.02 101.87 C 61.71 101.46 61.99 101.06 62.11 100.60 C 62.12 100.60 62.12 100.60 62.12 100.60 C 62.70 99.58 63.61 97.47 64.02 96.42 C 64.05 96.38 64.06 96.33 64.05 96.29 C 64.97 95.25 66.00 94.26 66.48 93.82 C 66.62 93.69 66.74 93.52 66.66 93.44 Z" fill="#e1e9f4" fill-rule="nonzero" node-id="157" stroke="none" target-height="27.099503" target-width="30.0107" target-x="43.584797" target-y="80.2146"></path><path d="M 5.59 69.59 L 43.98 91.60 L 53.16 86.30 L 14.78 64.29 L 15.33 63.97 L 53.71 85.98 L 82.36 69.44 L 43.98 47.43 L 44.53 47.11 L 82.91 69.12 L 92.09 63.82 L 53.71 41.81 L 54.26 41.49 L 121.96 80.54 L 121.41 80.86 L 92.53 64.08 L 83.35 69.38 L 112.23 86.16 L 111.68 86.48 L 82.80 69.69 L 73.53 75.04 L 102.41 91.83 L 102.02 92.06 L 73.14 75.27 L 63.79 80.66 L 92.68 97.45 L 92.29 97.67 L 63.41 80.89 L 54.15 86.23 L 83.03 103.02 L 82.48 103.34 L 53.60 86.55 L 44.41 91.86 L 73.29 108.64 L 72.74 108.96 L 5.04 69.91 Z" fill="#fafcff" fill-rule="nonzero" node-id="159" stroke="none" target-height="67.4649" target-width="116.9149" target-x="5.0428" target-y="41.4945"></path><path d="M 66.79 52.61 C 66.81 52.68 66.79 52.75 66.79 52.81 C 66.78 52.89 66.76 52.94 66.73 53.01 L 66.19 54.75 C 66.10 55.02 65.90 55.27 65.58 55.47 L 26.43 79.78 C 25.82 80.14 25.03 80.13 24.68 79.71 L 17.48 72.91 C 17.30 72.71 17.27 72.45 17.35 72.18 L 17.91 70.41 C 17.96 70.29 18.02 70.18 18.10 70.07 C 18.14 70.01 18.21 69.93 18.28 69.87 C 18.33 69.82 18.38 69.79 18.44 69.75 C 18.47 69.73 18.50 69.70 18.53 69.69 L 57.66 45.39 C 57.81 45.30 57.98 45.23 58.15 45.18 C 58.30 45.13 58.47 45.12 58.63 45.12 C 58.87 45.12 59.09 45.18 59.26 45.30 C 59.32 45.33 59.38 45.39 59.43 45.44 L 66.62 52.25 C 66.67 52.30 66.71 52.36 66.73 52.42 C 66.76 52.47 66.78 52.54 66.79 52.61 Z" fill="#e1e9f4" fill-rule="nonzero" node-id="161" stroke="none" target-height="35.0268" target-width="49.539097" target-x="17.2681" target-y="45.117702"></path><g node-id="502"><g node-id="505"><g node-id="514"><g node-id="542"><g node-id="553"><g node-id="562"><path d="M 64.15 46.21 C 64.16 46.91 63.67 47.75 63.06 48.10 L 24.58 70.32 C 24.27 70.50 23.98 70.52 23.78 70.39 L 22.44 69.60 C 22.24 69.48 22.12 69.24 22.12 68.89 L 22.06 40.27 C 22.06 39.58 22.55 38.73 23.15 38.38 L 61.64 16.16 C 61.95 15.98 62.22 15.97 62.42 16.08 L 63.78 16.88 C 63.77 16.87 63.76 16.87 63.74 16.87 C 63.96 16.97 64.10 17.22 64.10 17.58 L 64.15 46.21 Z" fill="#6262aa" fill-rule="nonzero" group-id="2,5,14,42,53,62" node-id="175" stroke="none" target-height="54.5471" target-width="42.098305" target-x="22.0617" target-y="15.9688"></path></g><path d="M 23.42 41.07 L 23.48 69.69 C 23.48 70.39 23.97 70.67 24.57 70.32 L 63.06 48.10 C 63.67 47.75 64.16 46.90 64.16 46.20 L 64.10 17.59 C 64.10 16.89 63.60 16.61 63.00 16.96 L 24.52 39.18 C 23.91 39.53 23.42 40.38 23.42 41.07 Z" fill="#3a3a77" fill-rule="nonzero" group-id="2,5,14,42,53" node-id="178" stroke="none" target-height="54.0577" target-width="40.7391" target-x="23.4193" target-y="16.615"></path><g node-id="563"><path d="M 24.93 40.69 L 24.99 68.34 L 62.65 46.60 L 62.59 18.94 Z" fill="#ffffff" fill-rule="nonzero" group-id="2,5,14,42,53,63" node-id="182" stroke="none" target-height="49.4043" target-width="37.718903" target-x="24.9306" target-y="18.937"></path></g></g></g></g></g><g node-id="506"><g node-id="515"><path d="M 61.34 33.86 L 61.38 45.46 L 59.34 46.64 L 59.32 36.46 Z" fill="#3887e5" fill-rule="nonzero" group-id="2,6,15" node-id="193" stroke="none" target-height="12.781601" target-width="2.0592995" target-x="59.3157" target-y="33.8567"></path></g><g node-id="516"><path d="M 49.15 44.25 L 51.18 43.81 L 51.20 51.34 L 49.17 52.51 Z" fill="#6b9ef9" fill-rule="nonzero" group-id="2,6,16" node-id="198" stroke="none" target-height="8.7061" target-width="2.0538979" target-x="49.1472" target-y="43.8061"></path></g><g node-id="517"><path d="M 53.21 40.58 L 53.24 50.16 L 51.20 51.34 L 51.18 43.81 Z" fill="#3887e5" fill-rule="nonzero" group-id="2,6,17" node-id="203" stroke="none" target-height="10.762302" target-width="2.0538979" target-x="51.1836" target-y="40.5754"></path></g><g node-id="518"><path d="M 53.21 40.58 L 55.25 40.13 L 55.27 48.99 L 53.24 50.16 Z" fill="#6b9ef9" fill-rule="nonzero" group-id="2,6,18" node-id="208" stroke="none" target-height="10.030899" target-width="2.057598" target-x="53.214302" target-y="40.131"></path></g><g node-id="519"><path d="M 57.28 36.90 L 57.31 47.81 L 55.27 48.99 L 55.25 40.13 Z" fill="#3887e5" fill-rule="nonzero" group-id="2,6,19" node-id="213" stroke="none" target-height="12.085705" target-width="2.0555992" target-x="55.2507" target-y="36.9017"></path></g><g node-id="520"><path d="M 57.28 36.90 L 59.32 36.46 L 59.34 46.64 L 57.31 47.81 Z" fill="#6b9ef9" fill-rule="nonzero" group-id="2,6,20" node-id="218" stroke="none" target-height="11.353203" target-width="2.0614014" target-x="57.279297" target-y="36.4596"></path></g><g node-id="521"><path d="M 45.08 47.92 L 47.12 47.48 L 47.13 53.69 L 45.10 54.86 Z" fill="#6b9ef9" fill-rule="nonzero" group-id="2,6,21" node-id="223" stroke="none" target-height="7.381401" target-width="2.050106" target-x="45.0822" target-y="47.4799"></path></g><path d="M 49.15 44.25 L 49.17 52.51 L 47.13 53.69 L 47.12 47.48 Z" fill="#3887e5" fill-rule="nonzero" group-id="2,6,22" node-id="228" stroke="none" target-height="9.438602" target-width="2.0480995" target-x="47.1186" target-y="44.248196"></path></g><g node-id="507"><g node-id="523"><path d="M 30.45 57.59 C 30.53 58.18 30.75 58.66 31.09 58.98 L 29.01 62.58 C 28.13 61.90 27.61 60.78 27.50 59.29 L 30.45 57.59 Z" fill="#a6c2ff" fill-rule="nonzero" group-id="2,7,23" node-id="236" stroke="none" target-height="4.989296" target-width="3.5904999" target-x="27.4969" target-y="57.590504"></path></g><g node-id="524"><path d="M 33.31 48.05 L 33.32 51.43 C 31.83 52.55 30.66 54.56 30.44 56.42 L 27.49 58.12 C 27.74 54.40 30.21 50.12 33.31 48.05 Z" fill="#6b9ef9" fill-rule="nonzero" group-id="2,7,24" node-id="241" stroke="none" target-height="10.070805" target-width="5.8240986" target-x="27.4936" target-y="48.0471"></path></g><g node-id="525"><path d="M 35.89 57.04 L 37.98 58.23 C 36.83 60.02 35.37 61.49 33.86 62.36 C 32.36 63.23 30.89 63.45 29.73 62.99 L 31.81 59.39 C 32.41 59.55 33.11 59.42 33.85 58.99 C 34.59 58.56 35.29 57.89 35.89 57.04 Z" fill="#b6cbea" fill-rule="nonzero" group-id="2,7,25" node-id="246" stroke="none" target-height="6.4152985" target-width="8.249498" target-x="29.731" target-y="57.0362"></path></g><g node-id="526"><path d="M 34.15 43.35 L 34.15 44.18 L 27.46 48.04 L 27.46 47.21 Z" fill="#6b9ef9" fill-rule="nonzero" group-id="2,7,26" node-id="251" stroke="none" target-height="4.698204" target-width="6.690302" target-x="27.462599" target-y="43.3452"></path></g><g node-id="527"><path d="M 40.17 37.87 L 40.18 38.70 L 27.46 46.05 L 27.46 45.21 Z" fill="#6b9ef9" fill-rule="nonzero" group-id="2,7,27" node-id="256" stroke="none" target-height="8.179401" target-width="12.719902" target-x="27.456898" target-y="37.868"></path></g><g node-id="528"><path d="M 34.33 47.46 C 35.68 46.80 36.92 46.67 37.95 47.08 L 35.88 50.68 C 35.42 50.56 34.89 50.61 34.34 50.84 L 34.33 47.46 Z" fill="#3887e5" fill-rule="nonzero" group-id="2,7,28" node-id="261" stroke="none" target-height="4.167404" target-width="3.6183968" target-x="34.3305" target-y="46.668896"></path></g><g node-id="529"><path d="M 38.68 47.50 C 39.66 48.25 40.21 49.62 40.21 51.36 C 40.22 53.09 39.68 55.09 38.71 56.98 L 36.61 55.79 C 37.05 54.85 37.28 53.90 37.28 53.06 C 37.28 52.20 37.04 51.52 36.60 51.10 L 38.68 47.50 Z" fill="#1e72c6" fill-rule="nonzero" group-id="2,7,29" node-id="266" stroke="none" target-height="9.4795" target-width="3.618103" target-x="36.5995" target-y="47.5005"></path></g><path d="M 40.17 35.87 L 40.17 36.71 L 27.45 44.05 L 27.45 43.21 Z" fill="#6b9ef9" fill-rule="nonzero" group-id="2,7,30" node-id="271" stroke="none" target-height="8.179401" target-width="12.7199" target-x="27.4513" target-y="35.8724"></path></g><g node-id="508"><g node-id="531"><path d="M 52.08 32.15 L 52.08 32.67 C 52.08 32.80 51.99 32.94 51.89 33.01 C 51.84 33.33 51.79 33.64 51.72 33.96 C 51.84 33.94 51.89 34.04 51.85 34.18 L 51.67 34.77 C 51.64 34.87 51.57 34.97 51.49 35.01 C 51.47 35.03 51.44 35.04 51.41 35.04 C 51.28 35.37 51.14 35.69 50.99 36.00 C 51.07 36.05 51.07 36.20 51.00 36.32 L 50.68 36.88 C 50.64 36.95 50.59 37.00 50.54 37.03 C 50.49 37.06 50.44 37.07 50.41 37.04 C 50.20 37.32 49.98 37.61 49.76 37.88 C 49.81 37.98 49.76 38.15 49.66 38.25 L 49.25 38.69 C 49.22 38.72 49.20 38.73 49.17 38.75 C 49.09 38.80 49.02 38.79 48.99 38.72 C 48.74 38.92 48.50 39.12 48.24 39.30 C 48.24 39.44 48.16 39.60 48.04 39.65 L 47.59 39.92 C 47.48 39.98 47.39 39.93 47.39 39.81 C 47.14 39.90 46.89 39.99 46.65 40.05 C 46.61 40.18 46.54 40.27 46.47 40.31 C 46.44 40.33 46.42 40.34 46.39 40.34 L 45.97 40.39 C 45.87 40.39 45.82 40.29 45.86 40.15 C 45.65 40.11 45.44 40.07 45.24 40.01 C 45.19 40.10 45.14 40.14 45.09 40.18 C 45.04 40.20 44.99 40.21 44.95 40.18 L 44.63 40.00 C 44.55 39.96 44.55 39.82 44.63 39.69 C 44.48 39.53 44.34 39.37 44.22 39.19 C 44.18 39.23 44.15 39.25 44.13 39.27 C 44.06 39.31 43.98 39.30 43.95 39.23 L 43.77 38.85 C 43.73 38.76 43.77 38.60 43.87 38.49 C 43.82 38.23 43.77 37.99 43.75 37.70 C 43.61 37.78 43.53 37.73 43.53 37.61 L 43.52 37.08 C 43.52 36.96 43.61 36.81 43.72 36.75 C 43.77 36.43 43.81 36.12 43.89 35.80 C 43.77 35.82 43.72 35.71 43.77 35.57 L 43.94 34.99 C 43.97 34.88 44.04 34.79 44.12 34.75 C 44.14 34.73 44.17 34.72 44.19 34.71 C 44.33 34.39 44.47 34.07 44.63 33.75 C 44.53 33.70 44.53 33.55 44.61 33.42 L 44.93 32.88 C 44.97 32.80 45.01 32.76 45.07 32.73 C 45.12 32.70 45.17 32.69 45.21 32.72 C 45.42 32.42 45.63 32.14 45.84 31.88 C 45.80 31.76 45.84 31.61 45.94 31.51 L 46.36 31.06 C 46.38 31.04 46.41 31.01 46.44 31.00 C 46.51 30.96 46.59 30.97 46.62 31.04 C 46.87 30.83 47.11 30.64 47.37 30.46 C 47.37 30.31 47.46 30.16 47.56 30.10 L 48.02 29.84 C 48.13 29.77 48.21 29.82 48.21 29.94 C 48.47 29.85 48.71 29.77 48.95 29.71 C 49.00 29.58 49.07 29.48 49.14 29.44 C 49.16 29.43 49.19 29.42 49.21 29.41 L 49.64 29.37 C 49.74 29.36 49.78 29.47 49.74 29.60 C 49.96 29.65 50.17 29.68 50.37 29.75 C 50.42 29.66 50.47 29.61 50.52 29.58 C 50.57 29.56 50.62 29.55 50.66 29.56 L 50.98 29.75 C 51.06 29.79 51.06 29.94 50.98 30.06 C 51.12 30.23 51.27 30.38 51.39 30.57 C 51.43 30.52 51.45 30.51 51.48 30.49 C 51.56 30.45 51.63 30.46 51.66 30.52 L 51.83 30.91 C 51.88 31.00 51.83 31.16 51.74 31.26 C 51.78 31.51 51.84 31.77 51.86 32.05 C 51.99 31.97 52.08 32.02 52.08 32.15 Z" fill="#9eb5df" fill-rule="nonzero" group-id="2,8,31" node-id="279" stroke="none" target-height="11.031" target-width="8.5574" target-x="43.5241" target-y="29.3631"></path><path d="M 61.37 26.78 L 61.37 27.31 C 61.37 27.43 61.29 27.57 61.18 27.64 C 61.14 27.96 61.08 28.28 61.02 28.59 C 61.14 28.57 61.18 28.68 61.14 28.82 L 60.97 29.40 C 60.94 29.51 60.86 29.60 60.78 29.65 C 60.76 29.66 60.74 29.67 60.71 29.67 C 60.57 30.00 60.44 30.32 60.28 30.64 C 60.36 30.68 60.37 30.83 60.29 30.96 L 59.97 31.51 C 59.93 31.58 59.88 31.64 59.83 31.66 C 59.78 31.69 59.74 31.70 59.70 31.68 C 59.49 31.96 59.28 32.25 59.05 32.51 C 59.10 32.62 59.06 32.78 58.96 32.88 L 58.54 33.33 C 58.51 33.35 58.49 33.37 58.46 33.38 C 58.39 33.43 58.32 33.42 58.29 33.35 C 58.04 33.55 57.79 33.75 57.54 33.93 C 57.54 34.08 57.45 34.23 57.34 34.29 L 56.88 34.55 C 56.78 34.62 56.69 34.57 56.69 34.45 C 56.43 34.54 56.18 34.62 55.95 34.68 C 55.91 34.81 55.84 34.91 55.76 34.95 C 55.73 34.96 55.71 34.97 55.68 34.97 L 55.26 35.02 C 55.17 35.03 55.12 34.92 55.16 34.79 C 54.94 34.75 54.73 34.71 54.54 34.64 C 54.48 34.73 54.43 34.78 54.39 34.81 C 54.34 34.83 54.28 34.84 54.25 34.82 L 53.93 34.64 C 53.85 34.59 53.85 34.46 53.92 34.33 C 53.78 34.17 53.64 34.00 53.52 33.82 C 53.48 33.86 53.45 33.88 53.42 33.90 C 53.35 33.94 53.27 33.93 53.24 33.86 L 53.06 33.48 C 53.02 33.39 53.07 33.23 53.17 33.13 C 53.12 32.87 53.06 32.62 53.04 32.34 C 52.91 32.42 52.82 32.36 52.82 32.24 L 52.82 31.72 C 52.82 31.60 52.91 31.44 53.02 31.39 C 53.06 31.06 53.11 30.75 53.18 30.43 C 53.06 30.44 53.02 30.34 53.06 30.20 L 53.23 29.62 C 53.26 29.52 53.33 29.42 53.41 29.38 C 53.43 29.36 53.46 29.35 53.48 29.35 C 53.62 29.02 53.77 28.70 53.92 28.39 C 53.83 28.33 53.83 28.19 53.90 28.07 L 54.22 27.51 C 54.27 27.44 54.31 27.39 54.36 27.36 C 54.41 27.33 54.46 27.32 54.50 27.35 C 54.71 27.06 54.92 26.78 55.14 26.51 C 55.09 26.40 55.14 26.24 55.24 26.14 L 55.66 25.70 C 55.68 25.67 55.71 25.65 55.73 25.63 C 55.81 25.59 55.88 25.60 55.92 25.67 C 56.16 25.46 56.41 25.27 56.66 25.09 C 56.66 24.94 56.75 24.79 56.85 24.73 L 57.31 24.47 C 57.42 24.41 57.51 24.46 57.51 24.58 C 57.76 24.48 58.01 24.40 58.25 24.34 C 58.29 24.21 58.36 24.12 58.44 24.07 C 58.46 24.06 58.49 24.05 58.51 24.05 L 58.93 24.00 C 59.04 24.00 59.08 24.10 59.04 24.24 C 59.25 24.28 59.47 24.31 59.66 24.38 C 59.71 24.29 59.76 24.25 59.81 24.21 C 59.87 24.19 59.91 24.18 59.95 24.20 L 60.28 24.38 C 60.35 24.42 60.35 24.57 60.28 24.70 C 60.42 24.86 60.56 25.01 60.69 25.21 C 60.72 25.16 60.75 25.14 60.78 25.12 C 60.85 25.08 60.92 25.09 60.95 25.16 L 61.13 25.54 C 61.17 25.63 61.13 25.79 61.03 25.90 C 61.08 26.15 61.13 26.41 61.15 26.68 C 61.28 26.61 61.37 26.66 61.37 26.78 Z" fill="#9eb5df" fill-rule="nonzero" group-id="2,8,31" node-id="281" stroke="none" target-height="11.030701" target-width="8.549496" target-x="52.8226" target-y="23.9967"></path></g><g node-id="532"><g node-id="543"><path d="M 60.25 27.69 C 60.25 29.69 58.85 32.13 57.11 33.13 C 55.37 34.14 53.95 33.34 53.94 31.33 C 53.93 29.33 55.35 26.89 57.09 25.89 C 58.83 24.88 60.24 25.69 60.25 27.69 Z" fill="#dee7f8" fill-rule="nonzero" group-id="2,8,32,43" node-id="288" stroke="none" target-height="9.258202" target-width="6.317402" target-x="53.9347" target-y="24.8829"></path></g><path d="M 50.96 33.05 C 50.96 35.05 49.55 37.50 47.82 38.50 C 46.08 39.51 44.66 38.69 44.65 36.70 C 44.64 34.70 46.05 32.26 47.79 31.26 C 49.53 30.25 50.95 31.06 50.96 33.05 Z" fill="#dee7f8" fill-rule="nonzero" group-id="2,8,32,44" node-id="293" stroke="none" target-height="9.258202" target-width="6.317398" target-x="44.6441" target-y="30.2495"></path></g><g node-id="533"><path d="M 58.30 29.04 C 58.39 29.28 58.36 29.59 58.19 29.93 C 58.08 30.18 57.90 30.34 57.72 30.49 C 57.61 30.58 57.50 30.65 57.39 30.73 L 57.39 31.33 L 57.06 31.52 L 57.06 30.93 L 56.82 31.07 L 56.82 31.66 L 56.49 31.85 L 56.49 31.23 L 55.85 31.60 C 55.88 31.44 55.90 31.29 55.91 31.14 C 55.98 31.10 56.04 31.07 56.10 31.03 C 56.23 30.96 56.26 30.89 56.26 30.75 C 56.26 30.24 56.26 29.74 56.26 29.24 C 56.26 29.06 56.21 29.03 56.05 29.12 C 55.98 29.15 55.92 29.19 55.85 29.23 L 55.85 28.84 L 56.49 28.47 L 56.48 27.88 L 56.81 27.69 L 56.81 28.27 L 57.05 28.13 L 57.05 27.55 L 57.38 27.36 L 57.38 27.96 C 57.61 27.83 57.82 27.81 57.90 27.83 C 58.19 27.88 58.22 28.37 58.03 28.69 C 57.99 28.76 57.94 28.83 57.90 28.89 L 57.94 28.89 C 58.10 28.87 58.25 28.87 58.30 29.04 Z M 57.50 30.14 C 57.65 29.98 57.71 29.84 57.71 29.68 C 57.71 29.54 57.63 29.47 57.48 29.49 C 57.31 29.52 57.14 29.62 56.96 29.72 C 56.93 29.74 56.89 29.76 56.86 29.78 C 56.85 29.79 56.83 29.80 56.82 29.81 L 56.82 30.62 C 56.87 30.59 56.93 30.56 56.99 30.52 C 57.16 30.42 57.33 30.31 57.50 30.14 M 56.81 28.71 L 56.82 29.44 C 56.86 29.41 56.91 29.39 56.95 29.36 C 57.09 29.28 57.22 29.20 57.35 29.07 C 57.48 28.95 57.56 28.79 57.56 28.64 C 57.56 28.50 57.49 28.43 57.36 28.45 C 57.24 28.47 57.13 28.52 57.01 28.59 C 56.95 28.62 56.88 28.67 56.81 28.71" fill="#9eb5df" fill-rule="nonzero" group-id="2,8,33" node-id="299" stroke="none" target-height="4.4875965" target-width="2.5353012" target-x="55.8509" target-y="27.3616"></path></g><path d="M 48.06 32.74 L 48.06 33.17 C 48.47 33.05 48.76 33.25 48.76 33.68 L 48.23 33.99 C 48.23 33.81 48.03 33.77 47.80 33.90 C 47.57 34.03 47.37 34.30 47.37 34.48 C 47.37 34.67 47.57 34.71 47.80 34.57 C 48.33 34.27 48.76 34.44 48.76 34.97 C 48.77 35.40 48.47 35.93 48.07 36.28 L 48.07 36.71 L 47.54 37.02 L 47.54 36.59 C 47.14 36.70 46.85 36.51 46.85 36.07 L 47.38 35.77 C 47.38 35.95 47.57 35.99 47.80 35.86 C 48.04 35.72 48.23 35.46 48.23 35.27 C 48.23 35.09 48.03 35.05 47.80 35.18 C 47.27 35.49 46.84 35.31 46.84 34.79 C 46.84 34.36 47.13 33.82 47.53 33.48 L 47.53 33.05 L 48.06 32.74 Z" fill="#9eb5df" fill-rule="nonzero" group-id="2,8,34" node-id="304" stroke="none" target-height="4.2792015" target-width="1.9244995" target-x="46.8411" target-y="32.7394"></path></g></g><g node-id="503"><g node-id="509"><g node-id="535"><path d="M 68.93 76.30 C 68.72 76.69 67.91 78.55 66.98 78.05 C 66.98 78.05 65.81 80.39 64.24 81.07 C 64.00 81.17 63.53 81.26 63.38 81.34 C 62.98 81.58 63.25 81.84 63.70 82.03 C 64.51 82.38 65.65 82.32 67.48 81.15 L 67.47 81.28 C 67.47 81.46 67.66 81.58 67.82 81.50 L 69.32 80.99 C 69.39 80.95 69.43 80.88 69.43 80.80 L 68.93 76.30 Z" fill="#2a2a5e" fill-rule="nonzero" group-id="3,9,35" node-id="315" stroke="none" target-height="6.0807037" target-width="6.4499016" target-x="62.9811" target-y="76.2967"></path><path d="M 65.93 61.97 C 65.94 61.71 66.22 60.86 66.28 60.32 C 66.30 60.17 70.46 59.94 70.46 59.94 C 71.19 62.61 69.65 77.97 69.44 78.67 C 69.41 78.77 69.33 78.84 69.22 78.88 C 67.72 79.40 66.30 78.89 66.30 78.89 C 66.56 78.33 66.38 71.10 66.12 69.15 C 65.92 67.58 65.91 62.59 65.93 61.97 Z" fill="#3a3a77" fill-rule="nonzero" group-id="3,9,35" node-id="317" stroke="none" target-height="19.458199" target-width="5.2753983" target-x="65.9096" target-y="59.9393"></path><path d="M 73.37 79.54 C 73.22 79.97 72.35 80.61 71.67 80.25 C 71.67 80.25 69.40 83.22 68.55 83.71 C 68.36 83.82 68.22 83.93 68.11 84.03 C 67.82 84.33 69.49 84.80 69.85 84.77 C 70.68 84.69 71.03 84.44 72.04 83.27 C 72.04 83.27 72.28 83.56 72.39 83.54 C 72.84 83.43 73.52 82.76 73.52 82.76 C 73.57 82.71 73.60 82.63 73.60 82.55 L 73.37 79.54 Z" fill="#2a2a5e" fill-rule="nonzero" group-id="3,9,35" node-id="319" stroke="none" target-height="5.257202" target-width="5.776306" target-x="67.8212" target-y="79.5404"></path><path d="M 74.74 61.13 C 74.12 61.40 71.26 60.34 69.45 60.18 C 69.22 60.16 68.97 60.10 68.73 60.05 C 68.76 60.15 68.61 61.32 68.73 61.70 C 69.27 63.39 69.54 64.87 69.65 66.63 C 69.70 67.41 69.75 68.11 69.78 68.39 C 69.84 69.11 71.28 79.86 71.08 80.86 C 71.05 81.17 73.48 81.32 73.56 80.67 C 73.73 80.00 75.88 65.18 74.74 61.13 Z" fill="#4c4a8b" fill-rule="nonzero" group-id="3,9,35" node-id="321" stroke="none" target-height="21.269299" target-width="7.2718964" target-x="68.6128" target-y="60.053204"></path></g><g node-id="536"><g node-id="545"><g node-id="554"><g node-id="564"><g node-id="566"><g node-id="568"><g node-id="569"><path d="M 71.49 45.30 C 70.89 45.18 68.68 44.83 68.55 46.19 C 68.39 47.77 69.63 49.12 69.63 49.12 C 70.71 49.12 71.24 48.53 71.49 47.87 L 71.49 45.30 Z" fill="#e0a4b2" fill-rule="nonzero" group-id="3,9,36,45,54,64,66,68,69" node-id="338" stroke="none" target-height="4.294098" target-width="3.0967026" target-x="68.3909" target-y="44.8301"></path><path d="M 66.20 47.30 C 64.92 48.71 64.44 52.35 63.88 54.01 C 63.67 54.66 63.09 54.94 62.42 55.12 L 58.60 55.20 C 58.29 55.48 58.07 56.14 58.65 56.72 L 63.88 57.17 C 64.41 57.15 64.89 56.88 65.17 56.43 C 65.60 55.75 66.20 54.71 66.80 53.62 L 66.80 48.74 C 66.39 48.36 66.21 47.84 66.20 47.30 Z" fill="#4c4a8b" fill-rule="nonzero" group-id="3,9,36,45,54,64,66,68,69" node-id="340" stroke="none" target-height="9.8736" target-width="8.729797" target-x="58.0688" target-y="47.2996"></path><path d="M 68.88 45.70 C 68.88 45.70 68.22 47.20 69.63 47.64 C 69.63 47.64 71.24 48.15 71.69 46.14 C 71.69 46.14 72.63 48.28 72.35 49.41 C 72.07 50.54 71.36 63.22 71.36 63.22 C 71.36 63.22 69.69 63.94 67.23 62.68 C 67.23 62.68 66.83 52.90 66.87 52.74 C 66.90 52.58 67.70 46.81 68.88 45.70 Z" fill="#ffffff" fill-rule="nonzero" group-id="3,9,36,45,54,64,66,68,69" node-id="342" stroke="none" target-height="18.239399" target-width="5.793503" target-x="66.8329" target-y="45.7015"></path><g node-id="570"><path d="M 75.07 62.07 C 75.13 62.33 75.12 62.72 74.86 62.80 C 67.14 65.16 65.93 61.97 65.93 61.97 C 66.49 58.74 65.78 53.72 65.63 49.73 C 65.48 45.74 68.81 46.31 68.81 46.31 C 68.63 46.55 68.55 47.03 68.40 47.64 C 67.94 49.55 68.61 52.99 69.10 55.22 C 69.18 53.66 69.43 52.25 69.93 51.37 C 71.84 48.03 71.40 45.93 71.40 45.93 C 72.25 46.53 74.31 47.55 74.81 48.07 C 76.42 49.73 75.08 51.36 74.46 53.80 C 73.85 56.18 74.77 60.69 75.07 62.07 Z" fill="#6262aa" fill-rule="nonzero" group-id="3,9,36,45,54,64,66,68,69,70" node-id="346" stroke="none" target-height="19.414597" target-width="10.945396" target-x="65.4783" target-y="45.742302"></path></g><path d="M 71.20 45.43 C 71.20 45.43 71.20 45.44 71.19 45.47 C 71.13 45.80 70.83 47.39 69.63 47.64 L 70.22 48.33 C 70.22 48.33 71.91 47.33 71.79 46.44 L 71.20 45.43 Z" fill="#dee7f8" fill-rule="nonzero" group-id="3,9,36,45,54,64,66,68,69" node-id="349" stroke="none" target-height="2.9032974" target-width="2.2779999" target-x="69.6311" target-y="45.4252"></path><g node-id="571"><path d="M 72.40 47.95 C 72.35 47.42 71.74 46.18 71.42 45.79 C 71.29 46.03 71.21 46.09 71.02 46.26 C 71.19 46.83 71.49 48.64 69.93 51.37 C 69.43 52.25 69.19 53.65 69.11 55.20 C 70.13 52.07 72.23 49.25 72.23 49.25 L 71.65 48.49 L 72.40 47.95 Z" fill="#4c4a8b" fill-rule="nonzero" group-id="3,9,36,45,54,64,66,68,69,71" node-id="353" stroke="none" target-height="9.402504" target-width="3.2886047" target-x="69.1103" target-y="45.793396"></path></g><path d="M 68.85 45.93 L 68.23 46.82 C 68.42 47.71 68.87 48.33 68.87 48.33 L 69.63 47.64 C 68.60 46.95 68.85 45.93 68.85 45.93 Z" fill="#dee7f8" fill-rule="nonzero" group-id="3,9,36,45,54,64,66,68,69" node-id="356" stroke="none" target-height="2.4021034" target-width="1.4013062" target-x="68.2299" target-y="45.9265"></path><path d="M 69.09 55.17 C 68.60 52.95 67.94 49.54 68.40 47.64 C 68.54 47.03 68.64 46.56 68.80 46.31 C 68.80 46.31 68.63 46.28 68.37 46.28 L 67.45 47.57 L 67.93 48.31 L 67.28 48.96 C 67.28 48.96 67.63 52.89 69.09 55.17 Z" fill="#4c4a8b" fill-rule="nonzero" group-id="3,9,36,45,54,64,66,68,69" node-id="358" stroke="none" target-height="8.886398" target-width="1.8098068" target-x="67.2849" target-y="46.2829"></path></g></g></g></g></g></g></g><g node-id="537"><g node-id="546"><g node-id="555"><path d="M 67.27 63.16 L 66.88 63.53 C 66.93 63.48 66.94 63.40 66.89 63.27 L 65.37 58.99 C 65.26 58.69 64.90 58.28 64.56 58.09 L 56.30 53.32 C 56.10 53.21 55.96 53.19 55.89 53.25 L 56.27 52.88 C 56.34 52.82 56.48 52.83 56.68 52.95 L 64.94 57.72 C 65.28 57.91 65.64 58.32 65.75 58.62 L 67.27 62.89 C 67.32 63.02 67.31 63.11 67.27 63.16 Z" fill="#6262aa" fill-rule="nonzero" group-id="3,9,37,46,55" node-id="373" stroke="none" target-height="10.7141" target-width="11.428204" target-x="55.8915" target-y="52.8159"></path></g><g node-id="556"><g node-id="565"><g node-id="567"><path d="M 67.27 63.16 L 66.88 63.53 C 66.82 63.60 66.67 63.58 66.48 63.46 L 58.21 58.69 C 57.88 58.50 57.51 58.09 57.41 57.79 L 55.88 53.52 C 55.83 53.38 55.84 53.29 55.90 53.25 L 56.27 52.88 C 56.34 52.82 56.48 52.83 56.68 52.95 L 64.94 57.72 C 65.28 57.91 65.64 58.32 65.75 58.62 L 67.27 62.89 C 67.32 63.02 67.31 63.11 67.27 63.16 Z" fill="#6262aa" fill-rule="nonzero" group-id="3,9,37,46,56,65,67" node-id="382" stroke="none" target-height="10.780201" target-width="11.4854965" target-x="55.834206" target-y="52.8159"></path></g></g></g><path d="M 64.56 58.09 C 64.90 58.29 65.26 58.69 65.37 58.99 L 66.89 63.27 C 67.00 63.57 66.81 63.66 66.48 63.46 L 58.21 58.69 C 57.87 58.50 57.51 58.09 57.41 57.79 L 55.88 53.52 C 55.77 53.21 55.96 53.13 56.30 53.32 L 64.56 58.09 Z" fill="#3a3a77" fill-rule="nonzero" group-id="3,9,37,46,57" node-id="389" stroke="none" target-height="10.534" target-width="11.226093" target-x="55.774204" target-y="53.1251"></path></g></g><g node-id="538"><g node-id="547"><path d="M 68.73 60.64 L 68.57 60.67 C 68.39 60.72 68.23 60.84 68.14 61.02 C 67.84 61.64 66.71 62.04 66.25 62.16 C 66.11 62.19 66.04 62.18 66.00 62.16 C 65.91 62.10 66.28 61.86 66.34 61.78 C 66.02 61.92 66.04 61.92 65.78 62.01 C 65.66 62.04 65.59 62.01 65.58 61.98 C 65.56 61.90 65.75 61.73 65.87 61.64 C 65.68 61.76 65.44 61.85 65.44 61.85 C 65.30 61.89 65.25 61.87 65.22 61.85 C 65.02 61.73 65.62 61.40 65.64 61.38 C 65.29 61.53 65.11 61.52 65.03 61.46 C 64.96 61.42 65.01 61.32 65.01 61.32 C 65.03 61.30 65.23 61.02 65.97 60.76 C 66.46 60.60 66.34 60.27 66.34 60.27 L 66.16 59.76 C 67.07 59.64 67.62 60.01 67.79 60.03 C 67.95 60.07 68.24 59.92 68.26 59.91 L 68.73 60.64 Z" fill="#ecb4bf" fill-rule="nonzero" group-id="3,9,38,47" node-id="398" stroke="none" target-height="2.5449982" target-width="3.764595" target-x="64.9641" target-y="59.6417"></path><path d="M 71.19 57.46 C 71.81 57.18 72.18 56.57 72.14 55.88 C 72.01 53.52 71.90 48.01 73.68 47.86 C 75.71 47.69 75.48 50.01 75.48 50.01 C 75.54 51.03 74.83 55.65 74.44 57.73 C 74.34 58.26 74.00 58.68 73.51 58.90 L 68.26 61.10 C 67.51 60.77 67.33 60.10 67.51 59.73 L 71.19 57.46 Z" fill="#4c4a8b" fill-rule="nonzero" group-id="3,9,38,47" node-id="400" stroke="none" target-height="13.412102" target-width="8.380402" target-x="67.3259" target-y="47.6863"></path></g></g><g node-id="539"><path d="M 68.09 44.86 C 68.15 44.73 68.15 44.57 68.10 44.44 C 67.94 44.09 67.78 43.32 67.77 42.95 C 67.77 42.46 70.10 41.97 70.10 41.97 L 72.29 43.05 L 72.38 44.57 C 72.38 44.57 72.40 44.67 71.64 45.87 C 71.54 46.03 70.00 47.46 69.09 47.15 C 69.09 47.15 68.74 47.13 68.60 46.61 C 68.50 46.28 68.30 46.01 68.06 45.77 C 67.93 45.64 67.88 45.37 68.09 44.86 Z" fill="#ecb4bf" fill-rule="nonzero" group-id="3,9,39" node-id="406" stroke="none" target-height="5.492401" target-width="4.6281967" target-x="67.7705" target-y="41.9655"></path></g><path d="M 57.67 56.68 C 57.77 56.66 57.78 56.62 57.77 56.58 C 57.77 56.38 57.33 56.31 57.24 56.29 C 57.50 56.27 57.56 56.18 57.55 56.09 C 57.55 55.96 57.29 55.88 57.29 55.88 C 57.28 55.88 57.06 55.81 56.70 55.83 L 56.59 55.50 C 56.38 55.58 56.40 55.81 56.41 55.89 L 56.41 55.89 C 56.43 56.16 57.04 57.46 57.17 57.45 C 57.34 57.44 57.48 57.41 57.57 57.39 C 57.65 57.35 57.67 57.31 57.67 57.27 C 57.67 57.17 57.32 57.09 57.23 57.03 C 57.48 57.03 57.47 57.05 57.66 57.01 C 57.72 56.99 57.74 56.93 57.71 56.89 C 57.66 56.79 57.45 56.71 57.32 56.66 C 57.50 56.70 57.67 56.68 57.67 56.68 Z" fill="#ecb4bf" fill-rule="nonzero" group-id="3,9" node-id="409" stroke="none" target-height="1.9530945" target-width="1.3920021" target-x="56.384598" target-y="55.502804"></path></g><path d="M 72.87 43.81 C 72.84 44.68 72.33 45.07 72.13 44.81 C 71.93 44.55 72.10 44.26 72.10 44.26 C 72.22 44.02 72.19 43.86 72.19 43.86 C 72.12 43.61 71.97 43.55 71.84 43.55 C 71.71 43.56 71.60 43.63 71.53 43.74 L 71.49 44.63 C 71.49 44.63 71.57 45.89 70.90 46.51 C 70.35 46.92 69.61 47.33 69.09 47.15 C 69.09 47.15 68.74 47.14 68.59 46.62 C 68.56 46.48 68.49 46.36 68.42 46.24 L 68.42 46.22 C 68.84 46.36 69.35 46.33 69.73 46.27 C 70.49 46.16 71.11 45.53 71.13 44.77 L 71.13 44.75 C 71.13 44.75 70.99 43.90 70.48 43.41 C 70.23 43.17 69.73 43.04 69.41 43.15 C 66.62 44.05 67.05 42.20 68.64 40.92 C 70.34 39.54 71.42 40.79 71.42 40.79 C 73.15 41.11 72.87 43.81 72.87 43.81 Z" fill="#a0533f" fill-rule="nonzero" group-id="3" node-id="412" stroke="none" target-height="7.7941017" target-width="6.5276947" target-x="66.6181" target-y="39.5366"></path></g><g node-id="504"><g node-id="510"><path d="M 85.58 90.37 C 85.81 90.17 86.35 89.53 86.35 89.53 C 87.30 89.52 87.75 86.56 88.87 86.69 C 89.99 86.83 89.43 88.45 89.18 88.77 C 88.93 89.09 88.98 90.01 88.98 90.01 L 88.60 90.01 C 88.60 90.01 88.70 89.20 88.69 88.98 C 88.67 88.75 88.35 88.43 88.14 89.41 C 87.93 90.40 87.91 90.26 86.81 90.70 C 85.99 91.03 85.66 90.72 85.55 90.54 C 85.52 90.48 85.53 90.41 85.58 90.37 Z" fill="#4c4a8b" fill-rule="nonzero" group-id="4,10" node-id="419" stroke="none" target-height="4.472389" target-width="4.4688034" target-x="85.5188" target-y="86.5605"></path><path d="M 88.73 84.77 L 87.01 84.77 C 87.31 86.07 87.37 86.38 87.17 87.18 C 86.92 88.17 86.73 89.08 86.35 89.53 C 86.35 89.53 87.37 90.11 87.91 89.06 C 88.44 88.02 88.22 88.51 88.72 87.94 C 89.22 87.38 88.87 86.69 88.87 86.69 C 88.87 86.69 88.65 85.61 88.73 84.77 Z" fill="#ecb4bf" fill-rule="nonzero" group-id="4,10" node-id="421" stroke="none" target-height="5.3356934" target-width="2.8619003" target-x="86.3543" target-y="84.771"></path></g><g node-id="511"><path d="M 82.39 87.93 C 82.62 87.73 83.17 87.09 83.17 87.09 C 84.11 87.08 84.57 84.12 85.68 84.25 C 86.80 84.39 86.24 86.01 85.99 86.33 C 85.75 86.65 85.80 87.57 85.80 87.57 L 85.42 87.57 C 85.42 87.57 85.51 86.76 85.50 86.54 C 85.49 86.31 85.16 85.99 84.95 86.98 C 84.74 87.96 84.72 87.82 83.62 88.26 C 82.80 88.59 82.48 88.28 82.37 88.10 C 82.33 88.04 82.35 87.98 82.39 87.93 Z" fill="#4c4a8b" fill-rule="nonzero" group-id="4,11" node-id="426" stroke="none" target-height="4.472397" target-width="4.4689026" target-x="82.3318" target-y="84.1222"></path><path d="M 85.54 82.33 L 83.82 82.33 C 84.13 83.63 84.18 83.95 83.98 84.74 C 83.73 85.73 83.54 86.64 83.17 87.09 C 83.17 87.09 84.18 87.67 84.72 86.62 C 85.26 85.58 85.03 86.07 85.53 85.51 C 86.03 84.94 85.68 84.25 85.68 84.25 C 85.68 84.25 85.46 83.17 85.54 82.33 Z" fill="#ecb4bf" fill-rule="nonzero" group-id="4,11" node-id="428" stroke="none" target-height="5.3356934" target-width="2.8619003" target-x="83.1673" target-y="82.3326"></path></g><g node-id="512"><g node-id="540"><g node-id="548"><g node-id="558"><path d="M 77.55 57.81 C 77.38 57.46 76.78 56.21 76.69 56.55 C 76.72 56.82 76.68 57.03 76.52 57.16 C 76.52 57.16 76.05 56.59 75.70 56.28 C 75.36 55.99 75.26 57.05 75.43 57.93 C 75.43 57.93 75.43 58.61 76.27 58.79 C 77.12 58.96 77.54 59.23 77.54 59.23 L 78.14 58.37 C 78.14 58.37 77.77 58.30 77.55 57.81 Z" fill="#ecb4bf" fill-rule="nonzero" group-id="4,12,40,48,58" node-id="439" stroke="none" target-height="3.2321968" target-width="2.8800964" target-x="75.2626" target-y="55.9933"></path><path d="M 83.18 54.27 C 81.62 54.68 81.33 57.61 81.25 58.97 C 81.24 59.28 80.91 59.47 80.63 59.33 C 79.75 58.90 78.17 58.07 77.73 57.57 C 77.73 57.57 77.07 58.49 77.21 59.33 C 77.21 59.33 79.66 61.52 81.44 62.17 C 82.04 62.39 82.69 62.00 82.81 61.38 L 84.09 57.65 C 84.09 57.65 85.70 53.60 83.18 54.27 Z" fill="#6b9ef9" fill-rule="nonzero" group-id="4,12,40,48,58" node-id="441" stroke="none" target-height="8.790104" target-width="8.6269" target-x="77.0711" target-y="53.5989"></path><path d="M 89.38 64.73 C 87.58 62.24 89.28 59.71 89.28 59.71 C 90.68 57.76 89.97 56.65 89.97 56.65 C 89.57 56.36 88.99 56.23 88.67 55.89 C 87.92 55.09 87.86 54.76 87.86 54.76 C 87.86 54.76 85.69 53.92 84.32 54.10 C 83.75 54.17 82.78 54.20 82.53 54.94 C 82.14 56.08 82.74 57.62 82.42 57.99 C 80.91 59.75 82.16 60.50 82.87 61.62 C 83.01 61.85 83.07 62.11 83.06 62.37 L 82.89 66.78 C 82.11 72.01 90.22 69.55 90.22 69.55 C 91.09 68.04 90.90 66.83 89.38 64.73 Z" fill="#a6c2ff" fill-rule="nonzero" group-id="4,12,40,48,58" node-id="443" stroke="none" target-height="18.096504" target-width="10.184601" target-x="80.9057" target-y="53.916496"></path><path d="M 86.71 70.06 C 86.67 70.04 86.64 70.03 86.63 70.01 C 86.62 70.01 86.61 70.01 86.58 70.00 C 86.34 69.89 86.09 69.81 85.84 69.71 C 85.11 69.41 84.15 69.43 83.73 68.75 C 82.68 67.06 82.89 66.78 82.89 66.78 C 81.62 75.86 83.91 83.87 83.91 83.87 C 84.75 84.39 85.78 83.87 85.78 83.87 L 86.20 74.59 C 86.21 73.09 86.46 71.61 86.90 70.18 C 86.84 70.14 86.77 70.10 86.71 70.06 Z" fill="#3a3a77" fill-rule="nonzero" group-id="4,12,40,48,58" node-id="445" stroke="none" target-height="17.608604" target-width="5.283409" target-x="81.6174" target-y="66.781"></path><path d="M 90.73 68.06 C 83.94 70.76 82.89 66.78 82.89 66.78 C 83.06 69.04 83.93 69.85 84.88 70.46 C 85.31 70.73 85.53 71.22 85.47 71.72 C 85.03 75.25 87.05 86.28 87.05 86.28 C 87.89 86.80 88.92 86.28 88.92 86.28 L 89.34 77.00 C 89.35 75.40 89.65 73.82 90.12 72.30 C 90.93 69.70 90.73 68.06 90.73 68.06 Z" fill="#6262aa" fill-rule="nonzero" group-id="4,12,40,48,58" node-id="447" stroke="none" target-height="20.015503" target-width="8.036102" target-x="82.8922" target-y="66.7814"></path></g></g><g node-id="549"><g node-id="559"><path d="M 88.17 55.29 C 87.80 55.61 87.28 55.80 86.69 55.80 C 86.31 55.80 86.03 55.39 85.73 55.25 C 85.13 54.98 84.66 54.81 84.66 54.24 C 84.66 54.18 84.67 54.13 84.68 54.07 C 84.84 54.07 85.11 53.83 85.07 53.68 C 84.80 52.46 87.62 52.68 87.62 52.68 C 87.62 52.68 87.79 54.16 87.86 54.76 C 87.86 54.76 87.89 54.93 88.17 55.29 Z" fill="#edc3d2" fill-rule="nonzero" group-id="4,12,40,49,59" node-id="455" stroke="none" target-height="3.3412971" target-width="3.512001" target-x="84.6604" target-y="52.462"></path></g></g><g node-id="550"><g node-id="560"><path d="M 86.05 56.26 C 86.05 56.26 87.47 55.85 88.18 55.32 C 87.92 54.94 87.83 54.49 87.83 54.49 C 87.83 54.49 86.75 55.28 85.73 55.25 L 86.05 56.26 Z" fill="#6b9ef9" fill-rule="nonzero" group-id="4,12,40,50,60" node-id="463" stroke="none" target-height="1.7715988" target-width="2.455597" target-x="85.7286" target-y="54.4863"></path></g><path d="M 84.94 55.98 C 84.94 55.98 84.53 54.96 84.58 54.07 C 84.78 53.78 85.33 53.68 85.33 53.68 C 85.33 53.68 84.96 54.95 85.73 55.25 L 84.94 55.98 Z" fill="#6b9ef9" fill-rule="nonzero" group-id="4,12,40,50,61" node-id="468" stroke="none" target-height="2.3064003" target-width="1.2005005" target-x="84.5281" target-y="53.6772"></path></g><path d="M 86.36 50.17 C 85.59 50.19 85.07 49.70 84.76 49.92 C 83.91 50.52 84.29 51.91 84.47 52.79 C 84.67 53.74 85.29 54.65 85.69 54.89 C 86.00 55.08 86.38 55.08 86.70 54.89 C 89.15 53.47 89.17 52.19 89.17 52.19 C 89.17 52.19 89.18 50.10 86.36 50.17 Z" fill="#ecb4bf" fill-rule="nonzero" group-id="4,12,40,51" node-id="474" stroke="none" target-height="5.3778" target-width="5.2665024" target-x="83.9106" target-y="49.6995"></path></g><path d="M 88.39 59.23 C 85.42 63.71 84.48 59.47 84.48 59.47 C 84.77 63.25 88.56 61.21 88.56 61.21 L 88.39 59.23 Z" fill="#6b9ef9" fill-rule="nonzero" group-id="4,12" node-id="478" stroke="none" target-height="4.4819946" target-width="4.072304" target-x="84.4843" target-y="59.225704"></path></g><path d="M 90.09 51.41 C 90.01 51.06 89.65 50.82 89.54 50.48 C 89.49 50.32 89.43 50.13 89.35 49.95 C 89.34 49.95 89.34 49.95 89.34 49.95 C 89.34 49.92 89.32 49.89 89.30 49.85 C 89.29 49.80 89.25 49.74 89.23 49.69 C 89.10 49.46 88.94 49.25 88.74 49.10 C 88.74 49.10 88.74 49.10 88.74 49.10 C 87.82 48.21 86.07 47.44 84.55 49.60 C 84.55 49.60 83.51 50.65 84.46 52.76 C 84.40 52.43 83.91 49.35 85.61 50.53 C 87.62 51.92 87.78 52.05 88.03 51.62 C 88.21 51.31 88.71 51.25 88.82 51.76 C 88.73 52.35 88.45 52.34 88.23 52.69 C 88.07 52.93 87.89 53.16 87.75 53.41 C 87.63 53.63 87.54 53.87 87.43 54.09 C 87.16 54.59 86.73 55.01 86.59 55.56 C 86.53 55.81 86.53 56.07 86.43 56.30 C 86.31 56.55 86.09 56.72 85.87 56.88 C 85.65 57.03 85.42 57.20 85.29 57.43 C 85.17 57.68 85.18 58.01 85.39 58.17 C 85.68 58.39 86.10 58.19 86.45 58.28 C 86.71 58.35 86.90 58.58 86.99 58.83 C 87.09 59.09 87.12 59.36 87.17 59.63 C 87.20 59.76 87.24 59.92 87.35 60.00 C 87.47 60.08 87.62 60.08 87.76 60.07 C 87.86 60.06 87.98 60.04 88.04 59.95 C 88.06 59.90 88.06 59.83 88.05 59.77 C 88.03 59.54 88.00 59.31 88.03 59.09 C 88.05 58.86 88.17 58.63 88.37 58.53 C 88.53 58.44 88.77 58.41 88.81 58.22 C 88.82 58.15 88.79 58.07 88.75 58.00 C 88.56 57.46 88.66 56.82 89.03 56.39 C 89.10 56.31 89.17 56.23 89.21 56.14 C 89.44 55.69 88.87 55.11 89.11 54.66 C 89.23 54.44 89.49 54.33 89.61 54.12 C 89.78 53.80 89.55 53.42 89.57 53.06 C 89.58 52.47 90.22 51.99 90.09 51.41 Z" fill="#4c4a8b" fill-rule="nonzero" group-id="4" node-id="481" stroke="none" target-height="12.643402" target-width="6.7078094" target-x="83.5132" target-y="47.4401"></path><g node-id="513"><g node-id="541"><g node-id="552"><path d="M 86.47 59.17 L 86.17 59.38 L 86.67 65.88 L 86.97 65.67 Z" fill="#b6cbea" fill-rule="nonzero" group-id="4,13,41,52" node-id="489" stroke="none" target-height="6.7063026" target-width="0.79680634" target-x="86.17069" target-y="59.173"></path><path d="M 86.17 59.38 L 82.28 57.13 L 82.78 63.63 L 86.67 65.88 Z" fill="#dee7f8" fill-rule="nonzero" group-id="4,13,41,52" node-id="491" stroke="none" target-height="8.746502" target-width="4.384903" target-x="82.2809" target-y="57.1328"></path><path d="M 82.58 56.93 L 82.28 57.13 L 86.17 59.38 L 86.47 59.17 Z" fill="#ffffff" fill-rule="nonzero" group-id="4,13,41,52" node-id="493" stroke="none" target-height="2.4515" target-width="4.191498" target-x="82.2809" target-y="56.9273"></path></g></g><path d="M 83.89 60.97 C 83.85 60.45 82.83 58.67 83.12 60.17 C 83.12 60.17 82.66 59.83 82.45 59.40 C 82.30 59.08 81.93 60.21 81.90 60.74 C 81.90 60.74 81.78 61.42 82.58 61.74 C 83.38 62.06 83.75 62.40 83.75 62.40 L 84.52 61.64 C 84.52 61.64 83.92 61.48 83.89 60.97 Z" fill="#ecb4bf" fill-rule="nonzero" group-id="4,13" node-id="497" stroke="none" target-height="3.725998" target-width="2.7446976" target-x="81.7781" target-y="58.6719"></path><path d="M 89.21 56.54 C 89.21 56.54 86.85 57.08 87.73 62.18 L 87.85 63.20 C 87.85 63.20 85.04 61.96 84.30 61.28 C 84.30 61.28 83.61 61.53 83.43 62.35 C 83.43 62.35 86.25 64.82 88.20 65.37 C 88.85 65.55 89.49 65.04 89.54 64.37 C 89.57 63.96 89.59 63.47 89.58 63.01 C 89.55 61.93 91.47 55.85 89.21 56.54 Z" fill="#6b9ef9" fill-rule="nonzero" group-id="4,13" node-id="499" stroke="none" target-height="9.6982" target-width="8.037605" target-x="83.4344" target-y="55.8522"></path></g></g></svg>