<?xml version="1.0" standalone="no"?><!DOCTYPE svg PUBLIC "-//W3C//DTD SVG 1.1//EN" "http://www.w3.org/Graphics/SVG/1.1/DTD/svg11.dtd"><svg height="600" node-id="1" sillyvg="true" template-height="600" template-width="405" version="1.1" viewBox="0 0 405 600" width="405" xmlns="http://www.w3.org/2000/svg" xmlns:xlink="http://www.w3.org/1999/xlink"><defs node-id="24"><linearGradient gradientUnits="objectBoundingBox" id="SVGID_1_" node-id="12" spreadMethod="pad" x1="25.437" x2="260.4231" y1="-616.9297" y2="-616.9297"><stop offset="0" stop-color="#0c5896"></stop><stop offset="1" stop-color="#5d3192"></stop></linearGradient><linearGradient gradientUnits="objectBoundingBox" id="SVGID_2_" node-id="19" spreadMethod="pad" x1="15.7997" x2="125.4278" y1="-663.4676" y2="-663.4676"><stop offset="0" stop-color="#0c5896"></stop><stop offset="1" stop-color="#5d3192"></stop></linearGradient></defs><path d="M 243.90 513.90 L 242.50 535.20 L 231.20 532.30 L 233.50 510.90 Z" fill="#ffe9f9" fill-rule="nonzero" node-id="41" stroke="none" target-height="24.300049" target-width="12.699982" target-x="231.2" target-y="510.89996"></path><path d="M 347.20 162.20 C 347.20 162.20 361.70 169.90 358.50 164.80 C 355.30 159.70 357.50 161.90 357.50 161.90 C 357.50 161.90 367.80 157.90 374.10 163.10 C 380.30 168.30 370.80 148.80 358.00 152.60 C 345.20 156.30 345.20 156.30 345.20 156.30 L 347.20 162.20 Z" fill="#ffe9f9" fill-rule="nonzero" node-id="43" stroke="none" target-height="21.09999" target-width="35.099976" target-x="345.2" target-y="148.8"></path><path d="M 310.10 220.60 C 310.10 220.60 321.20 216.00 321.10 219.10 C 321.00 222.20 316.80 222.80 316.80 222.80 C 316.80 222.80 327.70 226.70 330.90 223.80 C 334.10 220.90 327.70 231.00 318.30 228.70 C 308.90 226.40 304.30 224.00 304.30 224.00 L 310.10 220.60 Z" fill="#ffe9f9" fill-rule="nonzero" node-id="45" stroke="none" target-height="15" target-width="29.800018" target-x="304.3" target-y="216"></path><path d="M 210.30 212.10 C 210.30 212.10 278.50 202.10 309.80 218.50 L 308.00 230.70 C 308.00 230.70 225.20 239.20 193.10 254.90 C 161.00 270.60 158.60 223.30 210.30 212.10 Z" fill="#fcf2f2" fill-rule="nonzero" node-id="47" stroke="none" target-height="68.5" target-width="151.19998" target-x="158.6" target-y="202.1"></path><path d="M 244.00 124.90 L 252.60 162.60 L 248.80 163.20 C 248.80 163.20 239.30 203.60 220.00 192.40 C 200.60 181.20 193.10 166.70 190.30 153.10 C 187.70 139.50 204.90 94.80 244.00 124.90 Z" fill="#ffe9f9" fill-rule="nonzero" node-id="49" stroke="none" target-height="108.80002" target-width="64.90001" target-x="187.7" target-y="94.8"></path><path d="M 248.70 135.90 C 248.70 135.90 266.70 136.40 260.20 143.60 C 253.70 150.80 247.60 147.80 241.30 144.00 C 235.00 140.20 222.60 139.00 214.10 145.70 C 205.60 152.40 210.10 157.20 193.80 161.90 C 177.50 166.60 157.50 210.90 141.30 197.70 C 125.20 184.50 121.40 191.30 103.80 193.90 C 86.20 196.50 14.60 195.00 39.10 178.50 C 66.70 159.80 40.30 149.40 34.20 126.90 C 28.10 104.40 103.40 81.70 132.40 92.20 C 161.40 102.70 172.20 105.90 188.20 98.90 C 204.20 91.90 247.60 110.30 244.60 121.70 C 244.80 121.70 251.20 127.00 248.70 135.90 Z" fill="#26120f" fill-rule="nonzero" node-id="51" stroke="none" target-height="129.2" target-width="252.1" target-x="14.6" target-y="81.7"></path><path d="M 201.30 172.20 L 193.20 185.10 L 201.90 191.60 L 210.70 178.60 Z" fill="#fff7f0" fill-rule="nonzero" node-id="53" stroke="none" target-height="19.40001" target-width="17.499985" target-x="193.20001" target-y="172.2"></path><path d="M 187.30 185.20 C 187.30 185.20 124.10 179.90 111.20 307.20 L 186.90 329.90 C 186.90 329.90 203.80 285.30 217.60 262.20 C 231.40 239.10 207.90 190.40 207.90 190.40 L 187.30 185.20 Z" fill="#fffaf5" fill-rule="nonzero" node-id="55" stroke="none" target-height="150.00002" target-width="120.2" target-x="111.2" target-y="179.89998"></path><path d="M 346.80 150.80 L 348.60 168.90 C 348.60 168.90 243.00 200.90 206.10 226.50 C 169.20 252.10 140.40 210.50 156.00 187.20 C 171.60 163.90 313.50 145.60 346.80 150.80 Z" fill="#fffaf5" fill-rule="nonzero" node-id="57" stroke="none" target-height="106.500015" target-width="208.20001" target-x="140.4" target-y="145.6"></path><path d="M 249.50 521.30 L 225.60 518.40 C 225.60 518.40 229.70 491.20 201.50 440.40 C 173.30 389.60 100.70 406.70 102.60 352.40 C 104.50 298.10 118.00 303.40 118.00 303.40 C 118.00 303.40 228.40 387.40 242.40 436.20 C 257.10 487.20 249.50 521.30 249.50 521.30 Z" fill="url(#SVGID_1_)" fill-rule="nonzero" node-id="59" stroke="none" target-height="223.19998" target-width="156.40001" target-x="100.7" target-y="298.1"></path><path d="M 314.10 364.40 L 325.40 373.70 L 319.00 379.20 L 308.40 368.90 Z" fill="#ffe9f9" fill-rule="nonzero" node-id="61" stroke="none" target-height="14.800018" target-width="17" target-x="308.4" target-y="364.4"></path><path d="M 344.60 369.00 L 326.40 371.30 L 315.30 375.60 L 321.10 387.20 Z" fill="#404249" fill-rule="nonzero" node-id="63" stroke="none" target-height="18.200012" target-width="29.300018" target-x="315.3" target-y="369"></path><path d="M 231.70 526.20 C 232.20 527.20 237.80 528.20 242.60 532.80 C 249.60 539.50 256.50 550.40 256.50 550.40 L 230.70 535.00 L 231.70 526.20 Z" fill="#404249" fill-rule="nonzero" node-id="65" stroke="none" target-height="24.200012" target-width="25.800003" target-x="230.7" target-y="526.2"></path><path d="M 319.50 364.50 L 312.10 375.70 C 312.10 375.70 265.80 344.00 236.60 341.90 C 207.40 339.80 172.60 386.10 132.40 371.00 C 92.20 355.90 112.50 294.40 112.50 294.40 C 112.50 294.40 223.80 273.30 268.00 309.80 C 312.20 346.30 319.50 364.50 319.50 364.50 Z" fill="url(#SVGID_2_)" fill-rule="nonzero" node-id="67" stroke="none" target-height="112.80002" target-width="227.3" target-x="92.2" target-y="273.3"></path></svg>