<?xml version="1.0" standalone="no"?><!DOCTYPE svg PUBLIC "-//W3C//DTD SVG 1.1//EN" "http://www.w3.org/Graphics/SVG/1.1/DTD/svg11.dtd"><svg height="400" node-id="1" sillyvg="true" template-height="400" template-width="600" version="1.1" viewBox="0 0 600 400" width="600" xmlns="http://www.w3.org/2000/svg" xmlns:xlink="http://www.w3.org/1999/xlink"><defs node-id="106"></defs><path d="M 0.00 0.00 L 600.00 0.00 L 600.00 400.00 L 0.00 400.00 Z" fill="#ffffff" fill-rule="evenodd" node-id="109" stroke="none" target-height="400" target-width="600" target-x="0" target-y="0"></path><path d="M 464.41 24.62 C 476.97 24.62 487.34 33.87 489.15 45.94 C 491.77 43.21 495.45 41.50 499.54 41.50 C 506.52 41.50 512.34 46.47 513.67 53.06 C 516.77 48.66 521.87 45.78 527.65 45.78 C 537.11 45.78 544.77 53.45 544.77 62.91 C 544.77 64.65 544.51 66.33 544.03 67.91 C 545.69 66.67 547.74 65.93 549.97 65.93 C 555.46 65.93 559.92 70.39 559.92 75.89 C 559.92 81.40 555.46 85.86 549.97 85.86 L 437.99 85.86 C 430.67 85.86 424.74 79.92 424.74 72.59 C 424.74 65.27 430.67 59.33 437.99 59.33 C 439.21 59.33 440.39 59.51 441.51 59.82 C 440.14 56.72 439.37 53.30 439.37 49.69 C 439.37 35.84 450.58 24.62 464.41 24.62 Z" fill="#e7f4fe" fill-rule="nonzero" id="cloud_2_" node-id="6" stroke="none" target-height="61.2437" target-width="135.18289" target-x="424.74063" target-y="24.61685"></path><g node-id="111"><path d="M 481.95 144.74 C 475.69 155.60 443.53 189.46 438.58 182.39 C 436.13 178.91 447.91 165.75 459.58 120.44 C 463.68 104.54 474.51 93.39 484.47 102.07 C 493.97 110.36 488.20 133.89 481.95 144.74 Z" fill="#1b90fb" fill-rule="nonzero" group-id="1" id="Path" node-id="8" stroke="none" target-height="96.06732" target-width="57.840546" target-x="436.13022" target-y="93.38791"></path><path d="M 437.67 183.65 C 437.62 183.64 437.57 183.61 437.54 183.55 C 437.47 183.45 437.51 183.31 437.61 183.24 C 437.84 183.10 460.63 168.59 476.88 116.63 C 476.91 116.51 477.03 116.45 477.16 116.48 C 477.28 116.52 477.34 116.65 477.30 116.77 C 468.79 144.00 458.53 160.72 451.41 169.95 C 443.70 179.97 437.91 183.59 437.85 183.63 C 437.79 183.66 437.73 183.67 437.67 183.65 Z" fill="#f3f9ff" fill-rule="nonzero" group-id="1" id="Path" node-id="9" stroke="none" target-height="67.21949" target-width="39.86905" target-x="437.4725" target-y="116.449974"></path><path d="M 484.69 127.69 C 472.16 137.81 434.03 184.56 440.40 194.59 C 446.78 204.62 508.11 163.59 520.64 153.47 C 533.18 143.35 536.38 127.21 527.57 120.40 C 513.69 109.65 497.23 117.57 484.69 127.69 Z" fill="#9e95e3" fill-rule="nonzero" group-id="1" id="Path" node-id="10" stroke="none" target-height="94.9642" target-width="102.35007" target-x="434.0259" target-y="109.65112"></path><path d="M 439.14 196.18 C 439.11 196.17 439.08 196.16 439.06 196.14 C 438.96 196.06 438.94 195.92 439.02 195.82 C 439.11 195.71 448.32 184.15 462.08 170.44 C 474.77 157.78 494.04 140.63 513.74 130.85 C 513.85 130.80 513.99 130.84 514.04 130.95 C 514.10 131.06 514.05 131.20 513.94 131.26 C 494.29 141.01 475.07 158.12 462.40 170.76 C 448.67 184.45 439.46 195.99 439.37 196.10 C 439.31 196.17 439.22 196.20 439.14 196.18 Z" fill="#f3f9ff" fill-rule="nonzero" group-id="1" id="Path" node-id="11" stroke="none" target-height="65.40495" target-width="75.15439" target-x="438.94254" target-y="130.7969"></path><path d="M 487.54 165.95 C 476.12 168.15 439.30 185.82 441.57 194.25 C 443.83 202.68 497.19 203.14 508.62 200.95 C 520.05 198.75 528.80 192.73 524.06 178.58 C 519.66 165.49 498.97 163.75 487.54 165.95 Z" fill="#1b90fb" fill-rule="nonzero" group-id="1" id="Path" node-id="12" stroke="none" target-height="39.38922" target-width="89.50745" target-x="439.297" target-y="163.75467"></path><path d="M 410.81 209.25 C 410.79 209.23 410.77 209.21 410.76 209.18 C 410.70 209.06 410.75 208.93 410.86 208.88 C 410.99 208.81 424.32 202.43 442.66 196.09 C 459.60 190.23 484.41 183.21 506.40 183.00 C 506.53 183.00 506.63 183.10 506.63 183.22 C 506.63 183.35 506.53 183.45 506.41 183.45 C 484.47 183.66 459.72 190.67 442.82 196.51 C 424.49 202.85 411.19 209.22 411.06 209.28 C 410.97 209.32 410.88 209.31 410.81 209.25 Z" fill="#f3f9ff" fill-rule="nonzero" group-id="1" id="Path" node-id="13" stroke="none" target-height="26.3219" target-width="95.9292" target-x="410.7015" target-y="182.99948"></path></g><g node-id="112"><path d="M 151.64 247.11 C 150.73 244.91 148.39 243.65 146.05 244.12 L 138.67 245.58 C 136.93 245.92 135.13 245.31 133.95 243.99 C 132.71 242.58 131.39 241.25 130.00 240.01 C 128.68 238.84 128.08 237.04 128.42 235.30 L 129.88 227.93 C 130.34 225.59 129.09 223.25 126.89 222.33 L 115.99 217.81 C 113.79 216.90 111.25 217.67 109.92 219.65 L 105.74 225.90 C 104.76 227.37 103.06 228.22 101.30 228.11 C 99.44 228.01 97.57 228.01 95.70 228.12 C 93.92 228.23 92.23 227.39 91.24 225.91 L 87.05 219.65 C 85.72 217.67 83.19 216.90 80.99 217.81 L 70.09 222.33 C 67.88 223.24 66.63 225.59 67.10 227.93 L 68.56 235.31 C 68.90 237.06 68.30 238.86 66.97 240.04 C 65.56 241.28 64.24 242.60 63.00 243.99 C 61.82 245.32 60.03 245.92 58.29 245.57 L 50.92 244.11 C 48.58 243.65 46.25 244.90 45.33 247.11 L 40.82 258.02 C 39.91 260.22 40.68 262.76 42.66 264.09 L 48.90 268.27 C 50.37 269.26 51.21 270.96 51.11 272.72 C 51.00 274.58 51.01 276.45 51.12 278.33 C 51.23 280.10 50.38 281.80 48.91 282.79 L 42.66 286.98 C 40.68 288.31 39.91 290.85 40.82 293.05 L 45.33 303.96 C 46.25 306.17 48.58 307.42 50.92 306.96 L 58.30 305.50 C 60.04 305.15 61.84 305.76 63.02 307.09 C 64.27 308.49 65.59 309.82 66.97 311.06 C 68.30 312.24 68.90 314.03 68.55 315.77 L 67.10 323.15 C 66.63 325.49 67.88 327.83 70.09 328.74 L 80.99 333.26 C 83.19 334.17 85.73 333.40 87.05 331.42 L 91.23 325.17 C 92.22 323.70 93.91 322.86 95.68 322.96 C 97.53 323.07 99.40 323.06 101.28 322.95 C 103.05 322.84 104.75 323.68 105.74 325.16 L 109.92 331.42 C 111.25 333.40 113.79 334.17 115.99 333.26 L 126.89 328.74 C 129.09 327.83 130.34 325.49 129.88 323.15 L 128.42 315.76 C 128.07 314.01 128.68 312.21 130.01 311.03 C 131.41 309.79 132.74 308.47 133.98 307.08 C 135.15 305.75 136.94 305.15 138.68 305.50 L 146.05 306.96 C 148.39 307.42 150.73 306.17 151.64 303.96 L 156.16 293.05 C 157.07 290.85 156.30 288.31 154.32 286.98 L 148.08 282.80 C 146.61 281.81 145.76 280.12 145.86 278.35 C 145.97 276.49 145.97 274.62 145.86 272.74 C 145.75 270.97 146.59 269.27 148.07 268.28 L 154.32 264.09 C 156.30 262.76 157.07 260.22 156.16 258.02 L 151.64 247.11 Z M 108.05 298.65 C 95.30 303.94 80.68 297.87 75.40 285.11 C 70.12 272.35 76.17 257.71 88.92 252.43 C 101.67 247.14 116.29 253.20 121.58 265.97 C 126.86 278.73 120.80 293.36 108.05 298.65 Z" fill="#e7f4fe" fill-rule="nonzero" group-id="2" id="Shape" node-id="15" stroke="none" target-height="117.27075" target-width="117.16014" target-x="39.907337" target-y="216.90009"></path></g><g node-id="113"><path d="M 119.31 139.94 C 132.05 138.85 184.14 151.13 184.65 163.00 C 184.90 168.87 165.36 164.99 126.23 187.40 C 112.51 195.27 95.12 190.93 90.72 171.53 C 86.53 153.02 106.56 141.02 119.31 139.94 Z" fill="#44d690" fill-rule="nonzero" group-id="3" id="Path" node-id="17" stroke="none" target-height="56.410645" target-width="98.36548" target-x="86.531006" target-y="138.85468"></path><path d="M 186.22 163.39 C 186.16 163.43 186.08 163.43 186.01 163.40 C 185.93 163.35 178.13 159.17 164.55 157.78 C 152.02 156.49 131.85 157.39 106.96 168.97 C 106.85 169.02 106.72 168.97 106.67 168.86 C 106.62 168.75 106.66 168.61 106.78 168.57 C 131.77 156.95 152.03 156.05 164.62 157.35 C 178.28 158.75 186.14 162.97 186.22 163.01 C 186.32 163.07 186.36 163.20 186.30 163.31 C 186.28 163.35 186.25 163.38 186.22 163.39 Z" fill="#f3f9ff" fill-rule="nonzero" group-id="3" id="Path" node-id="18" stroke="none" target-height="12.964661" target-width="79.73544" target-x="106.62387" target-y="156.05261"></path><path d="M 106.19 150.41 C 124.61 157.70 190.41 166.88 190.33 150.82 C 190.26 134.77 105.33 92.21 86.91 84.92 C 68.49 77.63 55.50 86.80 59.91 103.25 C 66.87 129.18 87.77 143.12 106.19 150.41 Z" fill="#8ae6b9" fill-rule="nonzero" group-id="3" id="Path" node-id="19" stroke="none" target-height="89.24417" target-width="134.91211" target-x="55.49834" target-y="77.634384"></path><path d="M 192.46 151.39 C 192.42 151.41 192.37 151.42 192.32 151.41 C 191.69 151.33 127.91 143.21 79.71 111.77 C 79.61 111.70 79.58 111.57 79.64 111.46 C 79.71 111.36 79.84 111.34 79.94 111.40 C 128.06 142.79 191.74 150.90 192.38 150.98 C 192.50 151.00 192.58 151.11 192.57 151.22 C 192.56 151.30 192.51 151.35 192.46 151.39 Z" fill="#f3f9ff" fill-rule="nonzero" group-id="3" id="Path" node-id="20" stroke="none" target-height="40.08351" target-width="113.00194" target-x="79.578476" target-y="111.33598"></path><path d="M 126.83 115.75 C 139.32 128.11 186.04 159.33 188.99 149.66 C 191.94 139.99 140.20 73.54 127.71 61.18 C 115.22 48.82 102.99 42.87 98.96 60.26 C 95.23 76.35 114.34 103.39 126.83 115.75 Z" fill="#ffcb01" fill-rule="nonzero" group-id="3" id="Path" node-id="21" stroke="none" target-height="116.45668" target-width="96.70831" target-x="95.23245" target-y="42.87019"></path><path d="M 190.54 150.95 C 190.47 150.99 190.38 150.99 190.31 150.93 C 189.86 150.58 145.47 115.80 115.11 76.03 C 115.03 75.93 115.05 75.80 115.15 75.73 C 115.24 75.65 115.38 75.67 115.45 75.77 C 145.78 115.49 190.13 150.24 190.57 150.59 C 190.67 150.66 190.68 150.80 190.61 150.89 C 190.59 150.92 190.57 150.94 190.54 150.95 Z" fill="#f3f9ff" fill-rule="nonzero" group-id="3" id="Path" node-id="22" stroke="none" target-height="75.34029" target-width="75.6501" target-x="115.033844" target-y="75.64966"></path></g><g node-id="114"><path d="M 299.10 374.48 C 296.62 374.48 294.60 372.46 294.60 369.97 L 294.60 28.50 C 294.60 26.02 296.62 24.00 299.10 24.00 C 301.58 24.00 303.60 26.02 303.60 28.50 L 303.60 369.97 C 303.60 372.46 301.58 374.48 299.10 374.48 Z" fill="#7491c5" fill-rule="nonzero" group-id="4" id="Path" node-id="24" stroke="none" target-height="350.47678" target-width="8.9965515" target-x="294.60208" target-y="24"></path><path d="M 388.16 374.48 C 387.39 374.48 386.61 374.28 385.90 373.86 L 296.83 321.75 C 294.69 320.50 293.96 317.74 295.22 315.59 C 296.47 313.45 299.23 312.72 301.37 313.98 L 390.44 366.09 C 392.58 367.34 393.30 370.10 392.05 372.25 C 391.21 373.68 389.71 374.48 388.16 374.48 Z" fill="#7491c5" fill-rule="nonzero" group-id="4" id="Path" node-id="25" stroke="none" target-height="61.75522" target-width="99.33978" target-x="293.96332" target-y="312.72247"></path><path d="M 209.59 374.48 C 208.04 374.48 206.54 373.68 205.70 372.25 C 204.45 370.10 205.17 367.34 207.31 366.09 L 296.38 313.98 C 298.52 312.72 301.28 313.45 302.53 315.59 C 303.79 317.74 303.07 320.50 300.92 321.75 L 211.85 373.86 C 211.14 374.28 210.36 374.48 209.59 374.48 Z" fill="#7491c5" fill-rule="nonzero" group-id="4" id="Path" node-id="26" stroke="none" target-height="61.754303" target-width="99.33978" target-x="204.44775" target-y="312.7234"></path><path d="M 461.19 67.27 L 137.02 67.27 C 128.88 67.27 122.28 60.67 122.28 52.52 L 122.28 52.52 C 122.28 44.37 128.88 37.77 137.02 37.77 L 461.19 37.77 C 469.32 37.77 475.92 44.37 475.92 52.52 L 475.92 52.52 C 475.92 60.67 469.32 67.27 461.19 67.27 Z" fill="#224380" fill-rule="nonzero" group-id="4" id="Path" node-id="27" stroke="none" target-height="29.498913" target-width="353.64227" target-x="122.279655" target-y="37.770603"></path><path d="M 448.42 273.76 L 149.78 273.76 C 142.73 273.76 137.02 268.04 137.02 260.98 L 137.02 67.27 L 461.19 67.27 L 461.19 260.98 C 461.19 268.04 455.47 273.76 448.42 273.76 Z" fill="#f3f9ff" fill-rule="nonzero" group-id="4" id="Path" node-id="28" stroke="none" target-height="206.48701" target-width="324.17145" target-x="137.01509" target-y="67.269516"></path><path d="M 137.02 67.27 L 461.19 67.27 L 461.19 74.64 L 137.02 74.64 Z" fill="#aec1e8" fill-rule="nonzero" group-id="4" id="Rectangle" node-id="29" stroke="none" target-height="7.374283" target-width="324.17145" target-x="137.01509" target-y="67.269516"></path></g><g node-id="115"><path d="M 111.23 174.55 L 156.12 174.55 L 156.12 178.15 L 111.23 178.15 Z" fill="#183168" fill-rule="nonzero" group-id="5" id="Rectangle" node-id="31" stroke="none" target-height="3.6020355" target-width="44.887344" target-x="111.2328" target-y="174.55"></path><path d="M 112.30 203.50 L 156.42 203.50 L 156.42 207.10 L 112.30 207.10 Z" fill="#183168" fill-rule="nonzero" group-id="5" id="Rectangle" node-id="32" stroke="none" target-height="3.6020508" target-width="44.123528" target-x="112.298" target-y="203.496"></path><path d="M 110.85 240.86 L 156.12 240.86 L 156.12 244.46 L 110.85 244.46 Z" fill="#183168" fill-rule="nonzero" group-id="5" id="Rectangle" node-id="33" stroke="none" target-height="3.6020508" target-width="45.268784" target-x="110.85135" target-y="240.86267"></path><path d="M 111.50 274.87 L 149.89 274.87 L 149.89 278.47 L 111.50 278.47 Z" fill="#183168" fill-rule="nonzero" group-id="5" id="Rectangle" node-id="34" stroke="none" target-height="3.6020508" target-width="38.397224" target-x="111.49551" target-y="274.86954"></path><path d="M 111.47 346.70 L 155.97 346.70 L 155.97 350.30 L 111.47 350.30 Z" fill="#183168" fill-rule="nonzero" group-id="5" id="Rectangle" node-id="35" stroke="none" target-height="3.6020508" target-width="44.504982" target-x="111.46671" target-y="346.69513"></path><path d="M 111.23 308.36 L 155.74 308.36 L 155.74 311.96 L 111.23 311.96 Z" fill="#183168" fill-rule="nonzero" group-id="5" id="Rectangle" node-id="36" stroke="none" target-height="3.6020203" target-width="44.50499" target-x="111.2328" target-y="308.36133"></path><path d="M 109.34 159.62 L 112.93 159.62 L 112.93 376.08 L 109.34 376.08 Z" fill="#183168" fill-rule="nonzero" group-id="5" id="Rectangle" node-id="37" stroke="none" target-height="216.46284" target-width="3.5986176" target-x="109.335434" target-y="159.61504"></path><path d="M 153.18 159.62 L 156.77 159.62 L 156.77 376.08 L 153.18 376.08 Z" fill="#183168" fill-rule="nonzero" group-id="5" id="Rectangle" node-id="38" stroke="none" target-height="216.46284" target-width="3.5986328" target-x="153.17557" target-y="159.61504"></path><path d="M 125.07 337.29 L 123.28 342.49 C 123.28 342.49 119.66 345.78 117.77 341.09 C 117.77 341.09 118.36 337.93 118.57 336.78 C 118.79 335.62 125.07 337.29 125.07 337.29 Z" fill="#f1b282" fill-rule="nonzero" group-id="5" id="Path" node-id="39" stroke="none" target-height="10.154144" target-width="7.296196" target-x="117.774185" target-y="335.62335"></path><path d="M 117.21 337.62 L 126.31 337.62 C 126.31 337.62 134.84 304.11 137.21 295.24 C 139.08 288.25 141.25 265.14 140.39 254.38 C 139.56 244.12 122.13 249.68 121.22 256.89 C 118.55 278.01 123.51 293.67 123.26 297.37 C 118.93 308.32 117.21 337.62 117.21 337.62 Z" fill="#102b5e" fill-rule="nonzero" group-id="5" id="Path" node-id="40" stroke="none" target-height="93.49368" target-width="24.04235" target-x="117.206505" target-y="244.12341"></path><path d="M 142.19 188.43 C 143.29 190.80 142.75 192.09 143.02 193.09 C 143.29 194.08 144.33 196.10 144.37 197.05 C 144.41 198.01 143.40 198.14 143.18 199.39 C 142.96 200.64 143.53 202.27 142.77 203.57 C 142.01 204.88 139.06 204.58 139.24 205.84 C 139.41 207.11 141.27 211.80 141.27 211.80 L 129.13 211.99 C 129.13 211.99 129.61 205.17 129.00 202.35 C 128.38 199.52 127.01 189.16 129.53 187.91 C 132.05 186.65 141.02 185.92 142.19 188.43 Z" fill="#f1b282" fill-rule="nonzero" group-id="5" id="Path" node-id="41" stroke="none" target-height="26.074265" target-width="17.403809" target-x="127.00914" target-y="185.91624"></path><path d="M 135.52 183.06 C 125.42 183.37 121.88 185.92 121.99 193.82 C 122.06 198.53 124.66 205.05 128.07 205.03 C 130.52 205.01 135.37 204.74 136.22 203.39 C 138.23 200.20 136.51 195.80 137.86 194.28 C 139.78 192.12 144.14 193.23 143.54 185.79 C 142.94 178.34 138.89 182.95 135.52 183.06 Z" fill="#0b224e" fill-rule="nonzero" group-id="5" id="Path" node-id="42" stroke="none" target-height="26.70552" target-width="22.26104" target-x="121.87841" target-y="178.34206"></path><path d="M 112.59 180.81 C 112.59 180.81 110.86 176.01 111.17 173.44 C 111.67 169.30 121.50 169.28 121.92 172.87 C 122.37 176.67 120.60 177.66 119.44 178.66 C 118.29 179.65 116.97 181.38 116.63 182.05 C 116.30 182.71 113.08 182.71 112.59 180.81 Z" fill="#f1b282" fill-rule="nonzero" group-id="5" id="Path" node-id="43" stroke="none" target-height="13.423904" target-width="11.507477" target-x="110.863945" target-y="169.28473"></path><path d="M 183.32 207.78 C 183.32 207.78 186.93 204.18 187.75 201.73 C 189.07 197.78 180.20 193.55 178.28 196.60 C 176.25 199.85 177.42 201.50 178.04 202.90 C 178.66 204.29 179.11 206.43 179.13 207.17 C 179.14 207.91 182.05 209.29 183.32 207.78 Z" fill="#f1b282" fill-rule="nonzero" group-id="5" id="Path" node-id="44" stroke="none" target-height="15.7391205" target-width="12.824585" target-x="176.2472" target-y="193.54987"></path><path d="M 149.07 329.36 L 146.45 334.20 C 146.45 334.20 142.33 336.84 141.25 331.91 C 141.25 331.91 142.34 328.89 142.74 327.79 C 143.14 326.68 149.07 329.36 149.07 329.36 Z" fill="#f1b282" fill-rule="nonzero" group-id="5" id="Path" node-id="45" stroke="none" target-height="10.157745" target-width="7.820694" target-x="141.24886" target-y="326.6849"></path><path d="M 148.81 254.83 C 148.81 254.83 166.34 279.68 166.77 284.67 C 167.54 293.67 150.38 329.43 150.38 329.43 L 141.50 327.52 C 141.50 327.52 147.45 300.57 152.15 291.38 C 143.11 279.15 128.80 272.33 128.80 256.36 C 128.80 252.03 148.81 254.83 148.81 254.83 Z" fill="#0b224e" fill-rule="nonzero" group-id="5" id="Path" node-id="46" stroke="none" target-height="77.402466" target-width="38.74449" target-x="128.79765" target-y="252.02539"></path><path d="M 130.32 209.96 C 132.92 209.79 137.76 210.05 140.58 210.00 C 147.80 209.87 157.55 216.29 165.36 218.58 C 170.47 213.05 177.96 204.27 177.96 204.27 L 184.25 208.16 C 184.25 208.16 173.01 227.57 166.10 228.68 C 161.92 229.36 155.20 229.10 149.98 226.93 C 149.98 233.43 158.30 258.90 152.19 260.20 C 146.08 261.50 136.45 259.27 130.52 260.20 C 124.59 261.13 118.11 265.57 119.59 254.45 C 121.07 243.33 127.56 244.52 113.67 223.30 C 110.03 217.74 105.79 209.65 106.43 202.86 C 107.69 189.59 110.91 179.62 110.91 179.62 L 117.80 180.73 C 117.80 180.73 117.21 194.70 115.73 202.86 C 117.21 206.78 119.44 209.48 122.00 212.28 C 123.39 213.81 126.25 209.82 130.32 209.96 Z" fill="#1b90fb" fill-rule="nonzero" group-id="5" id="Path" node-id="47" stroke="none" target-height="85.95909" target-width="78.46242" target-x="105.7917" target-y="179.61537"></path><path d="M 117.62 339.85 C 116.90 339.76 116.14 340.53 116.17 343.40 C 116.20 346.27 116.07 347.78 118.29 348.09 C 119.69 348.28 124.95 346.89 130.07 346.98 C 131.92 347.02 135.33 346.15 136.52 344.55 C 136.77 344.23 136.82 343.76 136.66 343.36 C 136.50 342.97 136.16 342.71 135.79 342.73 C 131.66 342.84 131.58 343.24 128.24 340.87 C 127.03 340.01 126.02 339.20 125.38 339.16 C 124.13 339.07 123.56 340.73 121.53 340.51 C 119.50 340.30 118.86 340.02 117.62 339.85 Z" fill="#0b224e" fill-rule="nonzero" group-id="5" id="Path" node-id="48" stroke="none" target-height="9.21402" target-width="20.749626" target-x="116.070244" target-y="339.0696"></path><path d="M 141.18 330.52 C 140.43 330.37 139.45 331.37 139.08 334.02 C 138.70 336.67 137.94 338.79 140.26 339.26 C 141.72 339.56 149.31 338.79 154.76 339.31 C 156.73 339.49 159.03 338.54 160.53 337.17 C 160.83 336.89 160.96 336.47 160.84 336.08 C 160.73 335.70 160.40 335.44 160.00 335.42 C 155.59 335.18 155.46 335.54 152.23 333.06 C 151.06 332.16 150.10 331.33 149.43 331.24 C 148.11 331.06 147.32 332.19 145.19 331.81 C 143.06 331.44 142.48 330.78 141.18 330.52 Z" fill="#0b224e" fill-rule="nonzero" group-id="5" id="Path" node-id="49" stroke="none" target-height="9.187012" target-width="23.02034" target-x="137.93814" target-y="330.37158"></path></g><g node-id="116"><path d="M 419.94 101.74 L 317.13 101.74 C 315.31 101.74 313.83 100.27 313.83 98.44 L 313.83 98.44 C 313.83 96.62 315.31 95.14 317.13 95.14 L 419.94 95.14 C 421.76 95.14 423.24 96.62 423.24 98.44 L 423.24 98.44 C 423.24 100.27 421.76 101.74 419.94 101.74 Z" fill="#c3d3f3" fill-rule="nonzero" group-id="6" id="Path" node-id="51" stroke="none" target-height="6.6043396" target-width="109.40152" target-x="313.83487" target-y="95.139404"></path><path d="M 419.94 121.55 L 317.13 121.55 C 315.31 121.55 313.83 120.08 313.83 118.25 L 313.83 118.25 C 313.83 116.43 315.31 114.95 317.13 114.95 L 419.94 114.95 C 421.76 114.95 423.24 116.43 423.24 118.25 L 423.24 118.25 C 423.24 120.08 421.76 121.55 419.94 121.55 Z" fill="#c3d3f3" fill-rule="nonzero" group-id="6" id="Path" node-id="52" stroke="none" target-height="6.604347" target-width="109.40152" target-x="313.83487" target-y="114.95062"></path><path d="M 419.94 141.37 L 317.13 141.37 C 315.31 141.37 313.83 139.89 313.83 138.06 L 313.83 138.06 C 313.83 136.24 315.31 134.76 317.13 134.76 L 419.94 134.76 C 421.76 134.76 423.24 136.24 423.24 138.06 L 423.24 138.06 C 423.24 139.89 421.76 141.37 419.94 141.37 Z" fill="#c3d3f3" fill-rule="nonzero" group-id="6" id="Path" node-id="53" stroke="none" target-height="6.6043396" target-width="109.40152" target-x="313.83487" target-y="134.76186"></path><path d="M 419.94 161.18 L 317.13 161.18 C 315.31 161.18 313.83 159.70 313.83 157.88 L 313.83 157.88 C 313.83 156.05 315.31 154.57 317.13 154.57 L 419.94 154.57 C 421.76 154.57 423.24 156.05 423.24 157.88 L 423.24 157.88 C 423.24 159.70 421.76 161.18 419.94 161.18 Z" fill="#c3d3f3" fill-rule="nonzero" group-id="6" id="Path" node-id="54" stroke="none" target-height="6.6043396" target-width="109.40152" target-x="313.83487" target-y="154.57307"></path><path d="M 419.94 180.99 L 317.13 180.99 C 315.31 180.99 313.83 179.51 313.83 177.69 L 313.83 177.69 C 313.83 175.86 315.31 174.38 317.13 174.38 L 419.94 174.38 C 421.76 174.38 423.24 175.86 423.24 177.69 L 423.24 177.69 C 423.24 179.51 421.76 180.99 419.94 180.99 Z" fill="#c3d3f3" fill-rule="nonzero" group-id="6" id="Path" node-id="55" stroke="none" target-height="6.6043396" target-width="109.40152" target-x="313.83487" target-y="174.38431"></path><path d="M 419.94 200.80 L 317.13 200.80 C 315.31 200.80 313.83 199.32 313.83 197.50 L 313.83 197.50 C 313.83 195.67 315.31 194.20 317.13 194.20 L 419.94 194.20 C 421.76 194.20 423.24 195.67 423.24 197.50 L 423.24 197.50 C 423.24 199.32 421.76 200.80 419.94 200.80 Z" fill="#c3d3f3" fill-rule="nonzero" group-id="6" id="Path" node-id="56" stroke="none" target-height="6.6043396" target-width="109.40152" target-x="313.83487" target-y="194.19553"></path><path d="M 419.94 220.61 L 317.13 220.61 C 315.31 220.61 313.83 219.13 313.83 217.31 L 313.83 217.31 C 313.83 215.49 315.31 214.01 317.13 214.01 L 419.94 214.01 C 421.76 214.01 423.24 215.49 423.24 217.31 L 423.24 217.31 C 423.24 219.13 421.76 220.61 419.94 220.61 Z" fill="#c3d3f3" fill-rule="nonzero" group-id="6" id="Path" node-id="57" stroke="none" target-height="6.6043396" target-width="109.40152" target-x="313.83487" target-y="214.00674"></path><path d="M 419.94 240.42 L 317.13 240.42 C 315.31 240.42 313.83 238.94 313.83 237.12 L 313.83 237.12 C 313.83 235.30 315.31 233.82 317.13 233.82 L 419.94 233.82 C 421.76 233.82 423.24 235.30 423.24 237.12 L 423.24 237.12 C 423.24 238.94 421.76 240.42 419.94 240.42 Z" fill="#c3d3f3" fill-rule="nonzero" group-id="6" id="Path" node-id="58" stroke="none" target-height="6.6043396" target-width="109.40152" target-x="313.83487" target-y="233.81798"></path></g><g node-id="117"><path d="M 443.29 242.74 C 452.48 247.18 458.22 253.37 458.22 260.25 C 458.22 267.10 452.48 273.31 443.29 277.73 L 408.28 260.25 L 443.29 242.74 Z" fill="#7266d5" fill-rule="nonzero" group-id="7" id="Path" node-id="60" stroke="none" target-height="34.985718" target-width="49.93979" target-x="408.28052" target-y="242.73932"></path><path d="M 443.29 277.73 L 443.29 277.73 L 443.29 289.88 C 450.50 286.42 458.22 280.44 458.22 272.40 L 458.22 260.25 C 458.22 268.30 450.52 274.26 443.29 277.73 Z" fill="#877cd8" fill-rule="nonzero" group-id="7" id="Path" node-id="61" stroke="none" target-height="29.633087" target-width="14.927063" target-x="443.29324" target-y="260.24704"></path><path d="M 443.29 277.73 L 443.29 289.88 L 408.28 272.40 L 408.28 260.25 Z" fill="#5f50d0" fill-rule="nonzero" group-id="7" id="Path" node-id="62" stroke="none" target-height="29.633087" target-width="35.012726" target-x="408.28052" target-y="260.24615"></path></g><g node-id="118"><path d="M 451.18 288.67 C 451.18 288.67 441.57 309.49 439.65 323.54 C 438.29 333.57 438.14 367.40 435.35 369.45 C 431.94 371.95 427.84 374.66 427.84 374.66 L 429.69 375.96 C 429.69 375.96 440.65 374.70 441.13 373.60 C 441.61 372.50 442.36 368.18 442.91 365.54 C 445.48 353.06 449.62 345.14 449.25 330.45 C 451.99 325.44 455.65 319.45 455.65 319.45 C 455.65 319.45 456.54 288.29 451.18 288.67 Z" fill="#f1b282" fill-rule="nonzero" group-id="8" id="Path" node-id="64" stroke="none" target-height="87.66916" target-width="28.70346" target-x="427.83997" target-y="288.28983"></path><path d="M 441.35 371.93 C 442.43 372.06 441.53 375.82 440.24 376.95 C 440.28 376.95 435.48 376.90 435.48 376.90 L 435.56 375.66 C 435.56 375.66 431.23 377.14 428.93 376.99 C 426.57 376.83 424.64 376.55 424.67 376.16 C 424.71 375.62 427.89 373.97 428.57 374.02 C 429.51 374.08 430.39 375.29 431.20 375.31 C 432.00 375.32 440.47 371.83 441.35 371.93 Z" fill="#0b224e" fill-rule="nonzero" group-id="8" id="Path" node-id="65" stroke="none" target-height="5.3129883" target-width="17.787048" target-x="424.6435" target-y="371.83197"></path><path d="M 479.49 356.95 C 475.04 347.58 473.04 333.90 465.41 324.77 C 466.72 315.20 472.72 309.88 472.72 298.78 C 472.72 293.20 470.45 289.31 470.45 289.31 L 451.19 288.67 C 451.19 288.67 449.16 309.34 454.47 327.90 C 456.54 335.14 476.87 358.38 475.59 364.25 C 474.69 368.38 472.38 372.44 472.38 372.44 L 474.81 372.54 C 474.81 372.54 483.30 365.36 483.11 364.17 C 482.92 362.99 480.64 359.38 479.49 356.95 Z" fill="#f1b282" fill-rule="nonzero" group-id="8" id="Path" node-id="66" stroke="none" target-height="83.86182" target-width="34.14096" target-x="449.15817" target-y="288.67343"></path><path d="M 465.29 231.09 C 463.54 231.68 463.67 234.69 463.12 235.56 C 462.58 236.43 461.68 237.64 461.74 238.33 C 461.79 239.01 463.54 238.98 463.41 240.66 C 463.27 242.33 463.25 244.41 465.81 244.93 C 468.36 245.46 467.96 247.74 468.05 249.91 C 468.15 252.07 468.47 252.69 469.35 252.65 C 469.84 252.63 472.34 252.15 475.01 250.17 C 477.11 248.61 479.57 244.06 479.13 241.46 C 478.28 236.44 476.41 232.37 472.33 231.23 C 468.25 230.09 466.77 230.60 465.29 231.09 Z" fill="#f1b282" fill-rule="nonzero" group-id="8" id="Path" node-id="67" stroke="none" target-height="22.601913" target-width="17.884216" target-x="461.68494" target-y="230.09074"></path><path d="M 482.45 362.84 C 483.42 362.36 484.70 366.02 484.22 367.66 C 484.26 367.64 480.19 370.19 480.19 370.19 L 479.59 369.11 C 479.59 369.11 476.75 372.70 474.73 373.81 C 472.65 374.95 470.88 375.75 470.69 375.42 C 470.43 374.94 472.22 371.84 472.82 371.51 C 473.65 371.05 475.04 371.59 475.73 371.17 C 476.41 370.75 481.65 363.23 482.45 362.84 Z" fill="#0b224e" fill-rule="nonzero" group-id="8" id="Path" node-id="68" stroke="none" target-height="13.394196" target-width="14.267609" target-x="470.43228" target-y="362.36038"></path><path d="M 471.36 287.18 C 471.36 291.15 474.30 292.87 473.80 300.88 C 473.30 308.90 468.69 320.61 466.79 321.86 C 464.90 323.12 440.56 322.70 439.71 321.06 C 437.43 316.68 449.66 289.00 452.02 287.19 C 454.39 285.37 471.36 287.18 471.36 287.18 Z" fill="#0b224e" fill-rule="nonzero" group-id="8" id="Path" node-id="69" stroke="none" target-height="37.742188" target-width="36.866913" target-x="437.43478" target-y="285.37396"></path><path d="M 471.36 287.18 C 471.36 278.58 479.76 273.70 479.84 258.54 C 479.84 251.45 475.52 248.94 468.84 248.94 C 464.38 248.93 455.02 258.48 455.01 261.49 C 455.00 264.51 456.76 268.43 456.76 271.54 C 456.76 277.17 451.85 282.91 451.85 287.18 L 471.36 287.18 L 471.36 287.18 Z" fill="#2ccd7f" fill-rule="nonzero" group-id="8" id="Path" node-id="70" stroke="none" target-height="38.250977" target-width="27.989136" target-x="451.84903" target-y="248.93393"></path><path d="M 473.45 260.73 C 473.45 260.73 472.35 277.73 455.18 284.58 C 453.62 285.20 453.11 285.74 451.93 286.20 C 452.28 283.85 453.79 281.14 455.02 278.28 L 468.84 269.31 C 468.84 269.31 471.92 264.11 473.45 260.73 Z" fill="#1eaf69" fill-rule="nonzero" group-id="8" id="Path" node-id="71" stroke="none" target-height="25.461914" target-width="21.516998" target-x="451.9327" target-y="260.73422"></path><path d="M 468.84 269.31 C 468.84 269.31 462.74 277.29 457.37 280.24 C 446.51 286.21 437.55 287.46 437.55 287.46 C 437.55 287.46 427.61 289.65 426.10 285.32 C 425.56 283.77 427.90 285.80 432.81 284.97 C 434.40 284.65 432.62 283.44 432.04 282.48 C 431.47 281.52 433.00 281.14 435.23 282.73 C 437.47 284.33 445.51 280.75 453.17 274.56 C 460.68 268.48 462.37 263.06 462.37 263.06 C 462.37 263.06 466.41 267.59 468.84 269.31 Z" fill="#f1b282" fill-rule="nonzero" group-id="8" id="Path" node-id="72" stroke="none" target-height="26.593872" target-width="43.278748" target-x="425.55844" target-y="263.05933"></path><path d="M 464.85 231.95 C 464.85 231.95 461.80 231.74 461.80 228.71 C 461.80 223.26 474.19 219.34 479.13 225.95 C 484.07 232.57 483.95 241.38 489.98 245.94 C 496.00 250.50 489.31 262.04 482.95 262.21 C 476.59 262.37 470.07 256.04 472.08 250.51 C 474.09 244.99 476.32 237.56 472.69 238.90 C 469.06 240.24 470.57 231.69 464.85 231.95 Z" fill="#0b224e" fill-rule="nonzero" group-id="8" id="Path" node-id="73" stroke="none" target-height="43.036285" target-width="34.203033" target-x="461.7983" target-y="219.33865"></path><path d="M 469.86 244.47 C 469.86 244.47 469.26 245.78 467.86 246.86 C 467.68 246.08 467.28 245.45 466.40 245.11 C 467.04 245.22 468.22 245.23 469.86 244.47 Z" fill="#cd916a" fill-rule="nonzero" group-id="8" id="Path" node-id="74" stroke="none" target-height="2.394455" target-width="3.4627686" target-x="466.39734" target-y="244.46739"></path></g><g node-id="119"><g node-id="121"><path d="M 220.46 110.92 C 233.50 110.92 245.30 113.51 253.98 117.63 L 218.93 135.11 L 218.93 110.95 C 219.48 110.92 219.95 110.92 220.46 110.92 Z" fill="#1b90fb" fill-rule="nonzero" group-id="9,11" id="Path" node-id="77" stroke="none" target-height="24.185005" target-width="35.04872" target-x="218.93217" target-y="110.922646"></path><path d="M 253.98 117.63 L 253.98 129.78 L 218.93 147.26 L 218.93 135.11 Z" fill="#1277d7" fill-rule="nonzero" group-id="9,11" id="Path" node-id="78" stroke="none" target-height="29.63398" target-width="35.04872" target-x="218.93307" target-y="117.628746"></path></g><g node-id="122"><path d="M 218.93 123.04 L 218.93 147.23 L 185.45 163.95 C 177.16 159.63 172.04 153.73 172.04 147.23 C 172.04 140.70 177.16 134.83 185.48 130.48 C 193.95 126.06 205.78 123.25 218.93 123.04 Z" fill="#ffd255" fill-rule="nonzero" group-id="9,12" id="Path" node-id="80" stroke="none" target-height="40.90838" target-width="46.88907" target-x="172.04402" target-y="123.04351"></path><path d="M 218.93 147.23 L 218.93 159.38 L 185.45 176.11 L 185.45 163.95 Z" fill="#ffbc00" fill-rule="nonzero" group-id="9,12" id="Path" node-id="81" stroke="none" target-height="28.878464" target-width="33.486923" target-x="185.44617" target-y="147.22852"></path><path d="M 172.97 151.98 C 172.36 150.44 172.04 148.85 172.04 147.23 L 172.04 147.23 L 172.04 159.38 C 172.04 165.89 177.16 171.78 185.45 176.11 L 185.45 163.95 C 179.23 160.71 174.80 156.58 172.97 151.98 Z" fill="#ffc31b" fill-rule="nonzero" group-id="9,12" id="Path" node-id="82" stroke="none" target-height="28.878464" target-width="13.402145" target-x="172.04402" target-y="147.22852"></path></g><g node-id="123"><path d="M 257.01 131.67 C 266.20 136.11 271.94 142.29 271.94 149.18 C 271.94 156.03 266.20 162.24 257.01 166.65 L 222.00 149.18 L 257.01 131.67 Z" fill="#dae7ff" fill-rule="nonzero" group-id="9,13" id="Path" node-id="84" stroke="none" target-height="34.985718" target-width="49.939804" target-x="221.9955" target-y="131.6677"></path><path d="M 257.01 166.65 L 257.01 166.65 L 257.01 178.81 C 264.24 175.33 271.94 169.36 271.94 161.33 L 271.94 149.18 C 271.94 157.23 264.23 163.18 257.01 166.65 Z" fill="#aec1e8" fill-rule="nonzero" group-id="9,13" id="Path" node-id="85" stroke="none" target-height="29.633087" target-width="14.927063" target-x="257.00824" target-y="149.17542"></path><path d="M 257.01 166.65 L 257.01 178.81 L 222.00 161.33 L 222.00 149.18 Z" fill="#c3d3f3" fill-rule="nonzero" group-id="9,13" id="Path" node-id="86" stroke="none" target-height="29.633087" target-width="35.01274" target-x="221.9955" target-y="149.17542"></path><path d="M 252.86 151.85 C 252.88 150.89 252.99 150.13 253.19 149.57 C 253.40 149.01 253.81 148.39 254.43 147.71 L 256.02 146.07 C 256.70 145.30 257.04 144.48 257.04 143.60 C 257.04 142.75 256.82 142.08 256.37 141.60 C 255.93 141.12 255.28 140.88 254.43 140.88 C 253.61 140.88 252.94 141.10 252.44 141.54 C 251.94 141.98 251.69 142.56 251.69 143.30 L 249.44 143.30 C 249.46 141.99 249.92 140.93 250.84 140.12 C 251.76 139.32 252.96 138.91 254.43 138.91 C 255.96 138.91 257.15 139.32 258.01 140.15 C 258.86 140.97 259.29 142.09 259.29 143.52 C 259.29 144.94 258.63 146.34 257.32 147.71 L 256.00 149.02 C 255.41 149.68 255.11 150.62 255.11 151.85 L 252.86 151.85 L 252.86 151.85 Z M 252.77 155.71 C 252.77 155.34 252.88 155.04 253.10 154.79 C 253.32 154.54 253.65 154.41 254.09 154.41 C 254.53 154.41 254.86 154.54 255.09 154.79 C 255.31 155.04 255.43 155.34 255.43 155.71 C 255.43 156.08 255.31 156.39 255.09 156.63 C 254.86 156.87 254.53 156.99 254.09 156.99 C 253.65 156.99 253.32 156.87 253.10 156.63 C 252.88 156.39 252.77 156.08 252.77 155.71 Z" fill="#7266d5" fill-rule="nonzero" group-id="9,13" id="Shape" node-id="87" stroke="none" target-height="18.076843" target-width="9.849396" target-x="249.43945" target-y="138.9132"></path></g><g node-id="124"><path d="M 219.94 156.73 L 254.99 174.21 C 246.31 178.36 234.51 180.92 221.47 180.92 C 221.00 180.92 220.49 180.92 219.98 180.89 C 206.83 180.71 195.03 177.90 186.46 173.45 L 219.94 156.73 Z" fill="#7ce3b0" fill-rule="nonzero" group-id="9,14" id="Path" node-id="89" stroke="none" target-height="24.185013" target-width="68.534744" target-x="186.45558" target-y="156.7307"></path><path d="M 221.47 180.92 C 221.00 180.92 220.49 180.92 219.98 180.89 C 206.83 180.71 195.03 177.90 186.46 173.45 L 186.46 185.61 C 195.03 190.05 206.83 192.87 219.98 193.04 C 220.49 193.07 221.00 193.07 221.47 193.07 C 231.25 193.07 240.33 191.63 247.92 189.16 C 250.46 188.34 252.82 187.40 254.99 186.36 L 254.99 174.21 C 246.31 178.36 234.51 180.92 221.47 180.92 Z" fill="#2ccd7f" fill-rule="nonzero" group-id="9,14" id="Path" node-id="90" stroke="none" target-height="19.616714" target-width="68.535645" target-x="186.45558" target-y="173.45407"></path></g></g><g node-id="120"><path d="M 260.68 219.40 C 259.65 221.63 260.16 222.84 259.90 223.78 C 259.65 224.71 258.68 226.61 258.64 227.50 C 258.60 228.40 259.55 228.52 259.75 229.70 C 259.96 230.87 259.42 232.40 260.13 233.63 C 260.85 234.86 263.62 234.58 263.46 235.76 C 263.30 236.95 261.55 241.35 261.55 241.35 L 272.95 241.54 C 272.95 241.54 272.50 235.13 273.08 232.48 C 273.66 229.83 274.95 220.09 272.58 218.91 C 270.21 217.73 261.78 217.04 260.68 219.40 Z" fill="#f1b282" fill-rule="nonzero" group-id="10" id="Path" node-id="92" stroke="none" target-height="24.495682" target-width="16.350311" target-x="258.5952" target-y="217.04057"></path><path d="M 266.95 214.36 C 276.44 214.65 279.77 217.05 279.66 224.47 C 279.59 228.89 277.15 235.01 273.95 234.99 C 271.64 234.98 267.09 234.72 266.29 233.46 C 264.40 230.46 266.02 226.32 264.75 224.90 C 262.95 222.87 258.85 223.91 259.41 216.92 C 259.98 209.92 263.79 214.26 266.95 214.36 Z" fill="#0b224e" fill-rule="nonzero" group-id="10" id="Path" node-id="93" stroke="none" target-height="25.089111" target-width="20.915161" target-x="258.8507" target-y="209.92474"></path><path d="M 256.64 367.17 L 256.64 371.39 L 250.27 371.39 L 250.27 365.37 Z" fill="#f1b282" fill-rule="nonzero" group-id="10" id="Path" node-id="94" stroke="none" target-height="6.0126953" target-width="6.3659363" target-x="250.27252" target-y="365.37262"></path><path d="M 278.58 367.34 L 278.58 372.33 L 285.05 372.33 L 285.05 366.21 Z" fill="#f1b282" fill-rule="nonzero" group-id="10" id="Path" node-id="95" stroke="none" target-height="6.118988" target-width="6.472107" target-x="278.58194" target-y="366.21008"></path><path d="M 282.36 290.50 C 282.36 290.50 284.32 317.03 284.68 324.68 C 285.03 332.34 285.05 366.21 285.05 366.21 L 278.30 366.27 C 278.30 366.27 273.48 344.43 273.74 331.90 C 272.19 326.87 263.98 297.56 263.86 291.57 C 263.75 285.59 279.38 287.51 282.36 290.50 Z" fill="#0b224e" fill-rule="nonzero" group-id="10" id="Path" node-id="96" stroke="none" target-height="80.67853" target-width="21.30832" target-x="263.74573" target-y="285.591"></path><path d="M 252.25 290.50 C 252.25 290.50 249.45 317.39 249.10 325.04 C 248.74 332.70 250.10 366.21 250.10 366.21 L 257.09 366.69 C 257.09 366.69 260.60 348.50 260.90 331.72 C 262.46 326.70 272.05 297.16 272.17 291.18 C 272.29 285.20 255.24 287.51 252.25 290.50 Z" fill="#102b5e" fill-rule="nonzero" group-id="10" id="Path" node-id="97" stroke="none" target-height="81.48807" target-width="23.550247" target-x="248.73772" target-y="285.19748"></path><path d="M 284.12 258.31 C 284.12 258.31 289.43 264.90 288.35 270.11 C 287.28 275.31 280.63 285.86 279.01 288.19 C 277.40 290.53 281.67 293.04 281.67 293.04 C 281.67 293.04 295.29 275.33 297.45 269.95 C 299.60 264.56 289.95 250.50 289.95 250.50 L 284.12 258.31 Z" fill="#f1b282" fill-rule="nonzero" group-id="10" id="Path" node-id="98" stroke="none" target-height="42.5383" target-width="22.200775" target-x="277.39798" target-y="250.50262"></path><path d="M 249.85 236.08 C 249.85 236.08 243.88 235.34 240.61 225.18 C 237.35 215.02 236.40 201.38 237.59 198.37 C 239.47 193.60 237.45 188.91 236.92 186.96 C 236.52 185.47 235.32 183.43 234.99 185.03 C 234.79 185.99 234.94 188.48 235.32 190.32 C 235.65 191.95 230.54 192.11 231.25 194.62 C 231.97 197.14 232.69 196.97 232.81 198.76 C 232.93 200.54 231.97 220.89 233.29 225.67 C 234.60 230.46 239.62 242.90 243.33 245.18 C 247.03 247.45 249.85 236.08 249.85 236.08 Z" fill="#f1b282" fill-rule="nonzero" group-id="10" id="Path" node-id="99" stroke="none" target-height="64.01817" target-width="19.315567" target-x="230.53592" target-y="183.43173"></path><path d="M 265.20 239.91 C 267.98 239.88 279.73 239.01 285.56 244.40 C 291.38 249.78 293.45 253.91 293.81 254.99 C 294.16 256.07 286.63 261.90 285.11 260.73 C 283.58 259.57 282.51 257.41 280.72 257.41 C 278.92 257.41 279.82 267.19 280.54 272.22 C 281.25 277.25 285.56 291.43 282.51 292.77 C 279.46 294.12 271.57 292.32 267.00 293.49 C 262.42 294.66 254.80 295.55 252.29 292.68 C 249.78 289.81 254.09 278.95 254.18 271.95 C 254.27 264.95 254.00 254.00 249.78 251.22 C 245.57 248.44 240.46 247.54 240.28 244.94 C 240.10 242.34 247.63 234.08 249.42 234.98 C 251.22 235.87 254.47 239.64 257.85 239.73 C 261.23 239.82 263.23 239.93 265.20 239.91 Z" fill="#ffcb01" fill-rule="nonzero" group-id="10" id="Path" node-id="100" stroke="none" target-height="61.474213" target-width="54.063812" target-x="240.10013" target-y="234.07913"></path><path d="M 248.54 366.52 C 249.08 368.21 251.14 367.94 252.45 368.22 C 253.76 368.49 258.32 369.13 258.48 367.88 C 258.65 366.64 258.01 365.72 258.09 364.77 C 258.18 363.82 259.22 362.60 258.17 361.89 C 257.11 361.17 255.35 361.84 254.07 361.88 C 253.13 361.90 249.68 360.43 249.26 361.02 C 248.84 361.61 249.42 362.75 249.27 363.48 C 249.06 364.57 248.12 365.22 248.54 366.52 Z" fill="#355aa2" fill-rule="nonzero" group-id="10" id="Path" node-id="101" stroke="none" target-height="8.694397" target-width="11.107117" target-x="248.11606" target-y="360.43243"></path><path d="M 286.26 367.42 C 285.63 369.07 283.58 368.70 282.26 368.91 C 280.94 369.11 276.35 369.51 276.25 368.25 C 276.15 367.00 276.84 366.13 276.80 365.17 C 276.77 364.21 275.79 362.95 276.88 362.29 C 277.98 361.63 279.70 362.39 280.98 362.49 C 281.91 362.56 285.43 361.28 285.82 361.89 C 286.21 362.50 285.57 363.60 285.68 364.34 C 285.84 365.44 286.74 366.14 286.26 367.42 Z" fill="#355aa2" fill-rule="nonzero" group-id="10" id="Path" node-id="102" stroke="none" target-height="8.229767" target-width="10.955994" target-x="275.7876" target-y="361.27618"></path><path d="M 257.52 370.57 C 256.64 369.68 255.10 371.11 253.53 371.11 C 251.97 371.11 251.09 370.04 250.27 369.98 C 249.46 369.92 249.04 371.83 247.30 372.71 C 246.27 373.23 243.84 373.49 243.84 376.48 C 243.84 377.21 257.09 377.03 257.53 376.79 C 258.35 376.32 258.41 371.47 257.52 370.57 Z" fill="#102b5e" fill-rule="nonzero" group-id="10" id="Path" node-id="103" stroke="none" target-height="7.5381775" target-width="14.572586" target-x="243.8373" target-y="369.67615"></path><path d="M 285.86 370.57 C 284.97 369.68 283.43 371.11 281.86 371.11 C 280.30 371.11 279.43 370.04 278.61 369.98 C 277.79 369.92 277.37 371.83 275.64 372.71 C 274.61 373.23 272.17 373.49 272.17 376.48 C 272.17 377.21 285.42 377.03 285.86 376.79 C 286.68 376.32 286.74 371.47 285.86 370.57 Z" fill="#102b5e" fill-rule="nonzero" group-id="10" id="Path" node-id="104" stroke="none" target-height="7.5381775" target-width="14.573517" target-x="272.1692" target-y="369.67615"></path></g></svg>