<?xml version="1.0" standalone="no"?><!DOCTYPE svg PUBLIC "-//W3C//DTD SVG 1.1//EN" "http://www.w3.org/Graphics/SVG/1.1/DTD/svg11.dtd"><svg height="400" node-id="1" sillyvg="true" template-height="400" template-width="600" version="1.1" viewBox="0 0 600 400" width="600" xmlns="http://www.w3.org/2000/svg" xmlns:xlink="http://www.w3.org/1999/xlink"><defs node-id="265"></defs><path d="M 0.00 0.00 L 600.00 0.00 L 600.00 400.00 L 0.00 400.00 Z" fill="#ffffff" fill-rule="evenodd" node-id="268" stroke="none" target-height="400" target-width="600" target-x="0" target-y="0"></path><g node-id="270"><path d="M 156.46 371.90 C 156.20 372.86 151.04 368.32 144.83 372.12 C 138.62 375.91 130.38 377.58 127.06 376.62 C 123.75 375.65 117.68 380.08 109.29 377.98 C 100.89 375.88 100.68 371.97 97.02 370.30 C 94.55 369.18 90.03 369.84 81.06 364.59 C 66.56 356.11 62.92 344.59 57.84 343.04 C 51.55 341.11 46.96 344.80 46.96 344.80 C 46.96 344.80 44.25 343.01 55.53 338.26 C 66.80 333.50 66.12 330.00 69.49 328.67 C 72.87 327.33 74.83 332.12 83.68 326.83 C 92.53 321.54 89.92 329.31 102.48 324.78 C 115.04 320.26 132.45 334.87 137.08 340.53 C 147.14 352.80 144.11 357.78 151.58 366.31 C 155.33 370.60 157.13 369.47 156.46 371.90 Z" fill="#f3f9ff" fill-rule="nonzero" group-id="1" id="Path" node-id="7" stroke="none" target-height="59.815033" target-width="112.87818" target-x="44.25138" target-y="320.26315"></path><path d="M 164.77 364.52 C 156.48 359.70 148.52 355.64 140.96 352.24 C 136.99 346.01 130.78 335.41 122.20 330.24 C 128.25 334.81 133.29 343.11 136.89 350.45 C 130.02 347.51 123.50 345.10 117.39 343.15 C 113.86 336.91 107.26 328.73 100.74 325.58 C 105.88 328.91 110.76 335.99 113.66 341.99 C 81.83 332.46 61.99 335.13 61.99 335.13 C 76.30 335.40 91.40 338.59 105.47 342.87 C 100.47 345.65 94.40 348.66 89.05 350.71 C 95.71 349.21 103.88 346.42 109.50 344.13 C 115.98 346.23 122.20 348.52 127.96 350.83 C 125.67 353.03 122.15 355.88 118.71 357.98 C 118.90 357.87 117.72 358.71 113.08 360.79 C 113.34 360.69 123.44 357.98 130.99 352.06 C 150.13 359.98 163.51 367.68 163.51 367.68 L 164.77 364.52 Z" fill="#c4e2fe" fill-rule="nonzero" group-id="1" id="Path" node-id="8" stroke="none" target-height="42.098145" target-width="102.78287" target-x="61.989807" target-y="325.58038"></path><path d="M 126.30 340.76 C 125.93 341.43 122.78 337.02 117.35 338.73 C 111.93 340.44 105.32 340.15 102.96 338.79 C 100.59 337.44 95.16 339.65 89.10 336.48 C 83.05 333.30 83.58 330.30 81.07 328.34 C 79.39 327.03 75.80 326.68 69.87 321.01 C 60.27 311.85 59.52 302.43 55.91 300.30 C 51.43 297.66 47.27 299.59 47.27 299.59 C 47.27 299.59 45.51 297.72 54.98 296.24 C 64.46 294.76 64.55 291.98 67.37 291.60 C 70.19 291.22 70.85 295.22 78.56 292.88 C 86.27 290.54 82.89 295.93 93.31 294.87 C 103.73 293.81 114.47 308.16 117.02 313.32 C 122.54 324.52 119.34 327.73 123.55 335.60 C 125.66 339.56 127.24 339.04 126.30 340.76 Z" fill="#dceefd" fill-rule="nonzero" group-id="1" id="Path" node-id="9" stroke="none" target-height="50.895416" target-width="81.72739" target-x="45.50992" target-y="290.53683"></path><path d="M 102.35 306.68 C 106.18 311.29 108.56 318.53 110.02 324.77 C 105.28 321.25 100.72 318.20 96.38 315.56 C 94.79 310.17 91.18 302.72 86.75 299.10 C 90.09 302.60 92.57 308.88 93.73 313.98 C 71.06 300.76 55.39 299.04 55.39 299.04 C 66.30 301.95 77.30 307.21 87.30 313.10 C 82.99 314.27 77.81 315.40 73.35 315.95 C 78.72 316.07 85.46 315.49 90.17 314.82 C 94.76 317.62 99.11 320.53 103.11 323.37 C 100.96 324.61 97.78 326.10 94.76 327.05 C 94.93 327.00 93.88 327.41 89.96 328.12 C 90.18 328.09 98.38 327.93 105.21 324.87 C 118.46 334.48 127.34 342.84 127.34 342.84 L 128.87 340.69 C 123.37 335.46 118.01 330.91 112.83 326.91 C 110.89 321.44 108.01 312.22 102.35 306.68 Z" fill="#b8ddfe" fill-rule="nonzero" group-id="1" id="Path" node-id="10" stroke="none" target-height="43.7959" target-width="73.47978" target-x="55.390823" target-y="299.0437"></path></g><path d="M 407.32 22.03 L 301.27 69.08 L 334.41 93.14 C 293.95 137.36 255.78 163.98 208.04 185.95 C 175.88 200.14 138.61 211.09 103.66 214.03 C 169.76 224.12 263.01 192.59 315.48 152.14 C 341.82 132.50 345.83 127.34 361.30 112.66 L 395.13 137.23 L 407.32 22.03 Z" fill="#224380" fill-rule="nonzero" id="arrow_up" node-id="11" stroke="none" target-height="202.08897" target-width="303.66217" target-x="103.65843" target-y="22.026075"></path><g node-id="271"><path d="M 157.12 208.77 C 157.12 208.77 159.02 214.15 161.17 218.25 C 163.32 222.35 173.19 228.00 176.79 229.22 C 179.62 230.17 182.92 228.55 186.85 228.70 C 188.13 228.75 188.41 230.04 186.92 230.82 C 185.82 231.39 183.94 232.13 184.33 232.88 C 184.71 233.63 184.87 233.90 188.16 236.29 C 191.46 238.69 187.12 242.18 184.61 242.29 C 182.21 242.39 179.28 238.48 177.15 236.45 C 174.38 233.80 163.18 232.11 156.19 225.79 C 149.38 219.63 146.40 212.52 146.40 212.52 C 146.40 212.52 151.00 208.16 157.12 208.77 Z" fill="#f1b282" fill-rule="nonzero" group-id="2" id="Path" node-id="13" stroke="none" target-height="34.229736" target-width="45.06407" target-x="146.39732" target-y="208.15886"></path><path d="M 152.66 198.44 C 152.66 198.44 157.09 209.35 159.52 212.34 C 161.02 214.19 153.46 223.49 152.45 223.40 C 151.45 223.32 147.63 213.46 147.63 213.46 C 147.63 213.46 149.22 200.86 152.66 198.44 Z" fill="#1eaf69" fill-rule="nonzero" group-id="2" id="Path" node-id="14" stroke="none" target-height="25.049347" target-width="13.389847" target-x="147.63063" target-y="198.43713"></path><g node-id="282"><path d="M 229.87 231.25 C 229.87 240.14 227.05 248.38 222.24 255.11 C 219.59 258.88 216.29 262.18 212.51 264.82 C 205.77 269.62 197.52 272.44 188.61 272.44 C 165.81 272.44 147.35 254.01 147.35 231.25 C 147.35 222.37 150.17 214.13 154.98 207.40 C 157.63 203.63 160.93 200.33 164.71 197.69 C 171.45 192.88 179.70 190.07 188.61 190.07 C 211.41 190.07 229.87 208.50 229.87 231.25 Z" fill="#ffe18d" fill-rule="nonzero" group-id="2,13" id="Path" node-id="16" stroke="none" target-height="82.37077" target-width="82.52107" target-x="147.34865" target-y="190.06877"></path><path d="M 222.24 255.11 C 219.59 258.88 216.29 262.18 212.51 264.82 L 154.98 207.40 C 157.63 203.63 160.93 200.33 164.71 197.69 L 222.24 255.11 Z" fill="#ffd972" fill-rule="nonzero" group-id="2,13" id="Path" node-id="17" stroke="none" target-height="67.13129" target-width="67.25375" target-x="154.98276" target-y="197.68896"></path><path d="M 154.98 255.11 C 157.63 258.88 160.93 262.18 164.71 264.82 L 222.24 207.40 C 219.59 203.63 216.29 200.33 212.51 197.69 L 154.98 255.11 Z" fill="#ffd972" fill-rule="nonzero" group-id="2,13" id="Path" node-id="18" stroke="none" target-height="67.13129" target-width="67.25375" target-x="154.98276" target-y="197.68896"></path><path d="M 222.99 231.25 C 222.99 238.66 220.64 245.53 216.63 251.13 C 214.43 254.28 211.68 257.02 208.52 259.23 C 202.91 263.23 196.03 265.58 188.61 265.58 C 169.61 265.58 154.23 250.22 154.23 231.26 C 154.23 223.85 156.58 216.98 160.59 211.38 C 162.79 208.23 165.54 205.49 168.70 203.28 C 174.31 199.28 181.19 196.93 188.61 196.93 C 207.61 196.93 222.99 212.29 222.99 231.25 Z" fill="#ffd255" fill-rule="nonzero" group-id="2,13" id="Path" node-id="19" stroke="none" target-height="68.64203" target-width="68.76724" target-x="154.22601" target-y="196.9336"></path><path d="M 214.57 208.77 C 208.55 203.52 200.68 200.37 192.05 200.37 C 173.07 200.37 157.66 215.74 157.66 234.69 C 157.66 243.30 160.83 251.16 166.09 257.17 C 158.83 250.89 154.23 241.58 154.23 231.25 C 154.23 212.31 169.63 196.93 188.61 196.93 C 198.96 196.93 208.28 201.53 214.57 208.77 Z" fill="#ffc31b" fill-rule="nonzero" group-id="2,13" id="Path" node-id="20" stroke="none" target-height="60.2332" target-width="60.34218" target-x="154.22691" target-y="196.9327"></path><path d="M 162.65 253.73 C 168.67 258.99 176.54 262.14 185.17 262.14 C 204.15 262.14 219.55 246.77 219.55 227.82 C 219.55 219.21 216.39 211.35 211.13 205.34 C 218.39 211.62 222.99 220.92 222.99 231.26 C 222.99 250.20 207.59 265.58 188.61 265.58 C 178.26 265.58 168.94 260.98 162.65 253.73 Z" fill="#ffc31b" fill-rule="nonzero" group-id="2,13" id="Path" node-id="21" stroke="none" target-height="60.233185" target-width="60.34218" target-x="162.65018" target-y="205.34244"></path><path d="M 193.44 237.28 C 193.44 236.18 193.13 235.31 192.52 234.66 C 191.91 234.01 190.87 233.41 189.41 232.86 C 187.94 232.31 186.68 231.76 185.62 231.22 C 184.56 230.68 183.65 230.05 182.89 229.35 C 182.13 228.64 181.54 227.82 181.12 226.86 C 180.69 225.91 180.48 224.78 180.48 223.47 C 180.48 221.20 181.21 219.34 182.66 217.89 C 184.11 216.45 186.04 215.60 188.44 215.36 L 188.44 211.06 L 191.66 211.06 L 191.66 215.42 C 194.04 215.76 195.90 216.74 197.24 218.39 C 198.59 220.03 199.26 222.16 199.26 224.77 L 193.44 224.77 C 193.44 223.16 193.10 221.96 192.44 221.16 C 191.77 220.37 190.88 219.97 189.77 219.97 C 188.67 219.97 187.82 220.28 187.21 220.90 C 186.61 221.52 186.30 222.39 186.30 223.49 C 186.30 224.50 186.60 225.32 187.19 225.94 C 187.78 226.56 188.88 227.19 190.48 227.83 C 192.09 228.47 193.41 229.08 194.44 229.65 C 195.48 230.22 196.35 230.86 197.06 231.58 C 197.77 232.30 198.32 233.11 198.69 234.03 C 199.07 234.95 199.26 236.02 199.26 237.24 C 199.26 239.52 198.55 241.37 197.12 242.79 C 195.70 244.21 193.74 245.05 191.24 245.30 L 191.24 249.31 L 188.04 249.31 L 188.04 245.32 C 185.28 245.03 183.15 244.05 181.64 242.40 C 180.13 240.74 179.37 238.54 179.37 235.79 L 185.20 235.79 C 185.20 237.39 185.57 238.61 186.33 239.46 C 187.09 240.31 188.18 240.74 189.61 240.74 C 190.79 240.74 191.72 240.43 192.41 239.80 C 193.09 239.18 193.44 238.34 193.44 237.28 Z" fill="#fff0c6" fill-rule="nonzero" group-id="2,13" id="Path" node-id="22" stroke="none" target-height="38.24846" target-width="19.885239" target-x="179.3733" target-y="211.05713"></path></g><g node-id="283"><path d="M 165.91 177.67 C 165.96 180.28 164.65 180.93 164.45 181.90 C 164.24 182.87 164.40 185.15 163.95 185.93 C 163.51 186.72 162.25 186.14 161.34 186.98 C 160.42 187.82 160.25 189.49 158.67 190.02 C 157.09 190.54 153.78 188.34 153.33 189.45 C 152.87 190.56 152.60 195.51 152.60 195.51 L 142.73 190.11 C 142.73 190.11 146.87 185.04 147.62 182.41 C 148.37 179.77 152.19 170.67 155.80 171.36 C 159.42 172.05 165.85 174.91 165.91 177.67 Z" fill="#f1b282" fill-rule="nonzero" group-id="2,14" id="Path" node-id="24" stroke="none" target-height="24.832626" target-width="23.236526" target-x="142.72621" target-y="170.67296"></path><path d="M 153.32 189.45 C 153.23 189.67 153.15 190.04 153.08 190.48 C 152.23 188.81 153.18 186.95 153.18 186.95 C 154.94 189.50 157.84 190.09 157.84 190.09 C 157.84 190.09 157.84 190.09 157.83 190.09 C 156.13 189.94 153.72 188.51 153.32 189.45 Z" fill="#cd916a" fill-rule="nonzero" group-id="2,14" id="Path" node-id="25" stroke="none" target-height="3.5385284" target-width="5.6026" target-x="152.23325" target-y="186.94568"></path></g><path d="M 167.09 166.16 C 167.09 166.16 171.39 171.83 169.81 175.09 C 168.53 177.71 166.58 179.65 161.14 177.01 C 158.53 175.73 156.89 182.68 156.23 182.36 C 155.07 181.79 155.33 177.77 153.99 177.12 C 152.07 176.19 148.38 187.51 146.40 186.55 C 143.72 185.25 140.63 179.23 144.11 172.08 C 148.80 162.47 157.72 165.00 160.56 166.19 C 163.40 167.39 167.09 166.16 167.09 166.16 Z" fill="#0b224e" fill-rule="nonzero" group-id="2" id="Path" node-id="26" stroke="none" target-height="25.04486" target-width="30.764328" target-x="140.62535" target-y="162.46915"></path><path d="M 93.72 299.95 L 88.61 305.18 L 93.21 308.38 L 98.83 302.96 Z" fill="#f1b282" fill-rule="nonzero" group-id="2" id="Path" node-id="27" stroke="none" target-height="8.422302" target-width="10.227745" target-x="88.60645" target-y="299.95374"></path><path d="M 149.20 306.60 L 149.03 310.32 L 142.58 309.89 L 142.98 305.23 Z" fill="#f1b282" fill-rule="nonzero" group-id="2" id="Path" node-id="28" stroke="none" target-height="5.0915527" target-width="6.6187897" target-x="142.58208" target-y="305.23047"></path><path d="M 131.25 247.85 C 131.25 247.85 128.85 272.22 124.01 280.16 C 119.33 287.82 98.29 306.06 98.29 306.06 L 91.44 300.33 C 91.44 300.33 105.08 280.08 111.34 272.03 C 107.98 256.19 110.16 242.38 112.01 239.20 C 113.85 236.03 131.68 237.33 131.25 247.85 Z" fill="#0b224e" fill-rule="nonzero" group-id="2" id="Path" node-id="29" stroke="none" target-height="70.03764" target-width="40.24704" target-x="91.43613" target-y="236.02644"></path><path d="M 137.02 236.69 C 137.02 236.69 139.64 243.55 145.67 248.23 C 151.70 252.91 159.74 262.11 159.74 269.63 C 159.74 277.15 149.86 306.91 149.86 306.91 L 141.43 306.08 C 141.43 306.08 142.73 279.72 145.17 272.03 C 135.07 266.03 113.51 258.26 111.84 239.70 L 137.02 236.69 Z" fill="#102b5e" fill-rule="nonzero" group-id="2" id="Path" node-id="30" stroke="none" target-height="70.2175" target-width="47.902756" target-x="111.83847" target-y="236.69458"></path><path d="M 145.85 221.87 C 136.84 232.63 140.87 244.10 136.47 242.81 C 129.66 240.80 120.54 238.62 115.14 239.81 C 109.52 241.05 106.42 240.09 108.77 235.52 C 111.11 230.96 121.50 217.02 124.18 207.44 C 126.13 200.45 134.39 190.62 143.27 189.42 C 144.36 189.50 150.03 190.49 152.83 192.48 C 155.52 198.72 154.86 211.12 145.85 221.87 Z" fill="#2ccd7f" fill-rule="nonzero" group-id="2" id="Path" node-id="31" stroke="none" target-height="54.67856" target-width="49.092834" target-x="106.42325" target-y="189.4249"></path><path d="M 141.95 228.05 C 141.09 229.94 140.52 231.78 140.11 233.47 C 137.29 226.85 133.30 215.49 135.91 207.22 C 135.91 207.22 136.29 218.66 141.95 228.05 Z" fill="#1eaf69" fill-rule="nonzero" group-id="2" id="Path" node-id="32" stroke="none" target-height="26.254333" target-width="8.651215" target-x="133.30115" target-y="207.21735"></path><path d="M 149.33 213.79 C 149.33 213.79 150.01 219.96 151.28 224.82 C 152.55 229.68 161.61 238.08 165.13 240.26 C 167.89 241.96 171.78 241.05 175.90 242.17 C 177.25 242.54 177.23 243.98 175.45 244.44 C 174.15 244.78 171.98 245.09 172.20 245.98 C 172.43 246.87 172.52 247.20 175.43 250.54 C 178.33 253.88 172.87 256.52 170.19 256.01 C 167.62 255.53 165.48 250.67 163.73 248.00 C 161.44 244.52 150.00 239.99 144.15 231.58 C 138.46 223.39 137.04 215.13 137.04 215.13 C 137.04 215.13 142.99 211.64 149.33 213.79 Z" fill="#f1b282" fill-rule="nonzero" group-id="2" id="Path" node-id="33" stroke="none" target-height="44.874985" target-width="41.28665" target-x="137.04343" target-y="211.64073"></path><path d="M 89.69 303.20 C 89.16 302.79 87.92 303.26 86.40 305.36 C 84.88 307.47 83.66 308.32 85.28 309.61 C 86.30 310.43 91.98 313.99 96.06 316.53 C 97.53 317.44 100.15 316.87 101.97 316.29 C 102.34 316.17 102.64 315.85 102.72 315.49 C 102.81 315.12 102.66 314.77 102.36 314.60 C 98.97 312.70 98.70 312.95 97.28 309.61 C 96.77 308.40 96.39 307.33 95.90 306.98 C 94.94 306.32 93.79 306.98 92.27 305.84 C 90.76 304.71 90.60 303.92 89.69 303.20 Z" fill="#0b224e" fill-rule="nonzero" group-id="2" id="Path" node-id="34" stroke="none" target-height="14.655884" target-width="19.151009" target-x="83.65609" target-y="302.78815"></path><path d="M 142.08 308.39 C 141.39 308.28 140.60 309.31 140.53 311.93 C 140.46 314.54 139.91 315.90 142.06 316.24 C 143.91 316.53 156.25 317.07 159.67 317.21 C 159.94 317.22 160.19 317.11 160.37 316.89 C 160.55 316.68 160.64 316.39 160.62 316.10 C 160.50 314.82 159.70 312.85 156.00 312.23 C 153.30 311.55 150.82 308.78 149.62 308.66 C 148.41 308.55 147.81 309.70 145.84 309.45 C 143.88 309.19 143.28 308.57 142.08 308.39 Z" fill="#0b224e" fill-rule="nonzero" group-id="2" id="Path" node-id="35" stroke="none" target-height="8.937622" target-width="20.732971" target-x="139.91095" target-y="308.2843"></path><path d="M 90.76 299.57 C 90.35 301.34 92.43 302.42 93.50 303.47 C 94.58 304.52 98.50 307.93 99.33 306.98 C 100.16 306.03 100.05 304.85 100.65 304.10 C 101.24 303.34 102.88 302.97 102.28 301.70 C 101.67 300.43 99.66 299.89 98.45 299.12 C 97.56 298.55 95.13 295.13 94.41 295.37 C 93.70 295.61 93.62 296.93 93.09 297.46 C 92.30 298.25 91.07 298.20 90.76 299.57 Z" fill="#355aa2" fill-rule="nonzero" group-id="2" id="Path" node-id="36" stroke="none" target-height="12.795349" target-width="12.525909" target-x="90.353264" target-y="295.13467"></path><path d="M 140.57 305.21 C 141.15 306.93 143.48 306.77 144.95 307.11 C 146.42 307.45 151.54 308.31 151.75 307.07 C 151.96 305.83 151.26 304.88 151.37 303.93 C 151.49 302.97 152.69 301.81 151.51 301.04 C 150.33 300.26 148.34 300.85 146.89 300.82 C 145.84 300.80 141.98 299.15 141.50 299.72 C 141.01 300.29 141.63 301.46 141.46 302.19 C 141.19 303.27 140.12 303.88 140.57 305.21 Z" fill="#355aa2" fill-rule="nonzero" group-id="2" id="Path" node-id="37" stroke="none" target-height="9.164215" target-width="12.570053" target-x="140.11995" target-y="299.1489"></path></g><g node-id="272"><g node-id="284"><path d="M 92.21 363.06 L 185.30 363.06 L 185.30 374.68 L 92.21 374.68 Z" fill="#ffd670" fill-rule="nonzero" group-id="3,15" id="Rectangle" node-id="40" stroke="none" target-height="11.614624" target-width="93.08935" target-x="92.214485" target-y="363.0636"></path><path d="M 92.21 374.68 L 185.30 374.68 L 185.30 378.55 L 92.21 378.55 Z" fill="#ffc22c" fill-rule="nonzero" group-id="3,15" id="Rectangle" node-id="41" stroke="none" target-height="3.8712463" target-width="93.08935" target-x="92.214485" target-y="374.67914"></path><path d="M 103.85 363.06 L 119.37 363.06 L 119.37 374.68 L 103.85 374.68 Z" fill="#ffeab6" fill-rule="nonzero" group-id="3,15" id="Rectangle" node-id="42" stroke="none" target-height="11.614624" target-width="15.515038" target-x="103.85122" target-y="363.0636"></path><path d="M 150.40 363.06 L 173.67 363.06 L 173.67 374.68 L 150.40 374.68 Z" fill="#ffcc4f" fill-rule="nonzero" group-id="3,15" id="Rectangle" node-id="43" stroke="none" target-height="11.614624" target-width="23.272552" target-x="150.39545" target-y="363.0636"></path></g><g node-id="285"><path d="M 95.92 347.58 L 189.01 347.58 L 189.01 359.19 L 95.92 359.19 Z" fill="#ffd670" fill-rule="nonzero" group-id="3,16" id="Rectangle" node-id="45" stroke="none" target-height="11.614655" target-width="93.08935" target-x="95.91892" target-y="347.57678"></path><path d="M 95.92 359.19 L 189.01 359.19 L 189.01 363.06 L 95.92 363.06 Z" fill="#ffc22c" fill-rule="nonzero" group-id="3,16" id="Rectangle" node-id="46" stroke="none" target-height="3.8712463" target-width="93.08935" target-x="95.91892" target-y="359.19232"></path><path d="M 107.55 347.58 L 123.07 347.58 L 123.07 359.19 L 107.55 359.19 Z" fill="#ffeab6" fill-rule="nonzero" group-id="3,16" id="Rectangle" node-id="47" stroke="none" target-height="11.614655" target-width="15.515038" target-x="107.554756" target-y="347.57678"></path><path d="M 154.10 347.58 L 177.37 347.58 L 177.37 359.19 L 154.10 359.19 Z" fill="#ffcc4f" fill-rule="nonzero" group-id="3,16" id="Rectangle" node-id="48" stroke="none" target-height="11.614655" target-width="23.272568" target-x="154.09987" target-y="347.57678"></path></g><g node-id="286"><path d="M 91.95 332.09 L 185.03 332.09 L 185.03 343.70 L 91.95 343.70 Z" fill="#ffd670" fill-rule="nonzero" group-id="3,17" id="Rectangle" node-id="50" stroke="none" target-height="11.614655" target-width="93.08933" target-x="91.94512" target-y="332.09"></path><path d="M 91.95 343.71 L 185.03 343.71 L 185.03 347.58 L 91.95 347.58 Z" fill="#ffc22c" fill-rule="nonzero" group-id="3,17" id="Rectangle" node-id="51" stroke="none" target-height="3.8712463" target-width="93.08933" target-x="91.94512" target-y="343.70554"></path><path d="M 103.58 332.09 L 119.10 332.09 L 119.10 343.70 L 103.58 343.70 Z" fill="#ffeab6" fill-rule="nonzero" group-id="3,17" id="Rectangle" node-id="52" stroke="none" target-height="11.614655" target-width="15.515045" target-x="103.58095" target-y="332.09"></path><path d="M 150.13 332.09 L 173.40 332.09 L 173.40 343.70 L 150.13 343.70 Z" fill="#ffcc4f" fill-rule="nonzero" group-id="3,17" id="Rectangle" node-id="53" stroke="none" target-height="11.614655" target-width="23.272552" target-x="150.12608" target-y="332.09"></path></g><g node-id="287"><path d="M 89.02 316.60 L 182.11 316.60 L 182.11 328.22 L 89.02 328.22 Z" fill="#ffd670" fill-rule="nonzero" group-id="3,18" id="Rectangle" node-id="55" stroke="none" target-height="11.614655" target-width="93.08935" target-x="89.01725" target-y="316.6032"></path><path d="M 89.02 328.22 L 182.11 328.22 L 182.11 332.09 L 89.02 332.09 Z" fill="#ffc22c" fill-rule="nonzero" group-id="3,18" id="Rectangle" node-id="56" stroke="none" target-height="3.8712463" target-width="93.08935" target-x="89.01725" target-y="328.21875"></path><path d="M 100.65 316.60 L 116.17 316.60 L 116.17 328.22 L 100.65 328.22 Z" fill="#ffeab6" fill-rule="nonzero" group-id="3,18" id="Rectangle" node-id="57" stroke="none" target-height="11.614655" target-width="15.515045" target-x="100.653076" target-y="316.6032"></path><path d="M 147.20 316.60 L 170.47 316.60 L 170.47 328.22 L 147.20 328.22 Z" fill="#ffcc4f" fill-rule="nonzero" group-id="3,18" id="Rectangle" node-id="58" stroke="none" target-height="11.614655" target-width="23.272568" target-x="147.1982" target-y="316.6032"></path></g></g><g node-id="273"><path d="M 216.76 335.21 C 222.08 343.57 249.97 369.90 254.56 364.65 C 256.82 362.05 246.63 351.84 237.30 317.24 C 234.03 305.10 224.63 296.42 215.53 302.81 C 206.85 308.89 211.43 326.85 216.76 335.21 Z" fill="#877cd8" fill-rule="nonzero" group-id="4" id="Path" node-id="60" stroke="none" target-height="73.479065" target-width="49.973877" target-x="206.85031" target-y="296.42328"></path><path d="M 255.34 365.62 C 255.38 365.61 255.43 365.59 255.46 365.55 C 255.52 365.47 255.49 365.37 255.40 365.31 C 255.20 365.20 235.20 353.73 221.96 314.00 C 221.93 313.91 221.82 313.86 221.71 313.88 C 221.60 313.91 221.54 314.00 221.57 314.09 C 228.52 334.92 237.28 347.81 243.40 354.95 C 250.05 362.71 255.13 365.57 255.18 365.60 C 255.23 365.63 255.28 365.63 255.34 365.62 Z" fill="#f3f9ff" fill-rule="nonzero" group-id="4" id="Path" node-id="61" stroke="none" target-height="51.77487" target-width="33.976883" target-x="221.54103" target-y="313.85873"></path><path d="M 214.72 322.23 C 225.66 330.16 258.57 366.38 252.64 373.86 C 246.70 381.33 192.95 348.96 182.01 341.03 C 171.06 333.10 168.60 320.80 176.62 315.82 C 189.27 307.95 203.77 314.30 214.72 322.23 Z" fill="#9e95e3" fill-rule="nonzero" group-id="4" id="Path" node-id="62" stroke="none" target-height="73.376526" target-width="89.96956" target-x="168.59782" target-y="307.9534"></path><path d="M 253.72 375.09 C 253.75 375.09 253.78 375.08 253.80 375.06 C 253.89 375.00 253.91 374.90 253.84 374.82 C 253.76 374.73 245.81 365.78 233.87 355.10 C 222.85 345.24 206.06 331.85 188.71 324.03 C 188.61 323.99 188.49 324.02 188.44 324.10 C 188.39 324.18 188.43 324.29 188.52 324.33 C 205.83 332.13 222.57 345.50 233.58 355.34 C 245.51 366.00 253.44 374.94 253.52 375.03 C 253.57 375.08 253.65 375.11 253.72 375.09 Z" fill="#f3f9ff" fill-rule="nonzero" group-id="4" id="Path" node-id="63" stroke="none" target-height="51.12024" target-width="65.51686" target-x="188.38847" target-y="323.9851"></path><path d="M 211.25 351.18 C 221.40 353.08 253.83 367.23 251.61 373.57 C 249.38 379.92 201.75 379.18 191.60 377.28 C 181.45 375.38 173.78 370.64 178.36 360.01 C 182.59 350.17 201.10 349.28 211.25 351.18 Z" fill="#877cd8" fill-rule="nonzero" group-id="4" id="Path" node-id="64" stroke="none" target-height="30.641754" target-width="80.05354" target-x="173.77882" target-y="349.27905"></path><path d="M 252.71 374.12 C 252.77 374.11 252.82 374.07 252.85 374.02 C 252.89 373.93 252.84 373.83 252.73 373.79 C 252.41 373.68 219.69 362.63 191.43 362.56 C 191.31 362.56 191.22 362.64 191.22 362.73 C 191.22 362.83 191.31 362.90 191.42 362.90 C 219.61 362.97 252.26 374.00 252.58 374.11 C 252.62 374.12 252.67 374.13 252.71 374.12 Z" fill="#f3f9ff" fill-rule="nonzero" group-id="4" id="Path" node-id="65" stroke="none" target-height="11.566101" target-width="61.663773" target-x="191.22356" target-y="362.55908"></path></g><g node-id="274"><path d="M 393.76 358.36 C 393.94 359.62 399.54 354.09 405.41 359.48 C 411.28 364.86 419.39 367.62 422.81 366.60 C 426.22 365.59 431.90 371.78 440.51 369.65 C 449.13 367.53 449.71 362.47 453.53 360.56 C 456.11 359.28 460.59 360.47 470.07 354.30 C 485.41 344.32 490.14 329.61 495.38 327.96 C 501.88 325.92 506.13 331.04 506.13 331.04 C 506.13 331.04 509.02 328.91 498.15 321.92 C 487.29 314.93 488.31 310.43 485.05 308.45 C 481.78 306.47 479.36 312.54 470.99 305.04 C 462.61 297.53 464.50 307.81 452.33 301.03 C 440.15 294.25 421.32 311.97 416.14 318.99 C 404.91 334.21 407.48 340.90 399.19 351.44 C 395.02 356.75 393.32 355.15 393.76 358.36 Z" fill="#f3f9ff" fill-rule="nonzero" group-id="5" id="Path" node-id="67" stroke="none" target-height="77.53284" target-width="115.69342" target-x="393.3227" target-y="294.24533"></path><path d="M 387.42 355.93 C 396.19 350.25 404.55 345.56 412.45 341.68 C 417.01 333.87 424.24 320.55 433.33 314.45 C 426.83 319.96 421.00 330.37 416.70 339.65 C 423.87 336.32 430.63 333.67 436.95 331.56 C 441.07 323.71 448.45 313.57 455.29 309.94 C 449.82 313.90 444.27 322.74 440.79 330.33 C 473.61 320.25 493.26 325.15 493.26 325.15 C 478.88 324.47 463.43 327.52 448.93 332.06 C 453.67 336.04 459.49 340.39 464.66 343.44 C 458.11 341.01 450.19 336.79 444.76 333.41 C 438.07 335.67 431.62 338.20 425.62 340.79 C 427.72 343.82 430.98 347.76 434.23 350.75 C 434.05 350.59 435.15 351.76 439.61 354.80 C 439.36 354.65 429.49 350.40 422.47 342.17 C 402.53 351.08 388.39 360.12 388.39 360.12 L 387.42 355.93 Z" fill="#c4e2fe" fill-rule="nonzero" group-id="5" id="Path" node-id="68" stroke="none" target-height="50.176056" target-width="105.842285" target-x="387.41647" target-y="309.94162"></path><path d="M 428.24 327.82 C 428.54 328.73 432.11 323.22 437.39 325.83 C 442.67 328.44 449.33 328.54 451.83 326.95 C 454.33 325.36 459.57 328.63 465.94 324.94 C 472.31 321.25 472.06 317.31 474.75 314.95 C 476.57 313.36 480.19 313.17 486.68 306.23 C 497.17 295.02 498.80 282.84 502.62 280.33 C 507.36 277.21 511.36 280.02 511.36 280.02 C 511.36 280.02 513.30 277.72 503.93 275.12 C 494.57 272.51 494.74 268.89 491.94 268.20 C 489.15 267.51 488.11 272.65 480.60 269.05 C 473.09 265.45 475.97 272.71 465.62 270.58 C 455.27 268.45 443.15 286.32 440.11 292.84 C 433.53 307.00 436.43 311.39 431.48 321.31 C 428.98 326.31 427.45 325.52 428.24 327.82 Z" fill="#dceefd" fill-rule="nonzero" group-id="5" id="Path" node-id="69" stroke="none" target-height="63.270813" target-width="85.84445" target-x="427.4518" target-y="265.45422"></path><path d="M 455.45 285.26 C 451.18 290.98 448.11 300.22 446.06 308.23 C 451.15 303.98 456.01 300.35 460.60 297.24 C 462.71 290.35 467.02 280.93 471.81 276.55 C 468.12 280.85 465.05 288.83 463.40 295.38 C 487.39 279.84 503.26 278.73 503.26 278.73 C 492.05 281.72 480.53 287.76 469.93 294.69 C 474.15 296.53 479.25 298.37 483.66 299.41 C 478.27 299.18 471.56 297.94 466.90 296.72 C 462.03 300.04 457.40 303.50 453.12 306.90 C 455.16 308.66 458.21 310.83 461.14 312.28 C 460.99 312.21 462.00 312.82 465.86 314.02 C 465.65 313.97 457.44 313.17 450.87 308.71 C 436.68 320.23 426.99 330.45 426.99 330.45 L 425.66 327.55 C 431.66 321.16 437.47 315.63 443.04 310.80 C 445.50 303.83 449.25 292.06 455.45 285.26 Z" fill="#b8ddfe" fill-rule="nonzero" group-id="5" id="Path" node-id="70" stroke="none" target-height="53.90338" target-width="77.60315" target-x="425.65814" target-y="276.5491"></path><path d="M 431.17 316.28 C 431.88 316.93 432.38 310.39 438.27 310.17 C 444.16 309.95 450.05 306.87 451.49 304.28 C 452.93 301.68 459.09 302.06 462.92 295.78 C 466.75 289.51 464.65 286.16 465.89 282.81 C 466.73 280.54 469.82 278.65 472.20 269.46 C 476.05 254.61 471.66 243.13 473.82 239.10 C 476.49 234.11 481.34 234.67 481.34 234.67 C 481.34 234.67 481.95 231.72 472.47 233.90 C 463.00 236.07 461.42 232.81 458.63 233.53 C 455.84 234.25 457.40 239.27 449.07 239.69 C 440.75 240.11 446.75 245.11 436.64 248.17 C 426.53 251.23 424.43 272.71 424.88 279.89 C 425.86 295.46 430.52 297.94 430.91 309.02 C 431.11 314.60 429.39 314.64 431.17 316.28 Z" fill="#f3f9ff" fill-rule="nonzero" group-id="5" id="Path" node-id="71" stroke="none" target-height="85.2079" target-width="57.5188" target-x="424.42844" target-y="231.72356"></path><path d="M 434.73 265.92 C 433.71 272.98 435.43 282.56 437.46 290.57 C 439.90 284.42 442.44 278.91 444.98 273.99 C 443.54 266.93 442.82 256.60 444.93 250.47 C 443.75 256.00 444.87 264.48 446.55 271.02 C 460.20 245.93 473.61 237.40 473.61 237.40 C 465.19 245.36 457.95 256.16 451.97 267.30 C 456.55 266.90 461.91 266.10 466.28 264.90 C 461.44 267.27 454.95 269.38 450.27 270.53 C 447.58 275.76 445.17 281.02 443.03 286.04 C 445.67 286.62 449.39 287.07 452.66 286.95 C 452.48 286.96 453.67 287.01 457.64 286.22 C 457.42 286.28 449.83 289.50 441.92 288.70 C 434.96 305.59 431.34 319.19 431.34 319.19 L 428.78 317.27 C 431.00 308.79 433.46 301.17 436.04 294.27 C 434.87 286.98 432.53 274.85 434.73 265.92 Z" fill="#b8ddfe" fill-rule="nonzero" group-id="5" id="Path" node-id="72" stroke="none" target-height="81.79436" target-width="44.83612" target-x="428.77792" target-y="237.3951"></path></g><g node-id="275"><g node-id="288"><path d="M 222.35 363.06 L 315.44 363.06 L 315.44 374.68 L 222.35 374.68 Z" fill="#ffd670" fill-rule="nonzero" group-id="6,19" id="Rectangle" node-id="75" stroke="none" target-height="11.614624" target-width="93.089355" target-x="222.34824" target-y="363.0636"></path><path d="M 222.35 374.68 L 315.44 374.68 L 315.44 378.55 L 222.35 378.55 Z" fill="#ffc22c" fill-rule="nonzero" group-id="6,19" id="Rectangle" node-id="76" stroke="none" target-height="3.8712463" target-width="93.089355" target-x="222.34824" target-y="374.67914"></path><path d="M 233.98 363.06 L 249.50 363.06 L 249.50 374.68 L 233.98 374.68 Z" fill="#ffeab6" fill-rule="nonzero" group-id="6,19" id="Rectangle" node-id="77" stroke="none" target-height="11.614624" target-width="15.515045" target-x="233.98407" target-y="363.0636"></path><path d="M 280.53 363.06 L 303.80 363.06 L 303.80 374.68 L 280.53 374.68 Z" fill="#ffcc4f" fill-rule="nonzero" group-id="6,19" id="Rectangle" node-id="78" stroke="none" target-height="11.614624" target-width="23.272552" target-x="280.5292" target-y="363.0636"></path></g><g node-id="289"><path d="M 234.65 223.68 L 327.74 223.68 L 327.74 235.30 L 234.65 235.30 Z" fill="#ffd670" fill-rule="nonzero" group-id="6,20" id="Rectangle" node-id="80" stroke="none" target-height="11.614639" target-width="93.089355" target-x="234.64893" target-y="223.68341"></path><path d="M 234.65 235.30 L 327.74 235.30 L 327.74 239.17 L 234.65 239.17 Z" fill="#ffc22c" fill-rule="nonzero" group-id="6,20" id="Rectangle" node-id="81" stroke="none" target-height="3.8712463" target-width="93.089355" target-x="234.64893" target-y="235.29895"></path><path d="M 246.28 223.68 L 261.80 223.68 L 261.80 235.30 L 246.28 235.30 Z" fill="#ffeab6" fill-rule="nonzero" group-id="6,20" id="Rectangle" node-id="82" stroke="none" target-height="11.614639" target-width="15.515045" target-x="246.28476" target-y="223.68341"></path><path d="M 292.83 223.68 L 316.10 223.68 L 316.10 235.30 L 292.83 235.30 Z" fill="#ffcc4f" fill-rule="nonzero" group-id="6,20" id="Rectangle" node-id="83" stroke="none" target-height="11.614639" target-width="23.272552" target-x="292.8299" target-y="223.68341"></path></g><g node-id="290"><path d="M 231.12 239.17 L 324.21 239.17 L 324.21 250.78 L 231.12 250.78 Z" fill="#ffd670" fill-rule="nonzero" group-id="6,21" id="Rectangle" node-id="85" stroke="none" target-height="11.614639" target-width="93.08934" target-x="231.11836" target-y="239.1702"></path><path d="M 231.12 250.78 L 324.21 250.78 L 324.21 254.66 L 231.12 254.66 Z" fill="#ffc22c" fill-rule="nonzero" group-id="6,21" id="Rectangle" node-id="86" stroke="none" target-height="3.8712463" target-width="93.08934" target-x="231.11836" target-y="250.78484"></path><path d="M 242.75 239.17 L 258.27 239.17 L 258.27 250.78 L 242.75 250.78 Z" fill="#ffeab6" fill-rule="nonzero" group-id="6,21" id="Rectangle" node-id="87" stroke="none" target-height="11.614639" target-width="15.515045" target-x="242.75418" target-y="239.1702"></path><path d="M 289.30 239.17 L 312.57 239.17 L 312.57 250.78 L 289.30 250.78 Z" fill="#ffcc4f" fill-rule="nonzero" group-id="6,21" id="Rectangle" node-id="88" stroke="none" target-height="11.614639" target-width="23.272552" target-x="289.29932" target-y="239.1702"></path></g><g node-id="291"><path d="M 230.55 208.20 L 323.64 208.20 L 323.64 219.81 L 230.55 219.81 Z" fill="#ffd670" fill-rule="nonzero" group-id="6,22" id="Rectangle" node-id="90" stroke="none" target-height="11.614639" target-width="93.08934" target-x="230.55171" target-y="208.19662"></path><path d="M 230.55 219.81 L 323.64 219.81 L 323.64 223.68 L 230.55 223.68 Z" fill="#ffc22c" fill-rule="nonzero" group-id="6,22" id="Rectangle" node-id="91" stroke="none" target-height="3.8712463" target-width="93.08934" target-x="230.55171" target-y="219.81216"></path><path d="M 242.19 208.20 L 257.70 208.20 L 257.70 219.81 L 242.19 219.81 Z" fill="#ffeab6" fill-rule="nonzero" group-id="6,22" id="Rectangle" node-id="92" stroke="none" target-height="11.614639" target-width="15.51506" target-x="242.18843" target-y="208.19662"></path><path d="M 288.73 208.20 L 312.01 208.20 L 312.01 219.81 L 288.73 219.81 Z" fill="#ffcc4f" fill-rule="nonzero" group-id="6,22" id="Rectangle" node-id="93" stroke="none" target-height="11.614639" target-width="23.272552" target-x="288.73267" target-y="208.19662"></path></g><g node-id="292"><path d="M 226.05 347.58 L 319.14 347.58 L 319.14 359.19 L 226.05 359.19 Z" fill="#ffd670" fill-rule="nonzero" group-id="6,23" id="Rectangle" node-id="95" stroke="none" target-height="11.614655" target-width="93.08934" target-x="226.05269" target-y="347.57678"></path><path d="M 226.05 359.19 L 319.14 359.19 L 319.14 363.06 L 226.05 363.06 Z" fill="#ffc22c" fill-rule="nonzero" group-id="6,23" id="Rectangle" node-id="96" stroke="none" target-height="3.8712463" target-width="93.08934" target-x="226.05269" target-y="359.19232"></path><path d="M 237.69 347.58 L 253.20 347.58 L 253.20 359.19 L 237.69 359.19 Z" fill="#ffeab6" fill-rule="nonzero" group-id="6,23" id="Rectangle" node-id="97" stroke="none" target-height="11.614655" target-width="15.51503" target-x="237.68852" target-y="347.57678"></path><path d="M 284.23 347.58 L 307.51 347.58 L 307.51 359.19 L 284.23 359.19 Z" fill="#ffcc4f" fill-rule="nonzero" group-id="6,23" id="Rectangle" node-id="98" stroke="none" target-height="11.614655" target-width="23.272552" target-x="284.23364" target-y="347.57678"></path></g><g node-id="293"><path d="M 230.51 316.60 L 323.60 316.60 L 323.60 328.22 L 230.51 328.22 Z" fill="#ffd670" fill-rule="nonzero" group-id="6,24" id="Rectangle" node-id="100" stroke="none" target-height="11.614655" target-width="93.089355" target-x="230.51117" target-y="316.6032"></path><path d="M 230.51 328.22 L 323.60 328.22 L 323.60 332.09 L 230.51 332.09 Z" fill="#ffc22c" fill-rule="nonzero" group-id="6,24" id="Rectangle" node-id="101" stroke="none" target-height="3.8712463" target-width="93.089355" target-x="230.51117" target-y="328.21875"></path><path d="M 242.15 316.60 L 257.66 316.60 L 257.66 328.22 L 242.15 328.22 Z" fill="#ffeab6" fill-rule="nonzero" group-id="6,24" id="Rectangle" node-id="102" stroke="none" target-height="11.614655" target-width="15.515045" target-x="242.147" target-y="316.6032"></path><path d="M 288.69 316.60 L 311.96 316.60 L 311.96 328.22 L 288.69 328.22 Z" fill="#ffcc4f" fill-rule="nonzero" group-id="6,24" id="Rectangle" node-id="103" stroke="none" target-height="11.614655" target-width="23.272583" target-x="288.6921" target-y="316.6032"></path></g><g node-id="294"><path d="M 225.80 301.12 L 318.89 301.12 L 318.89 312.73 L 225.80 312.73 Z" fill="#ffd670" fill-rule="nonzero" group-id="6,25" id="Rectangle" node-id="105" stroke="none" target-height="11.614655" target-width="93.089355" target-x="225.79593" target-y="301.11734"></path><path d="M 225.80 312.73 L 318.89 312.73 L 318.89 316.60 L 225.80 316.60 Z" fill="#ffc22c" fill-rule="nonzero" group-id="6,25" id="Rectangle" node-id="106" stroke="none" target-height="3.8712463" target-width="93.089355" target-x="225.79593" target-y="312.732"></path><path d="M 237.43 301.12 L 252.95 301.12 L 252.95 312.73 L 237.43 312.73 Z" fill="#ffeab6" fill-rule="nonzero" group-id="6,25" id="Rectangle" node-id="107" stroke="none" target-height="11.614655" target-width="15.515045" target-x="237.43266" target-y="301.11734"></path><path d="M 283.98 301.12 L 307.25 301.12 L 307.25 312.73 L 283.98 312.73 Z" fill="#ffcc4f" fill-rule="nonzero" group-id="6,25" id="Rectangle" node-id="108" stroke="none" target-height="11.614655" target-width="23.272552" target-x="283.9769" target-y="301.11734"></path></g><g node-id="295"><path d="M 226.46 285.63 L 319.55 285.63 L 319.55 297.25 L 226.46 297.25 Z" fill="#ffd670" fill-rule="nonzero" group-id="6,26" id="Rectangle" node-id="110" stroke="none" target-height="11.614624" target-width="93.08934" target-x="226.45808" target-y="285.63055"></path><path d="M 226.46 297.25 L 319.55 297.25 L 319.55 301.12 L 226.46 301.12 Z" fill="#ffc22c" fill-rule="nonzero" group-id="6,26" id="Rectangle" node-id="111" stroke="none" target-height="3.8712463" target-width="93.08934" target-x="226.45808" target-y="297.24518"></path><path d="M 238.09 285.63 L 253.61 285.63 L 253.61 297.25 L 238.09 297.25 Z" fill="#ffeab6" fill-rule="nonzero" group-id="6,26" id="Rectangle" node-id="112" stroke="none" target-height="11.614624" target-width="15.515045" target-x="238.0939" target-y="285.63055"></path><path d="M 284.64 285.63 L 307.91 285.63 L 307.91 297.25 L 284.64 297.25 Z" fill="#ffcc4f" fill-rule="nonzero" group-id="6,26" id="Rectangle" node-id="113" stroke="none" target-height="11.614624" target-width="23.272552" target-x="284.63904" target-y="285.63055"></path></g><g node-id="296"><path d="M 228.48 270.14 L 321.57 270.14 L 321.57 281.76 L 228.48 281.76 Z" fill="#ffd670" fill-rule="nonzero" group-id="6,27" id="Rectangle" node-id="115" stroke="none" target-height="11.614624" target-width="93.08934" target-x="228.48418" target-y="270.14377"></path><path d="M 228.48 281.76 L 321.57 281.76 L 321.57 285.63 L 228.48 285.63 Z" fill="#ffc22c" fill-rule="nonzero" group-id="6,27" id="Rectangle" node-id="116" stroke="none" target-height="3.8712463" target-width="93.08934" target-x="228.48418" target-y="281.7584"></path><path d="M 240.12 270.14 L 255.64 270.14 L 255.64 281.76 L 240.12 281.76 Z" fill="#ffeab6" fill-rule="nonzero" group-id="6,27" id="Rectangle" node-id="117" stroke="none" target-height="11.614624" target-width="15.515045" target-x="240.1209" target-y="270.14377"></path><path d="M 286.67 270.14 L 309.94 270.14 L 309.94 281.76 L 286.67 281.76 Z" fill="#ffcc4f" fill-rule="nonzero" group-id="6,27" id="Rectangle" node-id="118" stroke="none" target-height="11.614624" target-width="23.272552" target-x="286.66513" target-y="270.14377"></path></g><g node-id="297"><path d="M 232.76 254.66 L 325.85 254.66 L 325.85 266.27 L 232.76 266.27 Z" fill="#ffd670" fill-rule="nonzero" group-id="6,28" id="Rectangle" node-id="120" stroke="none" target-height="11.614655" target-width="93.089355" target-x="232.75797" target-y="254.65698"></path><path d="M 232.76 266.27 L 325.85 266.27 L 325.85 270.14 L 232.76 270.14 Z" fill="#ffc22c" fill-rule="nonzero" group-id="6,28" id="Rectangle" node-id="121" stroke="none" target-height="3.8712463" target-width="93.089355" target-x="232.75797" target-y="266.27164"></path><path d="M 244.39 254.66 L 259.91 254.66 L 259.91 266.27 L 244.39 266.27 Z" fill="#ffeab6" fill-rule="nonzero" group-id="6,28" id="Rectangle" node-id="122" stroke="none" target-height="11.614655" target-width="15.51503" target-x="244.3947" target-y="254.65698"></path><path d="M 290.94 254.66 L 314.21 254.66 L 314.21 266.27 L 290.94 266.27 Z" fill="#ffcc4f" fill-rule="nonzero" group-id="6,28" id="Rectangle" node-id="123" stroke="none" target-height="11.614655" target-width="23.272552" target-x="290.93893" target-y="254.65698"></path></g><g node-id="298"><path d="M 226.81 332.09 L 319.90 332.09 L 319.90 343.70 L 226.81 343.70 Z" fill="#ffd670" fill-rule="nonzero" group-id="6,29" id="Rectangle" node-id="125" stroke="none" target-height="11.614655" target-width="93.08934" target-x="226.80672" target-y="332.09"></path><path d="M 226.81 343.71 L 319.90 343.71 L 319.90 347.58 L 226.81 347.58 Z" fill="#ffc22c" fill-rule="nonzero" group-id="6,29" id="Rectangle" node-id="126" stroke="none" target-height="3.8712463" target-width="93.08934" target-x="226.80672" target-y="343.70554"></path><path d="M 238.44 332.09 L 253.96 332.09 L 253.96 343.70 L 238.44 343.70 Z" fill="#ffeab6" fill-rule="nonzero" group-id="6,29" id="Rectangle" node-id="127" stroke="none" target-height="11.614655" target-width="15.515045" target-x="238.44345" target-y="332.09"></path><path d="M 284.99 332.09 L 308.26 332.09 L 308.26 343.70 L 284.99 343.70 Z" fill="#ffcc4f" fill-rule="nonzero" group-id="6,29" id="Rectangle" node-id="128" stroke="none" target-height="11.614655" target-width="23.272552" target-x="284.98767" target-y="332.09"></path></g></g><g node-id="276"><path d="M 334.10 342.15 C 343.52 343.39 379.33 360.53 377.81 369.20 C 377.06 373.48 363.51 367.57 331.58 377.57 C 320.38 381.07 308.47 375.18 308.36 360.46 C 308.26 346.41 324.69 340.91 334.10 342.15 Z" fill="#1b90fb" fill-rule="nonzero" group-id="7" id="Path" node-id="130" stroke="none" target-height="40.158447" target-width="71.06543" target-x="308.2629" target-y="340.9125"></path><path d="M 378.88 369.73 C 378.83 369.75 378.78 369.74 378.73 369.70 C 378.68 369.66 373.70 365.40 364.07 362.23 C 355.19 359.31 340.43 356.76 320.54 361.18 C 320.46 361.20 320.37 361.14 320.35 361.06 C 320.33 360.97 320.38 360.88 320.47 360.87 C 340.44 356.43 355.27 359.00 364.19 361.93 C 373.87 365.12 378.89 369.41 378.94 369.46 C 379.01 369.52 379.02 369.62 378.96 369.68 C 378.94 369.71 378.91 369.72 378.88 369.73 Z" fill="#f3f9ff" fill-rule="nonzero" group-id="7" id="Path" node-id="131" stroke="none" target-height="13.316925" target-width="58.68634" target-x="320.3321" target-y="356.43076"></path><path d="M 322.93 347.64 C 335.12 355.83 381.37 372.92 383.86 361.30 C 386.36 349.68 331.55 305.43 319.36 297.24 C 307.17 289.04 296.29 293.61 296.87 306.20 C 297.80 326.05 310.74 339.45 322.93 347.64 Z" fill="#1277d7" fill-rule="nonzero" group-id="7" id="Path" node-id="132" stroke="none" target-height="83.87253" target-width="90.07138" target-x="296.28745" target-y="289.0441"></path><path d="M 385.31 362.04 C 385.28 362.05 385.25 362.05 385.21 362.04 C 384.76 361.88 339.82 345.88 309.87 315.50 C 309.81 315.44 309.81 315.33 309.87 315.27 C 309.94 315.21 310.04 315.21 310.10 315.27 C 340.00 345.60 384.87 361.58 385.32 361.74 C 385.40 361.77 385.45 361.86 385.42 361.94 C 385.40 361.99 385.36 362.03 385.31 362.04 Z" fill="#f3f9ff" fill-rule="nonzero" group-id="7" id="Path" node-id="133" stroke="none" target-height="46.843445" target-width="75.63919" target-x="309.80884" target-y="315.2085"></path><path d="M 343.40 325.86 C 350.49 336.78 379.40 366.76 383.08 360.24 C 386.75 353.72 359.80 297.47 352.71 286.55 C 345.62 275.63 337.70 269.39 332.01 281.32 C 326.75 292.36 336.31 314.94 343.40 325.86 Z" fill="#1b90fb" fill-rule="nonzero" group-id="7" id="Path" node-id="134" stroke="none" target-height="97.376465" target-width="59.998047" target-x="326.75177" target-y="269.3875"></path><path d="M 384.00 361.42 C 383.94 361.44 383.87 361.42 383.83 361.37 C 383.56 361.05 356.90 328.86 341.21 295.28 C 341.17 295.20 341.21 295.11 341.29 295.07 C 341.37 295.03 341.47 295.07 341.50 295.15 C 357.18 328.68 383.81 360.84 384.07 361.17 C 384.13 361.23 384.12 361.33 384.05 361.39 C 384.04 361.41 384.02 361.42 384.00 361.42 Z" fill="#f3f9ff" fill-rule="nonzero" group-id="7" id="Path" node-id="135" stroke="none" target-height="66.408295" target-width="42.95691" target-x="341.17404" target-y="295.03125"></path></g><g node-id="277"><g node-id="299"><path d="M 352.75 363.06 L 445.84 363.06 L 445.84 374.68 L 352.75 374.68 Z" fill="#ffd670" fill-rule="nonzero" group-id="8,30" id="Rectangle" node-id="138" stroke="none" target-height="11.614624" target-width="93.089325" target-x="352.75046" target-y="363.0636"></path><path d="M 352.75 374.68 L 445.84 374.68 L 445.84 378.55 L 352.75 378.55 Z" fill="#ffc22c" fill-rule="nonzero" group-id="8,30" id="Rectangle" node-id="139" stroke="none" target-height="3.8712463" target-width="93.089325" target-x="352.75046" target-y="374.67914"></path><path d="M 364.39 363.06 L 379.90 363.06 L 379.90 374.68 L 364.39 374.68 Z" fill="#ffeab6" fill-rule="nonzero" group-id="8,30" id="Rectangle" node-id="140" stroke="none" target-height="11.614624" target-width="15.515045" target-x="364.38718" target-y="363.0636"></path><path d="M 410.93 363.06 L 434.20 363.06 L 434.20 374.68 L 410.93 374.68 Z" fill="#ffcc4f" fill-rule="nonzero" group-id="8,30" id="Rectangle" node-id="141" stroke="none" target-height="11.614624" target-width="23.272552" target-x="410.9314" target-y="363.0636"></path></g><g node-id="300"><path d="M 356.45 347.58 L 449.54 347.58 L 449.54 359.19 L 356.45 359.19 Z" fill="#ffd670" fill-rule="nonzero" group-id="8,31" id="Rectangle" node-id="143" stroke="none" target-height="11.614655" target-width="93.089355" target-x="356.4549" target-y="347.5768"></path><path d="M 356.45 359.19 L 449.54 359.19 L 449.54 363.06 L 356.45 363.06 Z" fill="#ffc22c" fill-rule="nonzero" group-id="8,31" id="Rectangle" node-id="144" stroke="none" target-height="3.8712463" target-width="93.089355" target-x="356.4549" target-y="359.19235"></path><path d="M 368.09 347.58 L 383.61 347.58 L 383.61 359.19 L 368.09 359.19 Z" fill="#ffeab6" fill-rule="nonzero" group-id="8,31" id="Rectangle" node-id="145" stroke="none" target-height="11.614655" target-width="15.515045" target-x="368.09073" target-y="347.5768"></path><path d="M 414.64 347.58 L 437.91 347.58 L 437.91 359.19 L 414.64 359.19 Z" fill="#ffcc4f" fill-rule="nonzero" group-id="8,31" id="Rectangle" node-id="146" stroke="none" target-height="11.614655" target-width="23.272552" target-x="414.63583" target-y="347.5768"></path></g><g node-id="301"><path d="M 352.40 316.60 L 445.49 316.60 L 445.49 328.22 L 352.40 328.22 Z" fill="#ffd670" fill-rule="nonzero" group-id="8,32" id="Rectangle" node-id="148" stroke="none" target-height="11.614655" target-width="93.089355" target-x="352.4018" target-y="316.60324"></path><path d="M 352.40 328.22 L 445.49 328.22 L 445.49 332.09 L 352.40 332.09 Z" fill="#ffc22c" fill-rule="nonzero" group-id="8,32" id="Rectangle" node-id="149" stroke="none" target-height="3.8712463" target-width="93.089355" target-x="352.4018" target-y="328.21878"></path><path d="M 364.04 316.60 L 379.55 316.60 L 379.55 328.22 L 364.04 328.22 Z" fill="#ffeab6" fill-rule="nonzero" group-id="8,32" id="Rectangle" node-id="150" stroke="none" target-height="11.614655" target-width="15.515045" target-x="364.03763" target-y="316.60324"></path><path d="M 410.58 316.60 L 433.86 316.60 L 433.86 328.22 L 410.58 328.22 Z" fill="#ffcc4f" fill-rule="nonzero" group-id="8,32" id="Rectangle" node-id="151" stroke="none" target-height="11.614655" target-width="23.272552" target-x="410.58276" target-y="316.60324"></path></g><g node-id="302"><path d="M 352.75 332.09 L 445.84 332.09 L 445.84 343.70 L 352.75 343.70 Z" fill="#ffd670" fill-rule="nonzero" group-id="8,33" id="Rectangle" node-id="153" stroke="none" target-height="11.614655" target-width="93.089325" target-x="352.75046" target-y="332.09003"></path><path d="M 352.75 343.71 L 445.84 343.71 L 445.84 347.58 L 352.75 347.58 Z" fill="#ffc22c" fill-rule="nonzero" group-id="8,33" id="Rectangle" node-id="154" stroke="none" target-height="3.8712463" target-width="93.089325" target-x="352.75046" target-y="343.70557"></path><path d="M 364.39 332.09 L 379.90 332.09 L 379.90 343.70 L 364.39 343.70 Z" fill="#ffeab6" fill-rule="nonzero" group-id="8,33" id="Rectangle" node-id="155" stroke="none" target-height="11.614655" target-width="15.515045" target-x="364.38718" target-y="332.09003"></path><path d="M 410.93 332.09 L 434.20 332.09 L 434.20 343.70 L 410.93 343.70 Z" fill="#ffcc4f" fill-rule="nonzero" group-id="8,33" id="Rectangle" node-id="156" stroke="none" target-height="11.614655" target-width="23.272552" target-x="410.9314" target-y="332.09003"></path></g><g node-id="303"><path d="M 348.70 301.12 L 441.79 301.12 L 441.79 312.73 L 348.70 312.73 Z" fill="#ffd670" fill-rule="nonzero" group-id="8,34" id="Rectangle" node-id="158" stroke="none" target-height="11.614655" target-width="93.089325" target-x="348.69736" target-y="301.11734"></path><path d="M 348.70 312.73 L 441.79 312.73 L 441.79 316.60 L 348.70 316.60 Z" fill="#ffc22c" fill-rule="nonzero" group-id="8,34" id="Rectangle" node-id="159" stroke="none" target-height="3.8712463" target-width="93.089325" target-x="348.69736" target-y="312.732"></path><path d="M 360.33 301.12 L 375.85 301.12 L 375.85 312.73 L 360.33 312.73 Z" fill="#ffeab6" fill-rule="nonzero" group-id="8,34" id="Rectangle" node-id="160" stroke="none" target-height="11.614655" target-width="15.515045" target-x="360.3332" target-y="301.11734"></path><path d="M 406.88 301.12 L 430.15 301.12 L 430.15 312.73 L 406.88 312.73 Z" fill="#ffcc4f" fill-rule="nonzero" group-id="8,34" id="Rectangle" node-id="161" stroke="none" target-height="11.614655" target-width="23.272552" target-x="406.87833" target-y="301.11734"></path></g><g node-id="304"><path d="M 352.40 161.74 L 445.49 161.74 L 445.49 173.35 L 352.40 173.35 Z" fill="#ffd670" fill-rule="nonzero" group-id="8,35" id="Rectangle" node-id="163" stroke="none" target-height="11.614639" target-width="93.089355" target-x="352.4018" target-y="161.73718"></path><path d="M 352.40 173.35 L 445.49 173.35 L 445.49 177.22 L 352.40 177.22 Z" fill="#ffc22c" fill-rule="nonzero" group-id="8,35" id="Rectangle" node-id="164" stroke="none" target-height="3.8712463" target-width="93.089355" target-x="352.4018" target-y="173.35182"></path><path d="M 364.04 161.74 L 379.55 161.74 L 379.55 173.35 L 364.04 173.35 Z" fill="#ffeab6" fill-rule="nonzero" group-id="8,35" id="Rectangle" node-id="165" stroke="none" target-height="11.614639" target-width="15.515045" target-x="364.03763" target-y="161.73718"></path><path d="M 410.58 161.74 L 433.86 161.74 L 433.86 173.35 L 410.58 173.35 Z" fill="#ffcc4f" fill-rule="nonzero" group-id="8,35" id="Rectangle" node-id="166" stroke="none" target-height="11.614639" target-width="23.272552" target-x="410.58276" target-y="161.73718"></path></g><g node-id="305"><path d="M 352.75 177.22 L 445.84 177.22 L 445.84 188.84 L 352.75 188.84 Z" fill="#ffd670" fill-rule="nonzero" group-id="8,36" id="Rectangle" node-id="168" stroke="none" target-height="11.614639" target-width="93.089325" target-x="352.75046" target-y="177.22307"></path><path d="M 352.75 188.84 L 445.84 188.84 L 445.84 192.71 L 352.75 192.71 Z" fill="#ffc22c" fill-rule="nonzero" group-id="8,36" id="Rectangle" node-id="169" stroke="none" target-height="3.8712463" target-width="93.089325" target-x="352.75046" target-y="188.83861"></path><path d="M 364.39 177.22 L 379.90 177.22 L 379.90 188.84 L 364.39 188.84 Z" fill="#ffeab6" fill-rule="nonzero" group-id="8,36" id="Rectangle" node-id="170" stroke="none" target-height="11.614639" target-width="15.515045" target-x="364.38718" target-y="177.22307"></path><path d="M 410.93 177.22 L 434.20 177.22 L 434.20 188.84 L 410.93 188.84 Z" fill="#ffcc4f" fill-rule="nonzero" group-id="8,36" id="Rectangle" node-id="171" stroke="none" target-height="11.614639" target-width="23.272552" target-x="410.9314" target-y="177.22307"></path></g><g node-id="306"><path d="M 348.70 146.25 L 441.79 146.25 L 441.79 157.87 L 348.70 157.87 Z" fill="#ffd670" fill-rule="nonzero" group-id="8,37" id="Rectangle" node-id="173" stroke="none" target-height="11.614639" target-width="93.089325" target-x="348.69736" target-y="146.25038"></path><path d="M 348.70 157.87 L 441.79 157.87 L 441.79 161.74 L 348.70 161.74 Z" fill="#ffc22c" fill-rule="nonzero" group-id="8,37" id="Rectangle" node-id="174" stroke="none" target-height="3.8712463" target-width="93.089325" target-x="348.69736" target-y="157.86502"></path><path d="M 360.33 146.25 L 375.85 146.25 L 375.85 157.87 L 360.33 157.87 Z" fill="#ffeab6" fill-rule="nonzero" group-id="8,37" id="Rectangle" node-id="175" stroke="none" target-height="11.614639" target-width="15.515045" target-x="360.3332" target-y="146.25038"></path><path d="M 406.88 146.25 L 430.15 146.25 L 430.15 157.87 L 406.88 157.87 Z" fill="#ffcc4f" fill-rule="nonzero" group-id="8,37" id="Rectangle" node-id="176" stroke="none" target-height="11.614639" target-width="23.272552" target-x="406.87833" target-y="146.25038"></path></g><g node-id="307"><path d="M 352.40 285.63 L 445.49 285.63 L 445.49 297.25 L 352.40 297.25 Z" fill="#ffd670" fill-rule="nonzero" group-id="8,38" id="Rectangle" node-id="178" stroke="none" target-height="11.614624" target-width="93.089355" target-x="352.4018" target-y="285.63055"></path><path d="M 352.40 297.25 L 445.49 297.25 L 445.49 301.12 L 352.40 301.12 Z" fill="#ffc22c" fill-rule="nonzero" group-id="8,38" id="Rectangle" node-id="179" stroke="none" target-height="3.8712463" target-width="93.089355" target-x="352.4018" target-y="297.24518"></path><path d="M 364.04 285.63 L 379.55 285.63 L 379.55 297.25 L 364.04 297.25 Z" fill="#ffeab6" fill-rule="nonzero" group-id="8,38" id="Rectangle" node-id="180" stroke="none" target-height="11.614624" target-width="15.515045" target-x="364.03763" target-y="285.63055"></path><path d="M 410.58 285.63 L 433.86 285.63 L 433.86 297.25 L 410.58 297.25 Z" fill="#ffcc4f" fill-rule="nonzero" group-id="8,38" id="Rectangle" node-id="181" stroke="none" target-height="11.614624" target-width="23.272552" target-x="410.58276" target-y="285.63055"></path></g><g node-id="308"><path d="M 356.86 254.66 L 449.95 254.66 L 449.95 266.27 L 356.86 266.27 Z" fill="#ffd670" fill-rule="nonzero" group-id="8,39" id="Rectangle" node-id="183" stroke="none" target-height="11.614655" target-width="93.089355" target-x="356.8603" target-y="254.65698"></path><path d="M 356.86 266.27 L 449.95 266.27 L 449.95 270.14 L 356.86 270.14 Z" fill="#ffc22c" fill-rule="nonzero" group-id="8,39" id="Rectangle" node-id="184" stroke="none" target-height="3.8712463" target-width="93.089355" target-x="356.8603" target-y="266.27164"></path><path d="M 368.50 254.66 L 384.01 254.66 L 384.01 266.27 L 368.50 266.27 Z" fill="#ffeab6" fill-rule="nonzero" group-id="8,39" id="Rectangle" node-id="185" stroke="none" target-height="11.614655" target-width="15.515045" target-x="368.49612" target-y="254.65698"></path><path d="M 415.04 254.66 L 438.31 254.66 L 438.31 266.27 L 415.04 266.27 Z" fill="#ffcc4f" fill-rule="nonzero" group-id="8,39" id="Rectangle" node-id="186" stroke="none" target-height="11.614655" target-width="23.272552" target-x="415.04123" target-y="254.65698"></path></g><g node-id="309"><path d="M 358.89 239.17 L 451.98 239.17 L 451.98 250.78 L 358.89 250.78 Z" fill="#ffd670" fill-rule="nonzero" group-id="8,40" id="Rectangle" node-id="188" stroke="none" target-height="11.614639" target-width="93.089325" target-x="358.88727" target-y="239.17021"></path><path d="M 358.89 250.78 L 451.98 250.78 L 451.98 254.66 L 358.89 254.66 Z" fill="#ffc22c" fill-rule="nonzero" group-id="8,40" id="Rectangle" node-id="189" stroke="none" target-height="3.8712463" target-width="93.089325" target-x="358.88727" target-y="250.78485"></path><path d="M 370.52 239.17 L 386.04 239.17 L 386.04 250.78 L 370.52 250.78 Z" fill="#ffeab6" fill-rule="nonzero" group-id="8,40" id="Rectangle" node-id="190" stroke="none" target-height="11.614639" target-width="15.515045" target-x="370.5231" target-y="239.17021"></path><path d="M 417.07 239.17 L 440.34 239.17 L 440.34 250.78 L 417.07 250.78 Z" fill="#ffcc4f" fill-rule="nonzero" group-id="8,40" id="Rectangle" node-id="191" stroke="none" target-height="11.614639" target-width="23.272552" target-x="417.0682" target-y="239.17021"></path></g><g node-id="310"><path d="M 352.81 223.68 L 445.90 223.68 L 445.90 235.30 L 352.81 235.30 Z" fill="#ffd670" fill-rule="nonzero" group-id="8,41" id="Rectangle" node-id="193" stroke="none" target-height="11.614639" target-width="93.089355" target-x="352.8072" target-y="223.68341"></path><path d="M 352.81 235.30 L 445.90 235.30 L 445.90 239.17 L 352.81 239.17 Z" fill="#ffc22c" fill-rule="nonzero" group-id="8,41" id="Rectangle" node-id="194" stroke="none" target-height="3.8712463" target-width="93.089355" target-x="352.8072" target-y="235.29895"></path><path d="M 364.44 223.68 L 379.96 223.68 L 379.96 235.30 L 364.44 235.30 Z" fill="#ffeab6" fill-rule="nonzero" group-id="8,41" id="Rectangle" node-id="195" stroke="none" target-height="11.614639" target-width="15.515045" target-x="364.44302" target-y="223.68341"></path><path d="M 410.99 223.68 L 434.26 223.68 L 434.26 235.30 L 410.99 235.30 Z" fill="#ffcc4f" fill-rule="nonzero" group-id="8,41" id="Rectangle" node-id="196" stroke="none" target-height="11.614639" target-width="23.272552" target-x="410.98816" target-y="223.68341"></path></g><g node-id="311"><path d="M 354.83 208.20 L 447.92 208.20 L 447.92 219.81 L 354.83 219.81 Z" fill="#ffd670" fill-rule="nonzero" group-id="8,42" id="Rectangle" node-id="198" stroke="none" target-height="11.614639" target-width="93.089355" target-x="354.83328" target-y="208.19662"></path><path d="M 354.83 219.81 L 447.92 219.81 L 447.92 223.68 L 354.83 223.68 Z" fill="#ffc22c" fill-rule="nonzero" group-id="8,42" id="Rectangle" node-id="199" stroke="none" target-height="3.8712463" target-width="93.089355" target-x="354.83328" target-y="219.81216"></path><path d="M 366.47 208.20 L 381.99 208.20 L 381.99 219.81 L 366.47 219.81 Z" fill="#ffeab6" fill-rule="nonzero" group-id="8,42" id="Rectangle" node-id="200" stroke="none" target-height="11.614639" target-width="15.515045" target-x="366.47" target-y="208.19662"></path><path d="M 413.01 208.20 L 436.29 208.20 L 436.29 219.81 L 413.01 219.81 Z" fill="#ffcc4f" fill-rule="nonzero" group-id="8,42" id="Rectangle" node-id="201" stroke="none" target-height="11.614639" target-width="23.272583" target-x="413.01422" target-y="208.19662"></path></g><g node-id="312"><path d="M 356.86 192.71 L 449.95 192.71 L 449.95 204.32 L 356.86 204.32 Z" fill="#ffd670" fill-rule="nonzero" group-id="8,43" id="Rectangle" node-id="203" stroke="none" target-height="11.614639" target-width="93.089355" target-x="356.8603" target-y="192.70985"></path><path d="M 356.86 204.33 L 449.95 204.33 L 449.95 208.20 L 356.86 208.20 Z" fill="#ffc22c" fill-rule="nonzero" group-id="8,43" id="Rectangle" node-id="204" stroke="none" target-height="3.8712463" target-width="93.089355" target-x="356.8603" target-y="204.3254"></path><path d="M 368.50 192.71 L 384.01 192.71 L 384.01 204.32 L 368.50 204.32 Z" fill="#ffeab6" fill-rule="nonzero" group-id="8,43" id="Rectangle" node-id="205" stroke="none" target-height="11.614639" target-width="15.515045" target-x="368.49612" target-y="192.70985"></path><path d="M 415.04 192.71 L 438.31 192.71 L 438.31 204.32 L 415.04 204.32 Z" fill="#ffcc4f" fill-rule="nonzero" group-id="8,43" id="Rectangle" node-id="206" stroke="none" target-height="11.614639" target-width="23.272552" target-x="415.04123" target-y="192.70985"></path></g><g node-id="313"><path d="M 353.16 270.14 L 446.25 270.14 L 446.25 281.76 L 353.16 281.76 Z" fill="#ffd670" fill-rule="nonzero" group-id="8,44" id="Rectangle" node-id="208" stroke="none" target-height="11.614624" target-width="93.089325" target-x="353.15585" target-y="270.14377"></path><path d="M 353.16 281.76 L 446.25 281.76 L 446.25 285.63 L 353.16 285.63 Z" fill="#ffc22c" fill-rule="nonzero" group-id="8,44" id="Rectangle" node-id="209" stroke="none" target-height="3.8712463" target-width="93.089325" target-x="353.15585" target-y="281.7584"></path><path d="M 364.79 270.14 L 380.31 270.14 L 380.31 281.76 L 364.79 281.76 Z" fill="#ffeab6" fill-rule="nonzero" group-id="8,44" id="Rectangle" node-id="210" stroke="none" target-height="11.614624" target-width="15.515045" target-x="364.79257" target-y="270.14377"></path><path d="M 411.34 270.14 L 434.61 270.14 L 434.61 281.76 L 411.34 281.76 Z" fill="#ffcc4f" fill-rule="nonzero" group-id="8,44" id="Rectangle" node-id="211" stroke="none" target-height="11.614624" target-width="23.272583" target-x="411.3368" target-y="270.14377"></path></g></g><g node-id="278"><g node-id="314"><path d="M 418.21 378.72 L 418.21 378.72 C 419.38 379.13 420.66 378.52 421.07 377.35 L 462.60 260.04 C 463.01 258.88 462.40 257.60 461.23 257.19 L 461.23 257.19 C 460.06 256.78 458.78 257.39 458.37 258.55 L 416.84 375.86 C 416.43 377.03 417.04 378.31 418.21 378.72 Z" fill="#183168" fill-rule="nonzero" group-id="9,45" id="Path" node-id="214" stroke="none" target-height="122.35388" target-width="46.57846" target-x="416.43036" target-y="256.77563"></path><path d="M 448.96 378.72 L 448.96 378.72 C 450.13 379.13 451.41 378.52 451.82 377.35 L 493.35 260.04 C 493.76 258.88 493.15 257.60 491.98 257.19 L 491.98 257.19 C 490.81 256.78 489.53 257.39 489.12 258.55 L 447.59 375.86 C 447.18 377.03 447.79 378.31 448.96 378.72 Z" fill="#183168" fill-rule="nonzero" group-id="9,45" id="Path" node-id="215" stroke="none" target-height="122.35388" target-width="46.57846" target-x="447.18207" target-y="256.77563"></path><g node-id="319"><path d="M 488.01 272.74 L 455.35 272.74 L 455.35 268.69 L 488.01 268.69 Z" fill="#183168" fill-rule="nonzero" group-id="9,45,50" id="Rectangle" node-id="216" stroke="none" target-height="4.0466003" target-width="32.657074" target-x="455.3523" target-y="268.68945"></path></g><g node-id="320"><path d="M 479.45 297.24 L 446.79 297.24 L 446.79 293.19 L 479.45 293.19 Z" fill="#183168" fill-rule="nonzero" group-id="9,45,51" id="Rectangle" node-id="217" stroke="none" target-height="4.0466003" target-width="32.657074" target-x="446.79388" target-y="293.19385"></path></g><g node-id="321"><path d="M 470.89 321.74 L 438.24 321.74 L 438.24 317.70 L 470.89 317.70 Z" fill="#183168" fill-rule="nonzero" group-id="9,45,52" id="Rectangle" node-id="218" stroke="none" target-height="4.0466003" target-width="32.657074" target-x="438.23547" target-y="317.69824"></path></g><g node-id="322"><path d="M 462.33 346.25 L 429.68 346.25 L 429.68 342.20 L 462.33 342.20 Z" fill="#183168" fill-rule="nonzero" group-id="9,45,53" id="Rectangle" node-id="219" stroke="none" target-height="4.0466003" target-width="32.657074" target-x="429.67706" target-y="342.20267"></path></g><path d="M 453.78 370.75 L 421.12 370.75 L 421.12 366.71 L 453.78 366.71 Z" fill="#183168" fill-rule="nonzero" group-id="9,45,54" id="Rectangle" node-id="220" stroke="none" target-height="4.04657" target-width="32.657104" target-x="421.11865" target-y="366.7071"></path></g><g node-id="315"><path d="M 551.92 378.72 L 551.92 378.72 C 550.75 379.13 549.47 378.52 549.06 377.35 L 507.54 260.04 C 507.12 258.88 507.74 257.60 508.90 257.19 L 508.90 257.19 C 510.07 256.78 511.35 257.39 511.76 258.55 L 553.29 375.86 C 553.70 377.03 553.09 378.31 551.92 378.72 Z" fill="#224380" fill-rule="nonzero" group-id="9,46" id="Path" node-id="222" stroke="none" target-height="122.35388" target-width="46.577576" target-x="507.12244" target-y="256.77563"></path><path d="M 521.17 378.72 L 521.17 378.72 C 520.00 379.13 518.72 378.52 518.31 377.35 L 476.78 260.04 C 476.37 258.88 476.98 257.60 478.15 257.19 L 478.15 257.19 C 479.32 256.78 480.60 257.39 481.01 258.55 L 522.54 375.86 C 522.95 377.03 522.34 378.31 521.17 378.72 Z" fill="#224380" fill-rule="nonzero" group-id="9,46" id="Path" node-id="223" stroke="none" target-height="122.35388" target-width="46.57846" target-x="476.36984" target-y="256.77563"></path><path d="M 482.12 268.69 L 514.78 268.69 L 514.78 272.74 L 482.12 272.74 Z" fill="#224380" fill-rule="nonzero" group-id="9,46" id="Rectangle" node-id="224" stroke="none" target-height="4.0466003" target-width="32.657043" target-x="482.1211" target-y="268.6888"></path><path d="M 490.68 293.19 L 523.34 293.19 L 523.34 297.24 L 490.68 297.24 Z" fill="#224380" fill-rule="nonzero" group-id="9,46" id="Rectangle" node-id="225" stroke="none" target-height="4.0466003" target-width="32.657043" target-x="490.6795" target-y="293.19324"></path><path d="M 499.24 317.70 L 531.89 317.70 L 531.89 321.74 L 499.24 321.74 Z" fill="#224380" fill-rule="nonzero" group-id="9,46" id="Rectangle" node-id="226" stroke="none" target-height="4.0466003" target-width="32.657043" target-x="499.2379" target-y="317.69763"></path><path d="M 507.80 342.20 L 540.45 342.20 L 540.45 346.25 L 507.80 346.25 Z" fill="#224380" fill-rule="nonzero" group-id="9,46" id="Rectangle" node-id="227" stroke="none" target-height="4.046631" target-width="32.657074" target-x="507.7963" target-y="342.20203"></path><path d="M 516.35 366.71 L 549.01 366.71 L 549.01 370.75 L 516.35 370.75 Z" fill="#224380" fill-rule="nonzero" group-id="9,46" id="Rectangle" node-id="228" stroke="none" target-height="4.0466003" target-width="32.657043" target-x="516.35474" target-y="366.70645"></path></g><path d="M 514.27 260.43 L 457.33 260.43 C 455.27 260.43 453.59 258.76 453.59 256.70 L 453.59 256.70 C 453.59 254.64 455.27 252.97 457.33 252.97 L 514.27 252.97 C 516.33 252.97 518.01 254.64 518.01 256.70 L 518.01 256.70 C 518.01 258.76 516.33 260.43 514.27 260.43 Z" fill="#224380" fill-rule="nonzero" group-id="9" id="Path" node-id="229" stroke="none" target-height="7.4655304" target-width="64.41327" target-x="453.5937" target-y="252.96822"></path></g><g node-id="279"><path d="M 535.74 123.06 L 554.77 142.05 L 554.77 155.54 L 535.74 136.55 L 516.71 155.54 L 516.71 142.05 Z" fill="#f3f9ff" fill-rule="nonzero" group-id="10" id="Path" node-id="231" stroke="none" target-height="32.476204" target-width="38.053406" target-x="516.7124" target-y="123.06158"></path><path d="M 535.74 99.32 L 554.77 118.31 L 554.77 131.80 L 535.74 112.81 L 516.71 131.80 L 516.71 118.31 Z" fill="#e7f4fe" fill-rule="nonzero" group-id="10" id="Path" node-id="232" stroke="none" target-height="32.476196" target-width="38.053406" target-x="516.7124" target-y="99.32153"></path><path d="M 535.74 75.58 L 554.77 94.57 L 554.77 108.06 L 535.74 89.07 L 516.71 108.06 L 516.71 94.57 Z" fill="#dceefd" fill-rule="nonzero" group-id="10" id="Path" node-id="233" stroke="none" target-height="32.476204" target-width="38.053406" target-x="516.7124" target-y="75.581474"></path><path d="M 535.74 51.84 L 554.77 70.83 L 554.77 84.32 L 535.74 65.33 L 516.71 84.32 L 516.71 70.83 Z" fill="#d0e7fe" fill-rule="nonzero" group-id="10" id="Path" node-id="234" stroke="none" target-height="32.477104" target-width="38.053406" target-x="516.7124" target-y="51.841423"></path></g><g node-id="280"><path d="M 89.36 135.98 C 87.85 135.98 86.30 135.95 84.76 135.88 C 84.45 135.87 84.22 135.61 84.23 135.31 C 84.24 135.01 84.53 134.76 84.80 134.78 C 86.33 134.85 87.87 134.88 89.36 134.88 L 90.27 134.88 C 90.27 134.88 90.28 134.88 90.28 134.88 C 90.58 134.88 90.82 135.12 90.83 135.42 C 90.83 135.72 90.58 135.97 90.28 135.97 L 89.36 135.98 Z M 95.77 135.78 C 95.48 135.78 95.24 135.55 95.22 135.26 C 95.20 134.96 95.43 134.70 95.74 134.68 C 97.56 134.56 99.39 134.39 101.17 134.16 C 101.48 134.13 101.75 134.34 101.79 134.64 C 101.83 134.94 101.61 135.21 101.31 135.25 C 99.51 135.48 97.66 135.65 95.81 135.77 C 95.79 135.77 95.78 135.78 95.77 135.78 Z M 79.29 135.52 C 79.28 135.52 79.26 135.52 79.25 135.52 C 77.44 135.35 75.59 135.15 73.76 134.90 C 73.46 134.86 73.25 134.58 73.29 134.28 C 73.33 133.98 73.60 133.77 73.90 133.81 C 75.72 134.06 77.55 134.26 79.34 134.42 C 79.65 134.45 79.87 134.72 79.84 135.02 C 79.82 135.30 79.58 135.52 79.29 135.52 Z M 106.67 134.39 C 106.41 134.39 106.18 134.21 106.13 133.95 C 106.07 133.65 106.27 133.37 106.56 133.31 C 108.37 132.96 110.16 132.55 111.88 132.08 C 112.17 132.00 112.48 132.17 112.55 132.47 C 112.63 132.76 112.46 133.06 112.17 133.14 C 110.42 133.61 108.61 134.03 106.77 134.38 C 106.74 134.39 106.70 134.39 106.67 134.39 Z M 68.40 134.06 C 68.37 134.06 68.33 134.06 68.30 134.06 C 66.52 133.75 64.70 133.39 62.88 133.00 C 62.59 132.94 62.40 132.65 62.46 132.35 C 62.52 132.06 62.82 131.86 63.11 131.93 C 64.91 132.31 66.72 132.67 68.49 132.97 C 68.79 133.03 68.99 133.31 68.94 133.61 C 68.89 133.88 68.66 134.06 68.40 134.06 Z M 57.64 131.77 C 57.60 131.77 57.55 131.77 57.51 131.76 C 56.58 131.53 55.63 131.28 54.69 131.03 C 54.39 130.95 54.22 130.65 54.30 130.36 C 54.38 130.06 54.68 129.89 54.97 129.97 C 55.91 130.22 56.85 130.46 57.78 130.69 C 58.07 130.77 58.25 131.06 58.18 131.36 C 58.11 131.61 57.89 131.77 57.64 131.77 Z M 117.27 131.52 C 117.04 131.52 116.83 131.38 116.75 131.16 C 116.65 130.87 116.80 130.56 117.08 130.46 C 118.81 129.84 120.51 129.15 122.13 128.41 C 122.41 128.28 122.73 128.41 122.86 128.68 C 122.99 128.96 122.86 129.28 122.59 129.41 C 120.94 130.16 119.21 130.86 117.45 131.49 C 117.39 131.51 117.33 131.52 117.27 131.52 Z M 127.24 126.94 C 127.05 126.94 126.87 126.85 126.77 126.67 C 126.62 126.41 126.71 126.07 126.97 125.92 C 128.56 125.00 130.09 124.01 131.53 122.96 C 131.77 122.79 132.12 122.84 132.30 123.08 C 132.47 123.33 132.42 123.67 132.18 123.85 C 130.71 124.92 129.14 125.93 127.52 126.87 C 127.43 126.92 127.34 126.94 127.24 126.94 Z M 136.10 120.48 C 135.95 120.48 135.80 120.42 135.70 120.30 C 135.59 120.18 135.54 120.03 135.55 119.88 C 134.93 119.82 134.33 119.73 133.74 119.62 C 133.44 119.57 133.24 119.29 133.29 118.99 C 133.35 118.69 133.63 118.49 133.93 118.54 C 134.73 118.68 135.56 118.79 136.42 118.87 C 137.51 117.81 138.53 116.72 139.45 115.60 C 139.65 115.37 139.99 115.33 140.23 115.53 C 140.46 115.72 140.50 116.06 140.30 116.30 C 139.55 117.20 138.74 118.10 137.88 118.97 C 138.35 118.99 138.83 119.00 139.31 119.00 C 139.61 119.00 139.86 119.25 139.85 119.55 C 139.85 119.85 139.61 120.10 139.30 120.10 C 139.30 120.10 139.30 120.10 139.30 120.10 C 138.46 120.09 137.63 120.06 136.82 120.00 C 136.71 120.11 136.59 120.22 136.47 120.33 C 136.37 120.43 136.23 120.48 136.10 120.48 Z M 144.79 119.76 C 144.52 119.76 144.28 119.56 144.24 119.28 C 144.21 118.98 144.42 118.71 144.72 118.67 C 146.44 118.46 148.25 118.15 150.09 117.74 C 150.39 117.68 150.68 117.86 150.74 118.16 C 150.81 118.46 150.62 118.75 150.33 118.82 C 148.45 119.23 146.61 119.55 144.86 119.76 C 144.84 119.76 144.81 119.76 144.79 119.76 Z M 128.57 118.10 C 128.50 118.10 128.43 118.08 128.36 118.05 C 126.55 117.27 124.93 116.27 123.56 115.08 C 123.33 114.88 123.31 114.53 123.51 114.30 C 123.71 114.07 124.06 114.05 124.29 114.25 C 125.57 115.37 127.09 116.31 128.79 117.04 C 129.07 117.16 129.20 117.49 129.08 117.77 C 128.99 117.97 128.79 118.10 128.57 118.10 Z M 155.53 117.44 C 155.29 117.44 155.07 117.28 155.00 117.05 C 154.91 116.76 155.08 116.45 155.37 116.36 C 157.14 115.84 158.90 115.31 160.63 114.78 C 160.92 114.69 161.23 114.85 161.32 115.14 C 161.41 115.43 161.24 115.74 160.95 115.83 C 159.22 116.36 157.46 116.89 155.68 117.42 C 155.63 117.43 155.58 117.44 155.53 117.44 Z M 166.04 114.21 C 165.81 114.21 165.59 114.07 165.52 113.83 C 165.43 113.54 165.59 113.23 165.88 113.14 C 167.65 112.58 169.40 112.02 171.11 111.46 C 171.40 111.36 171.71 111.52 171.80 111.81 C 171.90 112.09 171.74 112.40 171.45 112.50 C 169.73 113.06 167.99 113.62 166.21 114.19 C 166.15 114.21 166.10 114.21 166.04 114.21 Z M 143.04 112.01 C 142.94 112.01 142.85 111.99 142.76 111.94 C 142.50 111.78 142.41 111.45 142.56 111.19 C 143.51 109.57 144.27 107.93 144.83 106.32 C 144.92 106.03 145.24 105.87 145.52 105.97 C 145.81 106.07 145.96 106.38 145.87 106.67 C 145.29 108.35 144.50 110.06 143.51 111.74 C 143.41 111.92 143.23 112.01 143.04 112.01 Z M 120.53 110.94 C 120.33 110.94 120.14 110.83 120.05 110.64 C 119.16 108.95 118.62 107.12 118.44 105.21 C 118.41 104.90 118.64 104.64 118.94 104.61 C 119.25 104.58 119.51 104.80 119.54 105.11 C 119.70 106.87 120.20 108.57 121.02 110.13 C 121.16 110.40 121.06 110.74 120.79 110.88 C 120.71 110.92 120.62 110.94 120.53 110.94 Z M 176.50 110.79 C 176.27 110.79 176.06 110.65 175.98 110.42 C 175.88 110.13 176.03 109.82 176.32 109.72 C 178.10 109.12 179.84 108.53 181.52 107.94 C 181.81 107.84 182.12 107.99 182.22 108.28 C 182.32 108.57 182.17 108.88 181.88 108.98 C 180.20 109.57 178.46 110.16 176.68 110.76 C 176.62 110.78 176.56 110.79 176.50 110.79 Z M 186.89 107.19 C 186.67 107.19 186.45 107.05 186.37 106.82 C 186.27 106.54 186.42 106.22 186.71 106.12 C 188.50 105.48 190.23 104.85 191.87 104.25 C 192.16 104.15 192.48 104.29 192.58 104.58 C 192.68 104.86 192.54 105.18 192.25 105.28 C 190.60 105.89 188.88 106.51 187.08 107.15 C 187.02 107.17 186.95 107.19 186.89 107.19 Z M 197.22 103.40 C 197.00 103.40 196.79 103.27 196.71 103.05 C 196.60 102.76 196.74 102.45 197.03 102.34 C 198.89 101.64 200.60 100.99 202.16 100.38 C 202.45 100.27 202.77 100.41 202.88 100.70 C 202.99 100.98 202.84 101.30 202.56 101.41 C 201.00 102.01 199.28 102.67 197.42 103.37 C 197.35 103.39 197.29 103.40 197.22 103.40 Z M 146.42 101.68 C 146.41 101.68 146.40 101.68 146.39 101.68 C 146.09 101.66 145.85 101.41 145.87 101.10 C 145.88 100.88 145.88 100.65 145.88 100.42 C 145.88 98.79 145.60 97.29 145.06 95.96 C 144.94 95.68 145.07 95.36 145.35 95.25 C 145.63 95.13 145.96 95.26 146.07 95.54 C 146.68 97.00 146.98 98.64 146.98 100.42 C 146.98 100.67 146.98 100.91 146.96 101.15 C 146.95 101.45 146.71 101.68 146.42 101.68 Z M 119.53 100.28 C 119.48 100.28 119.43 100.27 119.38 100.25 C 119.09 100.17 118.92 99.86 119.01 99.57 C 119.56 97.72 120.45 96.03 121.66 94.56 C 121.85 94.32 122.20 94.29 122.43 94.48 C 122.67 94.67 122.70 95.02 122.51 95.25 C 121.40 96.61 120.57 98.17 120.06 99.88 C 119.99 100.12 119.77 100.28 119.53 100.28 Z M 207.49 99.43 C 207.27 99.43 207.06 99.30 206.98 99.09 C 206.86 98.81 207.00 98.49 207.28 98.38 C 210.55 97.08 212.37 96.31 212.38 96.31 C 212.66 96.19 212.98 96.32 213.10 96.60 C 213.22 96.88 213.08 97.20 212.80 97.32 C 212.80 97.32 210.97 98.09 207.69 99.40 C 207.62 99.42 207.56 99.43 207.49 99.43 Z M 142.15 92.10 C 142.05 92.10 141.94 92.07 141.85 92.01 C 140.50 91.10 138.85 90.52 136.95 90.28 C 136.65 90.24 136.44 89.97 136.48 89.67 C 136.52 89.37 136.79 89.16 137.09 89.19 C 139.16 89.46 140.97 90.10 142.46 91.10 C 142.71 91.27 142.78 91.61 142.61 91.86 C 142.50 92.02 142.33 92.10 142.15 92.10 Z M 126.31 92.01 C 126.12 92.01 125.93 91.90 125.83 91.72 C 125.69 91.45 125.79 91.12 126.06 90.97 C 127.35 90.30 128.77 89.81 130.27 89.52 C 130.68 89.44 131.07 89.37 131.46 89.32 C 131.76 89.27 132.04 89.48 132.09 89.78 C 132.13 90.08 131.92 90.36 131.62 90.40 C 131.25 90.46 130.87 90.52 130.48 90.60 C 129.09 90.86 127.77 91.32 126.57 91.95 C 126.49 91.99 126.40 92.01 126.31 92.01 Z" fill="#dae7ff" fill-rule="nonzero" group-id="11" id="Shape" node-id="236" stroke="none" target-height="46.81646" target-width="158.9972" target-x="54.217873" target-y="89.16276"></path><g node-id="316"><path d="M 193.64 75.20 L 209.88 83.30 L 258.61 61.69 Z" fill="#60dfa0" fill-rule="nonzero" group-id="11,47" id="Path" node-id="238" stroke="none" target-height="21.616035" target-width="64.9664" target-x="193.64243" target-y="61.686348"></path><path d="M 212.59 96.81 L 209.88 83.30 L 258.61 61.69 Z" fill="#45d48f" fill-rule="nonzero" group-id="11,47" id="Path" node-id="239" stroke="none" target-height="35.12539" target-width="48.72435" target-x="209.88448" target-y="61.686348"></path><path d="M 212.59 96.81 L 218.01 86.00 L 231.54 83.30 Z" fill="#1eaf69" fill-rule="nonzero" group-id="11,47" id="Path" node-id="240" stroke="none" target-height="13.509354" target-width="18.949219" target-x="212.59073" target-y="83.30238"></path><path d="M 218.01 86.00 L 231.54 91.41 L 258.61 61.69 Z" fill="#60dfa0" fill-rule="nonzero" group-id="11,47" id="Path" node-id="241" stroke="none" target-height="29.721825" target-width="40.603775" target-x="218.00505" target-y="61.686348"></path></g></g><g node-id="281"><path d="M 452.86 92.51 C 452.86 92.51 450.81 87.61 450.29 86.64 C 449.76 85.68 451.99 78.06 450.91 77.90 C 449.82 77.75 448.89 82.57 448.89 82.57 C 448.89 82.57 446.34 74.61 445.30 74.28 C 444.26 73.95 441.10 79.39 441.50 82.09 C 441.90 84.80 445.16 89.22 446.18 90.48 C 447.19 91.74 448.88 96.36 448.88 96.36 L 452.86 92.51 Z" fill="#f1b282" fill-rule="nonzero" group-id="12" id="Path" node-id="243" stroke="none" target-height="22.413666" target-width="11.756561" target-x="441.0993" target-y="73.94665"></path><path d="M 451.43 88.44 C 451.43 88.44 464.42 118.08 474.42 126.77 L 462.10 128.95 C 462.10 128.95 450.82 107.87 446.08 91.15 L 451.43 88.44 Z" fill="#1277d7" fill-rule="nonzero" group-id="12" id="Path" node-id="244" stroke="none" target-height="40.50376" target-width="28.339142" target-x="446.0848" target-y="88.44247"></path><g node-id="317"><g node-id="324"><path d="M 377.98 102.71 L 467.09 75.84 L 470.45 86.96 L 381.34 113.83 Z" fill="#ffd670" fill-rule="nonzero" group-id="12,48,55" id="Rectangle" node-id="246" stroke="none" target-height="37.98181" target-width="92.47836" target-x="377.9751" target-y="75.84383"></path></g><g node-id="325"><path d="M 381.34 113.83 L 470.45 86.96 L 471.57 90.67 L 382.46 117.53 Z" fill="#ffc22c" fill-rule="nonzero" group-id="12,48,56" id="Rectangle" node-id="247" stroke="none" target-height="30.569061" target-width="90.23566" target-x="381.33905" target-y="86.96298"></path></g><g node-id="326"><path d="M 389.11 99.35 L 403.97 94.87 L 407.33 105.99 L 392.48 110.47 Z" fill="#ffeab6" fill-rule="nonzero" group-id="12,48,57" id="Rectangle" node-id="248" stroke="none" target-height="15.595924" target-width="18.216461" target-x="389.11472" target-y="94.87177"></path></g><path d="M 433.67 85.92 L 455.95 79.20 L 459.31 90.32 L 437.04 97.04 Z" fill="#ffcc4f" fill-rule="nonzero" group-id="12,48,58" id="Rectangle" node-id="249" stroke="none" target-height="17.834541" target-width="25.64273" target-x="433.6712" target-y="79.201225"></path></g><g node-id="318"><path d="M 473.35 95.79 C 469.41 95.87 469.95 101.77 469.12 102.64 C 467.63 104.17 466.66 105.86 466.52 106.88 C 466.31 108.45 468.30 106.88 467.47 111.49 C 466.63 116.09 472.61 115.41 472.83 117.30 C 473.05 119.18 470.56 127.96 470.56 127.96 L 481.71 127.73 C 481.71 127.73 480.87 120.25 481.46 111.72 C 482.06 103.20 486.99 95.49 473.35 95.79 Z" fill="#f1b282" fill-rule="nonzero" group-id="12,49" id="Path" node-id="251" stroke="none" target-height="32.465416" target-width="20.677124" target-x="466.30786" target-y="95.491646"></path><path d="M 494.34 91.14 C 494.34 91.14 491.93 96.86 491.77 99.29 C 491.61 101.72 486.54 98.59 486.54 98.59 C 486.54 98.59 487.64 91.06 494.34 91.14 Z" fill="#03193f" fill-rule="nonzero" group-id="12,49" id="Path" node-id="252" stroke="none" target-height="10.664139" target-width="7.7962646" target-x="486.54355" target-y="91.06017"></path><path d="M 481.55 117.46 C 480.51 118.36 480.38 112.81 478.85 111.95 C 477.33 111.09 475.15 110.31 475.34 109.44 C 475.54 108.56 477.67 107.95 477.99 106.85 C 478.30 105.74 470.14 103.67 471.22 96.87 C 472.30 90.07 490.38 90.77 489.81 101.08 C 489.25 111.38 484.98 114.48 481.55 117.46 Z" fill="#0b224e" fill-rule="nonzero" group-id="12,49" id="Path" node-id="253" stroke="none" target-height="28.291122" target-width="20.235657" target-x="470.14294" target-y="90.06921"></path><path d="M 502.96 103.74 C 501.97 112.59 487.96 115.33 488.73 102.69 C 489.49 90.04 504.19 92.79 502.96 103.74 Z" fill="#0b224e" fill-rule="nonzero" group-id="12,49" id="Path" node-id="254" stroke="none" target-height="25.290352" target-width="16.232117" target-x="487.95615" target-y="90.04133"></path></g><path d="M 437.39 104.69 C 437.39 104.69 434.47 100.33 433.75 99.52 C 433.02 98.70 432.56 90.98 431.47 91.07 C 430.38 91.16 430.56 96.06 430.56 96.06 C 430.56 96.06 426.28 88.89 425.19 88.80 C 424.10 88.71 421.73 95.79 422.73 98.34 C 423.74 100.88 428.29 103.32 429.57 104.32 C 430.84 105.32 434.03 109.14 434.03 109.14 L 437.39 104.69 Z" fill="#f1b282" fill-rule="nonzero" group-id="12" id="Path" node-id="255" stroke="none" target-height="20.429932" target-width="15.652863" target-x="421.733" target-y="88.70685"></path><path d="M 528.13 224.04 L 532.31 228.04 L 528.48 232.96 L 523.37 228.41 Z" fill="#f1b282" fill-rule="nonzero" group-id="12" id="Path" node-id="256" stroke="none" target-height="8.922302" target-width="8.938599" target-x="523.37085" target-y="224.04042"></path><path d="M 528.71 224.23 C 525.85 221.41 510.86 206.74 501.45 199.71 C 496.66 187.48 486.44 163.83 486.44 163.83 C 465.69 156.02 471.33 176.55 472.24 179.27 C 473.15 181.99 489.66 207.46 491.63 209.43 C 494.95 212.73 520.18 227.42 524.24 229.78 C 524.55 229.96 524.95 229.89 525.19 229.60 L 528.77 225.23 C 529.01 224.93 528.99 224.50 528.71 224.23 Z" fill="#0b224e" fill-rule="nonzero" group-id="12" id="Path" node-id="257" stroke="none" target-height="73.94397" target-width="63.322296" target-x="465.68716" target-y="156.01617"></path><path d="M 473.89 238.63 L 480.60 238.63 L 480.60 245.99 L 473.89 245.99 Z" fill="#f1b282" fill-rule="nonzero" group-id="12" id="Rectangle" node-id="258" stroke="none" target-height="7.3576355" target-width="6.704376" target-x="473.89243" target-y="238.63066"></path><path d="M 489.71 162.01 C 482.98 156.38 472.06 161.47 469.69 167.01 C 467.33 172.56 469.18 198.53 469.00 202.23 C 468.82 205.93 473.55 242.71 473.55 242.71 L 480.94 242.71 C 480.94 242.71 483.26 220.99 482.38 205.62 C 485.39 198.86 490.59 186.55 491.37 180.54 C 492.48 172.00 489.71 162.01 489.71 162.01 Z" fill="#102b5e" fill-rule="nonzero" group-id="12" id="Path" node-id="259" stroke="none" target-height="86.32837" target-width="25.159027" target-x="467.32587" target-y="156.37857"></path><path d="M 485.89 146.93 C 485.89 142.74 486.49 125.28 482.25 121.50 C 478.79 118.41 468.23 123.86 462.23 122.41 C 456.22 120.95 436.37 102.42 436.37 102.42 L 431.45 106.96 C 440.90 119.40 455.44 129.47 463.61 134.56 C 461.92 136.60 460.14 139.24 460.28 141.14 C 460.55 144.66 466.69 146.49 466.82 151.32 C 466.96 156.15 463.49 167.76 466.78 170.77 C 470.07 173.79 489.68 174.62 493.69 171.35 C 497.69 168.08 485.89 156.18 485.89 146.93 Z" fill="#1b90fb" fill-rule="nonzero" group-id="12" id="Path" node-id="260" stroke="none" target-height="72.19853" target-width="66.2475" target-x="431.44632" target-y="102.42212"></path><path d="M 483.01 154.81 C 484.69 159.88 490.08 163.82 493.58 165.94 C 491.35 160.75 485.89 153.23 485.89 146.93 C 485.89 145.61 485.95 142.99 485.90 139.90 C 484.58 141.93 480.90 148.40 483.01 154.81 Z" fill="#1277d7" fill-rule="nonzero" group-id="12" id="Path" node-id="261" stroke="none" target-height="26.042114" target-width="12.688049" target-x="480.89502" target-y="139.89633"></path><path d="M 480.76 245.18 C 481.43 245.12 482.11 246.21 481.99 248.84 C 481.87 251.47 482.30 252.87 480.22 253.07 C 478.98 253.19 467.15 252.97 463.31 252.87 C 463.06 252.87 462.83 252.73 462.67 252.51 C 462.51 252.28 462.44 251.99 462.49 251.70 C 462.69 250.42 463.59 248.49 467.18 248.11 C 469.81 247.61 472.37 244.98 473.54 244.95 C 474.70 244.92 475.19 246.11 477.09 245.99 C 478.99 245.87 479.60 245.28 480.76 245.18 Z" fill="#0b224e" fill-rule="nonzero" group-id="12" id="Path" node-id="262" stroke="none" target-height="8.273041" target-width="19.85913" target-x="462.4449" target-y="244.91908"></path><path d="M 530.41 226.52 C 530.81 225.98 532.08 226.18 533.99 228.00 C 535.90 229.81 537.25 230.41 536.03 232.11 C 535.31 233.12 527.38 241.89 524.79 244.71 C 524.62 244.90 524.36 244.99 524.09 244.96 C 523.81 244.93 523.55 244.79 523.36 244.56 C 522.52 243.57 521.65 241.63 523.72 238.68 C 525.07 236.37 524.76 232.71 525.50 231.82 C 526.24 230.92 527.47 231.33 528.62 229.82 C 529.77 228.31 529.73 227.47 530.41 226.52 Z" fill="#0b224e" fill-rule="nonzero" group-id="12" id="Path" node-id="263" stroke="none" target-height="19.011826" target-width="15.593445" target-x="521.65283" target-y="225.97829"></path></g></svg>