<?xml version="1.0" standalone="no"?><!DOCTYPE svg PUBLIC "-//W3C//DTD SVG 1.1//EN" "http://www.w3.org/Graphics/SVG/1.1/DTD/svg11.dtd"><svg height="600" node-id="1" sillyvg="true" template-height="600" template-width="405" version="1.1" viewBox="0 0 405 600" width="405" xmlns="http://www.w3.org/2000/svg" xmlns:xlink="http://www.w3.org/1999/xlink"><defs node-id="49"><linearGradient gradientUnits="objectBoundingBox" id="XMLID_4_" node-id="10" spreadMethod="pad" x1="196.6809" x2="332.6756" y1="340.4249" y2="340.4249"><stop offset="0" stop-color="#0e5796"></stop><stop offset="1" stop-color="#533693"></stop></linearGradient><linearGradient gradientUnits="objectBoundingBox" id="XMLID_5_" node-id="15" spreadMethod="pad" x1="154.1625" x2="264.2621" y1="409.9611" y2="409.9611"><stop offset="0" stop-color="#0e5796"></stop><stop offset="1" stop-color="#533693"></stop></linearGradient><linearGradient gradientUnits="objectBoundingBox" id="XMLID_6_" node-id="20" spreadMethod="pad" x1="112.0915" x2="232.3413" y1="236.1293" y2="236.1293"><stop offset="0" stop-color="#fffaf5"></stop><stop offset="1" stop-color="#fffaf5"></stop></linearGradient></defs><path d="M 100.40 44.60 C 101.10 43.10 99.30 39.20 98.10 38.50 C 97.00 37.90 95.90 37.40 94.70 37.00 C 91.30 37.20 87.90 37.80 84.60 38.80 C 81.10 39.90 77.60 41.60 75.20 44.40 C 72.70 47.40 71.80 51.40 71.80 55.20 C 71.80 59.10 72.70 62.80 73.60 66.60 C 77.60 67.40 82.60 67.40 86.50 66.10 C 90.30 64.80 93.70 62.10 95.50 58.50 C 97.40 54.50 96.80 50.90 95.20 47.00 C 95.90 46.40 96.90 46.20 97.80 46.00 C 98.70 45.80 99.70 45.60 100.30 44.90 C 100.30 44.80 100.30 44.70 100.40 44.60 Z" fill="#ffe9f9" fill-rule="nonzero" node-id="71" stroke="none" target-height="30.400002" target-width="29.299995" target-x="71.8" target-y="37"></path><path d="M 252.90 66.60 C 251.90 62.50 250.90 58.30 250.90 54.10 C 250.90 49.90 251.90 45.50 254.60 42.20 C 257.20 39.10 261.00 37.30 264.90 36.00 C 273.00 33.50 281.80 33.20 290.00 35.20 C 291.00 35.50 292.30 36.00 292.30 37.10 C 292.30 38.00 291.40 38.60 290.70 39.00 C 286.10 41.40 281.30 43.40 276.40 44.90 C 279.00 48.50 278.90 53.60 277.00 57.60 C 275.10 61.60 271.30 64.60 267.10 66.00 C 262.80 67.50 257.20 67.50 252.90 66.60 Z" fill="#ffe9f9" fill-rule="nonzero" node-id="73" stroke="none" target-height="34.3" target-width="41.399994" target-x="250.9" target-y="33.2"></path><path d="M 324.20 361.60 L 322.10 407.20 C 322.10 407.20 316.60 416.80 305.20 409.40 L 298.70 349.90 L 324.20 361.60 Z" fill="#ffdcd4" fill-rule="nonzero" id="XMLID_1061_" node-id="5" stroke="none" target-height="66.899994" target-width="25.5" target-x="298.7" target-y="349.9"></path><path d="M 352.40 419.00 C 355.10 420.80 357.90 422.70 360.00 425.50 C 361.00 426.80 361.80 428.60 361.40 430.10 C 361.00 431.60 359.70 432.20 358.50 432.70 C 351.90 435.10 344.60 435.10 337.40 434.00 C 330.20 432.80 323.10 430.50 316.00 428.20 C 313.30 427.30 310.50 426.40 308.30 424.00 C 306.50 422.00 305.30 419.20 304.80 416.50 C 304.30 413.70 304.30 410.90 304.40 408.10 C 304.70 403.70 305.60 398.90 308.80 397.20 C 313.50 394.70 319.70 400.30 324.20 402.70 C 330.30 406.00 336.30 409.30 342.30 412.80 C 345.80 414.80 349.10 416.90 352.40 419.00 Z" fill="#ffe9f9" fill-rule="nonzero" node-id="76" stroke="none" target-height="40.399994" target-width="57.50003" target-x="304.3" target-y="394.7"></path><path d="M 358.60 432.70 C 359.80 432.30 361.10 431.60 361.50 430.10 C 361.90 428.50 361.00 426.80 360.10 425.50 C 358.00 422.70 355.20 420.80 352.50 419.00 C 349.20 416.90 345.90 414.90 342.60 412.90 C 341.30 412.10 339.90 411.40 338.60 410.60 C 337.10 411.90 336.40 414.30 335.90 416.60 C 335.30 419.30 334.70 422.30 332.70 423.70 C 331.50 424.60 329.90 424.60 328.40 424.50 C 319.80 423.90 311.10 418.90 304.70 411.00 C 304.70 412.80 304.80 414.70 305.20 416.50 C 305.70 419.30 306.90 422.10 308.70 424.00 C 310.90 426.30 313.70 427.30 316.40 428.20 C 323.50 430.50 330.60 432.80 337.80 434.00 C 344.70 435.10 351.90 435.10 358.60 432.70 Z" fill="#404249" fill-rule="nonzero" node-id="78" stroke="none" target-height="24.5" target-width="57.19998" target-x="304.7" target-y="410.6"></path><path d="M 186.60 177.10 C 189.50 175.00 193.00 171.60 194.00 166.70 C 194.70 163.00 193.50 160.80 192.90 156.70 C 192.70 155.00 192.60 153.60 192.70 152.30 C 193.10 146.10 194.80 141.50 195.90 138.20 C 199.20 128.30 197.60 117.70 194.40 111.20 C 193.30 108.90 191.40 105.00 187.70 103.40 C 183.60 101.70 182.90 101.60 182.90 101.60 C 182.20 101.50 180.50 101.30 179.20 100.10 C 179.00 100.00 178.90 99.80 178.90 99.80 C 178.90 99.80 178.90 99.80 178.90 99.80 C 178.80 99.70 174.00 95.20 164.50 95.70 C 152.60 96.30 144.40 104.30 142.30 106.40 C 140.90 107.90 138.20 110.60 136.20 115.00 C 133.30 121.30 134.20 128.40 132.60 135.00 C 130.90 142.00 127.40 150.00 119.40 151.30 C 112.00 152.40 105.30 152.20 98.00 154.70 C 84.00 159.50 75.00 166.90 72.80 168.80 C 64.20 176.10 66.10 178.10 58.60 184.60 C 46.10 195.30 37.00 191.00 28.40 200.90 C 27.30 202.20 21.00 209.30 21.30 218.00 C 21.40 223.10 23.60 224.30 24.70 233.30 C 25.10 236.60 25.50 240.10 24.90 244.70 C 24.00 251.80 21.90 253.20 21.70 257.70 C 21.50 265.30 27.20 270.80 27.90 271.40 C 37.40 280.30 58.80 279.10 71.90 270.10 C 85.00 261.10 81.50 250.10 93.60 245.10 C 103.80 240.80 108.90 247.80 124.60 243.90 C 128.70 242.90 139.40 240.20 146.70 232.10 C 157.00 220.70 151.10 209.00 160.90 202.90 C 166.80 199.20 170.90 202.70 177.00 199.00 C 184.00 194.80 186.00 185.00 186.60 177.10 Z" fill="#26120f" fill-rule="nonzero" id="XMLID_1060_" node-id="8" stroke="none" target-height="185.09999" target-width="178.2" target-x="21" target-y="95.2"></path><g node-id="139"><path d="M 175.80 195.30 C 174.20 194.90 172.70 194.20 171.30 193.40 C 165.10 198.20 158.00 202.10 150.90 204.80 C 139.80 208.90 126.90 200.20 123.90 189.50 C 121.80 181.70 124.10 174.50 129.00 169.30 C 125.90 167.20 123.10 164.40 120.90 160.90 C 119.30 158.40 118.20 155.60 117.50 152.70 C 117.20 155.80 116.40 159.00 115.10 162.00 C 116.20 159.40 116.20 165.40 115.40 162.50 C 116.10 164.80 116.60 167.20 117.40 169.50 C 118.90 174.00 120.90 178.30 122.20 182.90 C 126.10 197.20 123.50 211.80 113.30 222.90 C 107.50 229.30 100.10 233.30 92.30 236.60 C 87.00 238.90 80.00 240.70 76.60 245.80 C 72.20 252.30 73.20 261.30 73.80 268.90 C 84.60 260.20 82.10 250.10 93.60 245.40 C 103.80 241.10 108.90 248.10 124.60 244.20 C 128.70 243.20 139.40 240.50 146.70 232.40 C 157.00 221.00 151.10 209.30 160.90 203.20 C 166.80 199.50 170.90 203.00 177.00 199.30 C 178.40 198.40 179.50 197.30 180.50 196.10 C 178.80 196.00 177.30 195.70 175.80 195.30 Z" fill="#633935" fill-opacity="0.49" fill-rule="nonzero" group-id="1" node-id="83" stroke="none" target-height="116.2" target-width="108.30002" target-x="72.2" target-y="152.7"></path></g><path d="M 324.90 392.50 C 324.90 392.50 312.60 404.20 305.90 397.70 C 299.20 391.30 295.70 394.80 296.40 385.20 C 297.10 375.60 294.70 379.50 293.20 368.20 C 291.70 356.90 296.80 355.40 293.70 352.40 C 290.70 349.40 290.40 347.30 291.60 343.60 C 292.80 340.00 283.10 344.80 271.20 345.90 C 259.30 346.90 246.20 351.60 234.10 347.80 C 222.00 343.90 196.70 304.10 196.70 304.10 C 196.70 304.10 210.00 280.50 217.70 281.20 C 283.30 287.10 327.30 278.00 330.90 317.90 C 332.30 333.40 334.70 335.90 328.90 350.60 C 327.30 354.60 326.40 359.00 329.10 362.70 C 331.80 366.40 328.50 370.50 328.60 373.20 C 328.70 375.90 331.80 384.90 324.90 392.50 Z" fill="url(#XMLID_4_)" fill-rule="nonzero" id="XMLID_1059_" node-id="13" stroke="none" target-height="126.20001" target-width="138.00002" target-x="196.7" target-y="278"></path><path d="M 251.60 459.30 L 238.20 553.90 C 238.20 553.90 225.70 565.00 218.00 554.70 L 218.60 468.30 L 251.60 459.30 Z" fill="#ffe9f9" fill-rule="nonzero" id="XMLID_1058_" node-id="14" stroke="none" target-height="105.69998" target-width="33.60002" target-x="218" target-y="459.30002"></path><path d="M 213.90 285.30 C 175.70 308.80 168.60 309.90 154.10 311.90 C 159.90 372.70 184.40 357.80 213.50 426.80 C 220.60 443.70 206.70 473.20 211.90 490.70 C 212.50 492.70 213.30 494.70 213.20 496.80 C 213.00 500.40 210.10 504.00 211.50 507.30 C 212.60 509.80 215.80 511.30 216.10 514.00 C 216.30 516.40 214.20 518.20 212.90 520.20 C 209.00 526.30 215.20 534.10 222.30 534.60 C 228.70 535.00 237.50 534.00 244.70 533.70 C 250.80 533.40 254.50 520.00 252.20 514.20 C 250.10 508.80 245.70 502.60 249.10 498.00 C 250.10 496.70 251.60 495.80 252.30 494.40 C 254.90 489.60 247.50 483.60 250.00 478.80 C 251.00 477.00 253.00 476.10 254.50 474.60 C 257.90 471.00 256.70 465.30 257.10 460.40 C 257.90 450.40 261.50 443.50 263.50 433.70 C 265.00 426.40 263.00 418.80 261.00 411.60 C 249.40 370.40 230.80 324.50 213.90 285.30 Z" fill="url(#XMLID_5_)" fill-rule="nonzero" id="XMLID_1057_" node-id="18" stroke="none" target-height="249.70001" target-width="110.899994" target-x="154.1" target-y="285.3"></path><path d="M 174.90 155.30 C 174.00 159.30 173.30 164.10 173.00 169.40 C 172.80 173.00 172.80 176.30 173.00 179.30 C 167.60 181.20 159.20 188.70 148.00 180.20 C 146.20 177.60 144.30 173.60 145.30 169.50 C 145.60 168.40 145.90 167.70 146.10 167.30 C 147.50 164.50 149.20 159.60 150.80 150.10 C 152.80 151.60 156.70 154.20 162.20 155.40 C 167.80 156.60 172.40 155.90 174.90 155.30 Z" fill="#ffe9f9" fill-rule="nonzero" id="XMLID_1056_" node-id="19" stroke="none" target-height="38.59999" target-width="30.59999" target-x="144.3" target-y="150.1"></path><path d="M 191.10 159.80 C 191.10 159.80 179.40 160.70 172.90 166.30 C 172.90 174.40 167.40 178.90 159.50 176.60 C 153.50 174.90 148.10 168.10 147.70 163.80 C 147.70 163.80 115.40 154.20 112.40 169.00 C 107.30 193.80 163.10 225.90 147.40 303.50 C 144.80 323.60 222.00 307.30 232.30 281.70 C 232.30 281.70 233.00 194.00 191.10 159.80 Z" fill="url(#XMLID_6_)" fill-rule="nonzero" id="XMLID_1055_" node-id="23" stroke="none" target-height="169.40001" target-width="125.7" target-x="107.3" target-y="154.2"></path><path d="M 173.80 160.80 C 173.80 160.70 173.80 160.60 173.80 160.50 C 173.70 159.10 173.60 157.90 173.40 157.10 C 167.10 157.00 159.50 152.40 151.00 151.70 C 151.80 156.50 154.80 162.60 159.10 166.10 C 163.70 170.60 170.00 170.80 172.70 168.50 C 173.10 166.00 173.40 163.40 173.80 160.80 Z" fill="#ffe9f9" fill-rule="nonzero" node-id="91" stroke="none" target-height="19.100006" target-width="22.800003" target-x="151" target-y="151.7"></path><path d="M 188.40 122.00 C 191.80 129.90 189.90 137.20 187.70 145.30 C 184.60 156.90 179.60 161.90 178.50 163.10 C 174.90 166.70 172.20 167.30 171.10 167.50 C 166.70 168.30 163.00 166.30 160.00 164.50 C 158.40 163.60 150.90 159.00 147.10 150.80 C 140.30 136.20 146.00 112.60 160.30 108.10 C 167.30 105.90 176.30 108.40 182.20 113.50 C 185.90 116.80 187.70 120.40 188.40 122.00 Z" fill="#ffe9f9" fill-rule="nonzero" id="XMLID_1052_" node-id="25" stroke="none" target-height="62.4" target-width="51.500015" target-x="140.3" target-y="105.9"></path><path d="M 148.40 119.00 C 148.40 119.00 150.10 133.30 141.00 139.00 C 134.60 132.70 134.10 129.20 134.10 129.20 C 134.10 126.10 134.70 121.10 137.50 116.00 C 139.60 112.30 144.00 106.40 146.70 107.40 C 148.70 108.10 149.20 113.10 148.40 119.00 Z" fill="#26120f" fill-rule="nonzero" node-id="94" stroke="none" target-height="32.6" target-width="16" target-x="134.1" target-y="106.4"></path><path d="M 152.20 135.80 C 151.30 134.30 149.60 132.10 146.90 130.80 C 145.40 130.00 143.30 129.00 141.50 129.90 C 139.30 131.00 139.10 134.40 139.10 135.10 C 138.90 140.50 144.00 144.00 144.80 144.70 C 146.00 145.50 148.20 147.10 150.00 146.20 C 151.00 145.70 151.50 144.70 151.80 143.90 C 153.20 140.70 152.60 137.40 152.20 135.80 Z" fill="#ffe9f9" fill-rule="nonzero" id="XMLID_11_" node-id="27" stroke="none" target-height="18.100006" target-width="14.300003" target-x="138.9" target-y="129"></path><path d="M 92.40 73.20 C 97.00 88.70 98.00 105.30 95.40 121.30 C 111.40 137.90 130.00 162.00 141.50 176.30 C 144.00 179.40 141.70 187.90 140.90 191.80 C 140.10 195.70 137.70 199.50 134.00 201.00 C 128.00 203.60 132.90 209.80 127.70 206.00 C 104.40 189.10 75.40 151.40 60.80 126.60 C 62.30 108.70 61.60 96.60 66.20 79.30 C 67.40 75.00 68.70 70.60 71.40 67.00 C 74.10 63.40 78.10 60.60 82.60 60.50 C 87.10 60.40 91.20 68.90 92.40 73.20 Z" fill="#fffaf5" fill-rule="nonzero" node-id="97" stroke="none" target-height="149.4" target-width="83.2" target-x="60.8" target-y="60.4"></path><g node-id="140"><path d="M 237.60 552.30 C 237.60 552.30 268.40 558.50 279.90 562.90 C 285.20 564.90 286.50 567.70 282.90 570.30 C 277.80 574.10 231.40 587.30 224.20 579.60 C 217.00 571.90 217.90 563.40 218.10 549.50 C 224.30 547.00 237.60 552.30 237.60 552.30 Z" fill="#ffe9f9" fill-rule="nonzero" group-id="2" id="XMLID_2_" node-id="30" stroke="none" target-height="40.299988" target-width="69.5" target-x="217" target-y="547"></path><path d="M 254.60 556.00 C 253.70 557.10 253.10 558.40 252.60 559.70 C 251.70 562.20 251.00 564.90 249.20 566.80 C 247.20 568.90 244.20 569.70 241.30 570.00 C 233.30 570.90 225.10 569.00 218.20 564.80 C 218.70 570.60 220.10 575.20 224.20 579.60 C 231.40 587.30 277.80 574.10 282.90 570.30 C 286.40 567.70 285.20 564.90 279.90 562.90 C 274.20 560.70 263.70 558.10 254.60 556.00 Z" fill="#404249" fill-rule="nonzero" group-id="2" node-id="102" stroke="none" target-height="31.299988" target-width="68.2" target-x="218.2" target-y="556"></path></g><path d="M 188.50 164.00 C 193.70 147.80 211.60 125.80 224.30 114.50 C 230.60 92.10 241.80 73.40 250.30 65.70 C 253.70 62.70 258.50 60.30 262.70 61.90 C 268.40 64.10 268.80 72.00 267.70 78.10 C 263.70 101.20 256.00 121.70 241.00 145.00 C 233.90 156.10 209.30 190.00 205.90 191.80 C 202.40 193.60 198.20 178.30 194.70 176.60 C 191.20 175.00 187.40 167.70 188.50 164.00 Z" fill="#fffaf5" fill-rule="nonzero" node-id="105" stroke="none" target-height="133.3" target-width="81.399994" target-x="187.4" target-y="60.300003"></path><path d="M 146.50 111.80 C 141.50 116.40 137.80 124.40 139.80 126.80 C 141.50 128.80 145.40 130.20 145.70 129.80 C 145.80 129.70 145.60 129.30 145.30 129.10 C 145.90 130.00 146.30 130.70 146.60 131.10 C 148.50 134.20 149.80 136.50 149.70 139.20 C 149.70 140.00 149.50 140.80 149.70 140.90 C 150.00 141.00 150.80 138.60 150.80 138.60 C 153.00 137.20 155.70 135.10 158.40 132.20 C 161.30 129.20 163.30 126.20 164.70 123.80 C 162.70 127.40 160.80 130.90 160.00 132.70 C 160.30 132.50 160.60 132.20 161.10 131.90 C 167.10 127.40 171.20 124.40 173.30 122.40 C 175.50 120.30 178.60 116.20 180.00 108.30 C 176.80 107.40 157.60 101.70 146.50 111.80 Z" fill="#26120f" fill-rule="nonzero" node-id="107" stroke="none" target-height="39.300003" target-width="42.199997" target-x="137.8" target-y="101.7"></path><path d="M 189.50 140.00 C 190.70 138.40 195.40 131.70 194.30 122.80 C 193.20 114.00 187.10 108.70 185.90 108.00 C 185.60 107.80 185.30 107.70 185.30 107.70 C 184.50 107.40 183.80 107.50 181.70 107.00 C 181.20 106.90 180.50 106.70 179.20 106.30 C 178.50 106.10 177.80 105.80 177.10 105.60 C 179.70 109.70 182.60 115.10 185.00 121.70 C 187.70 128.70 188.90 135.00 189.50 140.00 Z" fill="#26120f" fill-rule="nonzero" node-id="109" stroke="none" target-height="34.4" target-width="18.299988" target-x="177.1" target-y="105.6"></path><path d="M 175.10 105.80 C 177.30 108.70 180.00 112.90 182.10 118.40 C 183.80 122.80 184.60 126.70 185.10 129.90 C 186.70 127.20 188.30 124.50 189.90 121.80" fill="#26120f" fill-rule="nonzero" node-id="111" stroke="none" target-height="24.099983" target-width="14.799988" target-x="175.1" target-y="105.80001"></path><g node-id="141"><path d="M 186.10 140.60 C 185.80 141.60 184.90 142.30 184.10 142.10 C 183.20 141.90 182.70 140.90 183.00 139.80 C 183.30 138.80 184.20 138.10 185.00 138.30 C 185.80 138.50 186.30 139.60 186.10 140.60 Z" fill="#633935" fill-rule="nonzero" group-id="3" id="XMLID_1051_" node-id="37" stroke="none" target-height="4.199997" target-width="3.600006" target-x="182.7" target-y="138.1"></path><path d="M 169.50 137.90 C 169.20 138.90 168.30 139.60 167.50 139.40 C 166.60 139.20 166.10 138.20 166.40 137.10 C 166.70 136.00 167.60 135.40 168.40 135.60 C 169.20 135.90 169.70 136.90 169.50 137.90 Z" fill="#633935" fill-rule="nonzero" group-id="3" id="XMLID_532_" node-id="38" stroke="none" target-height="4.200012" target-width="3.5999908" target-x="166.1" target-y="135.4"></path><path d="M 176.10 136.70 C 176.20 137.90 176.50 139.70 177.30 141.60 C 178.20 143.80 179.20 144.90 178.80 145.50 C 178.50 145.90 177.50 146.20 174.30 145.20" fill="#ffb8a8" fill-rule="nonzero" group-id="3" node-id="117" stroke="none" target-height="9.5" target-width="4.899994" target-x="174.3" target-y="136.7"></path><path d="M 143.60 133.40 C 143.60 133.40 138.70 134.40 141.30 137.80 C 143.90 141.30 145.10 137.30 145.10 137.30 L 143.60 133.40 Z" fill="#ffb8a8" fill-rule="nonzero" group-id="3" node-id="119" stroke="none" target-height="7.900009" target-width="6.400009" target-x="138.7" target-y="133.4"></path><g node-id="142"><g node-id="144"><path d="M 163.00 130.90 C 164.50 130.50 166.00 130.30 167.60 130.40 C 169.40 130.50 170.70 131.10 172.30 131.70 C 172.60 131.80 172.70 131.40 172.50 131.20 C 169.80 129.40 165.80 129.40 162.90 130.60 C 162.80 130.70 162.80 130.90 163.00 130.90 L 163.00 130.90 Z" fill="#633935" fill-rule="nonzero" group-id="3,4,6" node-id="125" stroke="none" target-height="2.4000092" target-width="9.899994" target-x="162.8" target-y="129.4"></path></g></g><g node-id="143"><g node-id="145"><path d="M 180.70 132.70 C 183.60 132.70 186.00 133.50 188.70 134.10 C 188.90 134.10 189.00 133.90 188.80 133.80 C 186.50 132.30 183.30 132.10 180.60 132.50 C 180.60 132.50 180.60 132.70 180.70 132.70 L 180.70 132.70 Z" fill="#633935" fill-rule="nonzero" group-id="3,5,7" node-id="133" stroke="none" target-height="2" target-width="8.399994" target-x="180.6" target-y="132.1"></path></g></g><path d="M 168.50 148.10 C 167.40 150.40 167.30 153.30 169.60 155.00 C 172.40 157.10 175.00 156.10 177.30 153.90 C 177.50 153.70 177.60 153.50 177.40 153.30 C 176.40 153.20 168.30 148.70 168.50 148.10 Z" fill="#af4a4a" fill-rule="nonzero" group-id="3" node-id="137" stroke="none" target-height="9" target-width="10.300003" target-x="167.3" target-y="148.1"></path></g></svg>