<?xml version="1.0" standalone="no"?><!DOCTYPE svg PUBLIC "-//W3C//DTD SVG 1.1//EN" "http://www.w3.org/Graphics/SVG/1.1/DTD/svg11.dtd"><svg height="400" node-id="1" sillyvg="true" template-height="400" template-width="600" version="1.1" viewBox="0 0 600 400" width="600" xmlns="http://www.w3.org/2000/svg" xmlns:xlink="http://www.w3.org/1999/xlink"><defs node-id="81"></defs><path d="M 0.00 0.00 L 600.00 0.00 L 600.00 400.00 L 0.00 400.00 Z" fill="#ffffff" fill-rule="evenodd" node-id="84" stroke="none" target-height="400" target-width="600" target-x="0" target-y="0"></path><g node-id="86"><g node-id="95"><path d="M 536.55 270.96 C 561.73 268.28 571.05 256.68 569.91 232.42 C 568.77 208.16 552.67 198.30 548.81 179.98 C 544.94 161.66 537.19 138.63 531.66 137.97 C 526.14 137.32 524.58 149.33 518.97 157.05 C 510.59 168.59 496.02 164.21 503.91 192.97 C 510.68 217.63 489.75 216.53 489.25 241.69 C 488.75 266.18 510.76 273.71 536.55 270.96 Z" fill="#e7f4fe" fill-rule="nonzero" group-id="1,10" id="Path" node-id="8" stroke="none" target-height="136.39049" target-width="82.29602" target-x="488.7525" target-y="137.3173"></path><path d="M 529.62 318.54 C 531.75 307.79 533.64 295.26 534.21 284.33 C 534.80 273.43 534.56 262.40 532.99 251.35 C 532.67 249.52 532.33 247.71 532.00 245.89 C 540.05 236.87 544.54 226.09 545.21 214.93 C 543.79 225.21 538.95 234.84 531.45 242.84 C 529.94 234.67 528.52 226.60 528.35 218.46 C 527.89 207.54 528.54 196.64 531.01 186.09 C 528.11 196.55 527.03 207.42 527.05 218.36 C 527.02 220.10 527.13 221.86 527.20 223.61 C 523.93 221.21 521.15 218.16 519.03 215.03 C 516.62 211.32 514.95 207.36 514.03 203.34 C 514.52 207.36 515.77 211.42 517.86 215.34 C 520.08 219.24 522.90 222.99 527.27 226.19 C 527.83 234.58 529.31 243.04 530.41 251.32 C 532.54 273.14 529.74 297.65 524.93 318.54 L 529.62 318.54 L 529.62 318.54 Z" fill="#d0e7fe" fill-rule="nonzero" group-id="1,10" id="Path" node-id="9" stroke="none" target-height="132.44757" target-width="31.182251" target-x="514.0272" target-y="186.0946"></path></g><path d="M 391.58 319.15 C 454.94 319.15 480.80 259.97 480.80 194.10 C 480.80 128.23 455.37 87.67 422.60 87.67 C 389.82 87.67 399.13 127.06 360.78 127.06 C 322.43 127.06 301.66 34.00 246.74 34.00 C 191.82 34.00 233.57 121.72 184.97 121.72 C 136.38 121.72 81.82 99.65 81.82 189.69 C 81.82 279.74 -15.97 322.00 57.12 322.00 C 130.22 322.00 391.58 319.15 391.58 319.15 Z" fill="#f3f9ff" fill-rule="nonzero" group-id="1" id="Path" node-id="10" stroke="none" target-height="288" target-width="496.7676" target-x="-15.971096" target-y="34"></path></g><g node-id="87"><path d="M 275.14 113.86 C 314.01 113.86 349.19 121.69 374.58 134.39 L 275.14 184.02 L 275.14 254.10 C 236.27 254.10 201.19 246.28 175.81 233.58 C 150.42 220.96 134.72 203.37 134.72 184.02 C 134.72 164.59 150.42 147.09 175.81 134.39 C 201.19 121.69 236.27 113.86 275.14 113.86 Z" fill="#1b90fb" fill-rule="nonzero" group-id="2" id="Path" node-id="12" stroke="none" target-height="140.2407" target-width="239.85722" target-x="134.7231" target-y="113.8624"></path><path d="M 175.81 233.58 C 155.51 223.49 134.72 206.57 134.72 184.03 L 134.72 184.03 L 134.72 219.24 C 134.72 248.49 168.83 268.00 196.57 277.36 C 221.45 285.76 249.09 289.32 275.14 289.32 C 275.14 267.52 275.14 275.91 275.14 254.10 C 236.27 254.10 201.19 246.28 175.81 233.58 Z" fill="#1277d7" fill-rule="nonzero" group-id="2" id="Path" node-id="13" stroke="none" target-height="105.29732" target-width="140.4171" target-x="134.7231" target-y="184.0255"></path></g><g node-id="88"><path d="M 374.58 134.39 C 399.97 147.09 415.66 164.59 415.66 184.02 L 275.14 184.02 L 374.58 134.39 Z" fill="#224380" fill-rule="nonzero" group-id="3" id="Path" node-id="15" stroke="none" target-height="49.63501" target-width="140.52328" target-x="275.1402" target-y="134.38959"></path><path d="M 275.14 184.03 L 415.66 184.03 L 415.66 219.25 L 275.14 219.25 Z" fill="#183168" fill-rule="nonzero" group-id="3" id="Rectangle" node-id="16" stroke="none" target-height="35.219696" target-width="140.52328" target-x="275.1402" target-y="184.0255"></path></g><g node-id="89"><path d="M 434.37 184.43 C 434.37 203.78 418.68 221.36 393.29 233.98 L 293.85 184.43 L 434.37 184.43 L 434.37 184.43 Z" fill="#7266d5" fill-rule="nonzero" group-id="4" id="Path" node-id="18" stroke="none" target-height="49.5513" target-width="140.5224" target-x="293.8521" target-y="184.43051"></path><path d="M 393.29 233.98 L 393.29 269.20 C 418.68 256.58 434.37 239.00 434.37 219.65 L 434.37 184.43 C 434.37 203.78 418.68 221.36 393.29 233.98 Z" fill="#877cd8" fill-rule="nonzero" group-id="4" id="Path" node-id="19" stroke="none" target-height="84.77011" target-width="41.08319" target-x="393.29132" target-y="184.43051"></path><path d="M 393.29 233.98 L 393.29 269.20 L 293.85 219.65 L 293.85 184.43 Z" fill="#5f50d0" fill-rule="nonzero" group-id="4" id="Path" node-id="20" stroke="none" target-height="84.770996" target-width="99.440094" target-x="293.85123" target-y="184.43051"></path></g><g node-id="90"><path d="M 275.14 202.06 L 374.58 251.61 C 349.19 264.31 314.01 272.14 275.14 272.14 L 275.14 202.06 L 275.14 202.06 Z" fill="#2ccd7f" fill-rule="nonzero" group-id="5" id="Path" node-id="22" stroke="none" target-height="70.07849" target-width="99.440094" target-x="275.1402" target-y="202.0597"></path><path d="M 303.51 270.72 C 294.06 271.68 284.56 272.14 275.14 272.14 L 275.14 272.14 L 275.14 307.36 C 316.71 307.36 351.24 298.51 374.58 286.83 L 374.58 286.83 L 374.58 251.61 C 353.12 262.35 327.51 268.27 303.51 270.72 Z" fill="#1eaf69" fill-rule="nonzero" group-id="5" id="Path" node-id="23" stroke="none" target-height="55.746918" target-width="99.440094" target-x="275.1402" target-y="251.611"></path></g><g node-id="91"><path d="M 296.62 347.82 C 296.60 349.30 297.21 357.86 297.21 357.86 L 290.33 357.91 L 289.02 348.58 L 296.62 347.82 Z" fill="#f1b282" fill-rule="nonzero" group-id="6" id="Path" node-id="25" stroke="none" target-height="10.091675" target-width="8.195404" target-x="289.0191" target-y="347.8192"></path><path d="M 287.85 355.30 C 287.85 355.30 285.63 361.28 286.69 363.03 C 287.75 364.79 307.36 363.82 308.84 363.72 C 315.57 363.25 317.26 357.65 310.20 358.21 C 303.14 358.76 301.58 353.30 297.57 353.45 C 295.02 354.08 292.42 356.52 290.80 356.09 C 289.17 355.65 287.85 355.30 287.85 355.30 Z" fill="#03193f" fill-rule="nonzero" group-id="6" id="Path" node-id="26" stroke="none" target-height="11.488495" target-width="31.631409" target-x="285.6261" target-y="353.2966"></path><path d="M 245.51 361.67 L 237.90 360.73 L 242.31 355.05 L 247.61 355.05 Z" fill="#f1b282" fill-rule="nonzero" group-id="6" id="Path" node-id="27" stroke="none" target-height="6.623993" target-width="9.7173" target-x="237.89551" target-y="355.0498"></path><path d="M 262.16 318.72 C 262.16 318.72 282.11 309.40 290.07 312.09 C 296.99 314.44 297.59 339.08 297.85 348.27 C 297.86 348.69 297.70 349.08 297.41 349.38 C 297.11 349.67 296.71 349.82 296.30 349.81 C 295.02 349.75 292.83 349.67 289.21 349.52 C 288.61 349.49 288.08 349.13 287.84 348.57 C 286.26 344.84 282.33 334.80 281.77 330.71 C 277.36 333.75 267.69 340.80 267.69 340.80 C 267.69 340.80 253.53 331.57 262.16 318.72 Z" fill="#0b224e" fill-rule="nonzero" group-id="6" id="Path" node-id="28" stroke="none" target-height="40.422577" target-width="44.326813" target-x="253.5339" target-y="309.40002"></path><path d="M 234.40 340.40 C 234.67 344.54 238.28 347.37 241.47 349.48 C 244.58 351.54 247.30 352.93 246.17 354.18 C 244.65 355.89 244.39 358.92 244.38 360.73 C 244.38 361.58 245.00 362.29 245.84 362.40 C 251.79 363.21 275.06 366.23 285.52 365.42 C 297.56 364.48 296.35 354.85 290.47 351.37 C 284.58 347.89 264.11 332.10 264.11 332.10 C 254.60 329.42 233.86 332.23 234.40 340.40 Z" fill="#102b5e" fill-rule="nonzero" group-id="6" id="Path" node-id="29" stroke="none" target-height="36.810028" target-width="63.696594" target-x="233.86261" target-y="329.4232"></path><g node-id="96"><path d="M 241.45 279.67 C 241.45 279.67 250.25 272.26 249.48 268.92 C 248.71 265.58 247.41 253.33 251.78 251.91 C 256.14 250.49 264.89 249.75 266.62 252.74 C 268.25 255.56 267.21 257.06 267.57 258.25 C 267.93 259.43 269.48 261.83 269.46 262.96 C 269.44 264.09 267.72 264.22 267.23 265.68 C 266.74 267.15 267.55 269.08 266.14 270.61 C 264.74 272.13 260.46 271.78 259.96 273.20 C 258.74 276.69 262.91 283.70 262.91 283.70 L 263.09 293.73 C 263.09 293.73 249.18 300.01 241.45 279.67 Z" fill="#f1b282" fill-rule="nonzero" group-id="6,11" id="Path" node-id="31" stroke="none" target-height="50.2623" target-width="28.0224" target-x="241.4541" target-y="249.7471"></path><path d="M 267.82 247.01 C 267.82 246.95 267.84 246.89 267.83 246.84 C 267.72 244.62 265.84 242.92 263.62 243.03 C 263.58 243.03 263.55 243.04 263.51 243.05 C 263.00 241.30 261.36 240.06 259.46 240.16 C 258.16 240.23 257.04 240.92 256.36 241.92 C 255.58 240.99 254.40 240.41 253.10 240.48 C 251.37 240.56 249.97 241.74 249.48 243.30 C 248.88 243.00 248.21 242.83 247.49 242.86 C 245.46 242.96 243.88 244.56 243.71 246.53 C 243.70 246.53 243.68 246.53 243.66 246.53 C 241.45 246.64 239.74 248.52 239.85 250.74 C 239.91 251.81 240.38 252.76 241.10 253.44 C 240.45 254.20 240.07 255.19 240.13 256.26 C 240.20 257.77 241.11 259.03 242.38 259.65 C 243.85 265.43 247.09 269.99 249.12 269.88 C 251.69 269.75 248.12 261.41 250.55 261.29 C 252.98 261.17 252.27 264.28 253.56 264.22 C 254.85 264.15 253.06 254.24 259.92 253.89 C 266.78 253.55 269.17 252.71 269.06 250.43 C 269.01 249.62 268.71 248.32 267.82 247.01 Z" fill="#0b224e" fill-rule="nonzero" group-id="6,11" id="Path" node-id="32" stroke="none" target-height="29.921402" target-width="29.428192" target-x="239.7414" target-y="240.06401"></path></g><path d="M 248.13 337.19 C 253.77 334.38 270.08 335.78 269.60 333.37 C 269.17 331.22 266.40 319.94 267.47 306.98 C 267.60 305.42 267.79 303.85 268.04 302.26 C 268.13 301.67 268.42 300.81 268.79 299.75 C 271.03 293.37 276.22 279.87 259.04 276.17 C 250.75 274.38 238.17 269.54 236.49 295.03 C 234.81 320.53 228.33 337.79 226.66 341.20 C 224.98 344.61 242.49 340.00 248.13 337.19 Z" fill="#ffcb01" fill-rule="nonzero" group-id="6" id="Path" node-id="33" stroke="none" target-height="75.0708" target-width="51.243317" target-x="224.9769" target-y="269.54172"></path><path d="M 278.56 293.56 C 278.56 293.56 281.50 298.65 288.06 298.11 C 294.62 297.57 304.38 288.48 306.26 285.40 C 308.13 282.32 312.15 278.04 312.55 282.72 C 312.95 287.40 320.71 280.98 323.12 284.33 C 325.53 287.67 326.46 291.82 320.44 291.95 C 314.42 292.09 309.20 289.41 304.38 295.30 C 299.57 301.19 293.55 309.75 283.51 309.08 C 273.47 308.41 267.69 301.59 267.69 301.59 C 267.69 301.59 273.87 293.43 278.56 293.56 Z" fill="#f1b282" fill-rule="nonzero" group-id="6" id="Path" node-id="34" stroke="none" target-height="31.714172" target-width="58.76999" target-x="267.6936" target-y="278.03772"></path><path d="M 246.17 354.18 C 246.17 354.18 264.59 354.18 271.31 354.18 C 271.31 354.18 249.84 352.23 241.47 349.48 C 244.58 351.54 247.30 352.93 246.17 354.18 Z" fill="#0b224e" fill-rule="nonzero" group-id="6" id="Path" node-id="35" stroke="none" target-height="4.697113" target-width="29.835907" target-x="241.4703" target-y="349.4833"></path><path d="M 245.44 353.78 C 245.44 353.78 245.83 349.22 244.19 348.13 C 242.56 347.05 225.95 355.92 224.71 356.61 C 219.07 359.78 219.90 365.32 225.79 361.95 C 231.68 358.57 235.27 362.67 238.69 360.90 C 240.63 359.31 241.89 356.13 243.48 355.84 C 245.06 355.55 245.44 353.78 245.44 353.78 Z" fill="#03193f" fill-rule="nonzero" group-id="6" id="Path" node-id="36" stroke="none" target-height="18.279022" target-width="26.760605" target-x="219.0702" target-y="347.0452"></path><path d="M 254.14 286.96 C 255.00 303.10 265.36 308.08 267.32 309.40 C 267.44 307.85 267.79 303.85 268.04 302.26 C 268.13 301.67 268.42 300.81 268.79 299.75 C 268.56 298.77 268.22 297.78 267.78 296.84 C 265.94 292.93 254.14 286.96 254.14 286.96 Z" fill="#f0b701" fill-rule="nonzero" group-id="6" id="Path" node-id="37" stroke="none" target-height="22.444214" target-width="14.649292" target-x="254.1441" target-y="286.9558"></path><path d="M 266.48 279.12 C 266.48 279.12 274.76 289.21 279.07 291.52 C 283.39 293.83 271.76 298.95 270.80 303.26 C 269.84 307.58 259.96 297.35 256.56 291.62 C 253.16 285.90 245.85 270.83 266.48 279.12 Z" fill="#ffcb01" fill-rule="nonzero" group-id="6" id="Path" node-id="38" stroke="none" target-height="36.75058" target-width="37.5381" target-x="245.8542" target-y="270.82782"></path></g><g node-id="92"><path d="M 61.74 271.32 C 61.98 266.05 76.07 266.33 76.91 263.19 C 77.76 260.06 55.85 250.33 57.04 245.66 C 58.24 240.99 70.11 248.56 72.14 240.84 C 73.51 235.63 43.08 229.98 50.98 219.69 C 55.16 214.24 63.93 225.53 65.66 223.55 C 69.68 218.93 52.25 201.41 61.84 197.15 C 70.13 193.45 72.18 217.33 78.90 217.66 C 81.52 217.79 79.02 203.54 85.85 204.17 C 92.68 204.80 87.91 230.55 90.08 230.79 C 92.26 231.03 96.04 222.10 100.31 224.34 C 104.58 226.57 97.91 251.10 100.80 252.56 C 103.70 254.04 112.92 243.38 117.00 246.74 C 121.08 250.09 115.81 276.23 99.55 281.91 C 84.44 290.19 61.50 276.60 61.74 271.32 Z" fill="#ffcb01" fill-rule="nonzero" group-id="7" id="Path" node-id="40" stroke="none" target-height="96.7374" target-width="77.9985" target-x="43.084206" target-y="193.4512"></path><path d="M 97.28 281.45 C 97.47 281.36 97.59 281.15 97.55 280.93 C 90.40 241.83 64.41 201.60 64.15 201.19 C 64.01 200.98 63.70 200.86 63.50 201.06 C 63.28 201.19 63.21 201.49 63.36 201.71 C 63.62 202.11 89.51 242.19 96.62 281.10 C 96.66 281.36 96.91 281.53 97.17 281.48 C 97.20 281.47 97.24 281.46 97.28 281.45 Z" fill="#f0b701" fill-rule="nonzero" group-id="7" id="Path" node-id="41" stroke="none" target-height="80.66521" target-width="34.373707" target-x="63.213604" target-y="200.8636"></path><path d="M 81.34 234.76 C 81.46 234.71 81.57 234.65 81.69 234.59 C 87.88 231.03 85.38 211.73 85.27 210.90 C 85.23 210.65 85.00 210.47 84.74 210.50 C 84.46 210.54 84.30 210.77 84.33 211.03 C 84.35 211.22 86.87 230.52 81.21 233.77 C 81.12 233.82 81.03 233.87 80.93 233.92 C 74.92 236.59 56.33 223.58 56.14 223.45 C 55.93 223.29 55.64 223.35 55.48 223.57 C 55.33 223.78 55.38 224.07 55.60 224.22 C 56.39 224.79 74.82 237.67 81.34 234.76 Z" fill="#f0b701" fill-rule="nonzero" group-id="7" id="Path" node-id="42" stroke="none" target-height="27.198914" target-width="32.5503" target-x="55.333206" target-y="210.4675"></path><path d="M 90.67 254.91 C 95.64 252.69 97.51 233.14 97.59 232.30 C 97.61 232.04 97.42 231.81 97.16 231.79 C 96.90 231.78 96.67 231.96 96.65 232.22 C 96.13 237.73 93.99 252.39 90.29 254.04 C 85.74 256.06 67.65 249.15 67.47 249.09 C 67.22 248.99 66.95 249.11 66.86 249.36 C 66.76 249.60 66.88 249.87 67.13 249.97 C 67.89 250.26 85.77 257.08 90.67 254.91 Z" fill="#f0b701" fill-rule="nonzero" group-id="7" id="Path" node-id="43" stroke="none" target-height="25.307114" target-width="30.845695" target-x="66.76321" target-y="231.77681"></path><path d="M 97.69 274.27 C 105.81 270.66 111.35 255.94 111.60 255.27 C 111.69 255.02 111.57 254.75 111.32 254.66 C 111.08 254.57 110.80 254.68 110.71 254.94 C 110.65 255.11 104.23 272.21 95.61 273.96 C 86.81 275.82 69.95 273.10 69.78 273.07 C 69.52 273.04 69.28 273.21 69.24 273.47 C 69.20 273.72 69.37 273.96 69.63 274.01 C 70.33 274.12 86.83 276.78 95.80 274.89 C 96.44 274.75 97.07 274.55 97.69 274.27 Z" fill="#ffcb01" fill-rule="nonzero" group-id="7" id="Path" node-id="44" stroke="none" target-height="22.205704" target-width="42.4926" target-x="69.19591" target-y="254.5702"></path><path d="M 75.97 256.37 C 77.83 251.81 89.03 257.05 90.70 254.59 C 92.37 252.14 77.88 235.82 80.31 232.14 C 82.75 228.46 89.87 239.32 93.93 233.25 C 96.67 229.15 74.07 213.42 83.65 207.16 C 88.72 203.85 92.19 216.88 94.19 215.75 C 98.88 213.11 90.43 191.54 99.47 191.19 C 107.28 190.87 101.39 212.59 106.66 215.26 C 108.72 216.30 111.22 202.89 116.50 205.86 C 121.77 208.83 109.82 229.78 111.49 230.76 C 113.16 231.74 119.01 225.23 121.73 228.71 C 124.44 232.19 111.35 251.39 113.21 253.70 C 115.07 256.02 125.82 249.92 128.03 254.31 C 130.24 258.71 117.77 279.82 102.94 279.06 C 88.22 280.99 74.12 260.93 75.97 256.37 Z" fill="#61dda0" fill-rule="nonzero" group-id="7" id="Path" node-id="45" stroke="none" target-height="90.12239" target-width="56.1762" target-x="74.068504" target-y="190.87001"></path><path d="M 101.26 277.85 C 101.45 277.84 101.61 277.70 101.64 277.49 C 108.26 240.58 100.13 196.01 100.04 195.57 C 100.00 195.32 99.78 195.11 99.56 195.21 C 99.34 195.26 99.20 195.49 99.25 195.74 C 99.33 196.18 107.43 240.58 100.85 277.31 C 100.80 277.55 100.95 277.79 101.17 277.84 C 101.20 277.85 101.23 277.85 101.26 277.85 Z" fill="#2ccd7f" fill-rule="nonzero" group-id="7" id="Path" node-id="46" stroke="none" target-height="82.73619" target-width="9.061203" target-x="99.1974" target-y="195.11351"></path><path d="M 103.22 231.16 C 103.34 231.16 103.45 231.15 103.56 231.14 C 109.65 230.19 113.73 212.34 113.90 211.58 C 113.96 211.34 113.82 211.10 113.61 211.03 C 113.37 210.97 113.17 211.11 113.11 211.35 C 113.07 211.53 108.99 229.39 103.44 230.24 C 103.35 230.26 103.26 230.27 103.16 230.28 C 97.50 230.50 86.71 212.48 86.60 212.30 C 86.48 212.09 86.23 212.03 86.03 212.17 C 85.85 212.30 85.79 212.58 85.92 212.79 C 86.38 213.56 97.08 231.41 103.22 231.16 Z" fill="#2ccd7f" fill-rule="nonzero" group-id="7" id="Path" node-id="47" stroke="none" target-height="20.432693" target-width="28.162811" target-x="85.7946" target-y="210.97331"></path><path d="M 104.35 252.17 C 109.03 251.99 116.70 235.46 117.02 234.75 C 117.12 234.53 117.04 234.26 116.84 234.15 C 116.64 234.04 116.40 234.12 116.30 234.35 C 114.15 239.00 107.80 251.14 104.31 251.28 C 100.03 251.45 87.71 238.97 87.59 238.85 C 87.42 238.67 87.16 238.68 87.01 238.87 C 86.86 239.05 86.87 239.33 87.03 239.50 C 87.55 240.03 99.73 252.36 104.35 252.17 Z" fill="#2ccd7f" fill-rule="nonzero" group-id="7" id="Path" node-id="48" stroke="none" target-height="18.313187" target-width="30.268806" target-x="86.855705" target-y="234.04391"></path><path d="M 103.86 271.69 C 111.51 271.39 120.60 260.40 121.01 259.90 C 121.16 259.71 121.14 259.43 120.98 259.26 C 120.81 259.10 120.56 259.11 120.40 259.29 C 120.30 259.42 109.75 272.18 102.29 270.68 C 94.65 269.19 81.99 260.84 81.87 260.75 C 81.67 260.64 81.43 260.70 81.31 260.91 C 81.19 261.12 81.26 261.39 81.45 261.53 C 81.98 261.87 94.37 270.04 102.15 271.56 C 102.71 271.67 103.28 271.71 103.86 271.69 Z" fill="#2ccd7f" fill-rule="nonzero" group-id="7" id="Path" node-id="49" stroke="none" target-height="13.080597" target-width="39.964508" target-x="81.1947" target-y="259.1026"></path><path d="M 143.80 271.39 C 144.00 266.11 129.93 265.24 129.35 262.04 C 128.76 258.85 151.40 250.95 150.59 246.20 C 149.78 241.44 137.33 248.02 135.94 240.15 C 135.01 234.85 165.79 231.72 158.76 220.81 C 155.05 215.04 145.38 225.57 143.82 223.46 C 140.19 218.52 159.01 202.49 149.80 197.46 C 141.84 193.09 137.83 216.72 131.11 216.50 C 128.49 216.41 132.15 202.42 125.29 202.49 C 118.43 202.55 121.07 228.60 118.89 228.66 C 116.70 228.72 113.66 219.51 109.22 221.39 C 104.78 223.27 109.41 248.26 106.41 249.48 C 103.40 250.71 95.08 239.33 90.74 242.34 C 86.40 245.36 86.29 275.49 102.03 282.49 C 116.41 291.98 143.60 276.67 143.80 271.39 Z" fill="#8484ef" fill-rule="nonzero" group-id="7" id="Path" node-id="50" stroke="none" target-height="98.88928" target-width="79.5006" target-x="86.290504" target-y="193.0921"></path><path d="M 107.55 278.56 C 107.36 278.46 107.27 278.23 107.32 278.02 C 117.66 239.64 146.87 201.68 147.16 201.30 C 147.32 201.09 147.64 201.01 147.82 201.22 C 148.03 201.37 148.07 201.67 147.91 201.88 C 147.62 202.26 118.52 240.07 108.23 278.27 C 108.17 278.52 107.91 278.67 107.66 278.60 C 107.62 278.59 107.58 278.58 107.55 278.56 Z" fill="#7266d5" fill-rule="nonzero" group-id="7" id="Path" node-id="51" stroke="none" target-height="77.660095" target-width="40.8051" target-x="107.2659" target-y="201.0094"></path><path d="M 127.27 233.34 C 127.16 233.28 127.05 233.21 126.94 233.14 C 121.06 229.08 125.14 210.05 125.32 209.24 C 125.37 208.99 125.62 208.83 125.88 208.89 C 126.15 208.95 126.29 209.19 126.24 209.45 C 126.20 209.63 122.11 228.67 127.48 232.36 C 127.56 232.43 127.65 232.48 127.75 232.54 C 133.52 235.69 153.11 224.26 153.31 224.14 C 153.54 224.00 153.82 224.08 153.96 224.31 C 154.09 224.53 154.02 224.82 153.79 224.96 C 152.95 225.45 133.54 236.77 127.27 233.34 Z" fill="#7266d5" fill-rule="nonzero" group-id="7" id="Path" node-id="52" stroke="none" target-height="27.942307" target-width="33.034485" target-x="121.05661" target-y="208.8295"></path><path d="M 116.32 252.65 C 111.55 250.04 111.29 230.39 111.28 229.55 C 111.28 229.29 111.49 229.08 111.75 229.08 C 112.01 229.09 112.22 229.29 112.23 229.55 C 112.28 235.08 113.21 249.87 116.77 251.82 C 121.13 254.21 139.73 248.81 139.92 248.76 C 140.17 248.68 140.43 248.82 140.50 249.08 C 140.58 249.33 140.44 249.59 140.19 249.67 C 139.40 249.89 121.02 255.22 116.32 252.65 Z" fill="#7266d5" fill-rule="nonzero" group-id="7" id="Path" node-id="53" stroke="none" target-height="26.145905" target-width="29.296799" target-x="111.28081" target-y="229.0777"></path><path d="M 107.73 271.38 C 99.94 267.11 95.62 251.98 95.43 251.29 C 95.36 251.03 95.50 250.78 95.76 250.70 C 96.01 250.64 96.27 250.77 96.34 251.03 C 96.39 251.21 101.38 268.78 109.83 271.24 C 118.44 273.81 135.47 272.49 135.64 272.47 C 135.90 272.46 136.12 272.65 136.15 272.91 C 136.17 273.17 135.97 273.39 135.71 273.42 C 135.01 273.47 118.34 274.76 109.56 272.15 C 108.93 271.96 108.32 271.70 107.73 271.38 Z" fill="#7266d5" fill-rule="nonzero" group-id="7" id="Path" node-id="54" stroke="none" target-height="24.123611" target-width="40.8105" target-x="95.3598" target-y="250.6381"></path><path d="M 124.02 287.98 L 123.57 291.76 L 120.24 322.00 L 82.44 322.00 L 79.94 299.62 L 78.66 287.98 Z" fill="#dae7ff" fill-rule="nonzero" group-id="7" id="Path" node-id="55" stroke="none" target-height="34.024475" target-width="45.365402" target-x="78.65761" target-y="287.97552"></path><path d="M 124.02 287.98 L 123.57 291.76 L 79.94 299.62 L 78.66 287.98 Z" fill="#aec1e8" fill-rule="nonzero" group-id="7" id="Path" node-id="56" stroke="none" target-height="11.644165" target-width="45.365402" target-x="78.65761" target-y="287.97552"></path><path d="M 127.80 291.76 L 74.88 291.76 L 71.10 276.63 L 131.58 276.63 Z" fill="#c3d3f3" fill-rule="nonzero" group-id="7" id="Path" node-id="57" stroke="none" target-height="15.121796" target-width="60.487198" target-x="71.09671" target-y="276.6346"></path></g><g node-id="93"><path d="M 195.03 122.39 C 195.03 141.74 179.34 157.43 159.99 157.43 C 140.63 157.43 124.94 141.74 124.94 122.39 C 124.94 103.04 140.63 87.35 159.99 87.35 C 179.34 87.35 195.03 103.04 195.03 122.39 Z" fill="#d0f4e3" fill-rule="nonzero" group-id="8" id="Oval" node-id="59" stroke="none" target-height="70.0848" target-width="70.08481" target-x="124.943695" target-y="87.3484"></path><path d="M 187.24 122.39 C 187.24 137.44 175.04 149.65 159.99 149.65 C 144.93 149.65 132.73 137.44 132.73 122.39 C 132.73 107.34 144.93 95.14 159.99 95.14 C 175.04 95.14 187.24 107.34 187.24 122.39 Z" fill="#b4efd1" fill-rule="nonzero" group-id="8" id="Oval" node-id="60" stroke="none" target-height="54.509415" target-width="54.5094" target-x="132.7314" target-y="95.13609"></path><path d="M 179.45 122.39 C 179.45 133.14 170.74 141.86 159.99 141.86 C 149.23 141.86 140.52 133.14 140.52 122.39 C 140.52 111.64 149.23 102.92 159.99 102.92 C 170.74 102.92 179.45 111.64 179.45 122.39 Z" fill="#61dda0" fill-rule="nonzero" group-id="8" id="Oval" node-id="61" stroke="none" target-height="38.935806" target-width="38.93579" target-x="140.5182" target-y="102.9229"></path><path d="M 157.96 130.18 C 157.93 130.18 157.90 130.18 157.88 130.18 C 157.34 130.16 156.83 129.91 156.48 129.50 L 150.64 122.68 C 149.94 121.87 150.03 120.64 150.85 119.94 C 151.67 119.25 152.90 119.34 153.59 120.15 L 158.08 125.38 L 168.43 115.16 C 169.20 114.41 170.43 114.42 171.19 115.18 C 171.94 115.95 171.93 117.18 171.17 117.94 L 159.32 129.62 C 158.96 129.98 158.47 130.18 157.96 130.18 Z" fill="#ffffff" fill-rule="nonzero" group-id="8" id="Path" node-id="62" stroke="none" target-height="15.767998" target-width="22.00319" target-x="149.9385" target-y="114.4096"></path></g><g node-id="94"><path d="M 514.85 354.89 C 514.96 353.30 513.41 349.26 511.08 344.08 L 518.35 342.16 C 518.82 344.08 519.34 346.06 519.94 348.12 C 520.85 351.22 521.57 352.47 521.68 353.90 C 521.80 355.34 516.37 362.04 516.37 362.04 L 512.35 361.67 C 512.35 361.67 514.50 359.96 514.85 354.89 Z" fill="#f1b282" fill-rule="nonzero" group-id="9" id="Path" node-id="64" stroke="none" target-height="19.879211" target-width="10.718079" target-x="511.07794" target-y="342.15637"></path><path d="M 458.94 354.55 C 460.02 352.83 460.30 346.51 460.33 338.68 L 469.36 338.68 C 468.48 342.54 467.53 346.51 466.61 350.97 C 465.96 354.13 466.01 355.57 465.43 356.89 C 464.86 358.21 456.92 361.58 456.92 361.58 L 453.54 359.36 C 453.55 359.36 456.25 358.86 458.94 354.55 Z" fill="#f1b282" fill-rule="nonzero" group-id="9" id="Path" node-id="65" stroke="none" target-height="22.897797" target-width="15.813904" target-x="453.54453" target-y="338.6779"></path><path d="M 509.02 366.62 C 509.48 367.48 512.42 366.61 512.42 366.61 L 520.92 362.09 C 521.80 361.62 522.28 360.64 522.12 359.65 C 521.85 358.06 521.60 355.83 522.23 355.54 C 523.23 355.08 525.74 359.53 525.74 359.53 L 527.41 358.64 C 527.41 358.64 525.50 355.63 524.68 354.24 C 523.87 352.84 524.68 351.90 523.62 349.90 C 522.56 347.90 520.43 346.79 519.75 347.16 C 519.07 347.52 519.74 352.12 519.13 354.12 C 518.36 356.65 516.72 359.02 513.41 360.28 C 512.57 360.60 508.57 365.77 509.02 366.62 Z" fill="#0b224e" fill-rule="nonzero" group-id="9" id="Path" node-id="66" stroke="none" target-height="20.685608" target-width="18.843323" target-x="508.56873" target-y="346.79407"></path><path d="M 448.28 362.18 C 448.28 363.15 451.29 363.76 451.29 363.76 L 460.92 363.76 C 461.92 363.76 462.80 363.11 463.12 362.16 C 463.63 360.63 464.45 358.55 465.15 358.59 C 466.25 358.65 466.38 363.76 466.38 363.76 L 468.27 363.76 C 468.27 363.76 467.99 360.20 467.93 358.59 C 467.86 356.97 469.03 356.52 469.03 354.26 C 469.03 352.00 467.67 350.02 466.89 350.02 C 466.12 350.02 464.56 354.40 463.08 355.88 C 461.21 357.75 458.65 359.07 455.14 358.63 C 454.24 358.52 448.28 361.21 448.28 362.18 Z" fill="#0b224e" fill-rule="nonzero" group-id="9" id="Path" node-id="67" stroke="none" target-height="13.735779" target-width="20.740509" target-x="448.28494" target-y="350.02148"></path><g node-id="97"><path d="M 467.78 178.81 C 480.31 179.95 473.22 192.27 473.69 197.52 C 474.15 202.76 477.05 210.68 477.05 210.68 L 464.43 212.76 C 464.43 212.76 463.83 208.50 463.89 206.28 C 463.94 204.06 462.29 203.02 459.56 203.20 C 456.83 203.39 456.61 198.07 456.19 197.10 C 455.50 195.51 452.83 196.64 453.28 194.71 C 453.73 192.78 455.79 192.06 456.08 186.98 C 456.36 181.89 461.84 178.27 467.78 178.81 Z" fill="#f1b282" fill-rule="nonzero" group-id="9,12" id="Path" node-id="69" stroke="none" target-height="34.491592" target-width="27.477875" target-x="452.83444" target-y="178.2655"></path><path d="M 460.26 203.18 C 461.57 203.19 462.57 203.54 463.19 204.21 L 464.53 201.48 C 463.11 202.40 461.09 203.13 460.26 203.18 Z" fill="#cd916a" fill-rule="nonzero" group-id="9,12" id="Path" node-id="70" stroke="none" target-height="2.7215881" target-width="4.271393" target-x="460.26215" target-y="201.4837"></path></g><path d="M 473.12 177.81 C 473.12 177.81 473.31 170.93 480.80 170.12 C 490.74 169.05 491.70 183.29 492.50 190.67 C 494.02 204.80 500.91 204.44 498.75 207.52 C 497.22 209.70 483.09 201.77 480.97 191.84 C 478.86 181.91 479.26 177.14 474.27 180.07 C 472.27 181.24 473.12 177.81 473.12 177.81 Z" fill="#0b224e" fill-rule="nonzero" group-id="9" id="Path" node-id="71" stroke="none" target-height="40.644897" target-width="28.645203" target-x="472.26544" target-y="169.0522"></path><path d="M 477.23 195.74 C 472.93 205.86 465.75 193.69 469.68 191.12 C 472.72 189.15 471.15 184.53 463.13 188.43 C 460.41 189.75 453.79 188.56 453.03 181.48 C 452.75 178.86 456.86 177.00 465.08 176.18 C 478.56 174.84 480.66 187.66 477.23 195.74 Z" fill="#0b224e" fill-rule="nonzero" group-id="9" id="Path" node-id="72" stroke="none" target-height="31.014908" target-width="27.912598" target-x="452.74625" target-y="174.84459"></path><path d="M 470.54 173.97 C 468.52 175.21 474.40 183.54 477.26 182.06 C 480.12 180.58 473.17 172.35 470.54 173.97 Z" fill="#1b90fb" fill-rule="nonzero" group-id="9" id="Path" node-id="73" stroke="none" target-height="11.193298" target-width="11.605469" target-x="468.51605" target-y="172.34799"></path><path d="M 479.05 252.16 C 479.05 252.16 462.40 279.32 459.67 295.29 C 457.00 311.02 459.91 345.60 459.91 345.60 L 468.53 345.38 C 468.53 345.38 476.31 312.76 473.58 303.23 C 479.91 292.07 490.82 279.24 491.88 270.02 C 492.29 266.47 484.45 254.94 479.05 252.16 Z" fill="#0b224e" fill-rule="nonzero" group-id="9" id="Path" node-id="74" stroke="none" target-height="93.44159" target-width="35.298004" target-x="456.99515" target-y="252.15729"></path><path d="M 500.06 249.67 C 500.06 249.67 504.34 255.37 505.64 266.40 C 507.15 279.10 505.55 289.99 506.68 299.64 C 514.28 308.81 519.70 345.35 519.70 345.35 L 512.16 347.50 C 512.16 347.50 494.88 312.56 491.78 304.68 C 489.36 298.52 479.91 275.95 481.71 255.41 C 481.71 255.41 490.39 248.06 500.06 249.67 Z" fill="#102b5e" fill-rule="nonzero" group-id="9" id="Path" node-id="75" stroke="none" target-height="99.441925" target-width="39.790802" target-x="479.90823" target-y="248.05508"></path><path d="M 449.76 225.03 C 449.76 225.03 445.47 232.42 442.13 233.26 C 438.79 234.10 426.26 233.86 423.63 233.26 C 421.01 232.66 421.06 219.80 418.67 219.68 C 416.29 219.56 416.00 236.24 418.26 238.99 C 420.53 241.73 422.44 240.54 424.11 240.90 C 425.78 241.25 440.23 244.76 447.21 243.32 C 454.19 241.89 459.91 231.85 459.91 231.85 C 459.91 231.85 455.37 224.91 449.76 225.03 Z" fill="#f1b282" fill-rule="nonzero" group-id="9" id="Path" node-id="76" stroke="none" target-height="25.198196" target-width="43.917297" target-x="415.99655" target-y="219.5584"></path><path d="M 453.88 223.59 C 454.67 226.64 458.34 226.61 458.74 231.14 C 458.86 232.44 459.12 233.52 459.50 234.43 C 460.42 236.63 461.99 237.79 463.64 238.45 C 466.36 239.53 469.29 239.23 469.89 239.92 C 474.90 245.64 471.32 260.14 474.18 260.50 C 477.05 260.86 485.26 255.77 489.37 255.59 C 493.49 255.41 506.34 259.39 506.11 253.07 C 505.96 249.21 492.25 242.27 489.93 233.28 C 485.87 217.54 485.02 203.67 470.38 205.29 C 459.97 206.44 452.45 218.05 453.88 223.59 Z" fill="#1b90fb" fill-rule="nonzero" group-id="9" id="Path" node-id="77" stroke="none" target-height="57.191406" target-width="53.896484" target-x="452.44833" target-y="203.668"></path><path d="M 459.50 234.43 C 460.42 236.63 461.99 237.79 463.64 238.45 C 470.01 226.91 470.24 216.19 470.24 216.19 L 459.50 234.43 Z" fill="#1277d7" fill-rule="nonzero" group-id="9" id="Path" node-id="78" stroke="none" target-height="22.257904" target-width="10.7361145" target-x="459.50433" target-y="216.1915"></path><path d="M 461.20 210.13 C 457.06 210.08 450.96 222.88 448.03 224.67 C 446.66 225.50 456.80 233.50 459.31 234.81 C 461.81 236.12 467.54 225.74 469.21 222.05 C 470.88 218.35 474.27 210.27 461.20 210.13 Z" fill="#1b90fb" fill-rule="nonzero" group-id="9" id="Path" node-id="79" stroke="none" target-height="26.040604" target-width="27.603882" target-x="446.66135" target-y="210.08319"></path></g></svg>