<?xml version="1.0" standalone="no"?><!DOCTYPE svg PUBLIC "-//W3C//DTD SVG 1.1//EN" "http://www.w3.org/Graphics/SVG/1.1/DTD/svg11.dtd"><svg height="600" node-id="1" sillyvg="true" template-height="600" template-width="405" version="1.1" viewBox="0 0 405 600" width="405" xmlns="http://www.w3.org/2000/svg" xmlns:xlink="http://www.w3.org/1999/xlink"><defs node-id="41"><linearGradient gradientUnits="objectBoundingBox" id="SVGID_1_" node-id="10" spreadMethod="pad" x1="119.6814" x2="305.8117" y1="393.2556" y2="393.2556"><stop offset="0" stop-color="#125596"></stop><stop offset="1" stop-color="#553592"></stop></linearGradient></defs><g node-id="115"><path d="M 181.60 542.30 C 168.40 549.50 155.30 556.80 142.10 564.00 C 140.20 565.00 138.00 566.60 138.30 568.80 C 138.60 571.00 141.40 571.90 143.60 572.10 C 163.50 574.30 188.30 571.90 203.30 568.20 C 205.40 561.50 206.30 554.30 204.80 547.50 C 204.00 543.80 202.40 540.10 199.20 538.10 C 196.60 536.50 193.30 536.40 190.40 537.20 C 187.50 538.00 184.30 540.80 181.60 542.30 Z" fill="#ffe9f9" fill-rule="nonzero" group-id="1" node-id="53" stroke="none" target-height="37.899963" target-width="68.3" target-x="138" target-y="536.4"></path><path d="M 205.50 551.90 C 204.80 554.00 203.40 556.00 201.70 557.40 C 198.70 559.90 194.80 561.20 191.00 561.90 C 190.50 562.00 189.90 562.10 189.40 562.20 C 183.20 563.30 177.10 559.70 175.10 553.70 C 174.60 552.30 173.90 550.90 172.80 549.80 C 172.20 549.20 171.50 548.70 170.80 548.20 C 160.70 553.70 150.70 559.30 140.60 564.80 C 139.40 565.50 138.50 566.60 138.40 568.00 C 138.20 570.80 141.30 571.80 143.80 572.00 C 163.70 574.20 188.50 571.80 203.50 568.10 C 205.10 563.00 206.00 557.40 205.50 551.90 Z" fill="#404249" fill-rule="nonzero" group-id="1" node-id="55" stroke="none" target-height="26" target-width="67.8" target-x="138.2" target-y="548.2"></path></g><g node-id="116"><path d="M 302.60 352.20 C 310.90 364.70 319.20 377.30 327.50 389.80 C 328.70 391.60 330.50 393.70 332.60 393.20 C 334.80 392.70 335.40 389.90 335.50 387.60 C 336.10 367.60 331.60 343.10 326.70 328.40 C 319.90 326.80 312.60 326.50 305.90 328.60 C 302.30 329.70 298.70 331.60 297.00 334.90 C 295.60 337.60 295.80 340.90 296.80 343.70 C 297.80 346.70 300.90 349.70 302.60 352.20 Z" fill="#ffe9f9" fill-rule="nonzero" group-id="2" node-id="60" stroke="none" target-height="67.20001" target-width="40.5" target-x="295.6" target-y="326.5"></path><path d="M 310.20 327.60 C 312.40 328.20 314.40 329.40 316.00 331.00 C 318.80 333.80 320.30 337.60 321.40 341.30 C 321.50 341.80 321.70 342.30 321.80 342.90 C 323.40 349.00 320.30 355.40 314.50 357.90 C 313.10 358.50 311.80 359.40 310.80 360.50 C 310.20 361.10 309.80 361.90 309.40 362.60 C 315.80 372.20 322.10 381.80 328.50 391.30 C 329.30 392.40 330.50 393.20 331.90 393.20 C 334.70 393.20 335.40 390.00 335.50 387.50 C 336.10 367.50 331.60 343.00 326.70 328.30 C 321.30 327.20 315.60 326.70 310.20 327.60 Z" fill="#404249" fill-rule="nonzero" group-id="2" node-id="62" stroke="none" target-height="66.5" target-width="26.700012" target-x="309.4" target-y="326.7"></path><path d="M 291.30 334.90 C 289.10 336.10 286.90 337.40 285.70 339.60 C 284.40 341.90 284.60 345.00 286.00 347.20 C 287.40 349.50 289.80 351.10 292.30 351.80 C 294.80 352.50 297.60 352.30 300.20 351.70 C 303.70 350.80 307.00 349.10 310.20 347.40 C 312.00 346.40 313.90 345.40 315.20 343.90 C 316.00 343.00 316.60 341.80 317.00 340.70 C 317.80 338.20 317.70 335.40 316.60 333.00 C 315.50 330.50 312.60 326.80 309.50 327.20 C 305.50 327.80 301.30 329.80 297.70 331.50 C 295.60 332.50 293.40 333.70 291.30 334.90 Z" fill="#ffe9f9" fill-rule="nonzero" group-id="2" node-id="64" stroke="none" target-height="25.700012" target-width="33.399994" target-x="284.4" target-y="326.8"></path></g><path d="M 128.10 257.90 C 102.20 351.70 141.00 453.70 179.30 543.00 C 186.60 544.90 195.80 543.10 202.70 539.90 C 191.10 478.00 174.50 414.90 170.20 356.40 C 186.50 386.90 199.60 404.40 220.20 419.30 C 253.10 403.60 281.80 377.50 305.80 357.20 C 303.20 348.10 294.80 338.80 288.40 335.60 C 273.60 347.20 249.40 355.90 229.90 365.20 C 224.70 346.00 221.90 326.40 215.60 307.50 C 209.30 288.60 201.00 259.20 184.60 247.90 C 168.20 236.40 144.30 246.20 128.10 257.90 Z" fill="url(#SVGID_1_)" fill-rule="nonzero" node-id="67" stroke="none" target-height="308.50006" target-width="203.6" target-x="102.19999" target-y="236.39998"></path><path d="M 180.20 100.20 C 172.40 106.80 173.10 113.20 163.40 120.70 C 159.10 124.00 155.20 126.00 153.10 126.90 C 145.80 130.20 140.80 131.60 127.80 131.70 C 119.10 131.80 110.10 131.90 102.50 136.40 C 94.90 140.80 89.50 151.10 93.10 159.50 C 96.60 168.00 107.00 170.90 111.20 179.00 C 113.70 183.70 113.60 189.50 115.50 194.60 C 118.60 202.60 126.40 207.70 134.40 209.20 C 142.40 210.60 150.60 208.90 158.50 206.60 C 166.30 204.30 174.10 201.40 182.20 200.50 C 194.60 199.10 207.70 202.20 219.30 197.20 C 229.90 192.60 240.80 180.00 240.50 167.90 C 240.30 159.00 234.00 154.60 234.30 140.20 C 234.40 135.60 235.00 135.00 234.80 130.70 C 234.70 129.70 234.70 128.90 234.60 128.40 C 233.60 118.60 229.20 108.00 222.20 100.80 C 215.30 93.70 205.60 93.10 203.30 92.90 C 201.80 92.80 189.90 92.10 180.20 100.20 Z" fill="#26120f" fill-rule="nonzero" node-id="69" stroke="none" target-height="118.5" target-width="151.30002" target-x="89.49999" target-y="92.09999"></path><path d="M 241.00 54.80 C 241.00 54.80 259.90 39.30 257.00 12.40 C 257.00 12.40 254.60 7.00 240.70 35.00 C 240.70 35.00 238.70 28.10 237.00 27.50 C 235.20 26.90 234.10 36.50 234.40 39.70 C 234.70 42.80 237.00 51.50 241.00 54.80 Z" fill="#ffe9f9" fill-rule="nonzero" id="XMLID_1133_" node-id="15" stroke="none" target-height="47.8" target-width="25.799988" target-x="234.1" target-y="7"></path><path d="M 170.40 86.60 C 170.40 83.30 167.00 86.00 165.90 89.50 C 166.80 81.70 163.00 59.00 160.20 58.60 C 159.00 58.40 158.50 60.60 158.40 61.70 C 157.90 75.50 154.10 83.30 154.70 96.80 C 154.90 100.40 154.90 103.00 157.30 105.80 C 159.90 108.90 164.40 109.80 168.10 106.30 C 170.00 104.50 170.50 95.90 170.40 86.60 Z" fill="#ffe9f9" fill-rule="nonzero" id="XMLID_1132_" node-id="16" stroke="none" target-height="51.40001" target-width="16.399994" target-x="154.1" target-y="58.4"></path><path d="M 187.10 145.80 L 181.50 167.60 L 205.70 171.30 L 210.20 148.20 Z" fill="#ffe9f9" fill-rule="nonzero" id="XMLID_1131_" node-id="17" stroke="none" target-height="25.5" target-width="28.699997" target-x="181.5" target-y="145.8"></path><path d="M 164.10 183.90 C 166.20 180.70 176.60 160.90 174.80 159.70 C 163.70 152.20 149.20 147.00 136.60 142.50 C 142.00 135.60 164.50 115.50 169.40 107.10 C 165.10 103.80 158.90 97.60 154.60 94.30 C 141.40 105.90 106.00 128.70 104.40 141.20 C 102.50 156.90 149.40 177.70 164.10 183.90 Z" fill="#fffaf5" fill-rule="nonzero" id="XMLID_1130_" node-id="18" stroke="none" target-height="89.59999" target-width="74.1" target-x="102.50001" target-y="94.3"></path><path d="M 251.90 41.80 C 246.70 45.60 242.80 47.20 236.70 49.00 C 239.40 68.10 247.10 106.30 250.20 123.80 C 236.30 139.00 227.00 146.00 216.20 160.40 C 216.10 160.50 216.10 160.60 216.00 160.70 C 190.10 165.60 195.70 166.40 174.80 159.60 C 164.80 156.40 159.50 169.50 154.90 179.00 C 143.80 201.30 131.60 248.30 108.10 283.20 C 120.80 293.20 167.30 309.10 214.00 298.20 C 211.20 265.70 215.70 209.10 237.40 184.80 C 251.80 168.60 276.10 148.10 279.10 134.80 C 285.10 109.20 260.00 67.00 251.90 41.80 Z" fill="#fffaf5" fill-rule="nonzero" node-id="75" stroke="none" target-height="267.30002" target-width="177.00002" target-x="108.09999" target-y="41.8"></path><path d="M 176.50 133.20 C 176.60 141.40 185.00 158.00 195.50 159.50 C 213.30 162.00 221.90 139.90 222.80 130.00 C 223.40 123.90 223.30 117.50 220.70 111.90 C 217.60 105.20 210.90 100.40 203.60 99.50 C 186.00 97.20 176.30 118.00 176.50 133.20 Z" fill="#ffe9f9" fill-rule="nonzero" id="XMLID_1126_" node-id="20" stroke="none" target-height="64.8" target-width="47.099976" target-x="176.30002" target-y="97.2"></path><path d="M 179.30 124.70 C 180.80 123.30 198.40 109.60 200.90 104.00 C 200.90 105.90 218.80 124.70 220.60 125.60 C 229.10 123.70 218.30 117.80 226.00 115.80 C 225.50 112.00 222.20 107.80 221.30 106.60 C 215.90 99.60 208.10 97.90 205.70 97.40 C 203.10 96.90 196.70 95.70 189.80 98.90 C 181.70 102.70 178.30 110.00 177.00 113.40 C 184.00 114.30 172.20 123.70 179.30 124.70 Z" fill="#26120f" fill-rule="nonzero" node-id="78" stroke="none" target-height="29.900002" target-width="56.90001" target-x="172.2" target-y="95.7"></path><path d="M 226.90 128.10 C 228.70 130.20 228.40 133.20 227.00 135.20 C 224.80 138.20 219.60 139.70 217.00 138.40 C 216.80 138.30 216.40 138.10 216.20 137.80 C 214.80 136.00 218.30 132.60 219.40 130.30 C 220.20 128.60 220.70 126.40 223.40 126.20 C 225.10 125.90 226.60 127.80 226.90 128.10 Z" fill="#ffe9f9" fill-rule="nonzero" id="XMLID_1124_" node-id="22" stroke="none" target-height="13.799995" target-width="13.900009" target-x="214.79999" target-y="125.9"></path><path d="M 173.90 124.60 C 171.30 125.90 171.40 129.30 171.40 129.80 C 171.20 134.50 175.60 138.70 177.50 138.20 C 178.70 137.80 178.90 135.50 181.10 134.90 C 181.60 134.80 181.80 134.80 182.10 134.60 C 183.90 133.60 181.30 130.10 180.80 128.00 C 180.40 126.50 180.50 124.70 177.90 123.80 C 176.30 123.40 174.40 124.30 173.90 124.60 Z" fill="#ffe9f9" fill-rule="nonzero" id="XMLID_1123_" node-id="23" stroke="none" target-height="15.300003" target-width="12.699997" target-x="171.2" target-y="123.399994"></path><path d="M 222.50 127.30 C 222.80 127.30 223.10 127.20 223.40 127.20 C 224.40 126.60 225.60 126.40 226.70 126.60 C 226.80 126.60 226.90 126.70 227.10 126.70 C 227.40 126.70 227.70 126.60 228.00 126.60 C 228.00 126.60 228.00 126.60 228.00 126.60 C 228.30 126.40 228.40 126.00 228.40 125.60 C 229.10 122.40 229.00 119.10 228.20 116.00 C 227.90 114.90 227.50 113.70 226.90 112.80 C 226.20 111.90 225.30 111.20 224.20 111.10 C 223.10 111.00 222.00 111.60 221.40 112.70 L 220.70 113.50 C 219.20 118.20 219.00 123.40 220.30 128.10 C 221.10 127.70 221.80 127.50 222.50 127.30 Z" fill="#26120f" fill-rule="nonzero" node-id="82" stroke="none" target-height="17.100006" target-width="10.100006" target-x="219" target-y="111"></path><path d="M 177.60 110.60 C 178.10 109.80 178.60 109.10 179.30 108.50 C 180.00 108.00 180.90 107.60 181.70 107.80 C 182.50 108.00 183.30 108.60 183.50 109.50 L 183.90 110.20 C 184.10 114.40 182.80 118.80 180.40 122.10 C 180.10 120.20 178.50 118.70 176.70 118.60 C 176.30 118.60 175.90 118.60 175.70 118.30 C 175.50 118.10 175.50 117.80 175.60 117.50 C 175.70 115.10 176.40 112.70 177.60 110.60 Z" fill="#26120f" fill-rule="nonzero" node-id="84" stroke="none" target-height="14.5" target-width="8.600006" target-x="175.5" target-y="107.6"></path><g node-id="117"><path d="M 211.10 130.90 C 211.10 131.00 209.80 130.80 209.20 130.70 C 207.90 130.50 207.50 130.20 207.20 130.20 C 207.20 130.20 207.10 130.20 207.00 130.10 C 206.90 130.00 206.90 129.70 206.90 129.70 C 206.90 129.30 207.70 129.00 208.40 128.70 C 210.10 128.00 210.60 127.70 210.60 127.80 C 210.70 128.00 208.90 129.50 208.30 129.60 C 208.30 129.60 208.20 129.60 208.20 129.70 C 208.20 129.80 208.80 130.00 209.40 130.20 C 210.10 130.30 211.20 130.70 211.10 130.90 Z" fill="#633935" fill-rule="nonzero" group-id="3" id="XMLID_64_" node-id="27" stroke="#633935" stroke-linecap="butt" stroke-width="0.4319" target-height="3.300003" target-width="4.300003" target-x="206.9" target-y="127.7"></path><path d="M 191.30 129.70 C 191.20 130.70 190.40 131.50 189.60 131.40 C 188.70 131.30 188.10 130.40 188.20 129.40 C 188.30 128.40 189.10 127.60 189.90 127.70 C 190.80 127.80 191.40 128.70 191.30 129.70 Z" fill="#633935" fill-rule="nonzero" group-id="3" id="XMLID_63_" node-id="28" stroke="none" target-height="3.9000015" target-width="3.2999725" target-x="188.10002" target-y="127.6"></path><path d="M 200.50 128.20 C 200.30 129.40 200.00 131.00 199.20 132.90 C 198.20 135.00 197.20 136.00 197.60 136.60 C 197.90 137.00 198.80 137.30 202.00 136.50" fill="#ffb8a8" fill-rule="nonzero" group-id="3" node-id="90" stroke="none" target-height="9.100006" target-width="4.800003" target-x="197.2" target-y="128.2"></path><g node-id="118"><g node-id="120"><path d="M 185.30 123.50 C 186.80 122.90 188.30 122.50 189.90 122.40 C 191.40 122.30 192.80 122.70 194.20 123.00 C 194.50 123.10 194.70 122.70 194.40 122.50 C 191.60 121.10 187.70 121.70 185.20 123.20 C 185.00 123.40 185.10 123.60 185.30 123.50 L 185.30 123.50 Z" fill="#633935" fill-rule="nonzero" group-id="3,4,6" node-id="96" stroke="none" target-height="2.5" target-width="9.699997" target-x="185" target-y="121.1"></path></g></g><g node-id="119"><g node-id="121"><path d="M 205.30 122.60 C 208.00 122.20 210.40 122.70 213.10 122.90 C 213.30 122.90 213.30 122.70 213.20 122.60 C 210.80 121.40 207.70 121.70 205.20 122.50 C 205.20 122.50 205.20 122.60 205.30 122.60 L 205.30 122.60 Z" fill="#633935" fill-rule="nonzero" group-id="3,5,7" node-id="104" stroke="none" target-height="1.5" target-width="8.100006" target-x="205.2" target-y="121.4"></path></g></g><path d="M 194.90 142.80 C 195.20 145.30 196.50 147.70 199.30 147.90 C 202.70 148.20 204.30 146.00 205.00 143.10 C 205.10 142.90 205.00 142.70 204.80 142.50 C 203.80 143.00 194.90 143.50 194.90 142.80 Z" fill="#af4a4a" fill-rule="nonzero" group-id="3" node-id="108" stroke="none" target-height="5.699997" target-width="10.200012" target-x="194.9" target-y="142.5"></path></g><path d="M 222.70 130.50 C 222.70 130.50 224.50 128.00 225.10 131.30 C 225.70 134.50 222.30 134.20 222.30 134.20 L 222.70 130.50 Z" fill="#ffb8a8" fill-rule="nonzero" node-id="111" stroke="none" target-height="6.5" target-width="3.399994" target-x="222.3" target-y="128"></path><path d="M 176.40 128.70 C 176.40 128.70 174.60 126.20 174.00 129.50 C 173.40 132.70 176.80 132.40 176.80 132.40 L 176.40 128.70 Z" fill="#ffb8a8" fill-rule="nonzero" node-id="113" stroke="none" target-height="6.5000076" target-width="3.399994" target-x="173.40001" target-y="126.19999"></path></svg>