<?xml version="1.0" standalone="no"?><!DOCTYPE svg PUBLIC "-//W3C//DTD SVG 1.1//EN" "http://www.w3.org/Graphics/SVG/1.1/DTD/svg11.dtd"><svg height="400" node-id="1" sillyvg="true" template-height="400" template-width="600" version="1.1" viewBox="0 0 600 400" width="600" xmlns="http://www.w3.org/2000/svg" xmlns:xlink="http://www.w3.org/1999/xlink"><defs node-id="110"></defs><path d="M 0.00 0.00 L 600.00 0.00 L 600.00 400.00 L 0.00 400.00 Z" fill="#ffffff" fill-rule="evenodd" node-id="113" stroke="none" target-height="400" target-width="600" target-x="0" target-y="0"></path><g node-id="146"><path d="M 466.41 189.62 C 466.41 189.62 462.25 76.46 530.39 85.01 C 538.21 88.60 524.60 101.09 517.32 103.78 C 507.92 107.27 514.18 120.09 504.01 125.27 C 491.53 131.64 494.68 140.45 493.22 154.80 C 492.16 165.13 471.14 171.82 466.41 189.62 Z" fill="#f3f9ff" fill-rule="nonzero" group-id="1" id="Path" node-id="7" stroke="none" target-height="113.15933" target-width="75.958984" target-x="462.2494" target-y="76.45679"></path><path d="M 460.92 223.21 C 460.92 223.21 498.53 124.80 553.25 170.99 C 558.58 178.51 542.49 181.33 535.34 179.46 C 526.09 177.04 526.75 191.50 516.23 190.09 C 503.32 188.36 502.79 197.64 496.33 208.99 C 491.68 217.15 471.41 210.81 460.92 223.21 Z" fill="#e7f4fe" fill-rule="nonzero" group-id="1" id="Path" node-id="8" stroke="none" target-height="98.41734" target-width="97.66043" target-x="460.92148" target-y="124.79707"></path><path d="M 468.86 216.55 C 468.86 216.55 479.10 90.65 542.27 120.20 C 547.71 123.32 537.91 133.92 528.86 134.65 C 519.81 135.38 522.65 152.89 516.01 162.55 C 508.64 173.26 494.98 171.64 492.44 187.93 C 490.62 199.66 475.34 196.62 468.86 216.55 Z" fill="#dceefd" fill-rule="nonzero" group-id="1" id="Path" node-id="9" stroke="none" target-height="125.90685" target-width="78.84903" target-x="468.861" target-y="90.64631"></path></g><g node-id="147"><path d="M 412.45 237.83 C 411.47 235.44 408.94 234.09 406.41 234.59 L 398.42 236.17 C 396.54 236.54 394.59 235.89 393.32 234.45 C 391.98 232.93 390.55 231.49 389.05 230.16 C 387.62 228.88 386.97 226.94 387.34 225.06 L 388.92 217.09 C 389.42 214.56 388.06 212.03 385.68 211.04 L 373.89 206.16 C 371.51 205.17 368.77 206.00 367.33 208.15 L 362.81 214.90 C 361.75 216.49 359.91 217.40 358.00 217.29 C 355.99 217.18 353.97 217.18 351.95 217.30 C 350.03 217.42 348.19 216.51 347.12 214.91 L 342.59 208.15 C 341.16 206.00 338.41 205.17 336.03 206.16 L 324.24 211.04 C 321.86 212.03 320.51 214.56 321.01 217.09 L 322.59 225.08 C 322.96 226.96 322.31 228.91 320.87 230.18 C 319.35 231.53 317.92 232.96 316.58 234.46 C 315.31 235.89 313.37 236.54 311.49 236.17 L 303.52 234.59 C 300.99 234.09 298.46 235.44 297.47 237.83 L 292.59 249.62 C 291.60 252.00 292.44 254.75 294.58 256.18 L 301.33 260.71 C 302.92 261.77 303.83 263.60 303.72 265.52 C 303.60 267.52 303.61 269.55 303.73 271.58 C 303.85 273.50 302.94 275.33 301.34 276.40 L 294.58 280.93 C 292.44 282.37 291.60 285.11 292.59 287.50 L 297.47 299.29 C 298.46 301.67 300.99 303.02 303.52 302.52 L 311.50 300.94 C 313.38 300.57 315.33 301.23 316.60 302.66 C 317.95 304.19 319.38 305.62 320.88 306.96 C 322.31 308.23 322.96 310.17 322.59 312.05 L 321.01 320.02 C 320.51 322.55 321.86 325.08 324.24 326.07 L 336.03 330.96 C 338.41 331.94 341.16 331.11 342.59 328.97 L 347.11 322.21 C 348.18 320.62 350.01 319.71 351.92 319.82 C 353.93 319.94 355.95 319.93 357.98 319.81 C 359.90 319.69 361.73 320.60 362.80 322.20 L 367.33 328.97 C 368.77 331.11 371.51 331.94 373.89 330.96 L 385.68 326.07 C 388.06 325.08 389.41 322.55 388.91 320.02 L 387.33 312.04 C 386.96 310.15 387.62 308.21 389.05 306.93 C 390.58 305.59 392.01 304.16 393.35 302.66 C 394.62 301.22 396.56 300.57 398.44 300.95 L 406.41 302.52 C 408.94 303.02 411.47 301.67 412.45 299.29 L 417.33 287.49 C 418.32 285.11 417.49 282.37 415.35 280.93 L 408.60 276.41 C 407.01 275.34 406.09 273.51 406.20 271.60 C 406.32 269.59 406.32 267.57 406.19 265.54 C 406.08 263.62 406.99 261.78 408.59 260.71 L 415.35 256.18 C 417.49 254.75 418.32 252.00 417.33 249.62 L 412.45 237.83 Z M 365.31 293.54 C 351.51 299.25 335.70 292.70 329.99 278.91 C 324.28 265.11 330.83 249.29 344.62 243.58 C 358.41 237.86 374.22 244.41 379.93 258.21 C 385.65 272.01 379.10 287.82 365.31 293.54 Z" fill="#f3f9ff" fill-rule="nonzero" group-id="2" id="Shape" node-id="11" stroke="none" target-height="126.77115" target-width="126.71579" target-x="291.60464" target-y="205.17105"></path></g><g node-id="148"><g node-id="155"><path d="M 127.68 50.04 L 470.62 50.04 L 470.62 252.82 L 127.68 252.82 Z" fill="#f3f9ff" fill-rule="nonzero" group-id="3,10" id="Rectangle" node-id="14" stroke="none" target-height="202.78482" target-width="342.93713" target-x="127.680534" target-y="50.03797"></path><path d="M 472.11 38.77 L 126.19 38.77 C 120.79 38.77 116.42 43.15 116.42 48.55 L 116.42 254.31 C 116.42 259.71 120.79 264.09 126.19 264.09 L 472.11 264.09 C 477.50 264.09 481.88 259.71 481.88 254.31 L 481.88 48.55 C 481.88 43.15 477.50 38.77 472.11 38.77 Z M 470.62 252.82 L 127.68 252.82 L 127.68 50.04 L 470.62 50.04 L 470.62 252.82 L 470.62 252.82 Z" fill="#224380" fill-rule="nonzero" group-id="3,10" id="Shape" node-id="15" stroke="none" target-height="225.31647" target-width="365.45932" target-x="116.41947" target-y="38.772152"></path></g><g node-id="156"><path d="M 449.06 241.68 L 260.86 241.68 C 258.37 241.68 256.36 239.66 256.36 237.17 L 256.36 70.77 C 256.36 68.28 258.37 66.26 260.86 66.26 L 449.06 66.26 C 451.55 66.26 453.57 68.28 453.57 70.77 L 453.57 237.17 C 453.57 239.66 451.55 241.68 449.06 241.68 Z" fill="#dae7ff" fill-rule="nonzero" group-id="3,11" id="Path" node-id="17" stroke="none" target-height="175.41968" target-width="197.21002" target-x="256.35663" target-y="66.26076"></path><path d="M 449.06 237.17 L 260.86 237.17 C 258.37 237.17 256.36 235.16 256.36 232.67 L 256.36 66.26 C 256.36 63.77 258.37 61.75 260.86 61.75 L 449.06 61.75 C 451.55 61.75 453.57 63.77 453.57 66.26 L 453.57 232.67 C 453.57 235.16 451.55 237.17 449.06 237.17 Z" fill="#ffffff" fill-rule="nonzero" group-id="3,11" id="Path" node-id="18" stroke="none" target-height="175.41968" target-width="197.21002" target-x="256.35663" target-y="61.75443"></path><path d="M 242.79 106.52 L 146.71 106.52 C 144.22 106.52 142.20 104.50 142.20 102.01 L 142.20 70.77 C 142.20 68.28 144.22 66.26 146.71 66.26 L 242.79 66.26 C 245.28 66.26 247.29 68.28 247.29 70.77 L 247.29 102.01 C 247.29 104.50 245.28 106.52 242.79 106.52 Z" fill="#dae7ff" fill-rule="nonzero" group-id="3,11" id="Path" node-id="19" stroke="none" target-height="40.260437" target-width="105.09363" target-x="142.201" target-y="66.26076"></path><path d="M 242.79 102.01 L 146.71 102.01 C 144.22 102.01 142.20 100.00 142.20 97.51 L 142.20 66.26 C 142.20 63.77 144.22 61.75 146.71 61.75 L 242.79 61.75 C 245.28 61.75 247.29 63.77 247.29 66.26 L 247.29 97.51 C 247.29 100.00 245.28 102.01 242.79 102.01 Z" fill="#ffffff" fill-rule="nonzero" group-id="3,11" id="Path" node-id="20" stroke="none" target-height="40.26045" target-width="105.09363" target-x="142.201" target-y="61.75443"></path><path d="M 242.79 168.03 L 146.71 168.03 C 144.22 168.03 142.20 166.02 142.20 163.53 L 142.20 132.28 C 142.20 129.79 144.22 127.77 146.71 127.77 L 242.79 127.77 C 245.28 127.77 247.29 129.79 247.29 132.28 L 247.29 163.53 C 247.29 166.02 245.28 168.03 242.79 168.03 Z" fill="#dae7ff" fill-rule="nonzero" group-id="3,11" id="Path" node-id="21" stroke="none" target-height="40.260437" target-width="105.09363" target-x="142.201" target-y="127.773056"></path><path d="M 242.79 163.53 L 146.71 163.53 C 144.22 163.53 142.20 161.51 142.20 159.02 L 142.20 127.77 C 142.20 125.28 144.22 123.27 146.71 123.27 L 242.79 123.27 C 245.28 123.27 247.29 125.28 247.29 127.77 L 247.29 159.02 C 247.29 161.51 245.28 163.53 242.79 163.53 Z" fill="#ffffff" fill-rule="nonzero" group-id="3,11" id="Path" node-id="22" stroke="none" target-height="40.260437" target-width="105.09363" target-x="142.201" target-y="123.26672"></path><path d="M 367.72 84.48 L 274.61 84.48 C 273.61 84.48 272.81 83.68 272.81 82.68 L 272.81 75.07 C 272.81 74.07 273.61 73.26 274.61 73.26 L 367.72 73.26 C 368.71 73.26 369.52 74.07 369.52 75.07 L 369.52 82.68 C 369.52 83.68 368.71 84.48 367.72 84.48 Z" fill="#1b90fb" fill-rule="nonzero" group-id="3,11" id="Path" node-id="23" stroke="none" target-height="11.218056" target-width="96.70911" target-x="272.8086" target-y="73.263596"></path><path d="M 312.34 142.30 L 274.61 142.30 C 273.62 142.30 272.81 141.49 272.81 140.50 L 272.81 132.88 C 272.81 131.89 273.62 131.08 274.61 131.08 L 312.34 131.08 C 313.34 131.08 314.14 131.89 314.14 132.88 L 314.14 140.50 C 314.14 141.49 313.33 142.30 312.34 142.30 Z" fill="#7266d5" fill-rule="nonzero" group-id="3,11" id="Path" node-id="24" stroke="none" target-height="11.218048" target-width="41.33258" target-x="272.8095" target-y="131.0798"></path><g node-id="159"><path d="M 435.47 95.06 L 274.45 95.06 C 273.54 95.06 272.81 94.33 272.81 93.42 L 272.81 93.41 C 272.81 92.51 273.54 91.77 274.45 91.77 L 435.47 91.77 C 436.38 91.77 437.11 92.51 437.11 93.41 L 437.11 93.42 C 437.11 94.33 436.38 95.06 435.47 95.06 Z" fill="#dceefd" fill-rule="nonzero" group-id="3,11,14" node-id="138" stroke="none" target-height="3.2869186" target-width="164.3052" target-x="272.8086" target-y="91.77469"></path><path d="M 435.47 104.64 L 274.45 104.64 C 273.54 104.64 272.81 103.90 272.81 103.00 L 272.81 102.99 C 272.81 102.08 273.54 101.35 274.45 101.35 L 435.47 101.35 C 436.38 101.35 437.11 102.08 437.11 102.99 L 437.11 103.00 C 437.11 103.90 436.38 104.64 435.47 104.64 Z" fill="#dceefd" fill-rule="nonzero" group-id="3,11,14" node-id="140" stroke="none" target-height="3.2869186" target-width="164.3052" target-x="272.8086" target-y="101.34974"></path><path d="M 435.47 114.21 L 274.45 114.21 C 273.54 114.21 272.81 113.48 272.81 112.57 L 272.81 112.57 C 272.81 111.66 273.54 110.92 274.45 110.92 L 435.47 110.92 C 436.38 110.92 437.11 111.66 437.11 112.57 L 437.11 112.57 C 437.11 113.48 436.38 114.21 435.47 114.21 Z" fill="#dceefd" fill-rule="nonzero" group-id="3,11,14" node-id="142" stroke="none" target-height="3.286911" target-width="164.3052" target-x="272.8086" target-y="110.92479"></path><path d="M 335.36 123.79 L 274.45 123.79 C 273.54 123.79 272.81 123.05 272.81 122.15 L 272.81 122.14 C 272.81 121.23 273.54 120.50 274.45 120.50 L 335.36 120.50 C 336.27 120.50 337.00 121.23 337.00 122.14 L 337.00 122.15 C 337.00 123.05 336.27 123.79 335.36 123.79 Z" fill="#dceefd" fill-rule="nonzero" group-id="3,11,14" node-id="144" stroke="none" target-height="3.2869186" target-width="64.19437" target-x="272.8086" target-y="120.49893"></path></g></g></g><g node-id="149"><path d="M 81.12 168.78 L 100.15 187.81 L 100.15 201.33 L 81.12 182.29 L 62.10 201.33 L 62.10 187.81 Z" fill="#f3f9ff" fill-rule="nonzero" group-id="4" id="Path" node-id="31" stroke="none" target-height="32.55011" target-width="38.052475" target-x="62.096115" target-y="168.77884"></path><path d="M 81.12 144.99 L 100.15 164.02 L 100.15 177.54 L 81.12 158.50 L 62.10 177.54 L 62.10 164.02 Z" fill="#e7f4fe" fill-rule="nonzero" group-id="4" id="Path" node-id="32" stroke="none" target-height="32.54921" target-width="38.052475" target-x="62.096115" target-y="144.98633"></path><path d="M 81.12 121.19 L 100.15 140.23 L 100.15 153.74 L 81.12 134.71 L 62.10 153.74 L 62.10 140.23 Z" fill="#dceefd" fill-rule="nonzero" group-id="4" id="Path" node-id="33" stroke="none" target-height="32.549217" target-width="38.052475" target-x="62.096115" target-y="121.19291"></path><path d="M 81.12 97.40 L 100.15 116.43 L 100.15 129.95 L 81.12 110.91 L 62.10 129.95 L 62.10 116.43 Z" fill="#d0e7fe" fill-rule="nonzero" group-id="4" id="Path" node-id="34" stroke="none" target-height="32.54921" target-width="38.052475" target-x="62.096115" target-y="97.39949"></path></g><g node-id="150"><path d="M 146.96 38.77 L 149.53 38.77 L 149.53 195.55 L 146.96 195.55 Z" fill="#0d1f42" fill-rule="nonzero" group-id="5" id="Rectangle" node-id="36" stroke="none" target-height="156.7815" target-width="2.570221" target-x="146.95767" target-y="38.772152"></path><g node-id="157"><path d="M 224.26 137.56 L 213.53 137.56 C 213.05 137.56 212.66 137.17 212.66 136.69 L 212.66 136.69 C 212.66 136.21 213.05 135.82 213.53 135.82 L 224.26 135.82 L 226.51 136.69 L 224.26 137.56 Z" fill="#224380" fill-rule="nonzero" group-id="5,12" id="Path" node-id="38" stroke="none" target-height="1.7349396" target-width="13.851105" target-x="212.66373" target-y="135.82045"></path><path d="M 171.69 222.13 L 172.36 225.42 L 168.05 226.03 L 166.74 222.92 Z" fill="#f1b282" fill-rule="nonzero" group-id="5,12" id="Path" node-id="39" stroke="none" target-height="3.8997803" target-width="5.6170197" target-x="166.742" target-y="222.13017"></path><path d="M 172.45 225.03 C 172.45 225.03 168.36 226.10 167.02 226.23 C 165.68 226.36 163.40 229.24 162.02 229.68 C 160.35 230.21 160.55 232.13 161.82 232.47 C 163.60 232.95 173.99 232.78 174.02 229.26 C 174.05 225.53 172.45 225.03 172.45 225.03 Z" fill="#102b5e" fill-rule="nonzero" group-id="5,12" id="Path" node-id="40" stroke="none" target-height="7.924835" target-width="13.693451" target-x="160.35474" target-y="225.02774"></path><path d="M 178.87 221.05 L 177.04 223.91 L 181.01 225.97 L 183.39 223.51 Z" fill="#f1b282" fill-rule="nonzero" group-id="5,12" id="Path" node-id="41" stroke="none" target-height="4.9217987" target-width="6.3485413" target-x="177.04092" target-y="221.04956"></path><path d="M 160.62 192.63 C 159.28 194.27 162.89 223.15 165.07 224.55 C 167.24 225.96 172.73 222.93 172.73 222.93 C 172.73 222.93 176.24 196.23 174.63 192.63 C 173.02 189.03 161.96 191.00 160.62 192.63 Z" fill="#0b224e" fill-rule="nonzero" group-id="5,12" id="Path" node-id="42" stroke="none" target-height="36.92935" target-width="16.95465" target-x="159.28178" target-y="189.03299"></path><path d="M 207.00 194.24 C 205.39 185.24 186.35 177.86 181.01 177.57 C 175.67 177.29 156.47 183.71 155.14 184.94 C 153.82 186.17 153.24 195.57 164.97 195.28 C 176.71 195.00 182.20 193.29 182.20 193.29 C 182.20 193.29 189.18 196.12 193.52 197.92 C 189.44 202.45 178.15 215.54 178.23 221.51 C 178.60 223.22 183.05 225.02 184.28 224.45 C 185.51 223.88 208.61 203.24 207.00 194.24 Z" fill="#102b5e" fill-rule="nonzero" group-id="5,12" id="Path" node-id="43" stroke="none" target-height="47.726532" target-width="55.372894" target-x="153.23685" target-y="177.2904"></path><path d="M 176.99 134.44 C 176.99 134.44 175.20 141.07 174.06 142.59 C 172.92 144.10 181.82 146.37 182.77 145.43 C 183.71 144.48 183.90 138.04 183.90 138.04 C 183.90 138.04 188.64 139.17 189.87 138.16 C 191.10 137.14 191.48 135.29 191.57 134.73 C 191.67 134.16 193.37 133.54 193.37 132.69 C 193.37 131.84 192.52 125.96 190.86 124.59 C 189.94 123.84 179.27 120.52 178.23 126.58 C 177.18 132.64 176.99 134.44 176.99 134.44 Z" fill="#f1b282" fill-rule="nonzero" group-id="5,12" id="Path" node-id="44" stroke="none" target-height="25.851013" target-width="20.444702" target-x="172.92477" target-y="120.52237"></path><path d="M 178.04 136.15 C 180.97 136.15 185.80 135.29 185.80 132.36 C 185.80 129.42 182.01 125.16 185.80 125.64 C 189.58 126.11 192.52 126.11 192.52 122.13 C 192.52 116.64 178.12 110.64 172.93 123.16 C 169.33 131.84 174.27 136.15 178.04 136.15 Z" fill="#102b5e" fill-rule="nonzero" group-id="5,12" id="Path" node-id="45" stroke="none" target-height="25.504921" target-width="23.192383" target-x="169.32845" target-y="110.64179"></path><path d="M 209.96 144.00 C 209.96 144.00 213.71 140.32 214.15 139.79 C 216.13 137.39 215.30 134.46 218.07 134.46 C 219.59 134.46 222.31 135.60 222.39 137.52 C 222.42 138.34 222.70 141.38 220.23 141.77 C 218.16 142.09 212.63 147.82 212.63 147.82 L 209.96 144.00 Z" fill="#f1b282" fill-rule="nonzero" group-id="5,12" id="Path" node-id="46" stroke="none" target-height="13.3567505" target-width="12.734909" target-x="209.96016" target-y="134.45865"></path><path d="M 215.33 144.69 C 214.85 141.66 211.34 141.17 209.27 143.08 C 208.61 143.69 200.70 147.72 197.25 150.22 C 194.24 146.40 186.58 140.17 176.87 140.17 C 163.08 140.17 147.94 153.71 147.94 163.09 C 147.94 169.62 151.64 170.06 155.04 169.08 C 153.92 173.51 152.44 181.06 153.71 186.38 C 154.68 190.46 166.01 185.62 170.56 184.96 C 175.10 184.30 184.47 184.58 184.09 179.94 C 183.72 175.30 182.79 160.63 190.71 160.99 C 194.31 160.99 194.97 163.47 198.10 163.47 C 204.07 163.46 215.99 148.95 215.33 144.69 Z" fill="#1b90fb" fill-rule="nonzero" group-id="5,12" id="Path" node-id="47" stroke="none" target-height="50.291534" target-width="68.05556" target-x="147.93604" target-y="140.17087"></path><path d="M 174.39 117.21 C 174.39 117.21 174.57 110.48 164.97 110.48 C 145.48 110.48 153.24 128.67 152.95 138.13 C 152.67 147.60 148.13 146.94 147.94 150.26 C 147.75 153.57 166.39 150.92 167.72 138.04 C 169.04 125.16 169.99 119.23 172.74 120.33 C 175.48 121.44 174.39 117.21 174.39 117.21 Z" fill="#102b5e" fill-rule="nonzero" group-id="5,12" id="Path" node-id="48" stroke="none" target-height="43.085907" target-width="30.005768" target-x="145.47572" target-y="110.48407"></path><path d="M 176.95 115.52 C 178.83 116.41 174.49 124.23 171.85 123.21 C 169.22 122.19 174.50 114.35 176.95 115.52 Z" fill="#1b90fb" fill-rule="nonzero" group-id="5,12" id="Path" node-id="49" stroke="none" target-height="9.876968" target-width="9.613358" target-x="169.21764" target-y="114.3523"></path><path d="M 155.02 169.17 C 155.02 169.17 158.25 156.93 162.94 153.81 C 162.94 153.81 157.12 169.17 153.31 183.82 C 153.31 183.82 153.07 175.06 155.02 169.17 Z" fill="#1277d7" fill-rule="nonzero" group-id="5,12" id="Path" node-id="50" stroke="none" target-height="30.017578" target-width="9.873703" target-x="153.06567" target-y="153.807"></path><path d="M 193.37 198.09 L 196.07 198.98 C 196.07 198.98 189.46 205.34 185.36 207.77 C 185.36 207.77 191.38 198.92 193.37 198.09 Z" fill="#0b224e" fill-rule="nonzero" group-id="5,12" id="Path" node-id="51" stroke="none" target-height="9.680511" target-width="10.712418" target-x="185.3552" target-y="198.0853"></path><path d="M 177.03 223.13 C 177.03 223.13 181.47 225.92 183.03 226.60 C 184.59 227.28 186.04 231.30 187.51 232.33 C 189.28 233.57 188.19 235.57 186.51 235.43 C 184.15 235.24 171.72 230.90 173.26 227.08 C 174.88 223.03 177.03 223.13 177.03 223.13 Z" fill="#102b5e" fill-rule="nonzero" group-id="5,12" id="Path" node-id="52" stroke="none" target-height="12.536621" target-width="17.561844" target-x="171.7185" target-y="223.03323"></path></g><path d="M 142.87 201.06 L 209.25 201.06 C 211.03 201.06 212.47 199.62 212.47 197.83 L 212.47 197.53 C 212.47 195.75 211.03 194.30 209.25 194.30 L 142.87 194.30 C 141.09 194.30 139.64 195.75 139.64 197.53 L 139.64 197.83 C 139.64 199.62 141.09 201.06 142.87 201.06 Z" fill="#0d1f42" fill-rule="nonzero" group-id="5" id="Path" node-id="53" stroke="none" target-height="6.759491" target-width="72.83295" target-x="139.64159" target-y="194.30089"></path><path d="M 204.10 38.77 L 206.67 38.77 L 206.67 195.55 L 204.10 195.55 Z" fill="#0d1f42" fill-rule="nonzero" group-id="5" id="Rectangle" node-id="54" stroke="none" target-height="156.7815" target-width="2.570221" target-x="204.09811" target-y="38.772152"></path></g><g node-id="151"><path d="M 423.75 135.87 L 465.47 135.87 L 465.47 139.48 L 423.75 139.48 Z" fill="#183168" fill-rule="nonzero" group-id="6" id="Rectangle" node-id="56" stroke="none" target-height="3.605072" target-width="41.71637" target-x="423.74918" target-y="135.87363"></path><path d="M 423.47 162.76 L 464.48 162.76 L 464.48 166.37 L 423.47 166.37 Z" fill="#183168" fill-rule="nonzero" group-id="6" id="Rectangle" node-id="57" stroke="none" target-height="3.605072" target-width="41.00647" target-x="423.469" target-y="162.7611"></path><path d="M 423.75 197.47 L 465.82 197.47 L 465.82 201.07 L 423.75 201.07 Z" fill="#183168" fill-rule="nonzero" group-id="6" id="Rectangle" node-id="58" stroke="none" target-height="3.6050568" target-width="42.070404" target-x="423.74918" target-y="197.46974"></path><path d="M 429.54 229.06 L 465.22 229.06 L 465.22 232.66 L 429.54 232.66 Z" fill="#183168" fill-rule="nonzero" group-id="6" id="Rectangle" node-id="59" stroke="none" target-height="3.6050568" target-width="35.68405" target-x="429.53555" target-y="229.05821"></path><path d="M 423.89 328.13 L 465.25 328.13 L 465.25 331.73 L 423.89 331.73 Z" fill="#183168" fill-rule="nonzero" group-id="6" id="Rectangle" node-id="60" stroke="none" target-height="3.6050415" target-width="41.360535" target-x="423.88702" target-y="328.12628"></path><path d="M 423.89 360.48 L 465.25 360.48 L 465.25 364.08 L 423.89 364.08 Z" fill="#183168" fill-rule="nonzero" group-id="6" id="Rectangle" node-id="61" stroke="none" target-height="3.6050415" target-width="41.360535" target-x="423.88702" target-y="360.479"></path><path d="M 424.10 260.17 L 465.46 260.17 L 465.46 263.77 L 424.10 263.77 Z" fill="#183168" fill-rule="nonzero" group-id="6" id="Rectangle" node-id="62" stroke="none" target-height="3.6050415" target-width="41.360535" target-x="424.10413" target-y="260.16632"></path><path d="M 463.75 122.13 L 467.36 122.13 L 467.36 379.00 L 463.75 379.00 Z" fill="#183168" fill-rule="nonzero" group-id="6" id="Rectangle" node-id="63" stroke="none" target-height="256.86887" target-width="3.6035461" target-x="463.75388" target-y="122.131134"></path><path d="M 423.01 122.13 L 426.61 122.13 L 426.61 379.00 L 423.01 379.00 Z" fill="#183168" fill-rule="nonzero" group-id="6" id="Rectangle" node-id="64" stroke="none" target-height="256.86887" target-width="3.6035156" target-x="423.01135" target-y="122.131134"></path><g node-id="158"><path d="M 389.19 155.55 L 390.05 153.89 C 390.34 153.32 390.39 152.67 390.19 152.06 C 389.99 151.45 389.57 150.95 389.00 150.66 L 379.38 145.75 C 378.61 145.36 378.31 144.41 378.70 143.65 L 380.71 139.70 C 380.90 139.33 381.23 139.05 381.62 138.92 C 382.02 138.79 382.44 138.83 382.81 139.02 L 386.41 140.86 L 386.79 140.11 L 383.19 138.27 C 382.62 137.98 381.97 137.93 381.36 138.13 C 380.76 138.33 380.26 138.75 379.97 139.32 L 377.95 143.27 C 377.35 144.45 377.82 145.89 379.00 146.49 L 388.62 151.41 C 388.99 151.60 389.27 151.92 389.39 152.32 C 389.52 152.71 389.49 153.14 389.30 153.51 L 388.45 155.18 L 389.19 155.55 Z" fill="#4d78cc" fill-rule="nonzero" group-id="6,13" id="Path" node-id="66" stroke="none" target-height="17.625153" target-width="13.035797" target-x="377.3527" target-y="137.92943"></path><path d="M 384.37 143.90 L 400.71 152.25 C 401.80 152.80 403.13 152.37 403.68 151.28 L 405.36 147.99 C 405.92 146.90 405.49 145.57 404.40 145.02 L 388.06 136.67 C 386.98 136.12 385.65 136.55 385.09 137.64 L 383.41 140.93 C 382.86 142.01 383.29 143.34 384.37 143.90 Z" fill="#7266d5" fill-rule="nonzero" group-id="6,13" id="Path" node-id="67" stroke="none" target-height="16.680634" target-width="23.059937" target-x="382.85712" target-y="136.11877"></path><path d="M 387.38 163.30 L 391.03 156.14 C 391.59 155.06 391.16 153.73 390.07 153.17 L 389.86 153.06 C 388.78 152.51 387.45 152.94 386.89 154.03 L 383.24 161.19 C 382.69 162.28 383.12 163.61 384.20 164.16 L 384.41 164.27 C 385.49 164.82 386.82 164.39 387.38 163.30 Z" fill="#224380" fill-rule="nonzero" group-id="6,13" id="Path" node-id="68" stroke="none" target-height="12.311295" target-width="8.903442" target-x="382.68503" target-y="152.5101"></path></g><path d="M 425.56 295.77 L 466.92 295.77 L 466.92 299.38 L 425.56 299.38 Z" fill="#183168" fill-rule="nonzero" group-id="6" id="Rectangle" node-id="69" stroke="none" target-height="3.605072" target-width="41.360535" target-x="425.55814" target-y="295.7726"></path><path d="M 440.06 287.17 L 441.72 292.00 C 441.72 292.00 445.10 295.05 446.84 290.70 C 446.84 290.70 446.30 287.76 446.10 286.69 C 445.90 285.62 440.06 287.17 440.06 287.17 Z" fill="#f1b282" fill-rule="nonzero" group-id="6" id="Path" node-id="70" stroke="none" target-height="9.430847" target-width="6.78006" target-x="440.0633" target-y="285.61896"></path><path d="M 447.37 287.47 L 438.91 287.47 C 438.91 287.47 430.99 256.35 428.78 248.11 C 427.05 241.61 425.03 220.15 425.83 210.16 C 426.59 200.63 442.80 205.79 443.64 212.48 C 446.12 232.10 441.51 246.65 441.75 250.08 C 445.77 260.26 447.37 287.47 447.37 287.47 Z" fill="#102b5e" fill-rule="nonzero" group-id="6" id="Path" node-id="71" stroke="none" target-height="86.84238" target-width="22.34375" target-x="425.02844" target-y="200.62778"></path><path d="M 424.15 148.90 C 423.13 151.10 423.63 152.30 423.38 153.22 C 423.13 154.15 422.17 156.02 422.13 156.91 C 422.09 157.80 423.03 157.92 423.23 159.08 C 423.44 160.24 422.90 161.75 423.61 162.96 C 424.32 164.18 427.06 163.90 426.90 165.07 C 426.74 166.25 425.01 170.60 425.01 170.60 L 436.29 170.78 C 436.29 170.78 435.84 164.44 436.41 161.82 C 436.99 159.20 438.26 149.58 435.92 148.41 C 433.57 147.24 425.24 146.56 424.15 148.90 Z" fill="#f1b282" fill-rule="nonzero" group-id="6" id="Path" node-id="72" stroke="none" target-height="24.218811" target-width="16.173584" target-x="422.08704" target-y="146.56265"></path><path d="M 430.35 143.91 C 439.74 144.20 443.03 146.57 442.92 153.91 C 442.86 158.28 440.45 164.33 437.28 164.31 C 434.99 164.30 430.49 164.04 429.70 162.80 C 427.83 159.83 429.43 155.74 428.18 154.33 C 426.39 152.32 422.34 153.36 422.90 146.44 C 423.45 139.53 427.22 143.81 430.35 143.91 Z" fill="#0b224e" fill-rule="nonzero" group-id="6" id="Path" node-id="73" stroke="none" target-height="24.805542" target-width="20.687897" target-x="422.3411" target-y="139.52736"></path><path d="M 451.67 141.81 C 451.67 141.81 453.27 137.36 452.98 134.97 C 452.52 131.13 443.38 131.11 442.99 134.44 C 442.57 137.97 444.22 138.90 445.29 139.82 C 446.37 140.74 447.60 142.35 447.90 142.97 C 448.21 143.58 451.20 143.58 451.67 141.81 Z" fill="#f1b282" fill-rule="nonzero" group-id="6" id="Path" node-id="74" stroke="none" target-height="12.469009" target-width="10.6944275" target-x="442.57135" target-y="131.11404"></path><path d="M 387.49 167.51 C 387.49 167.51 382.99 166.03 381.29 164.34 C 378.55 161.61 384.15 154.39 387.02 156.13 C 390.06 157.97 389.77 159.84 389.84 161.25 C 389.90 162.67 390.42 164.63 390.71 165.25 C 391.01 165.87 389.17 168.23 387.49 167.51 Z" fill="#f1b282" fill-rule="nonzero" group-id="6" id="Path" node-id="75" stroke="none" target-height="13.8389435" target-width="12.46286" target-x="378.54636" target-y="154.39284"></path><path d="M 417.76 279.80 L 420.19 284.29 C 420.19 284.29 424.02 286.75 425.03 282.17 C 425.03 282.17 424.01 279.37 423.64 278.34 C 423.27 277.32 417.76 279.80 417.76 279.80 Z" fill="#f1b282" fill-rule="nonzero" group-id="6" id="Path" node-id="76" stroke="none" target-height="9.435364" target-width="7.268341" target-x="417.7601" target-y="277.31647"></path><path d="M 418.01 210.57 C 418.01 210.57 401.71 233.66 401.31 238.29 C 400.59 246.65 416.54 279.86 416.54 279.86 L 424.79 278.09 C 424.79 278.09 419.27 253.06 414.90 244.52 C 423.30 233.17 436.60 226.82 436.60 211.99 C 436.60 207.97 418.01 210.57 418.01 210.57 Z" fill="#0b224e" fill-rule="nonzero" group-id="6" id="Path" node-id="77" stroke="none" target-height="71.89668" target-width="36.00656" target-x="400.59283" target-y="207.9677"></path><path d="M 435.18 168.90 C 432.76 168.74 428.27 168.98 425.65 168.93 C 418.94 168.81 409.88 174.77 402.62 176.90 C 397.87 171.76 390.91 163.61 390.91 163.61 L 385.06 167.23 C 385.06 167.23 395.51 185.25 401.93 186.29 C 405.82 186.91 412.06 186.67 416.91 184.66 C 416.91 190.70 409.18 214.35 414.86 215.56 C 420.54 216.76 429.49 214.70 435.00 215.56 C 440.51 216.42 446.53 220.55 445.16 210.22 C 443.78 199.89 437.75 201.00 450.66 181.29 C 454.05 176.13 457.98 168.61 457.38 162.30 C 456.22 149.97 453.22 140.71 453.22 140.71 L 446.82 141.74 C 446.82 141.74 447.37 154.72 448.75 162.30 C 447.37 165.94 445.29 168.45 442.92 171.05 C 441.62 172.47 438.96 168.76 435.18 168.90 Z" fill="#ffcb01" fill-rule="nonzero" group-id="6" id="Path" node-id="78" stroke="none" target-height="79.84404" target-width="72.91943" target-x="385.06155" target-y="140.70982"></path><path d="M 446.99 289.55 C 447.66 289.46 448.36 290.18 448.33 292.84 C 448.30 295.50 448.43 296.91 446.36 297.20 C 445.06 297.38 440.18 296.09 435.41 296.17 C 433.69 296.20 430.53 295.39 429.42 293.92 C 429.19 293.61 429.14 293.18 429.29 292.81 C 429.44 292.44 429.76 292.21 430.11 292.22 C 433.94 292.32 434.01 292.70 437.11 290.49 C 438.24 289.69 439.18 288.94 439.78 288.90 C 440.93 288.82 441.47 290.36 443.35 290.16 C 445.24 289.96 445.83 289.70 446.99 289.55 Z" fill="#0b224e" fill-rule="nonzero" group-id="6" id="Path" node-id="79" stroke="none" target-height="8.55838" target-width="19.282562" target-x="429.14456" target-y="288.82117"></path><path d="M 425.09 280.88 C 425.79 280.74 426.70 281.67 427.05 284.13 C 427.40 286.59 428.11 288.56 425.95 289.00 C 424.59 289.27 417.53 288.55 412.47 289.04 C 410.64 289.21 408.50 288.33 407.11 287.06 C 406.83 286.80 406.71 286.40 406.82 286.05 C 406.92 285.69 407.23 285.45 407.60 285.43 C 411.70 285.20 411.83 285.54 414.82 283.24 C 415.90 282.41 416.80 281.63 417.43 281.55 C 418.65 281.37 419.38 282.42 421.36 282.08 C 423.34 281.73 423.88 281.12 425.09 280.88 Z" fill="#0b224e" fill-rule="nonzero" group-id="6" id="Path" node-id="80" stroke="none" target-height="8.532257" target-width="21.395111" target-x="406.71072" target-y="280.74042"></path></g><g node-id="152"><path d="M 229.06 217.66 C 232.13 217.26 234.87 219.21 234.87 221.60 C 234.87 222.12 234.67 223.06 235.06 224.25 C 235.33 225.04 236.44 226.07 236.43 227.15 C 236.42 228.24 234.81 227.99 234.93 228.96 C 235.06 229.93 235.71 231.93 235.26 232.70 C 234.81 233.48 229.77 232.58 229.64 234.38 C 229.51 236.19 230.80 239.67 230.80 239.67 L 219.96 238.84 C 219.96 238.84 219.06 222.10 219.96 220.83 C 221.48 218.70 226.61 217.99 229.06 217.66 Z" fill="#f1b282" fill-rule="nonzero" group-id="7" id="Path" node-id="82" stroke="none" target-height="22.407272" target-width="17.385284" target-x="219.0591" target-y="217.25883"></path><path d="M 209.37 366.17 C 209.37 366.17 207.36 374.79 209.35 376.51 L 213.76 376.92 C 214.16 376.95 214.51 376.66 214.55 376.26 L 214.61 375.57 C 214.61 375.57 216.46 377.37 217.91 377.51 C 219.37 377.64 227.13 377.70 227.13 377.70 C 227.13 377.70 228.92 378.18 229.08 376.44 C 229.30 373.95 222.96 373.62 220.54 371.36 C 218.11 369.09 216.99 366.87 216.99 366.87 L 209.37 366.17 Z" fill="#0b224e" fill-rule="evenodd" group-id="7" id="Path" node-id="83" stroke="none" target-height="12.006653" target-width="21.949158" target-x="207.35571" target-y="366.1732"></path><path d="M 232.61 368.49 C 232.61 368.49 231.39 377.25 233.54 378.79 L 237.96 378.79 C 238.36 378.79 238.69 378.46 238.69 378.05 L 238.69 377.36 C 238.69 377.36 240.69 378.99 242.15 378.99 C 243.61 378.99 252.96 378.98 252.96 378.98 C 252.96 378.98 254.79 379.29 254.79 377.55 C 254.79 375.05 246.83 374.67 244.21 372.63 C 241.59 370.60 240.26 368.48 240.26 368.48 L 232.61 368.48 L 232.61 368.49 Z" fill="#0b224e" fill-rule="evenodd" group-id="7" id="Path" node-id="84" stroke="none" target-height="10.808899" target-width="23.395096" target-x="231.39131" target-y="368.48492"></path><path d="M 270.66 267.34 C 270.66 267.97 270.40 268.58 269.93 269.02 C 254.22 283.93 227.47 283.81 227.47 283.81 L 227.47 249.88 C 227.47 249.88 251.62 252.11 269.36 235.64 C 269.58 235.43 269.91 235.37 270.20 235.50 C 270.48 235.62 270.66 235.90 270.66 236.21 L 270.66 267.34 Z" fill="#1b90fb" fill-rule="nonzero" group-id="7" id="Path" node-id="85" stroke="none" target-height="48.55301" target-width="43.1875" target-x="227.47247" target-y="235.37247"></path><path d="M 262.34 255.05 C 262.34 255.05 264.76 252.24 265.24 251.66 C 265.72 251.08 266.12 247.69 266.99 246.82 C 267.85 245.95 270.59 244.44 271.31 244.52 C 272.34 244.64 273.43 249.02 273.05 252.17 C 272.71 255.06 271.11 256.04 268.70 256.43 C 267.44 256.63 265.07 259.43 264.87 260.21 L 262.34 255.05 Z" fill="#f1b282" fill-rule="nonzero" group-id="7" id="Path" node-id="86" stroke="none" target-height="15.764038" target-width="11.089905" target-x="262.33582" target-y="244.44101"></path><path d="M 232.06 245.10 C 232.06 245.10 232.40 240.10 230.67 239.55 C 228.94 239.01 220.74 236.55 219.64 238.20 C 218.53 239.85 218.37 244.17 218.37 244.17 L 232.06 245.10 Z" fill="#1eaf69" fill-rule="nonzero" group-id="7" id="Path" node-id="87" stroke="none" target-height="8.544891" target-width="14.025879" target-x="218.37082" target-y="236.55313"></path><path d="M 237.65 217.44 C 237.50 212.37 216.41 211.24 215.95 222.34 C 215.69 228.75 217.37 234.06 218.85 234.04 C 222.73 233.99 220.36 227.22 222.60 226.92 C 225.10 226.59 222.58 237.96 228.91 237.29 C 239.53 236.17 236.76 228.24 230.18 229.50 C 223.60 230.77 225.25 223.44 230.73 222.07 C 236.22 220.69 237.75 221.13 237.65 217.44 Z" fill="#0b224e" fill-rule="nonzero" group-id="7" id="Path" node-id="88" stroke="none" target-height="26.723434" target-width="23.842834" target-x="215.69159" target-y="211.23567"></path><path d="M 211.91 292.72 C 211.91 292.72 211.44 309.74 213.75 327.00 L 208.30 366.99 C 208.26 367.32 208.35 367.64 208.56 367.89 C 208.77 368.14 209.07 368.29 209.40 368.31 L 218.63 368.78 C 219.17 368.81 219.66 368.46 219.81 367.94 C 221.27 362.82 228.52 337.06 229.04 328.35 C 229.62 318.67 231.75 292.91 227.10 290.20 C 222.46 287.49 212.50 284.77 211.91 292.72 Z" fill="#0b224e" fill-rule="nonzero" group-id="7" id="Path" node-id="89" stroke="none" target-height="84.04303" target-width="23.48967" target-x="208.2593" target-y="284.76544"></path><path d="M 217.62 291.75 C 218.91 301.94 227.88 330.68 230.01 334.55 L 231.31 369.02 C 231.34 369.79 231.94 370.43 232.72 370.50 L 240.42 371.20 C 240.83 371.24 241.25 371.11 241.57 370.83 C 241.89 370.56 242.08 370.17 242.10 369.75 L 244.33 332.01 C 244.33 332.01 241.82 293.88 237.17 290.01 C 232.52 286.13 216.95 286.52 217.62 291.75 Z" fill="#102b5e" fill-rule="nonzero" group-id="7" id="Path" node-id="90" stroke="none" target-height="85.104706" target-width="27.3797" target-x="216.95284" target-y="286.13358"></path><path d="M 217.51 265.68 C 220.28 263.61 223.49 260.89 224.55 258.68 C 226.57 254.52 225.40 236.71 217.99 242.14 C 210.57 247.56 204.92 263.89 205.22 269.41 C 205.53 274.93 230.34 286.06 230.34 286.06 L 232.46 277.08 C 232.46 277.07 222.41 269.32 217.51 265.68 Z" fill="#1eaf69" fill-rule="nonzero" group-id="7" id="Path" node-id="91" stroke="none" target-height="49.3479" target-width="27.540955" target-x="204.91791" target-y="236.71356"></path><path d="M 267.58 258.34 L 263.56 253.03 C 263.31 252.70 262.84 252.63 262.50 252.87 C 260.55 254.26 254.41 258.75 250.22 262.74 C 246.72 256.53 237.75 241.54 232.52 241.20 C 229.66 240.33 220.52 239.07 216.84 242.56 C 213.17 246.05 214.52 254.57 213.94 267.74 C 213.36 280.90 207.75 293.10 212.20 295.04 C 216.65 296.98 221.10 292.14 227.10 292.33 C 233.11 292.52 240.48 296.01 241.05 291.17 C 241.57 286.81 236.93 276.02 237.41 267.41 C 241.76 272.10 247.06 276.98 249.75 276.26 C 254.27 275.04 265.33 261.97 267.56 259.30 C 267.79 259.03 267.80 258.63 267.58 258.34 Z" fill="#2ccd7f" fill-rule="nonzero" group-id="7" id="Path" node-id="92" stroke="none" target-height="57.90541" target-width="60.050278" target-x="207.74669" target-y="239.07307"></path><path d="M 238.46 277.45 C 234.99 274.72 228.42 267.85 230.20 256.12 C 230.20 256.12 230.88 257.15 232.02 258.96 C 233.30 260.95 235.17 263.89 237.39 267.39 C 237.39 267.39 237.39 267.40 237.40 267.40 L 237.40 267.40 C 237.21 270.59 237.74 274.10 238.46 277.45 Z" fill="#1eaf69" fill-rule="nonzero" group-id="7" id="Path" node-id="93" stroke="none" target-height="21.333862" target-width="10.034958" target-x="228.4211" target-y="256.116"></path></g><g node-id="153"><path d="M 496.74 47.92 C 496.74 61.61 485.65 72.71 471.97 72.71 C 458.28 72.71 447.19 61.61 447.19 47.92 C 447.19 34.24 458.28 23.14 471.97 23.14 C 485.65 23.14 496.74 34.24 496.74 47.92 Z" fill="#dbfeed" fill-rule="nonzero" group-id="8" id="Oval" node-id="95" stroke="none" target-height="49.569626" target-width="49.548676" target-x="447.192" target-y="23.139696"></path><path d="M 491.24 47.92 C 491.24 58.57 482.61 67.20 471.97 67.20 C 461.32 67.20 452.70 58.57 452.70 47.92 C 452.70 37.28 461.32 28.65 471.97 28.65 C 482.61 28.65 491.24 37.28 491.24 47.92 Z" fill="#9aeec5" fill-rule="nonzero" group-id="8" id="Oval" node-id="96" stroke="none" target-height="38.55435" target-width="38.538055" target-x="452.6973" target-y="28.647333"></path><path d="M 485.73 47.92 C 485.73 55.53 479.57 61.69 471.97 61.69 C 464.36 61.69 458.20 55.53 458.20 47.92 C 458.20 40.32 464.36 34.15 471.97 34.15 C 479.57 34.15 485.73 40.32 485.73 47.92 Z" fill="#60dfa0" fill-rule="nonzero" group-id="8" id="Oval" node-id="97" stroke="none" target-height="27.539078" target-width="27.527435" target-x="458.2026" target-y="34.15497"></path><path d="M 470.53 53.43 C 470.51 53.43 470.49 53.43 470.47 53.43 C 470.09 53.42 469.73 53.24 469.49 52.95 L 465.36 48.13 C 464.86 47.56 464.93 46.69 465.51 46.19 C 466.09 45.70 466.95 45.77 467.45 46.34 L 470.62 50.04 L 477.94 42.81 C 478.48 42.28 479.35 42.29 479.89 42.83 C 480.42 43.37 480.41 44.24 479.87 44.77 L 471.50 53.04 C 471.24 53.29 470.89 53.43 470.53 53.43 Z" fill="#ffffff" fill-rule="nonzero" group-id="8" id="Path" node-id="98" stroke="none" target-height="11.153168" target-width="15.5555725" target-x="464.86285" target-y="42.278976"></path></g><g node-id="154"><path d="M 115.53 287.85 C 115.18 287.85 114.87 287.59 114.82 287.23 C 111.76 262.51 114.16 247.67 121.95 243.14 C 129.43 238.78 138.89 245.70 139.28 245.99 C 139.60 246.23 139.67 246.68 139.43 246.99 C 139.19 247.31 138.73 247.37 138.44 247.13 C 138.35 247.07 129.36 240.47 122.66 244.37 C 117.67 247.27 112.52 257.04 116.24 287.05 C 116.29 287.44 116.01 287.80 115.62 287.84 C 115.59 287.85 115.56 287.85 115.53 287.85 Z" fill="#2ccd7f" fill-rule="nonzero" group-id="9" id="Path" node-id="100" stroke="none" target-height="49.066727" target-width="27.905815" target-x="111.75919" target-y="238.78377"></path><path d="M 100.17 348.86 L 107.31 373.91 C 107.83 375.72 112.39 377.13 117.94 377.13 C 123.49 377.13 128.05 375.72 128.57 373.91 L 135.70 348.86 L 100.17 348.86 Z" fill="#c3d3f3" fill-rule="nonzero" group-id="9" id="Path" node-id="101" stroke="none" target-height="28.275421" target-width="35.52909" target-x="100.17382" target-y="348.85626"></path><path d="M 135.73 348.65 C 135.73 348.72 135.72 348.79 135.70 348.86 C 135.17 350.73 127.42 352.21 117.94 352.21 C 108.46 352.21 100.71 350.73 100.18 348.86 C 100.16 348.79 100.15 348.72 100.15 348.65 C 100.15 346.68 108.11 345.09 117.94 345.09 C 127.77 345.09 135.73 346.69 135.73 348.65 Z" fill="#dae7ff" fill-rule="nonzero" group-id="9" id="Path" node-id="102" stroke="none" target-height="7.119995" target-width="35.58496" target-x="100.14679" target-y="345.0908"></path><path d="M 116.45 348.62 C 116.76 331.38 116.62 314.06 115.40 296.86 C 114.68 288.30 113.96 279.60 111.51 271.48 C 110.83 269.54 110.07 267.43 108.73 266.20 C 107.49 264.80 105.66 265.60 104.32 267.23 C 101.56 270.25 99.77 274.30 97.95 278.14 L 97.93 278.18 C 97.76 278.54 97.34 278.69 96.98 278.52 C 96.63 278.35 96.48 277.93 96.64 277.58 C 98.46 273.62 100.12 269.56 103.16 266.11 C 103.87 265.22 104.89 264.50 106.07 263.97 C 107.43 263.61 108.95 263.99 109.86 264.92 C 111.74 266.66 112.43 268.84 113.23 270.90 C 115.91 279.36 116.72 288.05 117.59 296.68 C 119.08 313.99 119.47 331.32 119.42 348.68 C 119.42 349.50 118.75 350.16 117.93 350.16 C 117.11 350.16 116.45 349.49 116.45 348.67 C 116.45 348.66 116.45 348.63 116.45 348.62 Z" fill="#2ccd7f" fill-rule="nonzero" group-id="9" id="Path" node-id="103" stroke="none" target-height="86.553955" target-width="22.996887" target-x="96.477486" target-y="263.60825"></path><path d="M 117.83 325.11 C 117.43 325.11 117.12 324.79 117.12 324.39 C 117.12 305.25 119.72 294.70 124.84 293.04 C 129.57 291.49 134.31 297.99 134.52 298.26 C 134.75 298.58 134.68 299.02 134.36 299.26 C 134.04 299.49 133.59 299.42 133.36 299.10 C 133.31 299.04 129.05 293.19 125.28 294.39 C 122.21 295.39 118.54 301.41 118.54 324.39 C 118.54 324.79 118.22 325.11 117.83 325.11 Z" fill="#2ccd7f" fill-rule="nonzero" group-id="9" id="Path" node-id="104" stroke="none" target-height="33.616302" target-width="17.62761" target-x="117.11766" target-y="291.4907"></path><path d="M 114.34 275.44 C 114.34 275.44 116.72 260.63 104.48 246.10 C 104.48 246.10 111.02 261.66 114.34 275.44 Z" fill="#2ccd7f" fill-rule="nonzero" group-id="9" id="Path" node-id="105" stroke="none" target-height="29.333511" target-width="12.238525" target-x="104.48455" target-y="246.10475"></path><path d="M 133.94 298.68 C 129.39 290.49 138.20 280.92 144.95 280.92 C 151.69 280.92 160.91 291.03 160.91 291.03 C 160.91 291.03 144.95 289.36 144.95 291.64 C 144.95 293.92 158.53 289.95 163.98 292.63 C 169.43 295.31 170.33 303.14 170.33 303.14 C 170.33 303.14 148.02 297.99 147.92 299.77 C 147.82 301.56 170.23 301.76 171.72 306.22 C 173.20 310.68 172.71 314.85 172.71 314.85 C 172.71 314.85 151.79 305.53 151.19 308.70 C 150.60 311.87 172.79 312.47 172.79 318.52 C 172.79 324.57 169.04 336.27 169.93 338.26 C 169.93 338.26 157.04 342.62 153.87 338.26 C 150.70 333.89 150.10 321.40 147.52 321.40 C 144.95 321.40 146.04 336.98 151.99 340.20 C 151.99 340.20 140.29 342.62 139.10 335.28 C 137.91 327.94 140.78 315.25 138.70 314.35 C 136.62 313.46 131.76 327.75 138.01 337.96 C 138.01 337.96 129.08 339.65 128.09 331.71 C 127.10 323.78 132.25 310.75 130.77 310.75 C 129.28 310.75 121.15 322.88 121.75 329.83 C 121.75 329.83 112.03 322.78 114.01 318.02 C 115.99 313.26 123.53 307.71 122.24 306.62 C 120.95 305.52 112.23 311.97 111.73 315.74 C 111.73 315.74 107.07 305.03 116.19 296.50 C 123.05 290.08 133.94 298.68 133.94 298.68 Z" fill="#45d48f" fill-rule="nonzero" group-id="9" id="Path" node-id="106" stroke="none" target-height="61.698853" target-width="66.132164" target-x="107.07099" target-y="280.92426"></path><path d="M 164.22 271.41 C 164.22 271.41 169.63 262.44 165.99 257.69 C 157.99 247.16 150.05 249.98 150.13 248.12 C 150.20 246.27 162.81 247.38 165.40 251.31 C 165.40 251.31 165.25 241.08 160.66 241.08 C 156.06 241.08 150.20 243.30 149.76 241.89 C 149.31 240.48 159.99 239.44 159.99 239.44 C 159.99 239.44 152.14 234.40 145.43 234.99 C 137.17 235.72 138.86 246.56 138.86 246.56 C 138.86 246.56 132.48 235.44 126.63 241.00 C 120.77 246.56 122.85 252.72 125.22 256.43 C 126.70 252.20 131.15 246.42 132.19 247.94 C 133.23 249.46 121.51 259.84 129.74 265.77 C 131.08 259.54 136.04 250.12 137.45 252.05 C 139.06 252.49 129.67 264.71 132.34 269.11 C 135.01 272.08 138.86 273.64 138.86 273.64 C 138.86 273.64 140.34 255.61 143.31 257.47 C 146.27 259.32 137.01 269.85 141.75 275.05 C 146.50 280.24 155.32 279.79 156.13 282.39 C 156.13 282.39 164.14 276.31 162.81 271.78 C 161.00 265.66 151.84 262.44 152.50 260.92 C 153.17 259.40 163.47 261.84 164.22 271.41 Z M 150.13 253.17 C 149.91 251.98 151.02 250.94 156.13 252.50 C 161.25 254.05 164.51 261.84 164.51 261.84 C 160.73 254.95 150.35 254.35 150.13 253.17 Z" fill="#7be6b1" fill-rule="nonzero" group-id="9" id="Shape" node-id="107" stroke="none" target-height="47.9879" target-width="48.855896" target-x="120.77075" target-y="234.40001"></path><path d="M 71.34 298.92 C 72.12 301.61 56.08 305.01 51.72 314.87 C 48.51 322.15 60.59 334.07 60.59 334.07 C 62.52 329.91 77.19 332.57 86.26 324.91 C 95.33 317.25 82.11 297.60 87.48 295.15 C 92.84 292.69 91.41 323.18 91.41 323.18 C 91.41 323.18 98.20 321.41 103.31 317.03 C 108.74 310.23 95.67 287.73 98.46 287.36 C 101.24 284.43 107.50 301.28 108.38 312.00 C 123.45 303.86 106.10 283.93 108.17 281.61 C 110.23 279.29 116.42 289.94 117.99 297.34 C 122.76 291.65 127.58 281.80 118.98 271.21 C 110.39 260.62 97.29 277.86 97.29 277.86 C 97.29 277.86 102.49 260.08 88.82 257.06 C 77.71 254.61 63.47 261.34 63.47 261.34 C 63.47 261.34 81.12 265.40 80.07 267.67 C 79.01 269.93 69.69 264.93 62.00 263.93 C 54.30 262.93 51.83 280.03 51.83 280.03 C 57.03 274.02 78.37 274.90 78.09 278.02 C 77.81 281.14 65.14 274.69 49.45 290.58 C 42.34 297.74 49.45 313.94 49.45 313.94 C 52.77 298.08 70.55 296.23 71.34 298.92 Z M 51.03 297.86 C 51.03 297.86 58.18 285.53 67.09 284.04 C 75.99 282.54 77.62 284.52 76.99 286.46 C 76.36 288.40 58.86 287.13 51.03 297.86 Z" fill="#9aeec5" fill-rule="nonzero" group-id="9" id="Shape" node-id="108" stroke="none" target-height="79.4655" target-width="85.23993" target-x="42.337" target-y="254.6082"></path></g></svg>