<?xml version="1.0" standalone="no"?><!DOCTYPE svg PUBLIC "-//W3C//DTD SVG 1.1//EN" "http://www.w3.org/Graphics/SVG/1.1/DTD/svg11.dtd"><svg height="600" node-id="1" sillyvg="true" template-height="600" template-width="405" version="1.1" viewBox="0 0 405 600" width="405" xmlns="http://www.w3.org/2000/svg" xmlns:xlink="http://www.w3.org/1999/xlink"><defs node-id="15"><linearGradient gradientUnits="objectBoundingBox" id="SVGID_1_" node-id="7" spreadMethod="pad" x1="86.0591" x2="346.7951" y1="308.8554" y2="308.8554"><stop offset="0" stop-color="#5e3191"></stop><stop offset="0.4053" stop-color="#662d91"></stop><stop offset="1" stop-color="#3f4093"></stop></linearGradient></defs><path d="M 37.50 357.10 C 29.60 354.90 26.40 365.10 35.90 372.00 C 45.40 378.90 57.60 387.10 63.40 388.40 C 69.30 389.70 117.30 394.50 122.90 393.70 C 128.40 393.00 129.30 376.50 123.90 374.10 C 118.60 371.70 81.10 381.80 71.70 377.40 C 48.30 357.40 37.50 357.10 37.50 357.10 Z" fill="#ffe9f9" fill-rule="nonzero" node-id="28" stroke="none" target-height="39.600006" target-width="102.9" target-x="26.4" target-y="354.9"></path><path d="M 50.40 333.90 C 50.40 333.90 53.20 344.80 58.60 351.50 C 64.00 358.30 61.10 361.60 61.30 362.90 C 61.50 364.30 67.70 360.20 68.00 360.20 C 68.30 360.20 73.50 372.00 83.20 372.00 C 92.90 372.00 93.30 366.00 93.40 365.10 C 93.50 364.20 110.00 374.40 111.60 379.20 C 113.20 384.00 127.30 372.30 123.70 365.70 C 120.10 359.10 119.50 356.30 116.60 354.70 C 113.70 353.10 98.60 336.90 92.20 334.30 C 76.50 317.00 50.40 333.90 50.40 333.90 Z" fill="#ffe9f9" fill-rule="nonzero" node-id="30" stroke="none" target-height="67" target-width="76.9" target-x="50.4" target-y="317"></path><path d="M 305.90 221.30 C 309.90 220.90 322.50 189.90 314.80 179.80 C 307.10 169.80 318.90 171.40 323.00 163.10 C 327.10 154.70 339.20 131.20 343.50 132.10 C 347.80 133.00 341.50 183.90 340.30 187.80 C 339.10 191.70 330.50 219.20 326.20 229.50 C 321.90 239.80 305.90 221.30 305.90 221.30 Z" fill="#ffe9f9" fill-rule="nonzero" node-id="32" stroke="none" target-height="108.60002" target-width="41.899994" target-x="305.9" target-y="131.2"></path><path d="M 287.40 239.50 C 271.00 235.60 227.40 219.70 215.50 193.40 C 206.00 178.00 209.40 215.20 220.70 229.70 C 231.90 244.20 228.50 251.90 233.60 253.50 C 238.80 255.10 250.70 243.60 254.80 244.60 C 259.00 245.60 297.60 258.40 299.70 263.90 C 301.80 269.30 287.40 239.50 287.40 239.50 Z" fill="#ffe9f9" fill-rule="nonzero" node-id="34" stroke="none" target-height="91.29999" target-width="95.79999" target-x="206" target-y="178"></path><path d="M 119.90 356.20 C 119.90 358.90 115.60 377.70 111.00 378.00 C 106.40 378.30 161.40 404.40 178.10 392.50 C 194.30 381.00 220.10 371.70 225.60 367.50 C 231.10 363.30 348.30 399.90 389.00 229.10 C 380.00 227.90 377.30 229.80 371.30 222.80 C 365.30 215.70 366.20 194.30 360.30 194.20 C 354.40 194.10 340.50 221.40 333.70 221.40 C 326.90 221.40 325.80 210.60 318.70 213.60 C 311.60 216.60 311.50 219.40 309.40 219.20 C 307.30 219.00 300.40 200.10 294.50 197.50 C 288.60 194.90 268.30 191.50 268.00 200.50 C 267.70 209.50 271.50 218.80 270.90 224.50 C 270.30 230.10 263.80 232.50 268.30 241.80 C 272.80 251.20 293.70 256.50 291.00 266.90 C 288.30 277.30 251.80 282.20 242.80 288.10 C 234.10 294.10 119.90 356.20 119.90 356.20 Z" fill="url(#SVGID_1_)" fill-rule="nonzero" node-id="36" stroke="none" target-height="212.9" target-width="282.6" target-x="106.4" target-y="191.5"></path><path d="M 50.40 333.90 C 52.40 333.60 69.80 329.10 73.30 330.90 C 76.80 332.70 88.30 342.30 89.60 345.10 C 90.90 347.90 92.20 339.00 92.20 339.00 C 92.20 339.00 92.30 334.40 96.90 339.80 C 101.50 345.20 111.70 361.30 123.40 356.60 C 135.10 351.90 156.70 342.10 160.50 343.60 C 164.30 345.10 229.00 356.90 245.80 289.80 C 249.30 275.90 214.10 294.10 203.70 297.00 C 193.30 299.90 209.70 283.50 212.40 285.10 C 215.20 286.70 205.10 278.70 194.80 287.70 C 184.50 296.70 153.40 320.60 147.20 321.50 C 141.00 322.40 131.90 317.70 126.00 315.10 C 120.10 312.50 117.10 286.50 83.30 295.50 C 49.50 304.50 50.40 333.90 50.40 333.90 Z" fill="#26120f" fill-rule="nonzero" node-id="38" stroke="none" target-height="85.39996" target-width="199.8" target-x="49.5" target-y="275.9"></path><path d="M 139.80 354.30 C 125.70 351.70 117.60 420.80 117.80 428.80 C 118.00 436.80 73.90 432.10 65.80 425.60 C 57.70 419.10 50.40 410.30 41.00 407.70 C 31.70 405.10 2.30 405.50 21.50 423.00 C 33.20 428.20 45.70 428.50 47.90 430.10 C 50.10 431.70 113.50 459.50 127.70 454.60 C 141.90 449.70 151.70 365.70 151.20 364.60 C 151.90 357.40 139.80 354.30 139.80 354.30 Z" fill="#ffe9f9" fill-rule="nonzero" node-id="40" stroke="none" target-height="107.79999" target-width="149.59999" target-x="2.3" target-y="351.7"></path></svg>