<?xml version="1.0" standalone="no"?><!DOCTYPE svg PUBLIC "-//W3C//DTD SVG 1.1//EN" "http://www.w3.org/Graphics/SVG/1.1/DTD/svg11.dtd"><svg height="600" node-id="1" sillyvg="true" template-height="600" template-width="405" version="1.1" viewBox="0 0 405 600" width="405" xmlns="http://www.w3.org/2000/svg" xmlns:xlink="http://www.w3.org/1999/xlink"><defs node-id="36"><linearGradient gradientUnits="objectBoundingBox" id="SVGID_1_" node-id="13" spreadMethod="pad" x1="61.4653" x2="259.1765" y1="315.4043" y2="315.4043"><stop offset="0" stop-color="#662d91"></stop><stop offset="1" stop-color="#095996"></stop></linearGradient></defs><g node-id="117"><g node-id="121"><path d="M 236.30 304.90 C 232.40 310.60 225.20 313.50 218.30 313.40 C 211.40 313.30 204.70 310.70 198.60 307.50 C 193.50 304.90 188.70 301.80 184.70 297.70 C 175.50 288.40 171.90 275.20 168.50 262.60 C 160.60 265.60 159.30 276.30 160.60 284.60 C 165.00 312.10 184.50 336.70 210.30 347.20 C 215.30 349.30 220.90 350.80 226.20 349.60 C 234.20 347.80 239.80 339.90 241.30 331.80 C 242.90 323.70 241.30 315.40 239.70 307.30" fill="#ffe3f6" fill-rule="nonzero" group-id="1,5" node-id="51" stroke="none" target-height="88.19998" target-width="83.59999" target-x="159.3" target-y="262.6"></path></g><g node-id="122"><path d="M 133.80 367.10 C 113.60 367.60 93.40 367.60 73.20 366.90 C 63.10 366.60 52.20 365.80 44.40 360.50 C 41.40 358.40 37.90 355.40 34.20 356.50 C 29.60 357.90 30.70 363.40 32.80 367.10 C 35.20 371.50 37.70 376.00 41.90 379.50 C 47.10 383.90 54.40 386.10 61.60 387.80 C 89.30 394.20 119.40 393.30 146.30 385.40 C 148.20 384.80 150.10 384.20 151.60 383.10 C 155.50 380.00 153.70 374.20 149.50 371.30 C 145.30 368.40 139.50 367.60 134.10 366.90" fill="#ffe3f6" fill-rule="nonzero" group-id="1,6" node-id="56" stroke="none" target-height="38.80002" target-width="125.9" target-x="29.6" target-y="355.4"></path></g><g node-id="123"><path d="M 56.10 388.70 C 57.70 388.50 57.90 386.30 56.40 385.80 C 55.60 385.50 54.90 385.20 54.50 385.10 C 51.80 384.30 49.90 382.50 48.30 380.60 C 48.10 380.30 47.90 380.10 47.70 379.80 C 45.30 376.70 46.50 372.00 50.60 368.90 C 51.60 368.10 52.40 367.20 53.00 366.30 C 53.30 365.80 53.60 365.20 53.70 364.60 C 46.90 360.90 40.10 357.10 33.30 353.40 C 32.50 353.00 31.40 352.90 30.30 353.30 C 28.10 354.10 28.10 356.20 28.60 357.70 C 31.90 369.60 40.30 381.60 46.90 388.80 C 49.60 388.20 52.80 389.10 56.10 388.70 Z" fill="#404249" fill-rule="nonzero" group-id="1,7" node-id="61" stroke="none" target-height="36.19998" target-width="29.800001" target-x="28.1" target-y="352.90002"></path></g><g node-id="124"><path d="M 115.80 379.70 C 95.60 380.40 75.40 380.40 55.20 379.70 C 45.10 379.40 34.20 378.60 26.40 372.60 C 23.40 370.30 19.90 366.90 16.20 368.20 C 11.60 369.70 12.70 376.00 14.70 380.10 C 17.10 385.00 19.60 390.10 23.80 394.00 C 29.00 398.90 36.30 401.40 43.50 403.20 C 71.20 410.20 101.30 409.20 128.20 400.20 C 130.10 399.60 132.00 398.90 133.50 397.60 C 137.40 394.10 135.70 387.60 131.50 384.30 C 127.30 381.00 121.50 380.20 116.10 379.40" fill="#ffe9f9" fill-rule="nonzero" group-id="1,8" node-id="66" stroke="none" target-height="43.30005" target-width="125.799995" target-x="11.6" target-y="366.89996"></path></g><g node-id="125"><path d="M 249.50 212.10 C 244.60 209.50 239.00 214.70 237.60 219.90 C 236.20 225.10 236.50 231.00 232.90 235.10 C 230.10 238.30 225.40 239.50 222.60 242.70 C 218.90 246.90 219.40 253.30 220.30 258.80 C 222.70 273.50 226.00 288.30 223.90 302.90 C 221.70 317.50 212.60 332.20 197.80 336.30 C 180.10 341.20 159.70 336.60 141.60 335.40 C 134.80 334.90 127.60 335.20 121.70 338.30 C 113.40 342.60 112.20 350.30 112.90 358.60 C 116.30 400.30 131.70 440.30 178.80 451.10 C 212.60 458.80 264.40 453.00 289.30 428.40 C 326.40 391.70 292.90 329.10 286.20 286.40 C 283.70 270.50 284.60 254.00 277.80 238.90 C 272.40 227.00 262.30 217.00 250.10 211.30" fill="url(#SVGID_1_)" fill-rule="nonzero" group-id="1,9" node-id="71" stroke="none" target-height="249.30002" target-width="214.2" target-x="112.2" target-y="209.5"></path></g><g node-id="126"><path d="M 216.90 181.50 C 216.50 183.40 217.00 185.30 217.50 187.20 C 218.70 191.80 220.00 196.40 222.70 200.30 C 225.40 204.10 230.00 207.10 234.60 206.50 C 236.20 206.30 237.90 205.70 239.00 204.50 C 240.90 202.60 241.20 199.50 240.30 197.00 C 239.40 194.50 237.60 192.40 235.50 190.70 C 230.80 186.70 224.90 184.00 218.70 183.20" fill="#ffe9f9" fill-rule="nonzero" group-id="1,10" node-id="76" stroke="none" target-height="25.600006" target-width="24.700012" target-x="216.5" target-y="181.5"></path></g><g node-id="127"><path d="M 244.40 205.90 C 247.90 209.40 250.60 213.80 252.10 218.50 C 252.20 218.80 252.30 219.10 252.20 219.50 C 252.10 220.00 251.60 220.20 251.10 220.40 C 249.00 221.30 246.60 222.20 244.70 221.10 C 243.50 220.40 242.80 219.20 242.10 218.00 C 239.90 213.90 237.60 209.80 235.40 205.80 C 237.30 205.00 239.30 204.10 241.40 204.30 C 243.50 204.40 245.60 205.90 245.80 208.00" fill="#ffe9f9" fill-rule="nonzero" group-id="1,11" node-id="81" stroke="none" target-height="18.099976" target-width="16.90001" target-x="235.4" target-y="204.10002"></path></g><g node-id="128"><path d="M 221.40 173.30 C 218.20 171.90 215.00 176.10 215.90 179.40 C 216.80 182.70 219.70 185.00 221.90 187.70 C 223.70 189.80 225.00 192.20 226.60 194.50 C 230.80 200.50 236.40 205.50 242.00 210.40 C 252.30 219.40 263.90 229.00 277.70 229.20 C 280.00 229.20 282.60 229.00 284.60 230.20 C 286.90 231.50 288.00 234.20 289.30 236.40 C 293.00 242.60 300.00 246.20 306.70 249.30 C 325.40 257.90 346.00 265.30 366.20 262.00 C 370.90 261.30 375.60 259.90 379.10 257.00 C 381.50 255.00 383.30 252.50 385.00 250.00 C 389.70 243.30 394.50 236.30 396.20 228.30 C 398.50 217.40 394.50 205.40 385.80 197.70 C 377.20 190.00 364.30 187.00 353.10 190.10 C 346.30 192.00 339.40 195.90 332.50 193.80 C 324.70 191.30 321.50 182.00 314.40 177.90 C 302.40 171.00 286.90 181.80 273.60 177.80 C 264.30 175.00 256.40 165.10 247.10 167.60 C 242.90 168.80 239.50 172.40 235.10 172.40 C 232.40 172.40 229.90 171.00 227.20 170.40 C 224.50 169.80 221.10 170.40 220.30 172.90" fill="#26120f" fill-rule="nonzero" group-id="1,12" node-id="86" stroke="none" target-height="100.19998" target-width="183.5" target-x="215" target-y="165.1"></path></g><g node-id="129"><g node-id="131"><path d="M 276.10 240.10 C 270.80 237.00 264.70 236.80 259.20 239.40 C 257.50 240.20 259.00 242.80 260.70 242.00 C 265.20 239.90 270.30 240.20 274.60 242.70 C 276.30 243.60 277.80 241.00 276.10 240.10 L 276.10 240.10 Z" fill="#ec5049" fill-rule="nonzero" group-id="1,13,15" node-id="93" stroke="none" target-height="6.8000183" target-width="20.299988" target-x="257.5" target-y="236.8"></path></g></g><path d="M 273.70 237.50 C 272.60 233.30 266.90 231.60 263.10 233.60 C 259.20 235.60 257.30 240.10 256.90 244.40 C 256.60 248.70 257.60 253.00 258.30 257.30 C 262.00 280.90 254.60 306.10 238.60 323.90 C 245.70 327.90 253.60 330.60 261.60 332.00 C 270.20 333.40 279.90 333.00 286.60 327.50 C 288.10 326.30 289.50 324.70 289.90 322.80 C 290.20 321.50 290.00 320.00 289.80 318.70 C 286.80 296.40 283.70 274.00 280.70 251.70 C 280.20 248.10 279.70 244.40 278.00 241.10 C 276.30 237.80 273.30 235.00 269.60 234.70" fill="#6f6ace" fill-rule="nonzero" group-id="1,14" node-id="99" stroke="none" target-height="101.79999" target-width="51.600006" target-x="238.6" target-y="231.6"></path></g><g node-id="118"><path d="M 261.30 313.20 C 258.70 317.70 256.00 322.20 252.30 325.70 C 248.60 329.30 243.60 331.90 238.50 331.70 C 232.00 331.50 226.50 326.90 221.50 322.70 C 215.00 317.00 208.00 310.60 206.70 302.00 C 206.30 299.40 206.40 296.60 205.40 294.10 C 204.30 291.70 201.30 289.80 199.00 291.10 C 198.00 291.60 197.40 292.60 196.90 293.60 C 193.80 299.50 193.80 306.70 195.40 313.20 C 199.40 329.80 213.60 343.60 230.40 346.80 C 247.20 350.00 265.60 342.20 274.80 327.70 C 276.00 325.80 277.00 323.60 276.40 321.50 C 275.80 319.70 274.10 318.60 272.50 317.70 C 269.20 315.90 265.60 314.60 261.90 313.90" fill="#ffe9f9" fill-rule="nonzero" group-id="2" node-id="105" stroke="none" target-height="60.200012" target-width="83.2" target-x="193.8" target-y="289.8"></path></g><g node-id="119"><path d="M 274.10 237.90 C 273.10 233.70 267.40 232.00 263.60 234.00 C 259.80 236.00 257.80 240.50 257.50 244.90 C 257.20 249.20 258.20 253.50 258.80 257.80 C 262.40 281.40 255.00 306.60 239.20 324.50 C 246.30 328.50 254.00 331.20 262.00 332.50 C 270.50 333.90 280.10 333.50 286.80 327.90 C 288.30 326.70 289.60 325.10 290.10 323.20 C 290.40 321.80 290.20 320.40 290.10 319.10 C 287.10 296.70 284.20 274.40 281.20 252.00 C 280.70 248.40 280.20 244.60 278.60 241.40 C 277.00 238.10 273.90 235.30 270.30 235.00" fill="#6f6ace" fill-rule="nonzero" group-id="3" node-id="110" stroke="none" target-height="101.899994" target-width="51.199997" target-x="239.2" target-y="232"></path></g><path d="M 34.80 401.80 C 36.40 401.80 36.90 399.70 35.50 398.90 C 34.80 398.50 34.10 398.20 33.70 398.00 C 31.10 396.90 29.40 394.90 28.10 392.80 C 27.90 392.50 27.70 392.20 27.60 391.90 C 25.60 388.50 27.40 384.00 31.80 381.40 C 32.90 380.80 33.80 380.00 34.50 379.10 C 34.90 378.60 35.20 378.10 35.40 377.50 C 29.10 373.00 22.80 368.40 16.60 363.90 C 15.90 363.40 14.70 363.10 13.60 363.40 C 11.30 364.00 11.10 366.00 11.30 367.50 C 13.10 379.70 19.90 392.70 25.60 400.60 C 28.40 400.50 31.50 401.90 34.80 401.80 Z" fill="#404249" fill-rule="nonzero" group-id="4" node-id="115" stroke="none" target-height="38.80002" target-width="25.800001" target-x="11.1" target-y="363.1"></path></svg>